<?xml version="1.0" standalone="no"?>
<!DOCTYPE svg PUBLIC "-//W3C//DTD SVG 20010904//EN"
 "http://www.w3.org/TR/2001/REC-SVG-20010904/DTD/svg10.dtd">
<svg version="1.0" xmlns="http://www.w3.org/2000/svg"
 width="1000.000000pt" height="1000.000000pt" viewBox="0 0 1000.000000 1000.000000"
 preserveAspectRatio="xMidYMid meet">
<metadata>
Created by potrace 1.11, written by Peter Selinger 2001-2013
</metadata>
<g transform="translate(0.000000,1000.000000) scale(0.100000,-0.100000)"
fill="#000000" stroke="none">
<path d="M7100 8853 c-560 -44 -1246 -263 -1631 -521 -324 -218 -556 -526
-624 -829 -18 -83 -33 -214 -30 -268 9 -137 345 -785 1403 -2705 588 -1069
847 -1523 892 -1570 62 -63 138 -92 245 -93 183 -2 254 57 409 338 55 99 239
432 411 740 457 821 1104 2004 1320 2415 149 282 339 669 375 762 35 91 39
173 15 314 -61 345 -291 665 -654 908 -353 236 -991 444 -1539 500 -138 14
-460 19 -592 9z"/>
<path d="M2573 7236 c-54 -18 -100 -47 -140 -88 -33 -34 -149 -236 -555 -968
-127 -228 -242 -435 -256 -460 -14 -25 -113 -205 -220 -400 -107 -195 -207
-377 -222 -405 -395 -716 -663 -1222 -654 -1236 4 -8 3 -9 -5 -5 -13 9 -302
-567 -349 -696 -26 -72 -29 -93 -26 -158 21 -357 204 -683 530 -944 130 -103
236 -169 396 -245 568 -269 1237 -407 1795 -371 645 41 1376 274 1763 562 344
255 545 564 591 905 20 148 11 198 -61 358 -149 330 -498 988 -1213 2285 -104
190 -228 415 -275 500 -47 85 -178 322 -292 525 -114 204 -249 446 -301 538
-110 198 -149 246 -227 283 -69 33 -209 43 -279 20z"/>
</g>
</svg>
