<?xml version="1.0" encoding="utf-8"?>
<!-- Generator: Adobe Illustrator 16.0.0, SVG Export Plug-In . SVG Version: 6.00 Build 0)  -->
<!DOCTYPE svg PUBLIC "-//W3C//DTD SVG 1.1//EN" "http://www.w3.org/Graphics/SVG/1.1/DTD/svg11.dtd">
<svg version="1.1" id="Laag_1" xmlns="http://www.w3.org/2000/svg" xmlns:xlink="http://www.w3.org/1999/xlink" x="0px" y="0px"
	 width="32.5px" height="48.25px" viewBox="0 0 32.5 48.25" enable-background="new 0 0 32.5 48.25" xml:space="preserve">
<g id="Laag_2">
</g>
<g id="Laag_1_1_">
	<path fill="#CCCCCC" d="M19.854,45.971c0.174-0.092,0.084-0.383,0.127-0.572c0,0,0.248-1.149,0.248-1.151
		c-0.008-0.099-0.291-0.213-0.189-0.244c0.438-0.142,1.436,0.804,1.521-0.252c0.06-0.711-1.326-1.769-1.149-2.453
		c0.153-0.618,3.86-1.629,3.973-1.746c0.841-0.879,0.784-3.303,1.286-4.438c0.788-1.785,2.184-0.601,2.977-3.231
		c0.371-1.236-0.988-2.044-0.795-3.438c-0.227-0.102,0.174-0.57-0.012-0.738c-0.339-0.312-0.847-0.48-1.312-0.477
		c-0.424,0.006-0.963,0.946-1.493,0.263c-0.286-0.369-2.695-5.818-2.66-6.138c0.002-0.014,0.735-0.977,0.737-0.99
		c0.052-0.651-1.268-1.578-1.125-2.209c0.074-0.34,0.775-0.179,0.92-0.498c0.236-0.512-0.441-1.64-0.383-2.213
		c0.246-2.413,1.822-4.554,0.139-7.148c-0.729-1.127-2.686-1.089-3.119-1.467c-0.925-0.803-0.318-3.381-2.014-3.693
		c-0.742-0.139-1.8,1.585-2.552,1.476c-1.093-0.154-0.64-2.961-1.268-2.963c-0.631-0.002-1.722,2.288-2.015,2.753
		c-0.317,0.504-2.799,4.096-2.774,4.37c0.036,0.416,1.113,0.841,1.274,1.241l-0.132,0.984c-0.101,0.779-0.165,1.563-0.234,2.347
		c0.952,0.147,1.918,0.234,2.546,0.872c0.369,0.376-0.657,1.845-0.382,2.464c0.959,2.159-0.806,0.653-1.3,0.978
		c-0.176,0.114,0.819,0.833,0.729,1.234c-0.271,1.231-2.322,1.721-0.948,2.951c0.002,0.002,0.744,0.004,0.747,0.004
		c0.834,0.673-0.65,2.028-0.763,2.459c-0.165,0.638,0.206,1.662,0.358,2.216c0.045,0.162-0.074-0.243,0.376-0.241
		c0.049,0,0.516,1.936-0.41,1.69c-0.905-0.246-0.905-0.459-0.907-0.223c-0.004,0.203,0.319,0.292,0.368,0.494
		c0.19,0.77-1.363,2.373-1.339,3.188c0.029,0.901,1.333,0.777,1.682,1.242c0.101,0.135-0.054,0.913-0.194,0.984
		c-0.224,0.111-0.646-0.73-0.562-0.496c0.326,0.87,1.715,1.561,1.114,2.711c-0.506,0.971-1.291-1.619-2.259-0.998
		c-0.074,0.047,0.125,0.121,0.188,0.184c0.81,0.81,0.979,2.012,1.864,2.783c0.882,0.762,2.428,0.967,3.216,1.738
		c0.586,0.572,2.012,1.314,2.083,2.463c0.01,0.176-0.271,0.336-0.189,0.49c0,0.004,1.138,0.49,1.14,0.492
		c0.328,0.477-0.333,1.164-0.189,1.719c0.064,0.25-0.295,0.51-0.19,0.738c0.069,0.151,0.249,0.258,0.475,0.344
		c0.205-0.105,0.411-0.221,0.624-0.221C18.15,45.605,19.473,46.176,19.854,45.971"/>
</g>
<g id="Laag_3">
</g>
</svg>
