<?xml version="1.0" encoding="utf-8"?>
<!DOCTYPE svg PUBLIC "-//W3C//DTD SVG 1.1//EN" "http://www.w3.org/Graphics/SVG/1.1/DTD/svg11.dtd">
<svg version="1.1" xmlns="http://www.w3.org/2000/svg" xmlns:xlink="http://www.w3.org/1999/xlink" x="0px" y="0px" width="87px"
	 height="43px" viewBox="0 0 87 43.917" enable-background="new 0 0 87 43.917" xml:space="preserve">
<g id="Laag_2">
</g>
<g id="Laag_1">
	<path  fill="#CCCCCC" d="M75.032,31.083c0.111-0.289-0.816-0.089-0.863-0.78c-0.074-1.061,0.457-0.785,0.624-1.454
		c0.091-0.375-0.636-1.439-0.427-1.748C75,26.153,76.87,27,77.122,25.243c0.213-1.51-3.018-2.136-2.56-2.58
		c1.735-1.682,2.088-0.069,3.148,0.38c0.245,0.105,3.04-0.188,3.174-0.371c0.103-0.139-0.179-1.807-0.259-1.982
		c-0.056-0.128-0.404-0.15-0.324-0.26c0.141-0.19,0.503-0.061,0.674-0.225c0.384-0.366,0.248-1.591,0.845-2.036
		c-0.435-0.624-0.502-1.425-0.866-1.911c-0.004-0.008-0.812-0.273-0.813-0.277c-0.293-0.423-0.051-1.269-0.264-1.737
		c-0.215-0.477-0.937-0.785-1.104-1.279c-0.284-0.833,1.062-2.424,1.335-3.763c-0.014,0.04-0.029,0.071-0.043,0.112l0.104-0.541
		c0.004-0.471-0.181-0.888-0.691-1.207c-0.33-0.207-0.773,0.299-1.149,0.2c-0.758-0.194-1.236-1.675-2.223-1.571
		c-1.627,0.168-0.679,1.377-3.427,0.782c-1.97-0.432-4.756-2.479-6.911-3.345c-1.039-0.416-1.356-0.136-2.327-0.229
		c-0.671-0.064-0.85-0.659-1.63-0.841c-0.16-0.037-0.357-0.221-0.48-0.11C60.62,3.07,61.488,5.504,60.771,6.12
		c-0.225,0.199-1.182-0.502-1.447-0.339c-0.653,0.402-0.626,2.627-1.333,2.877c-0.553,0.196-1.632-1.243-2.219-1.136
		c-0.417,0.074-0.474,0.809-0.88,0.925c-0.351,0.099-3.162-0.479-3.393-0.74c-0.219-0.25,0.376-0.67,0.237-0.972
		c-0.219-0.465-1.584-1.086-2.023-1.389l-0.113,0.002c-0.032,1.12-0.381,3.278-1.146,3.608c-0.665,0.287-1.982-1.892-2.72-0.956
		c-0.704,0.892,0.116,2.293-1.079,3.128c-0.896,0.622-6.183,1.839-6.367,2.91c-0.216,1.242,2.436,2.916,2.286,4.166
		c-0.054,0.444-1.599,1.149-1.167,1.878c0.102,0.168,3.025,0.207,1.05,3.313c-0.552,0.865-1.792-0.376-2.263-0.943
		c-0.52-0.631,0.822-1.362-0.342-1.764c-0.742-0.258-1.995,0.583-2.698,0.246c-0.003,0-0.565-1.043-0.57-1.045
		c-0.17-0.112-0.404-0.04-0.605-0.056c-0.204-0.02-0.419,0.016-0.606-0.061c-0.296-0.121-0.219-0.765-0.538-0.794
		c-1.063-0.104-0.457,1.833-0.687,1.914c-0.002,0-1.268-0.024-1.27-0.024c-1.057-0.022-2.096-0.061-3.146-0.171
		c-0.207-0.021-0.414-0.041-0.621-0.064c-0.209-0.022-0.438-0.156-0.621-0.062c-0.419,0.209-0.39,0.92-0.793,1.157L24.7,21.623
		c-0.165-0.018-0.359-0.146-0.498-0.054c-0.276,0.188-0.027,0.738-0.271,0.964c-0.313,0.293-4.013,0.582-4.399,0.259l-0.056-0.998
		l-0.774-0.584c0.053-0.18,0.565-0.009,0.526-0.188c-0.344-1.597-3.955-0.079-4.388-1.257c-0.446-1.221-0.052,1.556-0.235,1.958
		c-0.566,1.25-3.263,1.896-3.257,1.843c0.065-0.517,1.144-1.17,0.679-1.406c-0.909-0.47-0.498,0.957-1.326-0.165
		c-0.151-0.204,0.25-0.461,0.256-0.714c0-0.013-1.093-1.871-1.111-1.881c-0.394-0.259-0.797,0.358-1.19,0.102
		c-0.288-0.194,0.103-0.863-0.206-1.023C8.301,18.401,7.4,19.688,6.174,19.18l-0.301,0.159c0.182,0.576,1.112,1.705,0.676,2.128
		c-2.412,2.354-1.449,0.99-2.037,3.966c-0.053,0.266-0.606,0.486-0.431,0.691c0.734,0.856,3.141,0.21,3.945,1.006l-0.262,0.713
		c0.163,0.394,1.438,1.537,1.825,1.725c1.649,0.793,2.477-1.854,3.59-1.55c1.075,0.291,0.3,1.587,0.408,1.961
		c0.016-0.059,0.041-0.107,0.055-0.168l-0.03,0.246c0.63,0.586,1.357,0.078,2.013,0.237c1.162,0.279,0.432,0.791,0.558,1.06
		c0.072,0.154,2.605,0.879,2.798,0.816c0.792-0.26,1.141-2.288,1.84-2.774c0.503-0.352,6.402,0.276,7.967-0.047
		c0.551-0.114,2.197-0.785,2.644-0.215c0.2,0.252-0.583,0.311-0.815,0.536c-0.06,0.063-0.028,1.406,0.025,1.491
		c0.232,0.378,1.286,0.477,1.439,0.883c0.145,0.392-0.545,0.89-0.287,1.215c0.141,0.177,0.476-0.043,0.673,0.064
		c0.368,0.201,0.39,1.056,0.728,1.31c2.965,2.223,8.582,2.351,12.939,3.354c1.33,0.306,2.547,0.695,3.533,1.252
		c0,0.002,0.789,0.798,0.792,0.802c0.807,0.289,1.915-0.309,2.734-0.055c0.587,0.183,0.679,1.07,1.486,0.722
		c0.447-0.196,2.077-1.051,2.481-1.444c0.314-0.309,0.246-1.193,0.604-1.445c1.896-1.345,4.594,0.908,6.433,0.386
		c0.616-0.175,0.988-1.234,1.607-1.396c0.94-0.246,2.238,0.948,3.208,0.785c0.666-0.11-0.198-2.254,1.612-2.689l0.022-0.07
		C72.44,33.298,74.52,32.393,75.032,31.083"/>
</g>
<g id="Laag_3">
</g>
</svg>
