<?xml version="1.0" encoding="utf-8"?>
<!-- Generator: Adobe Illustrator 16.0.0, SVG Export Plug-In . SVG Version: 6.00 Build 0)  -->
<!DOCTYPE svg PUBLIC "-//W3C//DTD SVG 1.1//EN" "http://www.w3.org/Graphics/SVG/1.1/DTD/svg11.dtd">
<svg version="1.1" id="Laag_1" xmlns="http://www.w3.org/2000/svg" xmlns:xlink="http://www.w3.org/1999/xlink" x="0px" y="0px"
	 width="54.667px" height="49.5px" viewBox="0 0 54.667 49.5" enable-background="new 0 0 54.667 49.5" xml:space="preserve">
<g id="Laag_2">
</g>
<g id="Laag_1_1_">
	<path fill="#CCCCCC" d="M33.263,38.65c0.389-0.939,1.104-0.448,1.645-0.959c0.231-0.217,0.422-2.879,2.414-4.646
		c1.146,0.016,1.229,0.907,2.139,1.754c1.045-1.861-2.317-4.486-0.484-4.693c0.386-0.041,0.518,0.639,0.888,0.75
		c0.358,0.112,1.239-0.174,1.615-0.229c2.667-2.701,0.594-0.669,2.394-0.964c2.321-0.385-1.922-5.75-1.941-5.899
		c-0.047-0.352,2.348,0.384,2.812,0.228c0.473-0.161,1.272-0.959,0.719-1.478c-0.672-0.631-1.666-0.783-2.295-1.742
		c-0.246-0.376-0.174-0.953-0.521-1.238c-0.785-0.655-2.526,0.099-2.457-1.753c0.087-2.301,1.47-2.715,2.337-4.668
		c0.346-0.783,0.268-2.103,0.374-2.961c-1.106-0.268-2.215,0.209-3.327,0.461c0.004,0,0.006,0,0.008,0l-0.01,0.002c0,0,0,0,0-0.002
		c-0.002,0.002-0.004,0.002-0.01,0.004v-0.002c-0.698,0.157-1.395,0.229-2.091-0.031c-0.886-0.323-0.216-2.652-2.22-3.161
		c-0.225-0.056-0.485-0.066-0.698,0.028c-0.126,0.057-0.046,0.358-0.179,0.368c-0.898,0.049-1.877-1.851-3.287-1.302l-0.019,0.74
		c-0.146,0.099-0.356,0.042-0.522-0.01c-0.397-0.13-1.323-1.091-1.717-1.033c-0.527,0.083-0.771,1.465-1.61,1.443
		c-0.888-0.025-4.697-1.831-5.686-2.148C21.18,5.396,20.664,5.99,19.96,5.701c-0.565-0.234-1.813-0.628-2.223-1.073
		c-0.12-0.128,0.014-0.465-0.156-0.5c-0.26-0.05-0.816,1.138-1.091,1.195c-1.165,0.24-2.037-1.54-3.291-0.387
		c-0.817,0.751-0.981,2.925-2.223,2.867C10.094,7.057,8.105,4.3,7.313,4.164C5.33,3.827,4.619,9.927,5.227,10.732
		c0.436,0.58,1.426,0.748,1.859,1.331c0.946,1.262,1.085,3.184,1.892,4.541c0.225,0.381,0.816,0.588,0.835,1.03
		c0.016,0.362-1.428,1.378-0.979,1.93l1.061,0.049c0.689,0.439,1.113,1.697,1.672,2.302c0.548,0.597,1.34,0.967,1.89,1.563
		c1.174,1.291,1.959,2.952,3.094,4.284c0.624,0.732,1.248,1.744,2.004,2.34c0.364,0.285,1.331,0.418,1.583,0.795
		c0.416,0.612-0.064,1.82,0.277,2.479c0.633,1.227,4.652,3.092,4.179,4.822c-0.069,0.246-1.06,0.369-1.371,0.578
		c0.24,0.072,0.823,0.259,0.62,0.387c-0.161,0.104-0.582-0.195-0.709-0.278c-0.005,0.005-0.009,0.007-0.009,0.009
		c0.078,0.076,0.297,0.25,0.555,0.436c0.786,0.113,2.154-0.18,2.329-0.102c0.565,0.241,0.943,1.578,1.399,2.01
		c0.892,0.851,2.784,2.136,3.935,2.561c0.144,0.053,0.305,0.005,0.459,0.008c0.148,0.004,0.32-0.063,0.453,0.01
		c0.242,0.131,0.42,0.402,0.558,0.729C35.843,42.264,32,41.711,33.263,38.65"/>
</g>
<g id="Laag_3">
</g>
</svg>
