<?xml version="1.0" encoding="utf-8"?>
<!DOCTYPE svg PUBLIC "-//W3C//DTD SVG 1.1//EN" "http://www.w3.org/Graphics/SVG/1.1/DTD/svg11.dtd">
<svg version="1.1" id="Laag_1" xmlns="http://www.w3.org/2000/svg" xmlns:xlink="http://www.w3.org/1999/xlink" x="0px" y="0px"
	 width="49px" height="51px" viewBox="0 0 49 51.167" enable-background="new 0 0 49 51.167" xml:space="preserve">
<g id="Laag_2">
</g>
<g id="Laag_1_1_">
</g>
<g id="Laag_3">
	<path fill="#CCCCCC" d="M41.053,30.231c-0.014-1.097-1.228-0.981-1.394-1.823c-0.07-0.349,0.54-0.543,0.582-0.896
		c0.036-0.315-1.671-2.511-1.751-2.924l0.057,0.132c-0.458-0.081-2.699-0.178-2.936-0.521c-0.43-0.624,1.451-4.184,1.834-4.912
		l0.589-0.645c-0.192-0.555-2.75-2.374-3.324-2.595c-0.211-0.083-0.451-0.029-0.677-0.043c-0.225-0.014-0.452-0.027-0.678-0.04
		c-0.224-0.014-0.508,0.107-0.676-0.043c-0.584-0.523-0.85-2.969-1.006-3.061c-0.855-0.497-1.73,1.467-2.701,0.111
		c-0.256-0.354,1.006-0.817,0.688-1.118c-0.625-0.587-2.263,1.537-2.769,0.469c-0.106-0.225,0.299-0.54,0.14-0.725
		c-0.144-0.17-0.437,0.08-0.655,0.122c-1.52,0.282-0.111,1.293-0.938,1.565c-0.334,0.112-0.86-0.366-1.282-0.53
		c-0.033,0.312-0.078,0.636-0.03,0.771c0.644,1.887-0.084-0.297-0.407-0.771c-0.824,0.333-1.827,1.519-2.931,1.608
		c-1.647,0.129-0.81-0.877-1.859-1.196c-0.311-0.095-1.616-0.693-1.902-0.581c-0.094,0.035-0.297,0.925-0.861,0.321
		c-0.444-0.474-0.368-1.265-0.254-1.809l-0.012-0.338c-2.729,0.398-6.049,2.108-8.315,2.813c-0.049,0.016-0.103,0.016-0.152,0.031
		c0.064,1.849-0.318,5.544,2.157,6.19c0.527,0.138,1.769-1.315,2.303-1.013c1.296,0.729,0.441,3.21,0.723,4.174
		c0.315,1.089,2.117,0.666,2.83,1.094c0.661,0.397-0.071,3.036,0.691,2.907c0.192-0.035,0.219-0.381,0.41-0.42
		c0.647-0.136,3.841,1.353,3.946,2.051c0.08,0.527-1.168,1.234-1.164,1.775c0,0.012,0.79,0.898,0.791,0.91
		c0.015,0.333-0.932,0.975-1.07,1.292c-0.547,1.259,4.464,1.047,4.893,0.712c0.41-0.324,1.433-2.934,2.447-1.785
		c0.047,0.053-0.686,1.254-0.746,1.359c-0.642,1.172,0.013,0.902,0.102,2.025c0.029,0.381-0.79,1.295-0.637,1.631
		c0,0.002,1.131,0.467,1.131,0.467c0.992,0.406,1.672,1.76,2.009,1.88c0.217,0.079,0.464-0.214,0.675-0.125
		c1.244,0.524-0.102,0.584-0.021,0.997c0,0.003,1.06,0.445,1.06,0.445c0.259,0.359-0.157,1.49,0.164,1.781
		c0.328,0.299,1.845-0.188,2.302-0.082c0.178,0.041,0.35,0.113,0.518,0.195l0.633-0.238c2.08,0.368-0.373-4.199,0.123-5.232
		c0.531-1.1,3.314-4.692,4.292-2.848C38.841,32.156,41.072,31.958,41.053,30.231"/>
</g>
</svg>
