<?xml version="1.0" encoding="utf-8"?>
<!DOCTYPE svg PUBLIC "-//W3C//DTD SVG 1.1//EN" "http://www.w3.org/Graphics/SVG/1.1/DTD/svg11.dtd">
<svg version="1.1" id="Laag_1" xmlns="http://www.w3.org/2000/svg" xmlns:xlink="http://www.w3.org/1999/xlink" x="0px" y="0px"
	 width="77px" height="51px" viewBox="0 0 77.75 51" enable-background="new 0 0 77.75 51" xml:space="preserve">
<g id="Laag_2">
</g>
<g id="Laag_1_1_">
	<path fill="#CCCCCC" d="M67.963,7.527c-0.605-0.279-1.254-2.227-1.74-2.182c-0.578,0.061-1.353,1.104-2.072,0.699
		c-0.416-0.232-0.383-0.994-0.826-1.16c-0.652-0.241-1.895,0.81-2.604,0.74c-0.947-0.092-1.104-1.474-1.396-1.605
		c-0.664-0.304-3.146,0.177-3.885,0.342c-2.323,0.519-6.39,1.722-8.295,3.15c-2.123,1.597-2.648,3.792-5.524,5.104
		c-2.414,1.101-4.922-0.493-7.474-0.688c-0.898-0.069-1.798-0.142-2.693-0.213c-0.225-0.018-0.447-0.037-0.674-0.053
		c-0.224-0.019-0.454-0.11-0.673-0.057c-0.624,0.154-1.101,0.94-1.729,1.084c-2.666,0.612-6.688-0.94-9.273-1.587
		c-1.996-0.501-4.782,1.772-6.681,0.075c-1.417-1.263,2.505-2.868,1.824-3.522c-0.54-0.525-2.308-1.34-3.834-2.327l0.038,0.238
		c-0.539,0.808-0.235,1.907-0.626,2.491c-0.38,0.57-1.717,0.489-2.096,1.054c-0.905,1.337,0.615,6.731,1.67,7.85
		c0.562,0.595,1.742,0.624,2.368,1.156c0.158,0.13,2.571,2.562,2.615,2.62c0.26,0.347-2.249,4.53-2.72,4.789
		c-0.939,0.512-1.812-0.735-2.699,0.663c-0.165,0.271-0.19,1.067-0.212,1.354c-0.052,0.695-0.104,1.387-0.154,2.079
		c-0.016,0.229-0.163,0.489-0.053,0.69c0.207,0.381,1.186,0.539,1.313,1.193c0.301,1.525-1.765,1.557-1.93,2.526
		c-0.067,0.385,1.583,1.774,1.856,2.062c0.963,1.031,2.087,0.923,3.03,1.728c0.955,0.809,1.733,3.097,2.543,4.101
		c0.536,0.664-0.171,0.937-0.313,1.488c-0.36,1.389,0.446,3.296-0.202,4.649c-0.052,0.104-0.107,0.199-0.174,0.297
		c-0.134,0.193,0.458-0.183,0.69-0.148c3.202,0.441,1.977-0.938,3.879-1.018c1.139-0.047,7.216-0.672,7.958-1.354l0.134-0.992
		c0.264-0.311,0.963,0.223,1.122,0.188c0.342-0.074,0.36-0.714,0.704-0.779c0.51-0.093,0.893,0.692,1.332,0.669
		c0.486-0.023,1.349-0.954,1.808-0.838c0.449,0.109,2.258,2.882,3.149,3.021c0.288,0.047,0.749-1.019,1.054-1.047
		c0.603-0.065,3.155,1.094,3.631,1.498l0.231,0.725c0.443,0.162,1.801-0.401,2.24-0.545c1.336-0.428,7.063-1.164,7.674-1.639
		c2.076-1.617-3.41-5.935,0.47-5.968c0.3-0.002,0.862,0.106,1.479,0.275c-0.714-1.688,1.381-1.156,2.1-1.796
		c0.492-0.437,0.205-1.909,0.734-2.284c0.463-0.332,1.832,0.192,2.401,0.046c0.835-0.217,1.442-1.596,2.231-1.93
		c0.151-0.062,0.328,0.029,0.496,0.041l0.987,0.074c0.237-0.07,0.259-0.57,0.507-0.539c1.154,0.155,2.059,2.021,3.211,2.25
		c1.205,0.24,2.662-0.977,3.323-1.379c0.324-0.195,1.647,0.038,2.041,0.045h0.052c-0.023-0.078-0.048-0.153-0.08-0.244
		c-0.506-1.422-2.441-2.461-3.281-3.392c-0.239-0.266,0.637-0.973,0.246-1.262c-0.57-0.425-0.916,0.019-1.006-0.896
		c-0.008-0.102,0.256-0.229,0.16-0.263c-0.578-0.198-2.117,0.067-2.387-0.022c-0.166-0.059-0.213-0.051-0.361,0.033
		c-0.225,0.127-0.383-0.503-0.25-0.718c0.248-0.411,0.842-1.435,1.698-1.399c0.146,0.008,0.283,0.318,0.384,0.213
		c0.228-0.246-0.4-0.657-0.273-0.965c0.004-0.009,1.013-0.835,1.015-0.842c0.052-0.165-0.288-0.309-0.226-0.472
		c0.354-0.943,1.539,0.437,1.93-0.81c0.391-1.272-0.803-2.882-0.607-4.28c0.066-0.444,0.814-1.504,0.527-2.031
		c-0.119-0.215-0.393-0.294-0.589-0.438c-0.362-0.271,0.926-0.262,1.205-0.617c0.597-0.758,0.039-2.152,1.187-2.598
		c0.334-0.132,1.582-0.452,1.937-0.447c0.54,0.005,1.097,0.935,1.507,0.588c0.395-0.34,1.18-2.063,1.165-2.607
		c-0.026-0.985-0.457-2.069-0.597-3.168C71.436,8.393,69.975,8.467,67.963,7.527"/>
</g>
<g id="Laag_3">
</g>
</svg>
