<?xml version="1.0" encoding="utf-8"?>
<!-- Generator: Adobe Illustrator 16.0.0, SVG Export Plug-In . SVG Version: 6.00 Build 0)  -->
<svg version="1.2" baseProfile="tiny" xmlns="http://www.w3.org/2000/svg" xmlns:xlink="http://www.w3.org/1999/xlink" x="0px"
	 y="0px" width="372px" height="320.968px" viewBox="235 124 372 320.968" xml:space="preserve">
<g id="Background">
</g>
<g id="Belarus">
	<g transform="matrix(11.8081,0,0,11.8081,11.8081,0)">
		<path vector-effect="none" fill="#CCCCCC" d="M35.205,12.046l0.061,0.091l0.208,0.231l0.095,0.133l0.061,0.065l0.065,0.023
			l0.068-0.041l0.099-0.155l0.072-0.049l0.447-0.049l0.17,0.03l0.05,0.023l0.026,0.031l0.049,0.095l0.106,0.152l0.027,0.053
			l0.03,0.125l0.015,0.129l0.034,0.11l0.075,0.068l0.231,0.064l0.068-0.015l0.008-0.125l0.08-0.083l0.189-0.083l0,0l0,0l0,0
			l0.175-0.114l0.151-0.057l0.174,0.004l0.171,0.06l0.144,0.106l0.095,0.076l0.463,0.129l0.053,0.034l0.053,0.053l0.057,0.076
			l0.03,0.049l0.011,0.041l-0.011,0.034l-0.026-0.004l-0.023-0.004l-0.023,0.011l-0.03,0.023l-0.027,0.011l-0.023,0.019
			l-0.023,0.046l-0.011,0.045l-0.015,0.133l-0.011,0.057l-0.072,0.178l-0.015,0.083l0.019,0.113l0.038,0.08l0.152,0.125l0.144,0.216
			l0.061,0.034l0.083-0.023l0.231-0.28l0.3-0.174l0.079-0.019l0.208,0.053l0.079-0.041l0.118-0.22l0.076-0.095l0.114-0.068
			l0.121-0.026l0.121,0.007l0.356,0.133l0.08-0.027l0.137-0.132l0.068-0.034l0.053,0.015l0.102,0.095l0.057,0.038l0.595,0.201
			l0.026,0.03v0.045l-0.019,0.042l-0.008,0.045l0.034,0.045l0.269,0.133l0.03,0.027l0.023,0.034l0.011,0.068l-0.008,0.049
			l-0.015,0.041v0.049l0.038,0.072l0.061,0.041l0.068,0.015l0.121-0.011l0.042,0.023l0.03,0.053l0.03,0.083l0.088,0.17l0.087,0.015
			l0.102-0.056l0.133-0.046l0.117,0.057l0.08,0.155l0.019,0.197l-0.061,0.189l0.046,0.031l0.015,0.004l-0.019,0.068l-0.08,0.06
			l-0.019,0.087l0.023,0.095l0.049,0.068l0.042,0.068v0.106l-0.038,0.064l-0.182,0.133l-0.102,0.148l-0.042,0.099l-0.008,0.098
			l0.03,0.068l0.053,0.045l0.106,0.057l0.038,0.065l0.049,0.197l0.042,0.065l0.14,0.11l0.038,0.046l0.004,0.023l-0.015,0.046
			l0.008,0.026l0.011,0.007l0.03,0.011l0.008,0.008l0.011,0.027l0.015,0.019l0.004,0.026l-0.015,0.057l-0.023,0.034l-0.008,0.038
			l0.008,0.038l0.027,0.038l0.042,0.102l0.038,0.129l-0.004,0.103l-0.076,0.022l-0.14-0.038l-0.061,0.004l-0.019,0.064l0.03,0.087
			l0.042,0.057l0.015,0.065l-0.057,0.102l-0.053,0.042l-0.182,0.038l-0.072,0.061l0.008,0.053l0.03,0.08l-0.004,0.133l-0.045,0.083
			l-0.068,0.072l-0.061,0.091l-0.015,0.144l0.023,0.083l0.045,0.034l0.125,0.046l0.462,0.341l0.045,0.083l0.012,0.095l0.068-0.011
			l0.254,0.026l0.072,0.144l0.118,0.098l-0.087,0.201l-0.152,0.242l-0.076,0.227l0.087,0.068l0.224,0.065l0.034,0.072l0.091,0.027
			l0.049,0.102l0.068,0.265l0.038,0.065l0.038,0.042l0.034,0.049l0.023,0.083l0.023,0.303l0.034,0.144l0.045,0.076l0.47,0.375
			l0.076,0.065l0.076,0.034l0.159,0.042l0.254,0.14l0.091,0.019l0.083,0.004l0.034,0.015l0.034,0.042l0.023,0.057l0.022,0.076
			l0.027,0.061l0.038,0.015l0.076-0.053l0.015-0.004l0.027,0.019l0.004,0.019v0.023l0.068,0.273l-0.015,0.042l-0.004,0.038v0.038
			L46.34,23.51l-0.034,0.114l-0.049,0.295l-0.053,0.129l-0.118,0.193l-0.027,0.125h0.129l0.258,0.087l0.633-0.167l0.068,0.015
			l0.178,0.129l0.379,0.106l0.106,0.08l0.095,0.133l0.042,0.027l0.151-0.008l0.061,0.008l0.057,0.038l0.057,0.076l0.023,0.038
			l0.008,0.038l-0.008,0.038l-0.023,0.038l-0.224,0.117l-0.023,0.022l-0.004,0.042l0.008,0.091l0.03,0.14l0.053,0.106l0.072,0.076
			l0.083,0.053l0.151,0.072l0.072,0.053l0.045,0.091l0,0l0.019,0.034l0.023,0.007l0.027-0.011l0.023-0.03l0.053-0.008l0.053,0.008
			l0.045,0.027l-0.008,0.042l-0.023,0.034l0.015,0.057l0.034,0.011l0.091-0.034h0.038l0.057,0.113l-0.045,0.368l0.038,0.159
			l-0.06,0.045l-0.049-0.004l-0.045-0.023l-0.049-0.012l-0.212,0.045l0.012,0.015l0.026,0.046l0.012,0.019l-0.08,0.045l-0.095,0.019
			l-0.095-0.011l-0.076-0.042l-0.08,0.023l-0.022,0.061l0.026,0.053l0.068,0.015l-0.03,0.098l-0.042,0.095l-0.095,0.163
			l-0.053,0.061l-0.049,0.027l-0.11,0.034l-0.098,0.087l-0.076,0.11l-0.083,0.08l-0.159-0.004l-0.015,0.019l-0.004,0.027
			l-0.007,0.019v0.011v0.023l-0.004,0.023l-0.015,0.015h-0.012l-0.026-0.008l-0.11,0.015l-0.076,0.06l-0.026,0.015l-0.102-0.004
			l-0.22-0.079l-0.087,0.011l-0.08,0.042l-0.072,0.008l-0.072-0.023l-0.155-0.091l-0.038-0.008l-0.106,0.011l-0.03-0.011l-0.05-0.08
			l-0.03-0.208l-0.042-0.087l-0.053-0.03h-0.133l-0.06-0.011l-0.182-0.072l-0.06-0.004l-0.061,0.019l-0.113,0.061l-0.072,0.004
			l-0.144-0.03h-0.144l-0.114,0.091l-0.057,0.242l0.004,0.064l0.011,0.057l0.008,0.053L44.9,27.921l-0.026,0.034l-0.076,0.015
			l-0.03,0.015l-0.152,0.239l-0.068,0.068l0.227,0.186l0.049,0.095l0.083,0.246l0.065,0.102l0.091,0.087l0.098,0.064l0.087,0.031
			l0.072,0.011l0.023,0.038l0.008,0.065l0.027,0.083l0.042,0.057l0.038,0.026l0.03,0.038l0.027,0.099v0.208l-0.068,0.099
			l-0.205,0.114l0,0l0.034,0.076l0.132,0.182l0.091,0.2l0.038,0.061l0.11,0.095l0.042,0.053l-0.015,0.049l-0.042,0.011l-0.11-0.027
			l-0.045,0.004l0.011,0.019l0.038,0.061l-0.053,0.023l-0.023,0.042l0.008,0.05l0.038,0.045l0.068,0.049l0.004,0.121l-0.019,0.148
			v0.125l0.023,0.053l0.03,0.042l0.023,0.053v0.091l-0.019,0.064l-0.019,0.061l-0.038,0.049l-0.038,0.034l0.087,0.132l0.049,0.057
			l0.053,0.042l0.053,0.019l0.106,0.019l0.049,0.027l-0.03,0.042l-0.023,0.065l-0.008,0.072l0.008,0.068l0.023,0.049l0.026,0.03
			l0.152,0.106l0.042,0.068l0.011,0.099l-0.008,0.144l-0.345,0.019l-0.527-0.102h-0.277l-0.235,0.099l-0.061,0.079l-0.045,0.099
			l-0.049,0.083l-0.068,0.03l-0.072-0.026l-0.14-0.118l-0.072-0.042l-0.117-0.015l-0.413,0.026l-0.076,0.023l-0.045,0.053
			l0.019,0.083l-0.015,0.023l-0.007,0.023l-0.008,0.023l-0.011,0.026l0.087,0.011l0.03,0.065l-0.027,0.065l-0.08,0.004l-0.019-0.027
			l-0.019-0.008l-0.019,0.008l-0.027,0.019l-0.022,0.03l-0.008,0.027v0.023v0.015l-0.03,0.042l-0.034,0.038l-0.038,0.03
			l-0.042,0.027L43.207,33.6v0.015l0.008,0.03l0.015,0.019v0.034l-0.042,0.057l-0.027,0.03l-0.027,0.012l-0.091-0.008l-0.022,0.008
			l-0.012,0.03v0.045l-0.008,0.042l-0.06,0.034l-0.019,0.03l-0.015,0.034l-0.015,0.015l-0.008,0.015L42.82,34.13l-0.019,0.034
			l-0.011,0.015v0.019l0.023,0.046l0.004,0.076l-0.065,0.06l-0.068,0.045l-0.038,0.042l0.06,0.03l0.023,0.004v0.038l-0.034,0.038
			l-0.011,0.057l-0.004,0.061l-0.019,0.046l-0.034,0.015l-0.095,0.004l-0.038,0.011l0.019,0.065l-0.034,0.102l0.019,0.068
			l-0.023,0.019l-0.023,0.038l-0.015,0.011l0.008,0.019l0.011,0.045l-0.038,0.015l-0.087,0.08v0.034l0.057,0.05l0.027,0.015v0.03
			l-0.023,0.007l-0.012,0.008l-0.011,0.011L42.355,35.4v0.03l0.034,0.045l0.099,0.03l0.049,0.026l-0.023,0.053l-0.015,0.023
			l-0.027,0.023l0.038,0.027l0.03,0.03l0.011,0.038l-0.019,0.038l0.015,0.057l0.023,0.038l0.03,0.023l0.03,0.015v0.034l-0.042-0.008
			l-0.034,0.011l-0.023,0.034l-0.008,0.061l0.011,0.057l0.023,0.011h0.03l0.038,0.027l0.015,0.03l0.03,0.136l0.015,0.027l0.023,0.03
			l0.004,0.023l-0.038,0.015l0.019,0.136l-0.083,0.087l-0.091,0.068l-0.008,0.072l-0.053,0.095l-0.007,0.011l-0.004,0.114
			l-0.015,0.03L42.4,37.006l-0.023-0.045l-0.034-0.038l-0.038-0.026l-0.042-0.012l-0.042,0.004l-0.045-0.015l-0.068-0.102
			l-0.045-0.041l-0.042-0.012H41.93l-0.045-0.015l-0.042-0.038l-0.091-0.118l-0.023-0.049l0.007-0.004l0.026-0.098l0.004-0.038
			v-0.049l-0.004-0.038l0.004-0.034l-0.019-0.034l-0.038-0.038l-0.152-0.076l-0.042-0.045l-0.113-0.155l-0.083-0.064l-0.087-0.023
			l-0.421,0.012l-0.068,0.022l-0.182,0.095h-0.038l-0.049-0.034l-0.03-0.004l-0.038,0.026l-0.05,0.091l-0.03,0.034l-0.053,0.015
			l-0.273-0.046l-0.038-0.053l-0.027-0.072l-0.049-0.087l-0.053-0.038l-0.065-0.008l-0.068,0.011l-0.061,0.023l-0.072,0.068
			l-0.042,0.065l-0.045,0.053l-0.072,0.026l-0.079,0.007l-0.042,0.023l-0.03,0.057l-0.042,0.117l-0.045,0.08h-0.061l-0.132-0.053
			l-0.068,0.023l-0.118,0.102l-0.06,0.023l-0.068-0.038l-0.038-0.087L38.6,36.15l-0.034-0.095l-0.061-0.072l-0.049-0.038
			l-0.019-0.053l0.027-0.125l-0.011-0.125l-0.034-0.08l-0.102-0.152l-0.064-0.174l-0.038-0.061l-0.072-0.045L38.02,35.1h-0.061
			l-0.061,0.023l-0.06,0.06l-0.072,0.152L37.709,35.4l-0.079,0.03h-0.186l-0.087,0.019l-0.095,0.053l-0.095,0.076l-0.083,0.102
			l-0.06,0.133l-0.008,0.08l0.008,0.182l-0.015,0.072l-0.053,0.06l-0.03-0.049l-0.023-0.091l-0.023-0.061l-0.038-0.004L36.8,36.028
			l-0.042,0.019l-0.049-0.023l-0.03-0.049l-0.019-0.068l-0.045-0.269l-0.007-0.098l-0.027-0.064l-0.08-0.031l-0.269-0.057h-0.083
			l-0.08,0.027l-0.152,0.102l-0.08,0.076L35.8,35.615L35.762,35.6l-0.019-0.038l-0.034-0.133L35.69,35.38l-0.038-0.042l-0.087-0.053
			l-0.038-0.038l-0.027-0.053l-0.004-0.045v-0.042l-0.011-0.049l-0.045-0.049l-0.061-0.004l-0.068,0.034l-0.065,0.057l-0.06,0.091
			l-0.088,0.178l-0.072,0.065l-0.057,0.023h-0.296l-0.057-0.015l-0.057-0.03l-0.182-0.197l-0.065-0.034l-0.068,0.011L34.19,35.24
			l-0.038,0.08l-0.019,0.098v0.061l0.008,0.053l0.004,0.053l-0.015,0.065l-0.015,0.03l-0.14,0.19l-0.03,0.03l-0.049,0.007
			l-0.042-0.019l-0.049-0.038l-0.042-0.045l-0.019-0.038l0.098-0.242l0.023-0.121l-0.038-0.102l-0.05-0.027l-0.17-0.004
			l-0.326-0.132l-0.106-0.004l-0.057,0.03l-0.083,0.091L32.97,35.29l-0.06,0.004l-0.178-0.03l-0.121,0.038l-0.064,0.008
			l-0.042-0.038l0.019-0.083l0.045-0.106l0.008-0.083l-0.087-0.023l-0.072,0.008l-0.061-0.008l-0.042-0.042l-0.023-0.095V34.71
			l0.008-0.102l-0.019-0.076l-0.08-0.045l-0.125-0.027l-0.265-0.012l-0.303,0.106l-0.201-0.034l-0.572-0.254l-0.663-0.022
			l-0.042-0.023l-0.038-0.053l-0.008-0.046l0.008-0.045v-0.034l-0.034-0.019l-0.701-0.03l-0.095-0.03l-0.193-0.175l-0.091-0.019
			l-0.208,0.007l-0.644-0.121l-0.254,0.049l-1-0.015l-0.508-0.136l-0.136,0.004l-0.136,0.045l-0.269,0.144l-0.845,0.136
			l-0.065-0.004l-0.186-0.045l-0.75,0.06l-0.064,0.023l-0.065,0.068l-0.11,0.163l-0.045,0.095l-0.072,0.318l-0.083,0.121
			l-0.341,0.235l-0.451,0.405l-0.121,0.019l-0.087-0.08l-0.083-0.102l-0.121-0.05l-0.076-0.008l-0.212-0.064h-0.068l-0.295,0.076
			l-0.038,0.019l-0.03,0.034l-0.038,0.065l-0.004,0.038l0.019,0.038l0.083,0.231l0.008,0.045l-0.015,0.076l-0.03,0.007l-0.027-0.023
			l-0.011-0.065l-0.042-0.027l-0.045-0.019l-0.038-0.076h0.019h0.023l-0.068-0.114l-0.026-0.068l-0.012-0.064l0.015-0.133
			l-0.004-0.046l-0.034-0.038V34.96l0.026-0.004l0.019-0.012l0.038-0.049l-0.015-0.019l-0.019-0.034l-0.011-0.03l0.011-0.015
			l0.027-0.015l-0.008-0.03l-0.015-0.03l-0.011-0.023l0.019-0.113l0.012-0.053l0.011-0.034l0.049-0.061l0.065-0.038l0.057-0.057
			l0.034-0.114l-0.057-0.076l-0.045-0.087l0.034-0.042l0.011-0.106l0.034-0.019v-0.023l-0.004-0.004h-0.004l-0.011-0.004
			l0.019-0.053v-0.159l0.019-0.091l0.057-0.136l0.038-0.061l0.045-0.034l-0.034-0.083l-0.042-0.186l-0.023-0.06l-0.004-0.057
			l-0.012-0.057l-0.038-0.027l-0.026-0.011l-0.019-0.03l-0.015-0.042l-0.019-0.038l-0.057-0.035l-0.144,0.004l-0.057-0.019
			l-0.083-0.167l0.011-0.019l0.008-0.061l-0.012-0.038l-0.049,0.049l-0.015-0.019l-0.03-0.026l-0.011-0.023l-0.042,0.049
			l-0.03-0.004l-0.026-0.026l-0.038-0.015l-0.042,0.015l-0.008-0.008l0.023-0.045v-0.03l-0.065-0.008l-0.186-0.068l-0.042-0.042
			l-0.045,0.019l-0.216-0.057l-0.068-0.046l0.023-0.087l-0.011-0.064l-0.034-0.049l-0.045-0.038h-0.007l0.14-0.288l0.057-0.087
			l0.121-0.148l0.367-0.565l0.265-0.223l0.265-0.155l0.504-0.144l0.401-0.273l0.121-0.148l0.042-0.212l-0.03-0.754l-0.008-0.038
			l-0.011-0.027l-0.011-0.03l-0.004-0.053l0.008-0.038l0.034-0.068l0.007-0.03v-0.042l-0.027-0.14v-0.03l0.008-0.06l-0.004-0.038
			l-0.034-0.072l-0.091-0.117l-0.026-0.083l0.004-0.099l0.03-0.068l0.038-0.061l0.026-0.072l0.007-0.121l-0.03-0.061L22.297,27.5
			l-0.053-0.06l-0.038-0.079l-0.023-0.072l-0.03-0.072L22.1,27.144L22.047,27l-0.121-0.473l-0.06-0.159l-0.144-0.296l-0.254-0.788
			l-0.072-0.352l-0.008-0.311l0,0l0,0l-0.072-0.106l-0.03-0.106l-0.027-0.269l-0.03-0.129l-0.042-0.117l-0.03-0.125l-0.004-0.151
			l0.102,0.027l0.269,0.163l0.053,0.019l0.045-0.004l0.148-0.065l0.189-0.026l0.053-0.038l0.045-0.019l0.023,0.004l0.053,0.03
			l0.027,0.008l0.023-0.004l0.231-0.132l0.045-0.008l0.045,0.019l0.087,0.057l0.05,0.011h0.193l0.087-0.027l0.186-0.098l0.098-0.019
			l0.095,0.034l0.083,0.102l0.053,0.148l0.034,0.049l0.057,0.012l0.102-0.004l0.095,0.031h0.11l0.11-0.057l0.345-0.311l0.152-0.087
			l0.193-0.038l0.072-0.057h0.012l0.011,0.004l0.011,0.007l0.038,0.099l0.045,0.045l0.053,0.004l0.197-0.034l0.053-0.027
			l0.038-0.087l0,0l0,0l0,0l0.008-0.14l-0.027-0.099l-0.042-0.087l-0.038-0.11l-0.015-0.08l0.004-0.015h0.019l0.027-0.034
			l0.057-0.034V22.73l-0.004-0.034v-0.038l0.011-0.03l0.102-0.064l0.14-0.015l0.136,0.019l0.239,0.091l0.137-0.023l0.133-0.083
			l0.125-0.14l0.049-0.106l0.06-0.242l0.038-0.068l0.053-0.007l0.189,0.068l0.246-0.015l0.072-0.049l0.121-0.178l0.076-0.038
			l0.038,0.008l0.019,0.019l0.015,0.03l0.212,0.292l-0.026,0.019l-0.072-0.004l-0.06,0.034l0.008,0.045l0.072,0.038l0.019,0.042
			l-0.023,0.038l-0.087,0.03l-0.023,0.038l0.023,0.091l0.068,0.065l0.08,0.041l0.269,0.046l0.068-0.004l0.03-0.019l0.049-0.068
			l0.034-0.015l0.114,0.015l0.034-0.004l0.072-0.053l0.023-0.08l0.004-0.235l0.011-0.023l0.034-0.049l0.008-0.023l-0.008-0.03
			l-0.015-0.011l-0.015-0.008l-0.011-0.015l-0.019-0.057l-0.023-0.045l-0.027-0.038l-0.03-0.034l-0.015-0.004l-0.034,0.011
			l-0.011-0.004l-0.011-0.019l-0.03-0.091l-0.008-0.05l-0.019-0.041l-0.042-0.023l-0.045,0.011l-0.182,0.095l-0.133,0.008
			l-0.065-0.027l-0.042-0.068l0.004-0.129l0.057-0.113l0.136-0.167l0.053-0.114l0.011-0.098v-0.106l0.012-0.137l0.034-0.106
			l0.046-0.061l0.185-0.11l0.057-0.061l0.042-0.08l0.015-0.102l-0.019-0.102l-0.076-0.186l-0.019-0.102l0.004-0.064l0.015-0.053
			l0.015-0.046l0.011-0.057l0.004-0.053l-0.011-0.265l0.008-0.068l0.034-0.045l0.064-0.061l0.03-0.015h0.019l0.015-0.012
			l0.015-0.041v-0.042l-0.026-0.102l-0.004-0.045l0.03-0.098l0.061-0.06l0.068-0.053l0.064-0.076l0.019-0.053l0.004-0.045
			l0.011-0.038l0.034-0.031l0.113-0.049h0.057l0.11,0.027h0.057l0.368-0.076l0.11-0.065l0.045-0.049l0.102-0.159l0.11-0.242
			l0.015-0.046l0.004-0.065L29.42,17.6l0.008-0.061l0.095-0.152l0.137-0.022l0.333,0.087h0.026l0.03-0.008l0.019-0.023l0.019-0.03
			l0.027-0.026l0.042-0.004l0.318,0.144l0.068-0.011l0.045-0.076l0.034-0.155l0.019-0.144l0.023-0.057l0.049-0.068l0.087-0.087
			l0.045-0.027l0.193-0.053l0.072-0.053l0.034-0.087l-0.027-0.091l-0.068-0.053l-0.5-0.087l-0.182,0.049l-0.053-0.004l-0.178-0.068
			l-0.045-0.034l-0.015-0.057l0.03-0.098l0.072-0.132l0.023-0.049l0.042-0.197l0.026-0.057l0.106-0.11l0.008-0.061l-0.057-0.113
			l0.015-0.129l0.061-0.098l0.072-0.087l0.057-0.091l0.03-0.117l0.008-0.14l-0.012-0.144l-0.026-0.125l0.064-0.114l0.072-0.042
			l0.08,0.008l0.159,0.064l0.068-0.004l0.242-0.125l0.061-0.072l0.174-0.318l0.174-0.212l0.072-0.045l0.39-0.049l0.121,0.019
			l0.065,0.038l0.189,0.159l0.083,0.045l0.061-0.027l0.14-0.136l0.061-0.072l0.076,0.087l0.095,0.057l0.099,0.03l0.379,0.034
			l0.083-0.011l0.026-0.083l0.027-0.113l0.023-0.254l0.083-0.239l0.299-0.197l0.098-0.174l0.011-0.129l0.095-0.098l0.205-0.159
			l0.038-0.072l0.026-0.065l0.03-0.06l0.045-0.049l0.038-0.019l0.125-0.027l0.129-0.064l0.133-0.099l0.129-0.049L35.205,12.046"/>
	</g>
</g>
<g id="copyright">
</g>
</svg>
