<?xml version="1.0" encoding="utf-8"?>
<!DOCTYPE svg PUBLIC "-//W3C//DTD SVG 1.1//EN" "http://www.w3.org/Graphics/SVG/1.1/DTD/svg11.dtd">
<svg version="1.1" id="Laag_1" xmlns="http://www.w3.org/2000/svg" xmlns:xlink="http://www.w3.org/1999/xlink" x="0px" y="0px"
	 width="56px" height="39px" viewBox="0 0 56.667 39" enable-background="new 0 0 56.667 39" xml:space="preserve">
<g id="Laag_2">
</g>
<g id="Laag_1_1_">
	<g>
		<path fill="#CCCCCC" d="M49.666,19.101c-1.113-0.304-1.941,2.342-3.59,1.549c-0.388-0.188-1.664-1.331-1.826-1.725l0.263-0.713
			c-0.804-0.796-3.21-0.149-3.945-1.006c-0.175-0.205,0.378-0.426,0.431-0.691c0.588-2.976-0.375-1.611,2.037-3.966
			c0.493-0.479-0.767-1.862-0.705-2.33l0.33,0.043c-1.146-0.475-1.891-1.945-3.045-2.395c-0.197-0.076-0.426-0.029-0.638-0.045
			c-0.211-0.014-0.423-0.029-0.636-0.045c-0.637-0.044-1.275-0.091-1.916-0.136c-0.211-0.017-0.45,0.059-0.637-0.048L35.354,6.7
			c-0.116-0.123-0.843,0.647-1.108-0.071l0.303-0.953c-0.514-0.983-1.901-0.508-2.502-0.109c-0.311,0.206-0.775,0.277-0.928,0.615
			c-0.377,0.829,2.838,0.758,2,1.282C33.115,7.469,31.966,7.3,31.964,7.3c-0.227,0.102,0.104,0.608-0.105,0.733
			c-1.225,0.733-2.002-0.789-2.896-0.921c-0.824-0.122-1.793,0.73-2.62,0.606C25.802,7.636,25.642,7.113,25.1,7.03
			c-0.664-0.104-2.206,0.584-2.015-0.062c0.068-0.223,0.485-0.193,0.571-0.411c0.106-0.271-0.636,0.297-0.862,0.116
			c-0.545,0.442-1.483,1.795-2.158,1.907c-2.168,0.366-1.8-2.459-3.964-1.636l0.044,0.758c-0.004,0.01-0.945,0.608-0.984,0.838
			c-0.107,0.654,0.787,0.362,0.95,0.406c0.181,0.05,0.416,0.144,0.458,0.323c0.032,0.146-0.207,0.216-0.308,0.326
			c-0.363,0.382-1.656,0.896-2.493,1.717c-0.602,0.591-1.124,1.482-1.607,1.983c-0.618,0.646-2.412,0.38-2.906,1.012
			c-0.434,0.558,0.139,1.866-0.248,2.461c-0.618,0.949-2.808,1.006-3.591,1.886c-0.982,1.104-0.492,4.646-1.059,5.077
			C4.151,24.329,3.845,23,3.537,24.744c-0.035,0.197-0.506,0.246-0.423,0.428c0.377,0.818,2.734-0.484,3.077-0.718
			c0.784-0.53-0.399-3.673,4.486-2.992c2.553,0.358,1.182,1.011,1.059,1.933c-0.057,0.416,0.693,0.938,0.64,1.357
			c-0.052,0.398-1.245,0.98-0.958,1.591c0.151,0.317,0.849,0.081,0.972,0.412c0.147,0.39-0.684,0.917-0.371,1.188
			c0.184,0.158,0.496-0.229,0.717-0.133c0.515,0.23,0.456,1.541,0.775,2.359c0.107,0.275,0.256,0.492,0.482,0.6
			c1.615,0.748,3.64-0.648,5.152-0.683c0.867-0.021,1.841,1.494,2.563,1.396c0.233-0.032,3.685-2.834,3.808-3.424
			c0.212-1.017-1.427-0.877-0.062-1.715c0.364-0.221,3.256-2.291,3.54-2.016c0.157,0.15-0.027,0.439-0.041,0.658
			c-0.033,0.602-0.542,2.016-0.42,2.519c0.285,1.17,3.702,3.123,3.68,3.267c-0.064,0.465-0.92,0.662-0.849,1.127l1.119,0.656
			c0.317,0.412,0.076,2.391,1.095,2.144c1.375-0.331-0.012-1.829-0.039-2.25c-0.129-1.97,3.133-3.193,3.75-4.722
			c0.17-0.426-0.006-1.401-0.006-1.867c-0.002-0.207-0.119-0.448-0.006-0.623c0.764-1.139,1.205,0.41,1.317,0.425
			c0.297,0.04,0.386-0.874,0.602-0.666c0.993,0.942-0.542,2.663,1.271,3.403c1.025,0.414,2.271-1.578,3.539-0.793
			c0.584,0.358,0.31,2.326,0.879,2.599c0.171,0.081,0.359-0.12,0.539-0.181c1.369-0.463,0.14-0.547,0.184-1.473
			c0-0.004,0.658-1.156,0.658-1.162c-0.012-0.396-2.118-2.021-0.312-3.022c1.857-1.03,1.56,2.188,3.392,1.655l0.422-0.695
			c0.229-0.967-1.058-0.78-0.833-1.59c0.255-0.916,0.867-1.674,1.138-2.674C49.964,20.688,50.74,19.392,49.666,19.101"/>
	</g>
</g>
<g id="Laag_3">
</g>
</svg>
