<?xml version="1.0" encoding="utf-8"?>
<!DOCTYPE svg PUBLIC "-//W3C//DTD SVG 1.1//EN" "http://www.w3.org/Graphics/SVG/1.1/DTD/svg11.dtd">
<svg version="1.1" id="Laag_1" xmlns="http://www.w3.org/2000/svg" xmlns:xlink="http://www.w3.org/1999/xlink" x="0px" y="0px"
	 width="35px" height="31px" viewBox="0 0 35.5 31" enable-background="new 0 0 35.5 31" xml:space="preserve">
<g id="Laag_2">
</g>
<g id="Laag_1_1_">
	<path fill="#CCCCCC" d="M29.992,7.242c-0.28,1.291-3.928,3.646-4.917,4.849c-0.196,0.239-0.369,1.174-0.591,1.342
		c-0.605,0.456-1.228-0.05-1.481,1.004c-0.519,2.112,1.817,2.124,2.509,3.635c0.064,0.141,0.076,0.38-0.057,0.465
		c-0.002,0-1.135-0.132-1.137-0.132c-0.662,0.09-0.648,0.696-1.084,0.933c-0.2,0.109-1.521-0.418-2.104-0.13
		c-1.132,0.56-0.067,1.849-0.849,2.368c-0.723,0.48-6.727,3.363-6.872,3.861c-0.047,0.152-0.011,0.342,0.078,0.479
		c0.112,0.179,0.537,0.206,0.482,0.411c-0.049,0.201-0.406,0.066-0.607,0.102c-1.377,0.223-0.284-1.158-1.458-1.244
		c-0.932-0.065-1.27,0.699-1.959,0.809c-0.75,0.12-1.486-0.584-2.186-0.639c-2.183-0.164-3.176-1.946-3.483-3.643l-0.598-0.831
		c0.116-1.254,0.899,0.015,1.295-0.014c1.188-0.093,1.077-1.67,1.724-2.242c1.248-1.103,2.712,0.146,3.882-0.374
		c1.43-0.634-0.473-3.246,0.659-3.562c0.424-0.116,0.854,0.356,1.29,0.284c1.786-0.292,4.294-0.069,6.08-0.771
		c1.897-0.742,4.266-2.048,5.953-3.259c0.399-0.285,0.586-0.942,0.935-1.157c0.39-0.242,0.962-0.144,1.358-0.492
		C27.629,8.62,29.057,6.89,29.992,7.242"/>
</g>
<g id="Laag_3">
</g>
</svg>
