<?xml version="1.0" encoding="utf-8"?>
<!-- Generator: Adobe Illustrator 16.0.0, SVG Export Plug-In . SVG Version: 6.00 Build 0)  -->
<!DOCTYPE svg PUBLIC "-//W3C//DTD SVG 1.1//EN" "http://www.w3.org/Graphics/SVG/1.1/DTD/svg11.dtd">
<svg version="1.1" id="Laag_1" xmlns="http://www.w3.org/2000/svg" xmlns:xlink="http://www.w3.org/1999/xlink" x="0px" y="0px"
	 width="75.333px" height="52.667px" viewBox="0 0 75.333 52.667" enable-background="new 0 0 75.333 52.667" xml:space="preserve">
<g id="Laag_2">
</g>
<g id="Laag_1_1_">
	<path fill="#CCCCCC" d="M24.32,40.818c0.139,0.303-0.456,0.723-0.237,0.973c0.23,0.262,3.042,0.838,3.393,0.74
		c0.406-0.117,0.463-0.852,0.88-0.926c0.587-0.107,1.666,1.332,2.219,1.137c0.707-0.25,0.68-2.476,1.333-2.877
		c0.266-0.164,1.223,0.537,1.447,0.338c0.717-0.615-0.151-3.05,0.558-3.668c0.123-0.109,0.32,0.073,0.48,0.11
		c0.78,0.183,0.959,0.776,1.63,0.841c0.971,0.094,1.288-0.188,2.327,0.229c2.154,0.867,4.941,2.914,6.911,3.346
		c2.747,0.596,1.8-0.614,3.427-0.782c0.986-0.104,1.465,1.378,2.223,1.571c0.377,0.1,0.819-0.407,1.149-0.2
		c0.511,0.319,0.694,0.735,0.69,1.207l-0.104,0.541c2.157-5.769,3.98-2.081,8.119-3.825c0.002,0,1.314-0.555,1.314-0.558
		c0.008-0.007,0.353-1.216,0.356-1.224c0.291-0.33,1.157-0.141,1.472-0.453c0.805-0.805,0.604-2.584,1.377-3.42
		c0.188-0.207,0.572-0.08,0.812-0.229c2.647-1.674,1.767-2.003,5.37-3.104c-0.426-0.412,0.088-1.758-0.288-2.224
		c-0.356-0.44-1.382-0.333-1.753-0.767c-0.572-0.664-0.115-2.363-0.746-2.968c-0.088-0.084-1.281-0.174-1.491-0.274
		c-0.595-0.281-3.022-1.987-3.237-2.041c-0.332-0.081-1.481,2.001-2.404,0.678c-0.252-0.362-0.15-0.912-0.443-1.243
		c-0.203-0.232-1.607-0.438-1.4-1.023c0.112-0.31,1.426-0.159,1.603-0.447c0.175-0.287-0.28-1.622-0.584-1.74
		c-0.252-0.096-0.091,0.631-0.343,0.729c-0.287,0.112-2.783-0.134-2.998-0.339c-0.118-0.112,0.111-0.358,0.019-0.49
		c-0.038-0.053-4.169-1.907-4.36-1.882c-0.58,0.08,1.433,2.761,1.308,3.004c-0.188,0.371-1.735,0.4-2.086,0.66
		c-0.005,0.002-0.839,1.193-0.845,1.195c-0.152,0.072-0.314-0.122-0.469-0.186c-1.611-0.628-1.234-2.307-2.515-3.329
		c-0.304-0.238-1.616-1.015-1.718-1.37c-0.293-1.046,4.17-1.55,1.416-3.381c-1.027-0.684-2.383,1.179-3.176,0.589
		c0-0.002-0.097-1.236-0.097-1.236c-0.206-0.3-1.188,0.23-1.269,0.183c-0.002-0.002-0.403-1.252-0.406-1.252
		c-0.903-0.862-3.168-0.43-4.604-1.98c-0.77-0.831,0.198-1.864-1.272-2.289c-3.149-0.912,0.248,2.2-3.201,2.012
		c-0.201,0.423-0.358,0.702-0.416,0.716c-1.755,0.404-1.167-1.303-1.311-1.564l-0.777-0.052c-0.277-0.693,0.818-1.396-0.823-1.779
		c-0.205-0.05-0.42,0.08-0.632,0.12c-2.178,0.411,0.597,1.047-0.126,1.798c-0.333,0.349-1.569,0.572-2.03,0.739
		c-0.836,0.304-2.041,0.282-2.785,0.633c0,0-0.362,0.709-0.367,0.711c-0.789,0.32-2.083-0.366-2.835,0.025
		c-0.476,0.243-0.584,1.455-1.08,1.636c-0.002,0.002-0.742-0.552-0.746-0.552c-0.826,0.073-1.688,1.607-2.046,1.802
		c-0.21,0.11-0.472-0.043-0.708-0.063c-0.235-0.02-0.502-0.182-0.707-0.06c-0.364,0.211-0.094,0.93-0.422,1.197
		c-0.539,0.443-1.56-0.652-1.998-0.673c-0.892-0.04-3.648,1.295-4.166,2.086c-0.142,0.215-0.201,1.794-0.93,1.393
		c-0.002-0.002-0.039-1.24-0.039-1.24c-0.295-0.519-1.509-0.85-1.6,0.092c-0.053,0.534,2.253,3.96,2.784,4.224
		c0.189,0.093,0.536-0.13,0.634,0.058c0.09,0.175-0.365,0.266-0.363,0.463c0,0.003,0.745,0.561,0.745,0.563
		c0.095,1.02-1.394,1.371-1.636,2.07l0.384,1.026c0.646,1.229,0.964,2.999,1.714,4.116c0.834,1.24,2.49,1.295,3.357,2.278
		c0.67,0.76,0.732,2.13,1.377,2.837c0.463,0.506,1.438,0.609,1.858,1.146c0.185,0.236-0.077,1.65,0.852,1.553
		c0.171-0.02,0.03-0.439,0.198-0.479c0.588-0.127,2.62,2.282,2.707,2.934c0.014,0.115,0.014,0.3,0.01,0.505l0.113-0.002
		C22.736,39.732,24.102,40.354,24.32,40.818"/>
</g>
<g id="Laag_3">
</g>
</svg>
