<?xml version="1.0" encoding="utf-8"?>
<!DOCTYPE svg PUBLIC "-//W3C//DTD SVG 1.1//EN" "http://www.w3.org/Graphics/SVG/1.1/DTD/svg11.dtd">
<svg version="1.1" id="Laag_1" xmlns="http://www.w3.org/2000/svg" xmlns:xlink="http://www.w3.org/1999/xlink" x="0px" y="0px"
	 width="804px" height="1024px" viewBox="0 0 804.08 1024" enable-background="new 0 0 804.08 1024" xml:space="preserve">
<path fill="#CCCCCC" d="M294.006,962.926c2.738,1.419-0.725,7.344,1.826,9.062c3.484,2.277,7.059-3.188,10.543-0.896
	c0.161,0.085,9.84,16.549,9.84,16.659c-0.055,2.239-3.606,4.517-2.268,6.325c7.336,9.938,3.699-2.699,11.749,1.46
	c4.122,2.093-5.438,7.882-6.012,12.456c-0.056,0.464,23.83-5.25,28.848-16.325c1.626-3.562-1.869-28.155,2.084-17.343
	c3.831,10.432,35.818-3.01,38.863,11.133c0.348,1.587-4.193,0.069-4.663,1.661l6.86,5.177l0.492,8.835
	c3.425,2.867,36.2,0.306,38.968-2.289c2.161-1.996-0.045-6.879,2.404-8.539c1.229-0.812,2.948,0.321,4.411,0.475l8.806,0.953
	c3.59-2.103,3.33-8.397,7.041-10.253c1.625-0.837,3.65,0.349,5.501,0.549c1.833,0.205,3.669,0.379,5.5,0.569
	c9.308,0.98,18.512,1.317,27.87,1.513c0.02,0,11.229,0.216,11.246,0.216c2.032-0.716-3.329-17.875,6.08-16.953
	c2.828,0.259,2.145,5.963,4.766,7.033c1.66,0.674,3.562,0.363,5.371,0.537c1.782,0.137,3.859-0.501,5.363,0.496
	c0.044,0.016,5.027,9.251,5.054,9.251c6.226,2.983,17.324-4.459,23.898-2.177c10.312,3.554-1.573,10.031,3.029,15.62
	c4.166,5.022,15.152,16.02,20.039,8.354c17.499-27.513-8.397-27.86-9.3-29.346c-3.821-6.454,9.86-12.701,10.338-16.637
	c1.323-11.07-22.162-25.896-20.25-36.898c1.636-9.488,48.458-20.269,56.397-25.777c10.589-7.396,3.32-19.808,9.56-27.705
	c6.529-8.286,18.197,11.011,24.089,8.469c8.063-3.46,10.924-29.8,10.068-36.434c-0.771-5.761-18.77-27.109-23.979-25.976
	c-1.485,0.329-0.241,4.056-1.754,4.23c-8.227,0.872-5.91-11.661-7.544-13.754c-3.728-4.741-12.359-5.666-16.461-10.146
	c-5.709-6.262-6.262-18.398-12.195-25.128c-7.682-8.719-22.352-9.194-29.739-20.18c-6.642-9.905-9.463-25.569-15.18-36.459
	l-3.4-9.091c2.146-6.192,15.33-9.309,14.489-18.339c0-0.024-6.601-4.965-6.601-4.99c-0.016-1.746,4.015-2.551,3.219-4.101
	c-0.864-1.659-3.936,0.312-5.614-0.51c-4.705-2.335-25.127-32.679-24.66-37.41c0.804-8.338,11.555-5.407,14.17-0.813
	c0,0,0.327,10.97,0.345,10.985c6.453,3.555,6.979-10.432,8.234-12.333c4.583-7.008,29.002-18.832,36.901-18.477
	c3.882,0.182,12.923,9.886,17.695,5.959c2.909-2.37,0.513-8.737,3.738-10.604c1.816-1.081,4.179,0.354,6.263,0.527
	c2.093,0.173,4.409,1.531,6.271,0.554c3.174-1.722,10.804-15.311,18.12-15.959c0.035,0,6.593,4.904,6.608,4.888
	c4.397-1.602,5.355-12.336,9.568-14.489c6.661-3.468,18.12,2.613,25.11-0.226c0.043-0.018,3.252-6.297,3.252-6.297
	c6.59-3.105,17.265-2.915,24.669-5.604c4.083-1.479,15.034-3.459,17.984-6.548c6.399-6.651-18.173-12.284,1.115-15.925
	c1.877-0.354,3.779-1.505,5.596-1.063c14.541,3.4,4.837,9.618,7.293,15.76l6.884,0.458c1.271,2.319-3.935,17.438,11.608,13.857
	c2.465-0.57,23.13-51.526,23.008-57.408c-0.068-5.908-4.254-24.143-7.817-28.786c-3.116-4.126-13.582-5.183-15.846-9.749
	c-1.565-3.245,4.287-11.331,3.744-14.999c-1.064-7.129-10.113-13.2-10.951-20.311c-1.047-9.16,18.501-20.042,15.698-31.606
	c-0.016-0.086-5.104-4.62-5.121-4.688c-1.106-5.216,3.954-12.127,2.493-17.23c-2.311-8.245-14.758-12.188-13.347-22.638
	c0.925-6.625,9.963-14.506,9.523-21.097c-1.168-16.729-33.009-23.701-37.6-37.394c-5.019-14.912,12.904-19.237,19.27-26.84
	c2.769-3.287,9.595-23.034,9.897-27.519c0.588-8.369-6.55-36.053-10.478-58.149c-2.274,1.397-4.298,2.443-3.935,0.779
	c0.432-2.007,2.612-5.284,2.861-7.146c-0.033-0.337-0.11-0.696-0.155-1.041c-0.182-0.178-0.405-0.316-0.77-0.333
	c-1.952-0.144-2.3,4.263-4.254,4.018c-20.285-2.457-25.432-19.182-24.542-23.875c0.478-2.625-2.578-10.712-3.432-13.411
	c-1.082-3.495-5.562-19.12-5.659-19.389c-0.292-0.783-2.854,1.073-5.345,1.761c-3.822,1.02-9.03-1.609-11.807,1.194
	c-1.08,1.081,2.147,3.537,0.934,4.424c-3.625,2.525-3.269-8.831-6.892-11.396c-8.557-6.094-22.396-12.103-21.055-27.741
	c0.224-2.702-4.845-4.104-4.412-9.048c0.139-1.323-17.542,9.303-17.679,9.259c-1.565-0.587-1.004-3.33-2.172-4.519
	c-6.35-6.323-25.491,14.977-32.533,14.302c-4.349-0.41,8.477-17.473,9.568-18.224c4.772-3.252,37.765-0.438,32.712-3.862
	c-1.755-1.208-4.289-0.376-6.435-0.571c-5.561-0.493-11.125-1.004-16.713-1.519c-2.229-0.216-2.473-4.792-4.712-4.771
	c-3.937,0.043-12.966,19.381-16.373,22.26c-5.392,4.551-18.322,4.93-20.812,13.149c-1.055,3.484,3.556,9.423,0.231,10.867
	c-4.064,1.752-1.305-10.825-1.528-11.001c-1.247-0.952-29.118,0.462-31.419,1.162c-6.114,1.817-21.104,30.262-21.519,30.284
	c-0.036,0-8.374-7.417-8.4-7.417c-1.099-0.286-1.702,1.623-2.827,1.864c-1.256,0.273-3.332,0.762-3.886-0.419
	c-1.877-4.074,0.425-8.459-3.995-11.301c-6.65-4.286-18.068,8.373-22.966,6.12c-32.826-15.189,15.174-23.605,19.117-30.422
	c4.55-7.828-2.863-12.715,5.207-23.298c9.273-12.219-20.795,5.687-29.488,7.507c-2.24,0.472-23.258-20.089-31.348-21.063
	c-10.178-1.236-9.071,8.824-15.941,13.257c-0.086,0.043,6.211-18.381,6.211-18.788c0.019-6.547-23.614,0.523-25.878-1.056
	c-5.91-4.146,12.663-8.12,14.41-11.218c2.751-4.839,0.075-26.594-3.895-30.871c-0.762-0.817-1.331-3.054-2.282-2.46
	c-1.911,1.241,1.643,6.716-3.355,6.089c-3.244-0.412-7.648-6.348-10.622-7.871l-9.87-3.448c-0.979-1.911-6.028,1.376-10.432,0.792
	c-0.32-0.048,0.268-0.978,1.314-2.344c-0.326,0.095-0.682,0.229-1.046,0.22c-12.855-0.355-26.477-13.433-39.131-16.162
	c-4.151-0.909-14.446-1.146-20.98-2.989c-1.073,3.94-1.808,7.145-1.726,8.482c0.524,12.62,5.548,12.213,11.255,21.145
	c1.591,2.53,2.316,6.067,1.339,8.888c-0.372,1.073-3.746,1.111-2.844,1.785c5.475,4.14,11.85,5.091,13.525,14.933
	c2.509,15.069-26.339,6.151-31.191,8.685c-2.457,1.285,5.952,4.983,4.209,7.136c-1.703,2.081-6.302-1.05-7.984,1.039
	c-6.56,8.083,20.539,10.677,27.874,6.085c2.146-1.315-2.612,4.515-4.723,5.895c-4.219,2.724-8.756,2.599-9.201,9.6
	c-0.841,13.206,7.851,1.454,13.667,14.952c7.289,17.031-21.15-10.964-11.406,15.863c4.002,11.016,16.249,9.386,26.785,14.343
	c0.535,0,1.046,0.091,1.486,0.41c0.356,0.251,0.607,0.681,0.925,0.97c0.892,0.548,1.843,1.02,2.673,1.712
	c8.886,7.08,9.49,23.073,14.224,32.371c3.995,7.872,16.57,6.92,19.452,13.408c1.186,2.643-15.942-4.09-20.017-9.121
	c-7.241-8.939-7.829-30.642-16.332-38.37c-0.785-0.481-1.58-0.995-2.411-1.38c-1.206-0.043-2.57,0.428-3.773,0.436
	c-1.781,0-3.521,0-5.292,0c-9.723,0.021-13.495,1.073-23.69-0.345c-7.269-1.035-12.573-13.568-18.492-9.151
	c-3.653,2.715-10.968,17.683-12.433,22.208c-2.765,8.49,4.861,14.791,3.408,22.316c0,0.032-6.423,7.811-6.431,7.811l-1.442,9.991
	c-5.764-0.831,5.728-16.966,6.585-17.971c0.967-1.209-2.768-1.375-4.144-2.058c-7.826-3.888-5.39-5.912-9.908-10.903
	c-5.575-6.149-13.691,9.092-10.991,11.496c1.626,1.465,5.851-1.138,6.51,0.952c1.162,3.681-2.907,10.527-5.791,12.27
	c-1.191,0.705-3.746,3.08-5.538,1.367c-0.918-0.882-0.98-2.348-1.479-3.507c-0.904-2.115-13.25-4.584-7.041-10.881
	c2.417-2.447,8.732,2.314,8.456-3.109c-0.316-5.705-5.445-7.585-7.193-14.185c-0.744-2.826,1.605-6.323-0.019-8.746
	c-3.403-5.121-78.636-9.752-76.559,5.531c0.303,2.263,5.499,3.084,4.507,5.112c-0.828,1.653-23.862,12.742-11.964,24.358
	c0.672,0.653,1.985,1.188,3.55,1.661c1.892,0.091,3.69,0.273,5.261,1.219c3.037,0.577,6.022,1.004,7.551,1.406
	c14.081,3.662,1.548-2.076-3.729,8.703c-0.137,0.259-0.343,0.28-0.487,0.479c-1.03,15.543-13.34,42.328-18.187,48.595
	c-2.604,3.339-7.248,27.247-9.887,27.48c-6.278,0.563-13.139-5.342-19.457-5.397c-12.525-0.121-0.796,5.103-3.11,10.475
	c-0.888,2.051-13.144,0.898-7.077,9.8c1.177,1.727,16.873,10.061,18.832,9.723c1.674-0.295,1.74-4.403,3.343-3.85
	c7.859,2.771,3.698,26.252,0.438,30.836c-7.028,9.922-23.19,10.139-31.555,16.799c-7.167,5.699,21.074,13.96-0.896,21.866
	c-3.671,1.306-25.997,4.411-29.607,3.796c-5.813-1.012-10.146-10.561-15.946-11.573c-2.639-0.45-5.782,5.804-6.604,6.202
	c-1.643,0.769-3.664-0.156-5.48-0.233c-1.825-0.078-4.144-1.488-5.487-0.233c-9.092,8.511,19.959,43.456,9.717,63.463
	c-3.271,6.393-13.062,10.475-15.562,17.17c-0.874,2.335,8.619,17.023-13.653,21.884c-2.371,0.511-4.417-4.67-6.428-3.348
	c-9.96,6.557,19.666,7.942,13.563,26.694c-0.021,0.077-9.675,7.066-9.705,7.126c-0.74,1.808,0.744,3.823,1.093,5.752
	c0.719,3.659,15.831,23.104,15.511,25.898c-0.373,3.122-5.77,4.843-5.152,7.931c1.475,7.447,12.227,6.436,12.349,16.149
	c0.182,15.293-19.588,17.05-27.096,31.165c0.203,0.398,0.449,0.658,0.631,1.091l-0.74-0.918c-2.327,4.499-3.426,10.268-2.263,18.087
	c3.313,22.058,25.843,25.786,27.969,29.15c9.823,15.647-30.335,27.541-20.3,42.989c0.013,0.017,10.865,4.065,10.886,4.083
	c4.978,3.978,7.854,29.15,17.809,40.593c3.287,3.772,12.923-12.101,21.568,1.334l-1.41,8.614c6.691,4.861,33.579-6.928,39.257-0.337
	c2.568,2.95,0.216,8.32,2.568,11.443c12.629,16.737,41.57,4.316,54.525,23.743c3.753,5.624-37.433,34.756-41.42,42.342
	c-5.328,10.153-4.442,22.817-9.589,33.889c-3.767,8.054-12.347,13.918-16.654,21.711c-4.936,8.962-2.67,11.945-1.571,19.671
	c1.679,11.842-14.061,27.568-15.117,39.669c-0.133,1.539,2.647,12.911,3.794,13.855c2.007,1.601,8.576-3.427,7.637-1.027
	c-0.762,1.927-4.455,1.668-5.056,3.639c-1.687,5.711,11.972-0.37,17.85,0.538c4.805,0.736,6.218,5.372,11.015,6.107
	c7.309,1.098,15.894-6.455,23.195-5.371c7.926,1.168,14.821,14.651,25.659,8.155c1.869-1.107-1.064-5.596,0.944-6.495
	c0.016,0,10.179,1.495,10.201,1.46c7.427-4.644-21.039-4.011-17.71-11.357c1.355-2.992,5.475-3.624,8.221-5.448
	c5.322-3.529,17.621-7.741,22.173,0.971l-2.697,8.439c2.359,6.368,8.798-0.459,9.826,0.632l3.854,7.915
	c1.647,0.941,3.777,0.278,5.643,0.425c5.662,0.396,11.315,0.812,16.958,1.202c1.888,0.137,3.764,0.277,5.633,0.398
	c1.879,0.137,3.9-0.277,5.651,0.398c10.224,3.978,16.824,17.007,26.972,21.208C284.723,973.634,292.702,962.242,294.006,962.926"/>
</svg>
