<?xml version="1.0" encoding="utf-8"?>
<!-- Generator: Adobe Illustrator 16.0.0, SVG Export Plug-In . SVG Version: 6.00 Build 0)  -->
<!DOCTYPE svg PUBLIC "-//W3C//DTD SVG 1.1//EN" "http://www.w3.org/Graphics/SVG/1.1/DTD/svg11.dtd">
<svg version="1.1" id="Laag_1" xmlns="http://www.w3.org/2000/svg" xmlns:xlink="http://www.w3.org/1999/xlink" x="0px" y="0px"
	 width="46.75px" height="55.5px" viewBox="0 0 46.75 55.5" enable-background="new 0 0 46.75 55.5" xml:space="preserve">
<g id="Laag_2">
</g>
<g id="Laag_1_1_">
	<g>
		<path fill="#CCCCCC" d="M8.7,38.477c0.175,0.117,0.364,0.232,0.425,0.09C9.064,38.432,8.905,38.424,8.7,38.477"/>
		<path fill="#CCCCCC" d="M7.523,37.604C6.145,40.02,7.835,38.699,8.7,38.477c-0.071-0.047-0.14-0.092-0.197-0.121
			C8.245,38.227,8.053,36.675,7.523,37.604"/>
		<path fill="#CCCCCC" d="M11.424,16.418c-0.355-0.219-1.589,0.047-1.236-0.179c1.35-0.868-0.209-0.202,0.652-1.61
			c0.093-0.148,1.725-1.846,1.951-1.908c0.611-0.17,0.631,0.549,1.162-0.323c0.088-0.144-0.21-0.405-0.068-0.495
			c0.006-0.006,2.365,0.872,2.66-0.118c0.061-0.201-0.23-0.354-0.343-0.532c-1.161-1.795,0.895,1.266,1.204,1.377
			c0.001,0,1.225-0.32,1.225-0.32c0.896-0.236,2.195,0.207,3.003-0.092c0.259-0.098,0.226-0.699,0.503-0.664
			c0.433,0.057,0.646,0.811,1.276,0.891c-0.103,0.067,0.181-0.221,0.302-0.205c0.018,0.001,0.033,0.016,0.049,0.02
			c0.804-0.295,0.791,0.847,1.582,1.396c0.07,0.048,0.143,0.066,0.215,0.089c0.057,0.007,0.104,0.022,0.154,0.035
			c1.562,0.104,3.439-5.173,3.271-6.222c-0.07-0.436-0.686-0.857-0.809-1.305c-0.041-0.156-0.007-0.322-0.011-0.484
			c-0.017-0.752,1.707-2.283,1.326-2.498c-0.568-0.318-2.025,1.445-2.524,1.629c-0.781,0.287-1.867-0.16-2.628,0.158
			c-2.432,1.018-2.625,4.619-5.251,5.374c-1.114,0.32-2.102-0.387-3.135-0.423c-0.764-0.028-1.517,0.69-2.315,0.647
			c-0.465-0.025-0.87-0.521-1.329-0.433c-0.749,0.145-3.496,3.746-3.598,4.586c-0.031,0.243-0.212,0.699,0.032,0.735
			c0.274,0.04,0.335-0.866,0.515-0.656c0.014,0.017,1.303,2.366,1.443,2.646c0.055,0.111,0.124,0.311,0.24,0.278
			C11.169,17.748,11.62,16.538,11.424,16.418"/>
		<path fill="#CCCCCC" d="M25.715,13.776c-0.051-0.013-0.099-0.028-0.154-0.035C25.613,13.756,25.662,13.772,25.715,13.776"/>
		<path fill="#CCCCCC" d="M20.206,13.32c-0.049,0.051-0.093,0.102-0.125,0.149C19.661,14.117,20.029,13.69,20.206,13.32"/>
		<path fill="#CCCCCC" d="M23.414,12.443c0.133-0.092,0.247-0.146,0.351-0.186c-0.016-0.004-0.031-0.019-0.049-0.02
			C23.594,12.223,23.311,12.511,23.414,12.443"/>
		<path fill="#CCCCCC" d="M25.083,19.81c0.153-0.099,0.308-0.193,0.446-0.292C25.375,19.514,25.223,19.627,25.083,19.81"/>
		<path fill="#CCCCCC" d="M15.065,44.037c0.041,0.002,0.081-0.014,0.118-0.023c0.378-0.492,1.327-1.502,1.536-1.475
			c0.167,0.021-0.138,0.309-0.207,0.463c-0.101,0.227-0.09,0.536,0.051,0.741c0.194,0.286,0.761-0.368,0.777-0.39
			c0.118-0.151,0.518-0.261,0.491-0.428c-0.061-0.376-1.139-2.105-1.321-2.13c-0.286-0.037-1.031,0.361-0.853,0.136
			c0.613-0.781,0.141-1.246,0.33-1.673c0.352-0.795,1.832,0.371,2.005-0.961c0.043-0.338-0.545-0.481-0.617-0.813
			c-0.1-0.465,0.041-1.492-0.033-1.961c-0.054-0.34,0.932-0.321,0.801-0.629c-0.09-0.207-1.52-0.517-1.351-0.664
			c0.493-0.432,3.032-0.125,3.183-1.299c0.018-0.142-0.741-0.015-0.848-0.107c-0.775-0.689-0.549-0.676-1.533-1.42
			c-0.137-0.104,0.339-0.038,0.506-0.057c0.747-0.082,0.727,0.357,1.348,0.663c1.025,0.503,2.201-0.252,2.6-0.771
			c0.234-0.305,0.299-0.875-0.639-1.178c-0.313-0.101-1.171-0.349-0.866-0.476c0.306-0.126,2.099-0.366,2.274,0.041
			c0.085,0.196,0.261,0.722,0.362,0.531c0.223-0.414,1.245-2.035,1.163-2.536c-0.023-0.14-0.396,0.087-0.418-0.052
			c-0.142-0.858,0.488-3.574,1.859-3.669c0.947-0.065,0.43,1.035,0.135,1.231c-0.104,0.07-0.129-0.257-0.25-0.272
			c-0.201-0.024-0.464,0.011-0.586,0.173c-0.873,1.155,1.191,0.312,1.337,0.646c0.075,0.172-0.315,0.262-0.337,0.447
			c-0.023,0.185,0.098,0.376,0.223,0.514c0.348,0.377,0.305-1.42,0.758-1.615c0.957-0.407,0.713,2.317,1.1,0.859
			c0.043-0.155,0.041-0.333,0.128-0.473c0.401-0.648,1.438-1.047,1.752-1.74c1.668-3.712-1.61-2.395-3.33-2.818
			c-0.571-0.143-0.696-1.217-1.103-1.348c-0.026-0.009-0.053,0.01-0.08,0.01c-0.139,0.099-0.291,0.193-0.445,0.292
			c-0.412,0.532-0.736,1.538-0.784,1.239c-0.1-0.623,0.33-0.949,0.784-1.239c0.141-0.183,0.292-0.296,0.445-0.292
			c0.187-0.134,0.341-0.277,0.416-0.455c0.312-0.736-1.538-1.358-1.512-1.397c0.297-0.393,1.405,0.813,1.517,0.185
			c0.097-0.525-0.489-1.219-0.482-1.758c0.007-0.551,0.703-1.603,0.535-2.117c-0.039-0.121-0.155-0.17-0.287-0.198
			c-0.054-0.004-0.103-0.021-0.153-0.035c-0.174-0.024-0.359-0.038-0.49-0.123c-0.336-0.22-0.92-1.235-1.307-1.36
			c-0.104,0.039-0.218,0.094-0.351,0.186c0.482,0.061-0.983,0.117-1.469,0.055c-0.413-0.053-1.33,0.387-1.739,0.822
			c-0.177,0.37-0.545,0.797-0.125,0.149c0.032-0.048,0.076-0.099,0.125-0.149c0.057-0.123,0.096-0.24,0.074-0.309
			c-0.124-0.4-1.816-0.473-2.189-0.289c-0.793,0.388-2.119,2.124-1.516,2.953c0.119,0.162,0.497,0.112,0.519,0.313
			c0,0.001-0.849,1.099-0.849,1.101c-0.125,0.557,0.676-0.606,1.133-0.092c0.443,0.504-0.555,1.438-0.363,1.655
			c0.164,0.185,1.156-0.188,0.767,0.589c-0.684,1.357-0.756-1.561-1.74-1.693c-0.026-0.004-0.636,1.506-0.853,1.1
			c-0.256-0.481,2.068-3.365,0.354-3.6c-2.188-0.301-1.366,1.314-1.469,1.499c-0.155,0.283-1.775,0.575-1.924,0.704
			c-0.223,0.194,1.119,2.566-0.442,2.129c-0.537-0.151-0.595-1.617-0.763-1.571c-0.18,0.05-0.162,0.403-0.344,0.438
			c-0.174,0.032-1.806-0.715-2.24-1.057c-0.435-0.346,0.529-2.021-0.235-1.255c-0.495,0.493-1.111,2.329-0.95,2.979
			c0.117,0.476,1.386,1.231,0.902,1.159c-0.125-0.018-0.908-0.828-0.589,0.156c0.136,0.424,1.066,0.441,1.002,0.881
			c-0.16,1.092-1.482-0.777-1.592-0.725c-0.192,0.096-0.032,0.431-0.048,0.646c-0.017,0.215-0.031,0.43-0.049,0.645
			c-0.017,0.215-0.009,0.432-0.048,0.643c-0.17,0.924-1.021,2.367-0.638,3.326c0.211,0.526-0.172-1.578,0.389-1.652
			c1.031-0.137,1.995,2.525,1.81,3.199c-0.114,0.415-1.552,1.275-1.995,0.93c-0.098-0.077,0.082-0.232,0.123-0.35
			c0.178-0.508,0.079-1.209-0.014-1.347c-0.049-0.07-0.239,1.921-0.272,2.405c-0.059,0.854-1.373,2.312-1.251,2.996
			c0.001,0.002,0.915,0.626,0.915,0.626c0.001,0.001,0.881,0.864,0.882,0.864c0.166-0.029,0.013-0.354-0.072-0.5
			c-0.16-0.28-0.829-0.891-0.105-1.239c0.373-0.183,0.535,1.729,1.13,2.124c0.002,0.002,1.266,0.182,1.271,0.184
			c0.758,0.318,0.406,4.191,0.2,4.682c0.096,0.213-0.521,2.093-0.847,3.31c0.738,0.209,1.9,0.235,2.369,0.338
			C12.076,42.521,13.614,43.998,15.065,44.037"/>
		<path fill="#CCCCCC" d="M31.895,9.825c0.483,0.054,0.604,0.069,1.088,0.123C36.277,10.316,27.794,12.055,31.895,9.825"/>
		<path fill="#CCCCCC" d="M26.497,28.611c0.106,0.422,0.803,3.727-0.34,2.885c-1.166-0.86,0.926-1.518,0.534-2.131
			C26.665,29.322,25.671,27.715,26.497,28.611"/>
		<path fill="#CCCCCC" d="M43.331,28.934c1.248,0.879-0.418,1.414-0.507,2.381c-0.135,1.414,1.277,2.216,0.084,3.655
			c-0.887,1.065-3.312,0.329-3.51,2.341c-0.131,1.301,2.547,1.312,2.162,2.888c-0.336,1.36-2.76-0.136-3.277,1.146
			c-0.092,0.225-0.514,0.068-0.598,0.187c-0.479,0.651,0.941,0.644,1.073,0.837c0.267,0.396-0.442,0.82-0.468,1.053
			c-0.021,0.232,0.359,0.411,0.3,0.639c-0.217,0.82-3.716-0.707-3.722-1.106c-0.003-0.208,0.506,0.078,0.611-0.101
			c0.309-0.517-1.402-0.731-0.143-0.949c0.146-0.026-0.283-0.129-0.393-0.405c-0.086-0.229,0.179-0.505,0.076-0.728
			c-0.053-0.112-0.207,0.144-0.311,0.213c-0.865,0.588-1.962-1.354-3.111-0.575c-0.121,0.079-0.34,0.065-0.43-0.046
			c-0.689-0.873,0.021-0.622-0.062-0.739c-0.232-0.328-0.609-0.642-0.605-1.042c0.002-0.188-0.691,0.218-0.514-0.546
			c0.092-0.401,0.89-0.243,1.072-0.612c0.254-0.513-0.595-1.495-0.806-1.796c-0.282-0.403,0.899-0.134,0.675-0.899
			c-0.3-1.009-1.8-1.179-1.703-1.41c0.084-0.195,0.424,0.049,0.635,0.072c0.212,0.022,0.555,0.268,0.637,0.069
			c0.212-0.508-0.979-0.563-1.316-1c-0.385-0.494,1.25-0.224,1.873-0.155c0.123,0.016,0.328,0.172,0.256,0.272
			c-0.086,0.112,1.224,0.237,1.742-0.298c0.117-0.119,0.2-0.299,0.192-0.465c-0.009-0.188-0.341-0.36-0.229-0.513
			c0.226-0.304,0.84,0.367,1.127,0.12c1.104-0.953-0.156-1.535-0.89-1.879c-0.257-0.121-0.976-0.398-0.704-0.48
			c0.691-0.213,2.146,0.896,2.729,1.021c0.281,0.062,1.24-0.498,1.455-0.334c0.065,0.051-0.553,0.974-0.604,1.03
			c-0.287,0.326-0.037,1.31-0.068,1.332c-0.271,0.205-0.975-0.2-1.01,0.138c-0.068,0.658,1.121-0.285,1.243,0.373
			c0.089,0.485-0.356,1.426,0.134,1.473c0.664,0.07,0.518-1.188,0.571-1.399c0.126-0.504,0.833-0.51,0.944-0.877
			c0.096-0.32-0.221-0.658-0.188-0.991c0.02-0.167,0.034-0.408,0.191-0.468c0.523-0.194,0.892,2.436,0.859,2.762
			c-0.031,0.311-1.633,0.832-1.275,1.332c0.097,0.133,0.285-0.189,0.449-0.198c1.392-0.073,1.317-2.282,1.064-3.541
			c-0.107-0.521-2.003-0.517-1.613-0.894c0.77-0.739,2.334-1.599,3.418-1.604C41.712,28.209,43.331,28.934,43.331,28.934"/>
		<path fill="#CCCCCC" d="M26.691,34.238c0.582,1.656-0.104,1.564,0.029,2.199c0.102,0.492,1.178,1.613,1.055,2.076
			c-0.041,0.157-0.373,0.047-0.455,0.19c-0.42,0.744,0.138,2.401-0.791,3.084c-0.555,0.41-3.086-0.093-3.71-0.44
			c-0.252-0.142-0.381-0.66-0.655-0.568c-0.128,0.043-0.804,0.744-1.313,0.082c-0.104-0.137,0.267-0.211,0.4-0.316
			c0.831-0.656-0.093-1.355-0.761-1.439c-0.546-0.068,0.538,1.291-0.008,1.222c-0.422-0.054-0.631-3.319-0.715-3.513
			c-0.086-0.201-0.887,0.179-0.82-0.348c0.021-0.164,0.438-0.023,0.457-0.188c0.055-0.42-1.151-1.41-1.058-1.848
			c0.271-1.259,1.761,0.25,1.979,0.254c0.98,0.021,3.092-1.14,3.598-1.265c0.246-0.06,0.94,1.011,1.015,1.101
			c0.186,0.219,0.865,0.373,0.648,0.563c-0.382,0.342-1.693,0.345-0.99,1.103c0.465,0.5,0.518-0.326,0.62-0.414
			c0.652-0.543,0.824-0.271,1.078-0.604v-1.22C26.421,33.848,26.559,34.143,26.691,34.238"/>
		<path fill="#CCCCCC" d="M40.309,43.428c0.455,0.469,1.787,0.604,2.058,1.174c0.62,1.309-1.767,0.138-2.054,0.293
			c-0.526,0.283-0.959,1.584-1.795,0.556c-0.195-0.24,0.318-0.394,0.338-0.455c0.231-0.771,1.31-0.322,1.285-1.336
			C40.137,43.328,39.771,43.377,40.309,43.428"/>
		<path fill="#CCCCCC" d="M18.784,40.521c0.484,0.496,2.922,2.369,2.352,3.231c-0.777,1.177-2.084-0.862-2.455-1.289
			c-0.064-0.077,1.326,0.545,0.633-0.407c-0.171-0.238-1.594-0.921-1.588-1.186C17.733,40.5,18.784,40.521,18.784,40.521"/>
		<path fill="#CCCCCC" d="M28.355,41.021c-0.367,0.967-0.795,1.664-1.305,2.537c-0.436,0.748-0.736,1.629-1.094,2.418
			c-0.59,1.304-0.846-0.252-0.965-0.943c-0.066-0.373,0.828-0.266,0.945-0.625c0.307-0.952,0.127-0.859,1.117-1.826
			C27.379,42.268,28.062,40.367,28.355,41.021"/>
		<path fill="#CCCCCC" d="M4.901,43.602c0.208-1.418,0.371-2.817,1.313-3.981c0.121-0.147,0.615-0.104,0.568,0.084
			c-0.363,1.465-2.769,1.442,0.877,2.332c0.252,0.063-0.518,0.026-0.779,0.012c-0.241-0.015-0.482-0.028-0.724-0.043
			c-0.241-0.016-0.512-0.161-0.723-0.045C5.233,42.072,4.979,43.361,4.901,43.602"/>
		<path fill="#CCCCCC" d="M30.633,43.962c0.715,0.077,2.102,2.866,2.926,2.513c0.174-0.074-0.326-0.347-0.236-0.514
			c0.099-0.186,0.453-0.031,0.601-0.181c0.175-0.177-0.026-0.735,0.22-0.71c1.201,0.123,1.682,3.94,0.752,3.986
			c-0.601,0.028-0.957-0.787-1.683-0.664c-0.282,0.049-1.003,0.931-1.258,0.846c-0.002,0-0.99-0.961-0.99-0.963
			c-0.594-0.578-2.618-1.402-2.752-2.14c-0.235-1.321,0.651,0.593,1.062-0.37c0.254-0.597-1.396-1.818,0.502-1.898
			C30.061,43.855,30.633,43.962,30.633,43.962"/>
		<path fill="#CCCCCC" d="M36.439,44.508c0.442,0.612,1.807,0.652,2.232,1.567c0.418,0.89-1.449,1.39-1.738,2.147l-0.035,1.299
			c-0.004,0.217,0.149,0.51-0.016,0.648c-0.127,0.107-0.322-0.145-0.41-0.286c-0.527-0.852,0.131-1.297,0.053-1.948
			c-0.121-1.015-1.479-2.557-1.401-3.319C35.15,44.355,36.204,44.609,36.439,44.508"/>
		<path fill="#CCCCCC" d="M28.161,50.1c1.288-1.688,2.909,0.366,2.672,1.029c-0.058,0.16-0.338-0.036-0.507-0.056
			C29.312,50.963,28.491,50.823,28.161,50.1"/>
	</g>
</g>
<g id="Laag_3">
</g>
</svg>
