<?xml version="1.0" encoding="utf-8"?>
<!-- Generator: Adobe Illustrator 16.0.0, SVG Export Plug-In . SVG Version: 6.00 Build 0)  -->
<!DOCTYPE svg PUBLIC "-//W3C//DTD SVG 1.1//EN" "http://www.w3.org/Graphics/SVG/1.1/DTD/svg11.dtd">
<svg version="1.1" id="Laag_1" xmlns="http://www.w3.org/2000/svg" xmlns:xlink="http://www.w3.org/1999/xlink" x="0px" y="0px"
	 width="75.333px" height="52.667px" viewBox="0 0 75.333 52.667" enable-background="new 0 0 75.333 52.667" xml:space="preserve">
<g id="Laag_2">
</g>
<g id="Laag_1_1_">
	<g>
		<path fill="#CCCCCC" d="M23.402,20.261c0.485-0.021,1.708-0.221,1.743,0.642C25.175,21.574,21.598,21.161,23.402,20.261"/>
		<path fill="#CCCCCC" d="M24.332,24.833c2.656,1.229,0.275,2.793-1.285,1.244C22.933,25.961,23.574,24.208,24.332,24.833"/>
		<path fill="#CCCCCC" d="M39.433,33.285c0.812-0.257,1.172,1.233,1.54,0.858c0.199-0.2-0.21-1.138,0.059-1.202
			c1.02-0.251,1.918,2.012,2.723,2.213c0.355,0.092,0.717-0.451,1.062-0.314c0.322,0.127,0.167,0.762,0.474,0.926
			c0.002,0.002,1.359,0.061,1.363,0.061c0.227,0.01,0.499-0.111,0.682,0.029l-0.065,0.967c0.198,0.34,4.11,3.508,4.505,3.493
			c0.939-0.034,1.778-1.795,2.712-1.912c0.485-0.062,3.669,1.662,3.927,1.097c0.262-0.572-0.271-1.981,0.188-2.428l0.924-0.326
			c0.084-0.279-0.433-1.102,0.002-1.441c0.695-0.553,1.519,0.007,2.089-0.924c0.273-0.448-1.014-0.438-1.146-0.609
			c-0.468-0.6,0.127-1.917-0.364-2.37c-0.595-0.549-1.436-0.962-1.786-1.753c-0.438-0.982,0.317-1.382,0.468-2.201
			c0.354-1.933-1.681-4.323-1.526-6.323c0.095-1.28,1.616-1.635,2.146-2.594c0.639-1.157,0.102-3.422,0.766-4.371
			c0.99-1.417,4.113-0.123,0.924-2.797c-0.104,0.635-0.461,1.103-1.35,1.168c-1.084,0.083-2.23-0.386-3.322-0.398
			c-1.193-0.01-2.452,0.438-3.641,0.328c-0.986-0.089-1.73-1.113-2.593-1.206c-0.399-0.044-0.756,0.343-1.151,0.331
			c-0.937-0.023-2.974-0.486-3.602-0.905c-0.159-0.106,0.668-0.287-1.316-0.141c-0.178,0.013-0.062,0.955-0.449,0.984
			c-0.516,0.036-0.301-1.191-1.014-1.353c-0.361-0.084,0.428,1.174-0.158,1.436c-0.562,0.252-0.676-0.774-1.104-0.872
			c-0.597-0.136-0.339,0.944-0.325,0.972c0.893,1.697,0.039-0.182-0.488,0.507c-0.146,0.19,0.098,0.559-0.082,0.719
			c-0.34,0.302-1.84-0.78-2.258-0.564c-0.113,0.056-0.948,0.743-1.537,0.571c0,0-0.434-0.687-0.436-0.687
			c-0.192-0.121-0.485-0.345-0.662-0.197c-0.532,0.437,0.318,0.777,0.228,1.268c0.5-0.161,0.287-0.086-0.01,0.045
			c-0.035,0.109-0.097,0.224-0.252,0.35c-0.064,0.056-0.187,0.065-0.262,0.016c-0.106-0.073,0.238-0.242,0.514-0.366
			c0.004-0.015,0.008-0.03,0.01-0.045c-0.351,0.112-1.046,0.339-2.333,0.753c-0.409,0.13-0.789-0.843-1.335-0.402
			c-1.172,0.953,1.189,1.291-1.907,1.049c-1.325-0.104,0.57,1.652,0.096,1.896c-0.234,0.121-1.632-0.115-1.977-0.14
			c-0.838-0.061-0.717,0.73-0.756,0.748c-0.179,0.093-1.839,0.004-2.087,0.332c-0.097,0.126-0.023,0.322,0.021,0.475
			c0.079,0.285,0.881,1.316,0.467,1.645c-0.262,0.205-1.014,0.376-0.892,0.752c0.063,0.203,0.933,0.871,1.217,0.66
			c0.236-0.176,0.51-0.439,0.496-0.735c-0.012-0.206,0.262,0.284,0.163,0.707c-0.112,0.489-1.29,0.302-1.563,0.545
			c-0.695,0.62,0.927,1.192,0.865,1.63c-0.051,0.352-0.604,0.43-0.763,0.748c-0.203,0.401,0.867-0.24,1.314-0.295
			c1-0.127,1.42-0.319,2.265,0.133c0.233,0.126-0.693-0.209-0.796,0.037c-0.335,0.792-0.215,0.488-1.438,0.542
			c-0.194,0.011-0.425-0.368-0.541-0.214c-0.668,0.876,0.882,0.678-0.234,0.727c0.029,0.236,0.064,0.474,0.096,0.711
			c0.034,0.236,0.104,0.471,0.099,0.711c-0.002,0.166,0.123,0.233,0.279,0.227c0.164-0.006,0.497,0.896,0.707,0.923
			c0.154,0.021,0.294-0.38,0.387-0.256c0.098,0.128,0.434,2.301,0.533,2.842c0.055,0.275,0.514-0.285,0.795-0.273
			c0.512,0.016,1.383,1.045,1.936,1.18c1.465,0.354,2.94-4.035,3.978-1.012c0.224,0.658-0.61,0.592-0.751,1
			c-0.266,0.76,0.145,1.832,0.013,2.633c-0.169,0.988-0.782,1.926-1.039,2.928l0.116-0.003
			C34.444,36.458,37.827,33.789,39.433,33.285"/>
		<path fill="#CCCCCC" d="M19.026,19.705c1.845,0.597-0.534,0.034,0.7,1.167c0.261,0.241,1.28-0.119,1.724,0.177
			c0.277,0.187,0.101,0.801,0.167,0.946c0.213,0.461,1.089,1.387,0.582,1.407c-1.342,0.05,0.652-1.315-1.068-0.198
			c-0.23,0.148,0.357,0.939-0.23,0.961c-1.313,0.046,0.38-1.217-0.555-0.695c-0.945,0.525-0.396,1.922-1.664,1.961
			c-1.453,0.047-0.207-2.258-1.544-2.811c-0.758-0.314-1.33,0.209-2.126-0.299c-1.616-1.027,2.278-0.311,2.749-0.911
			C18.222,20.825,18.398,19.726,19.026,19.705"/>
		<path fill="#CCCCCC" d="M22.049,26.506c0.555,0.305,0.803,0.883,1.244,1.146c0.014,0.008,1.066,0.189,1.077,0.196
			c0.322,0.173,0.915,1.065,0.574,0.931c-1.638-0.65-0.02,0.377-0.803,0.033c-0.297-0.131-0.441-0.896-0.695-0.689
			c-0.236,0.197-0.386,1.82-0.86,1.944c-0.266,0.071-0.519-0.669-0.688-0.452c-0.089,0.116,0.09,0.869-0.226,1.203
			c-0.383,0.407-1.458-0.01-1.592,0.533c-0.056,0.236,0.389,0.635,0.161,0.713c-0.447,0.148-1.562-0.427-1.628-0.424
			c-0.182,0.004-0.095,0.396-0.255,0.484c-0.49,0.27-1.185,0.117-1.732,0.531c-0.347,0.262-0.327,2.666-1.386,3.545
			c-0.122,0.1-0.523,0.573-0.804,0.34c-1.093-0.92,1.489-2.603,1.532-3.391c0.004-0.091-0.057-0.199-0.144-0.234
			c-0.054-0.021-3.383-1.535-2.732-1.845c0.161-0.075,0.494,0.16,0.537-0.013c0.053-0.202-0.563-0.324-0.412-0.469
			c0.481-0.45,0.868,1.057,1.067-0.264c0.033-0.244-0.56-1.447-0.714-1.654c-0.158-0.221-0.932-0.362-0.678-0.463
			c1.827-0.699,0.922,0.779,2.035,1.146c0.026,0.011,0.191-1.576,0.749-1.929c0.347-0.219,0.268,1.289,0.82,0.691
			c0.107-0.115,0.036-0.318,0.054-0.479c0.018-0.161-0.063-0.367,0.051-0.479c0.072-0.066,2.096-1.019,2.104-1.019
			c0.323-0.01,0.366,0.642,0.686,0.692C20.29,26.985,20.802,26.002,22.049,26.506"/>
	</g>
</g>
<g id="Laag_3">
</g>
</svg>
