<?xml version="1.0" encoding="utf-8"?>
<!-- Generator: Adobe Illustrator 16.0.0, SVG Export Plug-In . SVG Version: 6.00 Build 0)  -->
<!DOCTYPE svg PUBLIC "-//W3C//DTD SVG 1.1//EN" "http://www.w3.org/Graphics/SVG/1.1/DTD/svg11.dtd">
<svg version="1.1" id="Laag_1" xmlns="http://www.w3.org/2000/svg" xmlns:xlink="http://www.w3.org/1999/xlink" x="0px" y="0px"
	 width="179.667px" height="154.667px" viewBox="0 0 179.667 154.667" enable-background="new 0 0 179.667 154.667"
	 xml:space="preserve">
<g id="Laag_2">
</g>
<g id="Laag_1_1_">
	<path fill="#CCCCCC" d="M149.066,82.479c1.172,1.047-0.709,4.042-0.711,5.38c-0.002,0.447,0.714,1.539,0.773,1.094
		c0.062-0.471,0,0,0.115,0.519c0.264,1.159-0.054,2.766-0.15,3.956c-0.154,1.914-2.319,3.558-2.43,4.402
		c-0.182,1.365-0.341,3.293-0.769,4.373c-0.246,0.621-0.926,0.08-1.197,0.586c-0.163,0.301,1.183,0.168,0.668,0.588
		c-0.271,0.22-0.76,0.095-0.983,0.363c-0.604,0.727-0.493,2.965-1.434,2.293c-0.473-0.338-0.809-0.998-0.937-1.371
		c-0.058-0.168,0.382-0.346,0.25-0.461c-0.152-0.137-0.382,0.174-0.584,0.166c-0.878-0.029-1.476-0.709-1.918-1.014
		c-0.244-0.166-0.808-0.328-0.667-0.59c0.191-0.348-0.029-0.883,0.354-1.193c0.093-0.072,1.446-0.271,1.386-0.551
		c-0.172-0.768-2.522-0.586-2.791-1.391c-0.041-0.121,0.256-0.045,0.383-0.068c0.57-0.104,1.519-1.518,1.572-1.895
		c0.162-1.162-1.695,0.332-1.938-0.771c-0.043-0.203-0.438-0.396-0.295-0.541c0.174-0.174,0.484,0.133,0.729,0.103
		c0.494-0.06-0.145-0.463,0.287-0.705l0.979-0.355c0.299-0.895-1.842-1.396-1.79-1.752c0.209-1.473,1.243-1.111,1.512-1.527
		c0.037-0.053-1.438-1.949-1.204-1.914c1.825,0.262,1.089-1.551,1.543-1.772c0.164-0.078,0.391,0.178,0.541,0.077l0.139-0.979
		c0.244,0.035,0.229,0.531,0.473,0.566c0.089,0.012,1.201-1.016,1.432-1.043c0.006,0,1.438,0.197,1.442,0.197
		c0.56-0.164,0.571-1.181,1.28-1.316c0.806-0.156,1.356,0.848,1.881,0.998l0.639-0.658c0.314-0.893-0.543-1.73-0.034-2.494
		c0.11-0.164,0.472-0.002,0.57-0.17C148.748,82.65,147.248,82.238,149.066,82.479"/>
	<path fill="#CCCCCC" d="M143.642,107.869c0.217,1.344,1.164,0.461,1.715,1.223c0.298,0.41-0.328,1.447,0.176,1.514l0.282-0.707
		c0.904-0.369,0.408,0.08,0.708,0.34c0.092,0.084,0.307-0.061,0.369,0.047c0.125,0.221-1,1.107-0.409,1.687
		c0.001,0.002,1.294,0.168,1.297,0.168c0.084,0.062-0.116,0.233-0.218,0.221c-1.325-0.17-0.143-0.103-1.021,0.613
		c-0.205,0.161-0.74-0.115-0.774,0.146l0.741,0.098c0.615,0.369,0.902,0.375,1.514,1.437c0.062,0.108-0.283-0.135-0.371-0.049
		c-0.179,0.183-0.378,0.476-0.281,0.709c0.493,1.196,0.268,1.674,0.586,2.806c0.121,0.438,0.78,0.643,0.809,1.098
		c0.092,1.482-2.316,2.691-2.969,3.834c-0.627,1.102,1.272,2.096,0.971,2.854c-0.846,2.117-1.859,5.467-2.206,8.141
		c-0.212,1.633-0.556,2.369-1.047,3.58c-0.074,0.183-0.944,2.273-1.05,2.092c-0.514-0.871-0.457-0.184-1.272-0.664
		c-0.41-0.241-0.89-1.604-1.712-1.715c-0.352-0.047-0.509,0.674-0.859,0.627c-0.674-0.094-0.82-1.647-1.55-1.45
		c-0.194,0.053,0.599,0.729,0.663,0.831c0.241,0.421-0.791,0.65-0.93,1.113c-0.254,0.838,0.562,1.5-0.303,2.188
		c-3.26,2.59-2.188,0.442-3.543,0.25c-0.414-0.062-0.695,1.226-0.904,0.862c-0.487-0.842-0.672-2.676-1.077-3.375
		c-0.431-0.75-1.017,2.146-1.583,1.505c-0.219-0.246-0.544-2.024-0.062-2.24c0.17-0.075,0.926,0.828,1.037,0.894
		c0.236,0.145-0.104-0.563-0.275-0.783c-0.075-0.096,0.035-0.242,0.053-0.365c0.018-0.119,0.072-0.24,0.053-0.361
		c-0.001-0.004-0.914-0.719-0.621-1.084c1.284-1.602,0.178-1.424,0.688-3.375c0.158-0.607,1.113-1.014,1.229-1.809
		c0.096-0.652-0.207-1.547,0.129-2.217c0.01-0.023,0.439,0.606,0.666,0.717c0.121,0.061,0.461,0.266,0.361,0.178
		c-1.038-0.904,1.389-1.801,0.043-2.973c-0.329-0.287-0.529-0.133-0.807,0.254c-0.081,0.113-0.137,0.43-0.241,0.338
		c-0.31-0.27-0.201-2.586-0.175-2.758c0.003-0.025,1.113-0.203,1.232-0.566c0.131-0.408-0.238-0.844-0.199-1.271
		c0.059-0.664,0.959-1.481,0.504-2.166l-0.864-0.618c-0.291-0.854,0.839-2.244-0.796-3.507c-0.127-0.1-0.691,0.22-0.791,0.039
		c-0.04-0.071,0.045-0.162,0.037-0.241c-0.02-0.179,0.059-0.49-0.116-0.517c-0.172-0.024-0.188,0.299-0.257,0.457
		c-0.032,0.078,0.004,0.318-0.036,0.246c-0.062-0.111-0.027-0.252-0.04-0.377c-0.072-0.709,0.48-0.264,0.516-0.922
		c0.178-3.227-0.246,1.807-0.486-1.189c-0.049-0.614,1.13-1.438,1.25-2.055c0.059-0.281-0.672-1.059-0.002-1.246
		c0.275-0.072,0.347,1.596,0.675,1.84c3.429,2.605,6.812-2.043,9.651-2.854C142.271,109.203,143.164,107.022,143.642,107.869"/>
	<path fill="#CCCCCC" d="M149.882,61.779l-0.442,1.164c-0.349,0.116-3.368-2.259-3.96-2.393c-0.83-0.186-1.878,0.591-2.711,0.401
		c-0.807-0.185-0.42-0.986-0.793-1.445c-0.415-0.51-1.571-0.917-2.145-1.252c-3.15,0.501-3.164-1.028-2.601-2.067l0.099-0.033
		c-0.115-0.445-0.205-1.537-0.488-1.89c-0.441-0.546-1.737-0.396-2.241-0.785c-0.002-0.003-0.474-1.127-0.478-1.129
		c-0.516-0.581-2.649-1.943-3.41-2.093c-1.395-0.282-0.541,1.665-1.055,2.027c-0.804,0.565-2.474-1.091-3.289-1.066
		c-0.002,0-0.705,0.586-0.707,0.586c-0.56-0.059-1.033-1.021-1.582-1.16c-0.527-0.133-1.238,0.449-1.766,0.317
		c-1.275-0.324-0.8-1.717-1.447-2.407c-1.186-1.262-3.259,0.093-4.449-0.895c-0.652-0.543-0.346-2.196-0.948-2.8
		c-1.209-1.216-4.324-1.039-5.267-2.687c-0.084-0.146,0.029-0.333,0.043-0.502c0.012-0.165,0.176-0.399,0.041-0.498
		c-0.059-0.042-2.185,1.474-1.935,0.239c0.162-0.805,2.065-1.574,1.476-2.665c-0.377-0.691-1.593-0.691-2.131-0.941
		c-0.533-0.246-1.187-1.408-1.57-1.869l-0.097-0.288c-0.062-0.019-0.126-0.034-0.183-0.045c-0.62-0.104-0.982,0.749-1.369,0.898
		l-0.627-0.431c-0.587-0.088-1.361,0.386-1.93,0.223c-1.082-0.302-4.688-3.329-5.053-3.239c-0.168,0.04-0.135,0.398-0.31,0.422
		c-0.472,0.072-0.097-0.979-0.345-1.386c-0.197-0.321-2.844-0.308-3.205,0.092c-0.112,0.123-0.036,0.331-0.053,0.498
		c-0.018,0.166,0.106,0.546-0.055,0.499c-1.189-0.351-2.391-3.082-3.981-2.987c-0.174,0.012-0.145,0.473-0.313,0.421
		c-1.073-0.324,0.711-0.68,0.628-0.843c-0.076-0.146-1.138-1.13-1.33-1.174c-1.679-0.381-1.86,0.983-2.833,0.687
		c-0.878-0.267,1.746-0.591,0.362-1.181c-0.196-0.08-0.424-0.043-0.635-0.064c-0.213-0.023-0.432-0.121-0.638-0.065
		c-0.264,0.071-0.297,0.682-0.56,0.602c-0.892-0.274-2.854,0.063-3.818-0.407c-2.234-1.091-6.243-2.602-8.607-4.295
		c-0.354-0.254-0.435-0.791-0.793-1.037c-0.197-0.136-0.443-0.236-0.682-0.221c-0.243,0.014-0.432,0.378-0.664,0.299
		c-0.193-0.061,0.387-0.183,0.494-0.357c0.261-0.418-2.579-0.969-2.814-1.186c-0.107-0.101-0.755-2.229-1.322-2.258
		c-1.029-0.054-0.487,0.82-1.07,0.944c-1.18,0.254-2.395-0.837-3.141-1.319c-0.357-0.229-1.563,0.323-2.103,0.069
		c-1.502-0.717-3.536-1.599-5.333-2.104c-0.661-0.184-0.742,0.134-1.129,0.521c-0.097,0.099-0.211,0.401-0.291,0.293
		c-0.188-0.258,0.74-0.988,0.576-1.107c-0.501-0.362-2.091-0.113-2.445-0.599c-0.38-0.521-0.642-2.28-1.364-3.104
		c-0.511-0.575-1.117,0.126-1.512-0.016c-0.156-0.054,0.167-0.298,0.167-0.463c-0.005-1.13-0.262-0.295-0.841-0.302
		c-0.334-0.005,0.835-0.863,0.501-0.87c-0.441-0.004-1.499,0.658-1.76,0.678c-0.179,0.018-0.356-0.281-0.504-0.181
		c-0.204,0.138-0.019,0.779-0.252,0.697c-0.588-0.213,1.361-1.574,0.252-1.749c-1.367-0.214-6.71,1.955-8.347,2.42
		c-1.446,0.409-3.398,1.368-4.895,1.372c-2.428,0.008,1.039-0.244-0.756-0.55c-0.3-0.049-0.464,0.459-0.766,0.501
		c-0.623,0.088-1.282-0.608-1.78,0.118c-0.36,0.523,1.219,0.345,1.179,0.448c-0.104,0.272-0.605,0.046-0.849,0.203
		c-0.11,0.071-1.438,0.246-1.443,0.24c-0.427-0.158-0.039,0.971-0.315,1.335c-0.16,0.211-0.661,0.657-0.396,1.035
		c0.334,0.481,0.665-0.535,1.109-0.366c0.62,0.232-0.167,2.312-0.155,2.443c0.023,0.24-0.116,0.723,0.122,0.709
		c0.204-0.014,0.365-0.192,0.513-0.333c0.06-0.059,0.005-0.226,0.088-0.232c0.647-0.041,1.006,0.182,1.531,0.052
		c0.117-0.027,0.34,0.006,0.339,0.13c-0.001,0.27-3.941,1.667-3.097,3.575c0.235,0.531,1.542-1,1.884-0.87
		c0.99,0.37-0.026-0.527,0.771-0.504c0.408,0.014,0.076,1.744,1.191,0.448c0.28-0.322-0.43,0.769-0.771,1.028
		c-0.235,0.177-0.664-0.016-0.855,0.205c-0.331,0.385,0.14,1.127-0.52,1.386c-0.586,0.229-0.228-0.612-0.339-0.654
		c-1.232-0.463-0.328,1.368-0.008,1.578c0.165,0.107,2.063,0.157,2.054,0.241c-0.047,0.405-3.113,1.104-3.09,1.477
		c0.08,1.346,2.697-0.121,3-0.194c0.249-0.062-0.208,0.502-0.428,0.628c-0.49,0.283-1.211,0.161-1.716,0.413
		c-0.169,0.085-0.287,0.244-0.431,0.364c-0.205,0.178-0.678-0.014-0.773,0.237c-0.097,0.257,0.341,0.919,0.083,0.822
		c-0.373-0.14-0.109-0.892-0.858-0.323c-0.212,0.16-0.999,3.243-0.871,3.359l1.093-0.467c0.013,0.002-0.034,0.049-0.105,0.112
		l0.651-0.347c2.062-0.888,6.025-1.089,7.231,0.569c0.881,1.21-4.005,1.636-1.699,3.577c0.885,0.748,2.427-1.089,3.017-0.212
		c0.092,0.137-0.282,0.348-0.167,0.466c0.284,0.29,1.668,0.091,2.071,0.221c0.417,0.136,0.957,0.266,1.13,0.669
		c0.11,0.252-0.823,0.416-0.597,0.569c0.003,0.002,1.376-0.031,1.381-0.029c0.354,0.171,0.268,0.83,0.619,1.004
		c0.276,0.14,2.78-0.049,3.016-0.238l0.154-0.988c0.399-0.211,2.102,1.084,2.481,1.258c0.523,0.242,1.011,0.794,1.382,0.223
		c0.071-0.106,0.088-0.36,0.209-0.318c0.371,0.128,0.305,0.771,0.628,0.997c0.593,0.414,1.147-0.143,1.611,0.688
		c0.142,0.25-0.509,0.531-0.368,0.786c0.121,0.212,0.586,0.02,0.698,0.237c0.216,0.432-1.021,1.987-1.054,2.503
		c-0.039,0.649,3.741,0.913,2.865,3.06c-0.284,0.699-2.937,2.331-3.647,2.662c-0.753,0.35-1.761-0.058-2.432,0.208
		c-1.022,0.4-1.686,1.836-2.728,2.183c-0.613,0.208-1.158-0.79-1.341,0.446c-0.099,0.669,0.536,1.443,0.456,2.114
		c-0.118,0.969-1.104,3.959-1.694,4.883c-0.009,0.016-0.766,0.498-0.774,0.514c-0.379,0.572,0.384,1,0.31,1.408
		c-0.273,1.482-3.697,0.367-3.634,2.384c0.025,0.76,1.058,1.449,0.964,2.416c-0.088,0.929-2.216,3.922-3.054,4.141
		c-0.471,0.124-4.653-1.639-5.402-1.904c-0.18-0.064-0.435-0.353-0.54-0.192c-0.326,0.504,1.372,3.232,1.454,3.908
		c0.015,0.13-1.191,2.384-0.585,3.957c0.129,0.341,0.628,0.443,0.743,0.787c0.08,0.23-0.376,0.485-0.244,0.693
		c0.415,0.644,1.812,0.313,1.757,1.397c-0.046,0.932-1.57,1.268-1.721,1.996c-0.043,0.205,0.304,0.41,0.203,0.592
		c-0.335,0.598-2.612,0.547-3.208,0.953c-0.043,0.029-2.09,3.172-2.137,3.274c-0.278,0.625,0.309,0.81,0.433,1.453
		c0.129,0.685,0.189,3.033,0.668,3.485c0.002,0.002,1.337,0.121,1.339,0.125c0.158,0.103,0.272,0.326,0.235,0.513
		c-0.547,2.64-3.011,0.75-4.211,1.554c-0.204,0.137-0.119,0.481-0.246,0.69c-0.712,1.196-1.813,1.161-2.753,1.885
		c-2.475,1.906-2.03,5.078-2.585,7.824c1.436,0.237,3.462,0.688,3.893,0.942c0.002,0.002,0.958,0.854,0.962,0.855
		c0.491,0.172,1.093-0.783,1.51-0.641c0.352,0.125-0.725,0.623-0.573,0.969c0.708,1.613,2.48,2.92,3.347,4.518
		c0.284,0.523,0.313,2.691,0.846,2.873c0.206,0.07,0.362-0.215,0.493-0.529c-0.025-0.291-0.027-0.584,0.356-0.729
		c0.181-0.097,0.405,0.052,0.606,0.08c0.203,0.022,0.402,0.078,0.606,0.071c0.156-0.002,0.402-0.25,0.456-0.104
		c0.303,0.814-1.599-0.074-1.668-0.049c-0.114,0.062-0.222,0.412-0.356,0.73c0.022,0.254,0.06,0.506-0.115,0.658
		c-0.443,0.387-1.225-0.119-1.451,0.539c-0.583,1.711,1.404,1.743,1.488,3.088c0.016,0.25,0.319,0.619,0.335,0.887
		c0,0-0.779-0.521-1.441-0.748c-0.167-0.057,0.124,0.33,0.186,0.492c0.124,0.328,0.291,0.646,0.371,0.988
		c0.243,1.028,0.221,1.821,0.551,2.762c0.122,0.348,0.045,1.393,0.297,1.645c0.007,0.008,1.332,0.443,1.338,0.451
		c0.727,0.631,1.743,3.264,2.793,3.758c2.096,0.982,1.904-0.859,2.413-1.516c0.37-0.484,0.841,0.271,1.15,0.371l0.736-0.957
		c0.438-0.566,1.83-1.869,2.577-2.07c0.726-0.189,3.366-0.49,4.08-0.225c0.837,0.311,1.312,1.348,2.412,1.022
		c1.083-0.317,2.543-2.047,3.629-2.187c0.984-0.123,7.905,1.859,9.122,2.304c0.675,0.243,1.199,1.172,1.895,1.334
		c1.018,0.241,2.749-0.194,4.302,0.265c1.687,0.5,2.561,2.166,4.137,2.231c1.358,0.062,2.004-1.843,4.574-0.718
		c1.227,0.539,0.919,1.789,2.287,2.177c0.827,0.233,2.069-2.033,2.91-2.229c0.929-0.213,1.67-2.393,2.585-3.34
		c0.977-1.014,5.366-3.311,6.708-3.484c0.958-0.119,2.048,1.033,2.604,0.959c0.162-0.02-0.004-0.375,0.127-0.471
		c0.172-0.125,0.422-0.092,0.635-0.084c1.326,0.055,2.566,1.744,4.129,0.59c0.257-0.186-1.403-1.088-1.273-2.108
		c0.062-0.484,1.527-0.554,1.582-0.597c0.396-0.287,0.063-1.041,0.375-1.418c0.297-0.363,1.258-0.547,1.45-0.885
		c0.356-0.623,0.013-1.729,0.435-2.42c0.355-0.584,1.355-0.027,1.701-0.312c0.438-0.369,0.25-1.48,0.685-1.85
		c0.302-0.261,0.875,0.295,1.192,0.055c0.33-0.246,0.19-1.068,0.748-1.324c1.12-0.512,2.397-0.301,3.508-0.363
		c0.813-0.045,0.218-0.627,0.619-0.854c1.066-0.596,2.598-0.262,3.68-1.094c0.994-0.763-2.613-3.035-3.026-3.804
		c-0.805-1.5-1.151-8.133,0.029-9.377c1.034-1.09,4.903-5.297,5.829-5.862c1.461-0.898,3.066-1.781,4.451-2.939
		c1.164-0.977,2.469-3.654,3.928-4.098c0.213-0.063,0.445,0.028,0.669,0.037c0.222,0.016,0.501-0.109,0.668,0.041
		c0.104,0.09-0.181,0.204-0.271,0.312c-0.438,0.505-1.383-0.194-0.97,0.396c0.491,0.696,1.079-0.654,1.663-0.861
		c0.303-0.105,0.854,0.135,1.155,0.025c1.599-0.564-1.238-2.05-1.234-2.07c0.216-0.883,2.909-2.281,3.724-2.643
		c1.057-0.471,1.388-0.038,2.295,0.045c0,0,0.715-0.591,0.716-0.591c0.829-0.196,2.401-0.165,3.311-0.229
		c1.974-0.141,4.314,0.61,6.263,0.181c1.269-0.276,1.875-1.573,2.953-2.11c3.141-1.567,8.775-1.767,11.479-4.053
		c1.835-1.555-0.38-3.323,0.306-4.975c0.475-1.143,2.313,0.677,2.454-0.993c0.034-0.407-1.006-0.547-1.149-0.747
		c-0.605-0.831,0.145-0.625,0.076-1.245C154.042,62.226,151.194,60.712,149.882,61.779"/>
</g>
<g id="Laag_3">
</g>
</svg>
