<?xml version="1.0" encoding="utf-8"?>
<!-- Generator: Adobe Illustrator 16.0.0, SVG Export Plug-In . SVG Version: 6.00 Build 0)  -->
<!DOCTYPE svg PUBLIC "-//W3C//DTD SVG 1.1//EN" "http://www.w3.org/Graphics/SVG/1.1/DTD/svg11.dtd">
<svg version="1.1" id="Laag_1" xmlns="http://www.w3.org/2000/svg" xmlns:xlink="http://www.w3.org/1999/xlink" x="0px" y="0px"
	 width="117.5px" height="155.5px" viewBox="0 0 117.5 155.5" enable-background="new 0 0 117.5 155.5" xml:space="preserve">
<g id="Laag_2">
</g>
<g id="Laag_1_1_">
	<path fill="#CCCCCC" d="M88.404,121.396c1.826-2.899,3.519-5.901,5.482-8.731c1.26-1.812,3.182-3.828,4.024-5.86
		c0.452-1.087,0.414-2.457,0.714-3.599c0.123-0.452,0.921-1.781,0.782-2.207c-0.192-0.582-1.654-1.498-2.124-1.925
		c-0.678-0.614-0.502-1.506-1.227-2.006c-1.863-1.28-4.283-1.739-6.064-3.108c-0.543-0.418-3.434-2.569-3.36-2.793
		c0.081-0.251,4.065-3.433,3.738-5.071c-0.802-4.02-3.94-2.367-4.494-3.763l0.093-1.151c-1.576-2.549-0.912-0.412,0.434-2.104
		c0.105-0.131,0.207-0.311,0.173-0.477c-0.39-1.915-3.011-0.817-4.306-2.869c-1.291-2.035,0.822-2.028,1.041-3.744
		c0.146-1.136-2.119,0.241-1.947-0.891c0.072-0.447,0.779-0.791,0.883-1.234c0.158-0.67-0.465-1.559-0.27-2.215
		c0.08-0.261,0.526-0.272,0.623-0.526c0.242-0.675-1.297-0.73-0.949-1.231c0.478-0.688,2.168-0.257,2.549-0.541
		c0.504-0.375-1.049-3.241-1.244-3.712c-0.775-1.856-2.284-3.137-3.199-4.888c-0.762-1.456-1.32-2.783-2.273-4.157
		c-0.576-0.835-1.781-1.405-2.154-2.395c-1.025-2.734,6.232-9.085,4.982-11.308c-0.316-0.557-1.802-0.815-2.312-1.232
		c-0.987-0.811-1.543-2.491-2.63-3.146c-1.155-0.694-3.215-0.206-4.28-1.024c-0.334-0.254-0.647-1.364-0.831-1.75
		c-0.252-0.542-1.113-1.742-1.093-2.328c0.05-1.269,2.028-2.392,1.694-3.803c-0.26-1.1-2.34-0.458-2.31-1.023
		c0.021-0.375,2.441-1.66,2.953-1.983c-3.747-1.31,1.922-4.491,1.476-5.884c-1.201-3.752-5.828-2.232-8.521-6.105
		c-0.062,0.011-0.088,0.002-0.028-0.043c-2.354-0.132-3.356,1.439-5.241,2.356c-1.147,0.559-2.703-0.788-3.993,0.131
		c-0.326,0.231-0.289,0.756-0.525,1.077c-0.581,0.789-1.614,1.248-2.191,2.038c-0.275,0.373-1.321,5.436-1.188,6.353
		c0.095,0.647,0.882,1.624,0.785,2.259c-0.255,1.678-1.543,1.416-2.578,1.868c-1.55,0.673-0.876,2.274-1.567,3.279
		c-0.279,0.406-0.812,0.474-1.097,0.918c-0.048,0.072-1.295-1.27-1.557-1.393c-0.532-0.248-5.066-1.741-5.316-1.621
		c-0.412,0.19-0.517,1.228-0.87,1.52c-0.387,0.319-2.613,1.271-3.094,1.193c-0.005-0.001-0.868-0.813-0.87-0.814
		c-0.219-0.081-0.465-0.007-0.7-0.01c-0.23-0.002-0.465-0.006-0.697-0.008c-0.697-0.012-1.397-0.023-2.095-0.037
		c-0.232-0.005-0.51,0.119-0.697-0.014c-0.267-0.186-0.211-1.378-0.364-1.681c-0.723-1.428-2.967-4.456-4.282-5.354
		c-1.14-0.78-4.186-0.556-4.007,1.323c0.071,0.759,0.64,0.739,0.383,1.464c-0.05,0.141-0.007,0.375-0.15,0.422
		c-0.014,0.004-3.255-1.334-3.012-0.391c0.012,0.047,0.076,0.099,0.169,0.152l0.436-0.154L19.676,25.6
		c0.399,0.242,1.41,0.533,1.603,0.673c0.78,0.573-0.229,0.798,0.223,1.261c0.636,0.658,6.346,4.608,7.316,5.157
		c2.238,1.266,4.612,0.347,6.848,2.763c0.372,0.4,0.083,1.24,0.269,1.485c0.133,0.175,0.869-0.34,1.365,0.267
		c0.14,0.172,0.28,0.345,0.424,0.519c0.485,0.597,2.068,1.021,1.616,1.646c-0.242,0.336-0.815,0.338-1.038,0.69
		c-0.684,1.087,0.695,2.791,0.49,3.861c-0.094,0.489-1.014,0.955-0.687,1.543c0.479,0.869,2.694-0.324,2.348,1.63
		c-0.19,1.049-1.295,1.089-1.313,2.234c-0.024,1.688,3.191,2.954,3.065,4.661c0,0.001-0.626,0.687-0.626,0.688
		c-0.234,0.707,0.297,1.733,0.004,2.416c-0.411,0.967-1.564,1.001-1.441,2.27c0.229,2.375,1.335,2.766,2.554,4.52
		c0.612,0.877,1.006,1.935,1.229,3.037c0.016,0.005,0.034-0.001,0.05,0.006c0.349,0.184,0.568,0.792,1.719,0.575
		c0.728-0.137,1.063-2.06,1.796-2.103c0.147-0.008,0.125,0.333,0.024,0.443c-0.328,0.365-0.814,0.563-0.933,1.388
		c-0.08,0.548,0.665,1.64,0.903,1.953c0.093,0.121,0.309,0.024,0.451-0.025c1.935-0.67,1.986,0.652,2.661,0.953
		c0.508,0.226,0.906-0.14,1.389,0.356c0.773,0.802-0.004,1.191-0.224,1.803c-0.003,0.005,0.584,1.917,0.604,2.203
		c0.022,0.399-0.622,0.564-0.74,0.947c-0.012,0.039,2.573,2.267,1.319,2.611c-0.4,0.111-0.727-0.868-1.391-0.133
		c-0.021,0.029,1.342,1.111,1.351,1.263c0.033,0.469-0.142,0.939-0.657,0.496c-1.058-0.908-2.349-1.235-3.678,0.228
		c-0.175,0.187-0.079,0.589-0.307,0.696c-0.29,0.131-0.953-0.488-0.938-0.174c0.057,0.959-0.98,1.839-1.122,3.376
		c-0.018,0.177,0.072,0.399-0.049,0.53c-0.581,0.631-1.717,1.028-2.346,1.933c-0.281,0.405-0.539,0.896-0.516,1.387
		c0.012,0.17,0.372,0.317,0.256,0.441c-0.118,0.126-0.301-0.212-0.478-0.204c-0.404,0.021-2.039,2.204-2.117,2.37
		c-0.163,0.358,0.386,0.723,0.405,1.116c-0.14-0.028-0.277-0.069-0.417-0.094c-0.276-0.047-1.108-0.453-1.236-0.061
		c-0.25,0.777,0.177,0.99,0.301,1.58c0.058,0.266-2.835,0.924-3.008,1.488c-0.06,0.209,0.465,1.459-0.038,0.571
		c-0.103-0.184-0.516-0.532-0.543-0.323c-0.124,0.914,0.039,1.442-0.51,2.301c-0.523,0.815-0.87-1.699-1.691-0.856
		c-0.575,0.595-0.301,2.733-1.197,3.468c-0.32,0.262-0.57-1.186-0.858-0.891c-0.671,0.682-0.593-0.172-0.685,1.162
		c-0.014,0.227,2.45,1.713,1.14,2.261c-0.181,0.074-0.189-0.385-0.37-0.448c-0.329-0.115-0.211,0.685-0.455,0.93
		c-0.308,0.313-1.052-0.317-1.313,0.035c-0.378,0.504-0.188,0.969-0.447,1.389c-0.066,0.107-0.202-0.146-0.307-0.223
		c-0.429-0.313-0.104-1.248-0.331-1.369c-1.08-0.588-0.718,0.703-0.94,0.709c-0.271,0.007-1.67-0.454-1.802-0.192
		c-0.296,0.592,1.378,2.719,1.376,2.729c-0.238,0.641-1.242-0.679-1.339-0.662c-0.702,0.106-0.181,2.197-0.913,2.774
		c-0.112,0.089-0.904-0.104-0.965,0.017c-0.136,0.266-0.095,0.66-0.23,0.926c-0.122,0.244-0.725,0.195-0.718,0.471
		c0.003,0.174,0.146,0.316,0.246,0.456c0.066,0.093,0.246,0.116,0.248,0.229c0.005,0.436-1.178,1.043-0.706,1.623
		c0.234,0.291,1.044-0.152,1.095,0.217l-0.599,0.471c-0.177,0.719,0.385,1.506,0.394,2.075c0.009,0.532-0.029,1.205,0.253,0.458
		c0.508-1.338,0.094,0.311,0.496,0.455c0.136,0.05,0.258-0.334,0.362-0.237c0.938,0.86-0.78,4.214-0.279,5.571
		c0.183,0.48,0.419,0.021,0.744,0.219c0.151,0.091,0.224,0.288,0.257,0.461c0.017,0.086-0.141,0.148-0.118,0.234
		c0.292,1.191,1.767,3.726,1.751,4.156c-0.041,1.172-1.313-0.275-1.3,0.491c0.019,0.792,2.257,0.892-0.232,0.938
		c-0.485,0.009,1.186,0.428,1.145,0.912c-0.004,0-0.874,0.25-0.874,0.25l0.636,0.455c0.482,0.982-0.435,1.334-0.345,1.643
		c0.058,0.205,0.874,0.23,0.64,0.689c-0.116,0.229-1.087,0.309-0.988,0.953c0.188,1.227,0.646,0.69-0.36,0.942
		c-0.392,0.101,0.532,0.583-0.628,0.246c-0.364-0.108,0.306,0.696,0.459,1.047c0.467,1.056,0.157-0.014-0.043,1.056
		c-0.056,0.291,0.626,0.416,0.64,0.457c0.082,0.283-0.734-0.238-0.886,0.016c-0.369,0.609,1.103,1.732,1.173,1.855
		c0.186,0.333-0.851,0.698-0.878,0.721c-0.586,0.562,0.81,0.305,0.532,1.401c-0.105,0.418,0.867,0.08,0.77,0.222l0.525,0.694
		c0.008,0.052-0.315,0.599,0.008,0.472c0.184-0.07,1.404-2.336,1.874-1.922c0.174,0.155-0.642,1.599-0.342,1.89
		c0.151,0.149,0.51,0.153,0.64-0.015c0.106-0.142,0.029-0.472,0.181-0.476c0.239-0.006,2.481,1.849,3.056,2.039
		c0.057,0.021,2.172,0.012,2.302-0.069c0.174-0.104,0.268-0.656,0.368-0.482c0.159,0.275-1.129,1.324-1.006,1.623
		c0.331,0.771,1.214,0.07,0.331,1.229c-0.262,0.34,0.787-0.34,1.181-0.51c0.644-0.279,1.866-0.699,2.36-1.028
		c0.265-0.175,0.688-1.038,0.61-0.729c-0.066,0.293-2.703,3.642-0.762,3.566c0.229-0.008,0.413-0.316,0.632-0.26
		c0.486,0.129-1.37,0.754,0.048,1.18c0.347,0.105,1.397-0.744,1.677-0.064c0.276,0.679-1.833,0.688-1.228,1.701
		c0.094,0.154,0.799-0.207,0.892-0.271c0.397-0.26,0.756-1.681,0.729-1.211c-0.057,1.113-0.718,1.771-1.657,2.194
		c-0.071,0.029-1.229,0.716-1.205,0.724c1.703,0.619,2.641-1.045,3.538-2.237c0.124-0.164,0.795-1.652,0.967-1.459
		c0.499,0.553-1.183,1.28-0.699,1.685l1.151-0.286c0.145,0.016,1.613,0.184,1.69,0.158c0.431-0.135,1.043-1.232,1.486-1.254
		c0.159-0.008-0.123,0.426,0.027,0.473c2.354,0.729-0.112-0.467,0.748-0.512c0.229-0.012,0.358-0.188,0.504-0.262
		c0.201-0.107,1.491-0.541,1.531-0.317c0.16,0.839-0.912,0.759,0.036,0.707c0.268-0.017,0.415,0.45,0.415,0.45
		c0.271,0.44,1.556-1.652,1.453-1.738c-0.147-0.117-0.132-0.023-0.146-0.229c-0.008-0.201-0.552-0.303-0.411-0.447
		c0.577-0.594,0.734,0.668,0.939,0.654c0.553-0.031,0.537-1.213,1.089-1.244c0.438-0.027,0.532,1.422,1.198,0.634
		c0.203-0.241-0.146-1.183,0.069-0.947c0.879,0.944,0.777,0.423,0.929,0.413c0.227-0.014,0.531-0.07,0.626-0.277
		c0.023-0.049-0.235-0.813,0.066-0.949c0.208-0.092,0.44,0.268,0.657,0.193c0.17-0.055,0.047-0.475,0.224-0.486
		c0.358-0.022,0.754,0.781,1.441,0.375c0.626-0.367,0.023-1.889,1.149-1.969c0.488-0.035-0.527,1.383,0.496,1.618l1.008-0.31
		c0.146-0.316-1.163-0.623-0.816-0.648c0.598-0.043,0.998,0.793,1.366,1.082c0.091,0.072,0.062-0.43-0.122-1.646
		c-0.049-0.312-1.008-0.634-0.689-0.655c0.565-0.041,1.481,0.645,1.746,1.052c0.043,0.064-0.053,0.271,0.021,0.232
		c0.858-0.477,0.456-0.519,0.002-0.824c-1.295-0.871,0.108,0.304-0.127-0.817c-0.097-0.452-0.841-0.473-1.091-0.862
		c-0.082-0.125,0.27,0.137,0.398,0.207c0.705,0.381,1.042,0.897,2.184,0.068c0.361-0.263,0.289,1.045,0.729,1.124
		c0.268,0.048,0.445-0.271,0.621-0.286c0.628-0.05-0.077-2.22,0.68-2.652c0.375-0.209-0.881,2.199,0.428,2.092
		c0.738-0.061-0.715-1.082,0.603-0.521c0.237,0.102,0.47,0.887,0.784,0.172c0.014-0.035-0.232-0.937,0.322-0.736
		c0.33,0.119,0.81,0.402,1.312,0.359c0.178-0.016,0.071-0.396,0.212-0.492c0.106-0.067,0.063-0.239,0.097-0.361
		c0.031-0.12-0.021-0.323,0.099-0.362c0.147-0.049,1.313,0.397,1.269-0.112c-0.021-0.236-0.125-0.859,0.066-0.713
		c0.934,0.719,0.113,1.17,0.74,1.112c0.559-0.052,1.367,1.08,1.592,0.562c0.094-0.22-0.342-0.502-0.196-0.689
		c0.257-0.326,0.882,0.637,1.19,0.359c0.133-0.119,0.078,1.148,0.753-1.49c0.053-0.207,0.183,0.227,0.333,0.502
		c0.06-0.102,0.115-0.201,0.195-0.316C79.456,131.628,84.771,127.157,88.404,121.396"/>
</g>
<g id="Laag_3">
</g>
</svg>
