<?xml version="1.0" encoding="utf-8"?>
<!-- Generator: Adobe Illustrator 16.0.0, SVG Export Plug-In . SVG Version: 6.00 Build 0)  -->
<!DOCTYPE svg PUBLIC "-//W3C//DTD SVG 1.1//EN" "http://www.w3.org/Graphics/SVG/1.1/DTD/svg11.dtd">
<svg version="1.1" id="Laag_1" xmlns="http://www.w3.org/2000/svg" xmlns:xlink="http://www.w3.org/1999/xlink" x="0px" y="0px"
	 width="156px" height="152.667px" viewBox="0 0 156 152.667" enable-background="new 0 0 156 152.667" xml:space="preserve">
<g id="Laag_2">
</g>
<g id="Laag_1_1_">
	<path fill="#CCCCCC" d="M123.452,93.292c-0.222-0.099-0.533,0.291-0.718,0.131c-0.312-0.271,0.519-0.799,0.371-1.188
		c-0.123-0.33-0.82-0.095-0.972-0.412c-0.288-0.609,0.906-1.191,0.958-1.591c0.053-0.419-0.697-0.94-0.64-1.358
		c0.123-0.92,1.493-1.572-1.06-1.932c-4.885-0.682-3.703,2.462-4.485,2.992c-0.343,0.232-2.7,1.536-3.077,0.718
		c-0.083-0.182,0.389-0.229,0.423-0.428c0.308-1.744,0.614-0.415,1.392-1.011c0.566-0.432,0.078-3.973,1.06-5.078
		c0.784-0.879,2.974-0.936,3.591-1.885c0.387-0.596-0.186-1.903,0.248-2.461c0.494-0.633,2.288-0.367,2.906-1.013
		c0.482-0.501,1.006-1.394,1.607-1.983c0.836-0.82,2.129-1.335,2.492-1.717c0.102-0.11,0.34-0.181,0.309-0.326
		c-0.043-0.18-0.277-0.273-0.459-0.323c-0.162-0.044-1.058,0.248-0.949-0.406c0.039-0.229,0.98-0.828,0.984-0.838l-0.045-0.758
		c2.164-0.823,1.795,2.002,3.965,1.636c0.674-0.112,1.611-1.465,2.158-1.907c-0.13-0.106-0.443-1.391-0.429-1.564
		c0.119-1.366,1.896-3.142,1.707-4.479c-0.124-0.872-0.38-1.209,0.177-2.221c0.486-0.88,1.455-1.542,1.881-2.451
		c0.58-1.25,0.48-2.68,1.082-3.826c0.45-0.856,5.1-4.146,4.676-4.78c-1.461-2.193-4.729-0.791-6.155-2.681
		c-0.267-0.353,0-0.959-0.29-1.292c-0.641-0.744-3.678,0.587-4.432,0.038l0.158-0.973c-0.976-1.517-2.064,0.275-2.435-0.15
		c-1.124-1.292-1.449-4.134-2.011-4.583c-0.002-0.002-1.229-0.459-1.229-0.461c-0.494-0.221-1.282-0.758-1.817-0.813
		c-0.424-0.045-1.504,0.619-1.869,0.422c-0.414-0.221-1.363-1.432-2.477-1.691c-0.456-0.105-1.973,0.382-2.301,0.083
		c-0.32-0.291,0.095-1.422-0.164-1.782c0,0-1.059-0.442-1.059-0.445c-0.08-0.413,1.266-0.472,0.021-0.997
		c-0.211-0.089-0.458,0.204-0.675,0.125c-0.336-0.12-1.018-1.473-2.008-1.88c0,0-1.131-0.465-1.133-0.467
		c-0.152-0.336,0.668-1.25,0.638-1.63c-0.089-1.123-0.743-0.854-0.101-2.026c0.06-0.105,0.791-1.308,0.746-1.359
		c-1.015-1.148-2.037,1.46-2.447,1.785c-0.428,0.335-5.439,0.547-4.894-0.712c0.138-0.317,1.084-0.959,1.07-1.292
		c-0.001-0.012-0.791-0.898-0.791-0.91c-0.005-0.541,1.243-1.248,1.164-1.775c-0.104-0.699-3.298-2.187-3.946-2.052
		c-0.191,0.039-0.217,0.386-0.41,0.42c-0.763,0.13-0.029-2.509-0.691-2.906c-0.713-0.428-2.514-0.005-2.83-1.094
		c-0.28-0.964,0.574-3.443-0.723-4.174c-0.533-0.303-1.775,1.15-2.303,1.013c-2.475-0.646-2.092-4.342-2.156-6.19
		c-2.39,0.641-5.443-0.88-7.744,0.199c-2.559,1.199-2.25,4.404-3.271,6.893c-0.304,0.737-0.392,0.441,0,0.926
		c0.083,0.104,0.372,0.254,0.251,0.313c-0.398,0.184-1.174-0.074-1.05,1.017c0.073,0.647,0.766,1.351,0.901,1.725
		c0.082,0.236-0.896-0.914-1.334-0.563c-5.819,4.639-7.602,1.847-13.766,4.002c-2.832,0.99-1.839,4.313,0.796,4.092
		c0.169-0.016,0.422-0.192,0.508-0.045c0.175,0.299-2.204,0.014-2.326,0.014c-1.32,0.004-2.469,1.155-3.952,1.155
		c-1.174-0.002-5.296-2.636-6.77-3.425c-1.3-0.695-2.265,0.413-2.28,0.409c-0.063-0.019-0.688-2.594-0.717-3.511
		c-0.021-0.616,0.849-0.579,0.961-1.397c0.027-0.205,0.206-0.449,0.083-0.616c-0.645-0.877-4.693,0.535-6.199-2.216
		c-0.061-0.112-0.171,0.207-0.176,0.333c-0.024,0.727,0.919,1.276,0.506,2.06c-0.137,0.259-0.61,0.292-0.662,0.581
		c-0.149,0.82,0.175,2.906,0.758,3.277c0.336,0.215,0.003,0.898,0.319,1.877c0.02,0.063,0.3,1.356,0.297,1.36
		c-0.109,0.205-0.493,0.144-0.6,0.345c-0.053,0.101-0.301,1.573,0.141,1.318c0.189-0.109,0.304-0.026,0.157,0.042
		c-0.037,0.02-1.192,2.449-1.189,2.484c0.014,0.277,0.01,1.831,0.355,2.396c0.057,0.097,1.627,0.748,1.223,1.103
		c-0.27,0.234-0.637-0.406-0.991-0.397c-0.792,0.02-2.372,0.078-3.081-0.211c-1.196-0.484,0.16-2.53-1.175-1.862
		c-0.075,0.037,0.013,0.222-0.067,0.237c-0.161,0.032-0.309-0.147-0.472-0.134c-1.371,0.12,0.48,2.696-0.666,2.375
		c-0.095-0.027,0.209-0.097,0.224-0.193c0.037-0.266-0.161-1.672-0.32-1.882c-0.431-0.568-0.932,0.328-1.841,0.502
		c-0.341,0.065,0.286-0.943-0.046-1.037c0,0-0.919,0.251-0.921,0.251c-0.033-0.045,1.424-0.877,0.496-1.141
		c-0.167-0.046-0.146,0.336-0.292,0.429c-0.902,0.575-0.931-0.475-1.482-0.167c-0.151,0.082,0.127,0.383,0.021,0.519
		c-0.12,0.154-2.016,0.522-2.227,0.64c-0.152,0.083-0.129,0.476-0.296,0.427c-0.103-0.028-1.14-3.659-1.403-4.519
		c-0.319-1.032-0.875-1.044-1.634-0.223c-0.131,0.14,0.882-0.928,0.802-1.563c-0.007-0.054-0.102-0.042-0.157-0.047
		c-0.516-0.038-0.773-0.085-1.111,0.313c-0.087,0.103-0.299,0.438-0.262,0.31c0.567-1.91-0.669-0.197-2.03-0.606
		c-0.455-0.137,0.398-1.195-0.793-0.753c-0.857,0.317-0.512,1.761-1.108,1.98c-0.511,0.188-1.379-1.423-1.972-1.373
		c-0.393,0.036-0.684,0.551-0.716,0.944c-0.009,0.124,0.097,0.378-0.03,0.375c-0.787-0.003-0.522-2.873-1.656-1.283
		c-0.106,0.15-0.232-0.297-0.396-0.38c-0.828-0.416-1.366,0.983-2.164,0.361c-0.477-0.373,0.793-0.527-0.092-0.804
		c-0.397-0.124-0.863,0.429-1,0.463c-0.216,0.051-1.33-0.676-1.478-0.207c-0.245,0.778-2.129-0.319-3.148,2.881
		c-0.385,1.204,2.418,0.507,2.923,0.668c1.217,0.383-0.262,0.344,0.061,0.794c0.354,0.494,1.979-0.277,1.798,0.304
		c-0.069,0.221-0.481,0.136-0.618,0.324c-0.26,0.362,1.531,0.345,1.183,0.626c-0.206,0.168-2.7-0.527-3.056-0.698
		c-0.806-0.384,0.25-1.008-0.406-0.902c-0.33,0.054-0.404,0.456-0.693,0.557c-0.259,0.092,0.353,0.425,0.479,0.669
		c0.189,0.366-0.764,1.053-0.371,1.178c0.38,0.119,0.537-0.74,0.767-0.796c0.746-0.177,1.736,1.301,1.677,1.817
		c-0.021,0.165-0.066,0.331-0.148,0.472c-0.2,0.352-3.264-1.247-4.623-0.163c-0.162,0.128,0.394,0.126,0.59,0.188
		c0.679,0.215,1.646,0.978,1.952,1.65c0.576,1.271-0.875,3.496,1.637,3.097c0.568-0.092,0.762-1.652,0.986-1.503
		c0.74,0.497,0.513,1.709,1.207,1.147c0.996-0.807,0.294,0.503,0.979,1.332c0.31,0.376,1.105-0.004,1.341,0.152
		c0.789,0.522,1.334,1.812,2.045,2.422c0.402,0.347,0.96-0.168,1.097-0.187c0.33-0.042,0.944-0.835,0.848-0.518
		c-0.222,0.748-0.332,1.188-0.383,1.446c0.031,0.036,0.033,0.101,0.026,0.16c0.158,0.197,0.43,0.475,0.43,0.475
		c0.054,0.004,0.109-0.031,0.162-0.087c0.016-0.069,0.06-0.134,0.136-0.195c0.295-0.516,0.587-1.512,0.921-0.901
		c0.079,0.144-0.189,0.318-0.14,0.475c0.029,0.095-0.375,0.228-0.619,0.331c-0.069,0.029-0.118,0.063-0.163,0.096
		c-0.077,0.062-0.12,0.126-0.136,0.195c-0.064,0.274,0.262,0.59,0.337,0.748c0.292,0.615-0.928,1.654-0.472,2.176
		c0.746,0.854,0.108-1.162,0.58-1.37c0.339-0.15,1.153,0.045,1.44,0.425c0.066,0.089,0.302-0.773,0.277-0.946
		c-0.012-0.101-0.186-0.313-0.089-0.284c0.792,0.23,0.135,0.837,0.362,1.134c0.333,0.441,1.147-0.948,1.556-0.572
		c0.479,0.438-0.263,1.004,0.591,0.943c0.165-0.011-0.018-0.521,0.14-0.474c0.166,0.05,0.097,0.362,0.021,0.519
		c-0.529,1.099-0.619,0.593,0.916,1.037c0.266,0.077-0.982,0.101-0.777,0.289c0.002,0,1.188,0.085,1.189,0.085
		c0.585,0.25,0.581,0.682,1.308,0.89c0.188,0.054-0.375-0.107-0.562-0.161c-0.29-0.082-1.082-0.099-0.766,0.55
		c0.181,0.366,0.321,0.537,0.412,0.615c0.065,0.026,0.093,0.052,0.091,0.058c0.002-0.006-0.026-0.031-0.091-0.058
		c-0.127-0.049-0.39-0.094-0.857,0.026c-0.157,0.043-0.444-0.037-0.47,0.124c-0.181,1.063,1.692,1.768-0.181,1.229
		c-0.358-0.101,0.47,0.651,0.83,0.754c0.84,0.242,1.136,0.839,1.315,0.89c0.992,0.282,1.218-1.344,2.917-0.458
		c0.284,0.149,2.419,1.934,2.346,2.193c-0.107,0.386-0.766-0.286-1.066-0.552c-0.423-0.376-1.594-2.339-2.933-1.338
		c-0.263,0.199-0.18,0.633-0.268,0.95c-0.11,0.382-1.043,0.39-0.917,0.768c0.201,0.601,2.602,0.894,2.025,2.11
		c-0.531,1.12-1.885,1.098-2.264,2.437c-0.061,0.212,1.535,2.444,1.583,2.5c0.649,0.735,0.279,2.091,0.38,2.837
		c0.108,0.803,1.138,1.042,1.408,1.502c0.083,0.142-0.234,0.347-0.131,0.477c0.001,0,1.312,0.36,1.313,0.36
		c0.659,0.364-0.157,0.977,0.167,1.325c0.001,0.002,1.051,0.031,1.052,0.031c0.523,0.37,0.319,1.182,0.994,1.548
		c0.163,0.092,0.25-1.25,1.181-0.445c0.92,0.794-1.832,1.304-1.569,1.878c0.454,0.988,0.507,1.002,0.872,2.024
		c0.069,0.189,0.403,0.547,0.204,0.565c-0.228,0.02-0.456-0.277-0.662-0.18c-0.313,0.154,0.211,0.725,0.075,1.044
		c-0.05,0.115-0.01,0.254-0.013,0.377c-0.004,0.131,0.102,0.328-0.015,0.381c-0.154,0.078-0.902,0.126-0.958,0.256
		c-0.371,0.874,0.655,1.507,0.784,2.17c0.002,0.014-1.476-1.672-1.871-1.441c-0.893,0.521-0.294,1.348,0.112,1.565
		c0.733,0.399,1.31,1.54,1.552,2.207c0.569,1.563,1.77,2.146,1.791,4.053c0.008,0.851-0.169,1.741-0.252,2.591
		c-0.074,0.769-0.057,0.43-0.072,1.024c-0.001,0.067-0.015,0.138-0.022,0.205c0.052,0.175,0.107,0.354,0.165,0.546
		c0.154,0.346,0.233,0.501,0.172,0.62c0.039,0.161,0.079,0.346,0.119,0.547c0.399,0.64,1.153,1.688-0.119,1.354l0.143-1.236
		c-0.007-0.047-0.016-0.077-0.024-0.118c-0.143-0.228-0.241-0.403-0.188-0.448c0.041-0.033,0.053-0.066,0.069-0.099
		c-0.06-0.242-0.116-0.44-0.172-0.62c-0.047-0.109-0.095-0.217-0.152-0.371c-0.021-0.053-0.019-0.115-0.013-0.175
		c-0.141-0.494-0.244-1.022-0.263-2.195c-0.032-2.022-1.379-3.733-1.977-5.381c-0.098-0.267-0.579,0.116-0.796,0.3
		c-0.877,0.732-1.061,2.248-1.407,3.327c-0.894,2.79-2.882,5.513-3.393,8.417c-0.198,1.133,3.52-3.629,2.374,0.643
		c-0.104,0.392-1.691-0.459-1.696-0.457c-1.159,0.481-1.512,3.18-1.9,4.19c-0.9,2.343-4.839,11.552-7.019,12.31
		c-0.703,0.242-1.421-0.144-1.958-0.295l0.097,0.289c0.383,0.461,1.037,1.623,1.57,1.869c0.538,0.25,1.754,0.25,2.13,0.94
		c0.591,1.091-1.313,1.86-1.475,2.665c-0.25,1.234,1.876-0.281,1.935-0.239c0.135,0.099-0.029,0.333-0.042,0.498
		c-0.013,0.169-0.126,0.356-0.043,0.502c0.943,1.647,4.057,1.472,5.267,2.687c0.603,0.604,0.296,2.258,0.949,2.801
		c1.19,0.986,3.263-0.367,4.449,0.895c0.647,0.69,0.171,2.084,1.447,2.407c0.527,0.132,1.238-0.45,1.766-0.317
		c0.548,0.139,1.022,1.103,1.582,1.16c0.002,0,0.705-0.586,0.707-0.586c0.815-0.023,2.485,1.633,3.289,1.066
		c0.513-0.362-0.339-2.311,1.055-2.027c0.76,0.148,2.894,1.512,3.41,2.094c0.003,0.002,0.475,1.125,0.477,1.129
		c0.504,0.389,1.799,0.238,2.241,0.785c0.269,0.332,0.364,1.312,0.47,1.797c0.239-0.393,0.546-0.69,0.775-0.746
		c0.662-0.152,3.729,0.855,1.746,2.938c0.573,0.335,1.729,0.742,2.145,1.252c0.374,0.459-0.014,1.261,0.793,1.444
		c0.833,0.189,1.881-0.586,2.711-0.4c0.592,0.135,3.612,2.51,3.96,2.393l0.442-1.164c1.312-1.066,4.161,0.447,5.405,0.91
		c-0.087-0.771-0.652-1.285-0.889-1.951c-0.505-1.424,0.887-2.596,0.596-3.656c-0.031-0.111-0.995-0.4-0.784-0.674
		c0.538-0.684,0.817-0.475,1.27-0.737c0.142-0.08,0.151-0.321,0.104-0.479c-0.431-1.428,1.165-0.963,0.765-1.854
		c-0.115-0.258-0.672-0.378-0.199-0.801c0.52-0.463-0.129,0.675,0.426,0.595c0.507-0.071,1.204-1.373,1.645-1.668
		c1.09-0.735,1.842-0.147,2.844-0.409c0.918-0.242,1.74-1.248,2.731-1.8c-0.259,0.08-0.454,0.123-0.345,0.024
		c0.561-0.516,2.018-1.438,2.896-1.426c2.183,0.032,1.504,1.334,2.957,2.021c0.444,0.211,3.578,0.883,3.645,1.304
		c0,0.002-0.493,0.657-0.492,0.659c0.034,0.371,2.085,1.03,2.375,0.959c0.503-0.123,0.346-0.382,0.079-0.621
		c-0.047-0.028-0.084-0.065-0.117-0.101c-0.222-0.178-0.461-0.327-0.481-0.381c-0.142-0.385,0.345-1.049,0.281-1.455
		c-0.033-0.2-0.459-0.592-0.26-0.553c0.907,0.174-0.047,1.803,0.46,2.389c0.033,0.035,0.07,0.072,0.117,0.101
		c0.086,0.052,0.179,0.101,0.321,0.114c0.387,0.033,0.679-0.487,1.066-0.469c0.299,0.017,1.239,0.809,1.586,0.303
		c0.357-0.529-0.602-0.686-0.522-1.105c0.129-0.683,0.893-0.688,1.323-0.252c0.115,0.115-0.162,0.336-0.09,0.485
		c0.465,0.978,0.471-0.136,1.057,0.196c0.939,0.531-2.436,1.283-2.434,1.302c0.008,0.173,0.057,0.347,0.084,0.521
		c0.145,0.881,2.754,0.188,3.049,0.316c0.924,0.398-0.15,1.703,0.125,2.281c0.129,0.267,2.731,0.656,3.279,1.099
		c1.053,0.851,1.01,2.384,1.605,2.29c1.39-0.215-0.227-1.291,0.926-1.085c0.391,0.069,0.643,0.465,0.979,0.671
		c0.258,0.158,0.729-0.096,0.891,0.158c0.621,0.973-0.583,0.111-0.484,0.667c0.028,0.147,0.297,0.052,0.445,0.075
		c1.275,0.225-0.243-0.527,0.834-1.106c0.792-0.425,1.316,0.979,1.831,1.067c0.422,0.072,0.157-1.014,0.563-1.154
		c0.34-0.115,0.707,0.217,1.064,0.182c1.505-0.149,1.309,0.215,2.18-1.008c0.079-0.111,0.328-0.232,0.238-0.337
		c0,0-1.241-0.204-1.243-0.207c-0.151-0.307,0.746-0.081,0.97-0.338c0.389-0.448,0.791-0.885,1.17-1.556
		c0.235-0.42,1.033,0.518,1.416,0.234c0.557-0.412,0.707-1.222,1.164-1.562c0.543-0.4,1.641,0.126,1.808,0.046
		c0.308-0.146-0.095-1.25,0.415-1.435c1.621-0.582,2.424,0.24,3.796-1.145c0.077-0.076,0.274-0.064,0.517-0.018
		c-0.039-0.299-0.148-1.172-0.148-1.174c0.32-0.856,4.056-3.008,2.478-4.36c-0.653-0.56-4.961,0.915-7.376-3.177
		c-0.6-1.014,0.154-1.334,0.32-1.947c0.139-0.512-1.16-0.574-0.668-1.361c0.896-1.438,3.619-2.209,2.492-4.342
		c-0.442-0.841-2.107-1.066-2.521-1.919c-0.144-0.297,0.252-0.657,0.162-0.976c-0.101-0.357-1.215-1.351-1.131-1.69
		c0.046-0.187,0.372-0.104,0.558-0.155c1.484-0.42,1.141,0.326,1.889,0.312c0.646-0.008,4.172-2.797,4.104-3.58
		c-0.052-0.605-1.428-1.184-1.644-1.77c0,0,0.074-1.152,0.074-1.154c0.01-0.192,0.11-0.401,0.035-0.58
		c-1.082-2.5-3.73-2.065,1.227-4.301l0.076,0.242C123.906,94.833,123.967,93.522,123.452,93.292"/>
</g>
<g id="Laag_3">
</g>
</svg>
