<?xml version="1.0" encoding="utf-8"?>
<!DOCTYPE svg PUBLIC "-//W3C//DTD SVG 1.1//EN" "http://www.w3.org/Graphics/SVG/1.1/DTD/svg11.dtd">
<svg version="1.1" id="Laag_1" xmlns="http://www.w3.org/2000/svg" xmlns:xlink="http://www.w3.org/1999/xlink" x="0px" y="0px"
	 width="81px" height="94px" viewBox="0 0 81.25 94.5" enable-background="new 0 0 81.25 94.5" xml:space="preserve">
<g id="Laag_2">
</g>
<g id="Laag_1_1_">
	<path fill="#CCCCCC" d="M14.03,49.616c0-0.067-0.02-0.11-0.052-0.142C13.999,49.602,14.032,49.691,14.03,49.616"/>
	<path fill="#CCCCCC" d="M20.783,60.066c0.018,0.017-0.023-0.025-0.093-0.092C19.97,59.628,20.589,59.911,20.783,60.066"/>
	<path fill="#CCCCCC" d="M13.567,51.15C13.766,50.803,13.098,50.197,13.567,51.15"/>
	<path fill="#CCCCCC" d="M25.512,58.751C24.421,59.152,26.923,58.773,25.512,58.751"/>
	<path fill="#CCCCCC" d="M74.617,18.605c0.322-0.988-0.76-2.424-0.461-3.42c0.447-1.488,2.279-1.581,3.162-2.48
		c0.449-0.461-0.203-3.702-0.525-4.16c-0.529-0.742-3.52-1.628-4.396-1.626c-3.879,0.033,1.607,4.351-0.469,5.967
		c-0.611,0.475-6.339,1.211-7.674,1.64c-0.439,0.143-1.798,0.706-2.24,0.544l-0.231-0.725c-0.476-0.403-3.028-1.562-3.632-1.498
		c-0.305,0.029-0.766,1.095-1.053,1.048c-0.893-0.141-2.701-2.913-3.15-3.022c-0.459-0.116-1.32,0.813-1.807,0.838
		c-0.439,0.024-0.822-0.762-1.332-0.669c-0.345,0.065-0.363,0.705-0.705,0.779c-0.158,0.033-0.857-0.499-1.121-0.188l-0.135,0.992
		c-0.742,0.681-6.818,1.306-7.958,1.353c-1.902,0.079-0.677,1.459-3.879,1.018c-0.232-0.033-0.824,0.343-0.69,0.148
		c0.066-0.097,0.122-0.193,0.174-0.296L36.309,14.9c-3.213,0.112-0.903,2.356-2.312,3.036c-0.002,0.002-0.76-0.47-0.763-0.467
		c-0.387,0.141-0.349,0.815-0.71,1.006c-1.184,0.616-2.61-0.713-3.75-0.626c-0.014,0.002-1.276,0.527-1.29,0.529
		c-0.3,0.01-0.465-0.508-0.763-0.474c-1.913,0.218-1.913,2.622-3.09,3.523c-0.132,0.101-8.54,1.579-8.963,1.382
		c-0.194,1.395,1.165,2.202,0.794,3.438c-0.792,2.632-2.188,1.446-2.976,3.23c-0.502,1.136-0.445,3.56-1.286,4.438
		c-0.111,0.117-3.818,1.128-3.973,1.747c-0.177,0.685,1.209,1.741,1.15,2.452c-0.087,1.056-1.086,0.112-1.522,0.253
		c-0.101,0.031,0.182,0.146,0.19,0.244c0,0.002-0.248,1.149-0.248,1.149c-0.043,0.192,0.047,0.482-0.127,0.574
		c-0.381,0.205-1.704-0.364-2.148-0.364c-0.213,0-0.419,0.114-0.624,0.221c0.606,0.24,1.571,0.354,1.819,0.884
		c0.197,0.422-0.754,0.997-0.574,1.229c0.109,0.139,0.767-0.229,0.769,0.243c0,0.191,0.643-0.179,0.573-0.002
		C6.312,43,6.345,45.511,7.649,45.982c0.307,0.109,0.827-0.163,1.106-0.005c1.016,0.571,0.076,0.298,0.437,0.978
		c0.397,0.751,1.719,1.539,2.327,2.195c0.345,0.369,0.144,1.718,0.595,1.713c0.207-0.004,0.184-0.43,0.382-0.494
		c0.244-0.081-0.366-0.314-0.198-0.492c0,0,0.567-0.982,0.567-0.984c0.078-0.16,0.078-0.632,0.19-0.492
		c0.279,0.347,0.472,1.051,0.203,1.225c-0.114,0.074,0.532-0.333,0.72-0.148c-0.021-0.135-0.026-0.312,0.048-0.35
		c0.171-0.092,0.458-0.159,0.578-0.01c0.11,0.14,0.137,0.764,0.4,0.98l0.964-0.015c0.052-0.144-0.444-0.097-0.392-0.24
		c0.09-0.235,0.347-0.61,0.573-0.498c1.493,0.734,0.227,1.031,0.604,1.955c0.331,0.804,0.577-0.446,0.591,0.729
		c0.008,0.404-0.579-0.801-0.977-0.725c-0.246,0.051,0.064,0.674-0.184,0.741c-0.777,0.205-0.561-0.901-0.593-0.976
		c-0.047-0.117-0.266,0.055-0.384,0.005c-1.622-0.663-1.033,1.207-1.543,0.262c-0.04-0.069-0.067-0.13-0.099-0.187
		c-0.059,0.105-0.196,0.19-0.482,0.192c-0.256,0.003-0.114,0.357-0.187,0.737c-0.127,0.686-1.391-0.553-0.765,0.99
		c0.481,1.188,1.517-0.068,1.548-0.016c0.311,0.512,0.205,1.516,0.603,1.956c0.354,0.388,1.124-0.071,1.374,0.964
		c0.073,0.31-0.518,1.254,0.016,1.473c0.286,0.115,0.579-0.738,0.773-0.502c0.16,0.199-0.187,0.738-0.187,0.738
		s0.678,0.727,0.401,0.731c-0.155,0-0.506,0.153-0.388,0.252c0.166,0.134,0.53,0.03,0.591,0.235c0,0.003-0.666,0.879-0.575,0.988
		c0.725,0.883,2.209-0.045,2.914-0.777c0.471-0.491-0.546-1.871-0.027-1.721c0.853,0.254,0.083,1.067,0.414,1.467
		c0.206,0.248,0.858,0.875,1.1,1.113c0.061,0.028,0.11,0.053,0.188,0.09c0.729,0.348,1.199-0.396,2.039-0.526
		c0.296-0.052,1.257,0.253,1.371,0.214c0.175-0.061,0.331-0.988,0.756-0.996c0.194-0.008,0.344-0.008,0.469-0.005
		c0.187-0.065,0.464-0.156,0.89-0.274c1.116-0.31,2.543,1.405,2.767,1.401c0.183-0.004,0.503-0.752,0.758-0.758
		c0.438-0.015,0.919,0.825,1.574,0.446c0.328-0.189,0.04-1.582,0.145-1.724c0.09-0.12,0.264,0.156,0.394,0.234
		c0.948,0.554,0.848,1.141,1.229,1.802c0.068,0.12,0.087,0.291,0.205,0.359c0.289,0.168,0.905-1.359,1.124-1.508
		c0.423-0.285,0.531,0.889,0.615,0.963c0.914,0.765,1.086-0.234,0.816,0.953c-0.125,0.533,1.46,0.062,1.569,0.19l0.22,0.728
		c0.607,0.422,0.193-1.437,1.35-0.541c0.192,0.151-0.282,0.873,0.418,0.723c0.306-0.069,0.248-0.803,0.56-0.76
		c0.205,0.027,0.349,0.273,0.411,0.476c0.026,0.099,0.979,0.069,0.995,0.451c0.054,1.362-3.91,0.803-4.437,1.884
		c-0.004,0.006,2.448,0.262,1.221,1.182c-1.138,0.854-3.729-2.19-5.379-2.515c-1.967-0.382-6.604-2.918-7.695-2.733
		c-1.493,0.25-1.134,1.78-2.093,2.496c-0.765,0.572-3.032-0.819-3.141-0.678c-0.213,0.279-0.686,1.434-0.929,2.959
		c-0.219,1.354-2.54,0.779-2.515,2.488c0.006,0.449,2.025,0.523,2.374,0.945c0.552,0.666-0.284,1.578,0.23,2.199
		c0.149,0.18,0.364-0.441,0.585-0.375c1.163,0.338,2.851,1.922,3.414,2.995c1.52,2.892-0.943,2.49-0.9,4.425
		c0.007,0.435,0.892,2.727,1.054,2.91c0.098,0.121,0.234-0.248,0.39-0.252c0.157-0.002,0.36,0.088,0.403,0.236
		c0.189,0.646-0.997,2.302,0.65,2.431c0.215,0.019,0.392-0.325,0.595-0.257c0.007,0.002,0.82,1.2,0.825,1.203
		c0.002,0.002,0.65-0.83,0.65-0.83c0.34-1.502-1.467-4.604,2.435-3.648c0.834,0.207-0.782,1.664,0.251,1.953
		c0.149,0.038,0.234-0.255,0.391-0.257c1.192-0.032,2.61,4.629,2.353,5.312c-0.054,0.146-0.397,0.1-0.394,0.255
		c0.016,0.565,1.167,0.575,1.431,0.938c0,0,0.232,0.97,0.234,0.97c0.643,0.492-0.256-2.976-0.1-3.174
		c0.134-0.171,0.496-0.07,0.592-0.265c0.116-0.228-0.474-0.719-0.221-0.728c0.744-0.022-0.107-1.595,1.335-1.998
		c0.212-0.062,1.627-0.18,1.798-0.062c0.496,0.353,0.274,1.515,0.465,1.94c0.084,0.184,0.442-0.144,0.601-0.022
		c0.584,0.44,0.825,1.813,1.281,2.155c0.269,0.201,0.742-0.246,1.002-0.035c0.479,0.384,0.563,2.124,1.854,1.148
		c0.59-0.447-0.801-0.813-0.844-0.945c-0.2-0.645,0.705-0.354-0.035-0.977c-0.4-0.34-1-0.319-1.238-0.929
		c-0.624-1.581,0.418,0.496,0.37-0.75c-0.004-0.134-0.328,0.13-0.397,0.015c-0.128-0.211-0.177-0.537-0.029-0.73
		c0.298-0.391,1.02,0.516,0.982-0.527c-0.008-0.156-0.347-0.088-0.41-0.229c-0.437-0.961-0.985-3.518-1.361-4.354
		c-0.087-0.19-0.224-0.39-0.414-0.475c-0.183-0.083-0.467,0.173-0.597,0.021c-0.136-0.156,0.052-0.41,0.076-0.614
		c0.026-0.205,0.125-0.416,0.081-0.614c-0.188-0.766-3.39-4.57-2.368-5.363c0.854-0.674,0.705,0.555,1.408,0.744
		c0.832,0.229,0.736-0.888,1.579-0.057l0.232,0.971c0.111,0.062,0.194-0.172,0.288-0.255c0.09-0.083,1.191,0.101,1.292,0.194
		c0.872,0.798-1.405,0.496-0.742,1.255c0.829,0.946,0.583,0.19,1.026,0.936c0.078,0.138,0.313,0.354,0.407,0.23
		c0.146-0.193-0.159-0.524-0.028-0.732c0.172-0.282,0.742,0.181,0.987-0.038c0.296-0.266-1.167-0.582-0.038-0.979
		c0.592-0.208,2.526-0.143,2.942-0.615c0.392-0.438-1.79-1.57-1.849-1.636c-0.021-0.021,0.594-0.884,0.549-1.003
		c-0.155-0.428-0.584-0.165-0.791-0.088c-0.92,0.324,0.877,1.381-0.143,1.354c-0.291-0.01-1.857-0.9-2.021-1.146
		c-0.203-0.297,0.025-1.323-0.058-1.467c-0.107-0.182-1.085-0.08-0.617-0.712c0.116-0.155,0.671,0.128,0.785-0.03
		c0.096-0.131,0.055-0.344-0.021-0.49c-0.275-0.538-3.396-0.953-2.027-1.637c1.048-0.524,2.926-0.558,4.086-0.896
		c0.654-0.194,1.557-1.479,2.299-1.325c1.197,0.243-0.119,0.76-0.154,0.985c-0.062,0.427,0.761,0.19,1.604,0.664
		c0.256,0.145,1.055,1.913,1.268,1.903c1.677-0.08,2.212,2.461,3.059,2.057c0.299-0.143,0.752-1.924,0.479-2.23
		c-0.07-0.078-1.491-3.689-1.398-4.346c0.118-0.775,2.959-1.109-0.729-2.908c-0.782-0.381-1.978-0.078-2.754-0.359
		c-0.416-0.152-0.481-0.961-0.832-1.188c-0.258-0.169-0.787-0.147-0.801-0.455c-0.021-0.425,1.063-0.053,0.162-0.746
		c-0.34-0.258-2.308,0.479-2.915,0.127c-0.222-0.127,0.572-0.261,0.563-0.515c-0.018-0.396-0.949,0.13-1.178-0.196
		c-0.072-0.104,0.479-0.999,0.328-1.487c-0.269-0.865-2.386,0.729-2.707,0.354c-0.412-0.481,0.126-1.34-0.645-1.692
		c-1.047-0.482-2.372,0.254-3.309-0.373c-0.315-0.213-0.246-0.873-0.613-0.963c-0.375-0.094-1.805,1.163-2.126,0.069
		c-0.23-0.772,0.521-0.386,0.756-0.515c0.941-0.521,0.758,0.055,1.94,0.18c0.018,0.002,2.929-1.665,2.938-1.699
		c0.253-0.988-1.522-3.027-1.558-3.016c-0.193,0.071-0.161,0.496-0.367,0.508c-0.163,0.004,0.019-0.333-0.018-0.492
		c0-0.005-0.427-1.215-0.427-1.215c0.073-0.409,1.091-0.347,1.325-0.538c0.087-0.072-0.016-0.952,0.155-0.99
		c0.41-0.09,4.133,2.424,3.199,3.074c-0.128,0.087-0.26-0.296-0.399-0.232c-0.688,0.326-0.422,1.594-0.748,0.523
		c-0.045-0.146-0.248-0.27-0.394-0.23c-0.271,0.066-0.467,0.495-0.355,0.749c0.349,0.806,3.411-1.126,3.414-1.361
		c0.038-2.6-3.828-4.039-5.026-5.706c-0.619-0.862-0.449-2.292-1.064-3.158c-0.874-1.232-3.839-3.253-3.59-5.047
		c0.139-1.025,1.272-2.209,1.218-3.236c-0.022-0.376-1.141-0.779-0.992-1.445c0.165-0.742,0.568,0.065,0.751-0.025
		c0.392-0.183-0.297-1.182,0.347-0.994c0.422,0.123,0.298,0.707,0.76,0.219c0.087-0.089-0.006-0.243-0.013-0.368
		c-0.003-0.123-0.097-0.28-0.012-0.369c0.173-0.181,0.548,0.118,0.754-0.027c0.63-0.444-0.058-1.227,0.894-1.26
		c0.358-0.014,1.014,1.667,1.004,1.688c-0.225,0.404-1.732,0.205-1.862,0.557c-0.213,0.577,1.326,0.975,0.812,1.697
		c0.128-0.005,0.253-0.012,0.381-0.016c0.125-0.005,0.255-0.047,0.377-0.012c0.75,0.213,1.13,0.843,1.933,1.153
		c3.215,1.253,1.634,0.575,2.397,3.105c0.549,1.817,1.114,1.479,2.75,2.101c0.213,0.077,2.496,0.145,2.278-0.108
		c-0.405-0.477-2.239-0.898-2.913-1.341c-0.635-0.423-3.251-3.097-1.291-3.641c3.278-0.907,5.773,6.162,7.03,4.355
		c0.161-0.23-0.179-0.78-0.237-0.973c-0.109-0.353,0.201-0.803-0.063-1.229c-0.019-0.032-5.521-2.519-2.999-3.304
		c1.333-0.415,3.582-0.053,4.955,0.742c0.777,0.45,1.498,3.652,2.753,1.825c0.028-0.047-1.312-1.29-1.405-1.401
		c-1.059-1.288-1.18-0.877-2.542-1.593c-0.082-0.044-0.786-1.191-0.815-1.191c-0.349,0.018,0.019,0.939-0.328,1
		c-0.903,0.165-1.98-0.651-1.777-1.635c0.07-0.342,1.266-0.267,1.104-0.548c-0.498-0.871-3.229-1.231-2.568-2.586
		c1.078-2.219,2.961,0.149,4.501-0.223c2.015-0.482,1.916-2.756,3.2-3.374c2.311-1.106,2.777,1.959,4.554,0.973
		c0.901-0.498,1.887-1.922,2.481-2.369c0.306-0.232,0.737-0.435,1.101-0.315c1.12,0.359-0.058,0.555,0.065,0.981
		c0.045,0.161,0.336,0.033,0.502,0.049c0.562,0.057,1.42-0.098,1.94,0.038c0.685,0.175,1.502,0.716,2.308,0.83
		c1.478,0.209,4.153,0.197,5.08,0.128c0.188-0.012,0.547-0.229,0.562-0.041c0.021,0.293-0.029,0.91,0.008,1.54l0.104-0.067
		C72.107,21.865,74.484,18.999,74.617,18.605"/>
	<path fill="#CCCCCC" d="M65.678,33.321c0.055,0.773-1.085,1.393-1.211,1.807c-0.076,0.236,0.815,1.25,0.287,1.46
		c-0.025,0.009-1.268-0.617-1.396-0.895c-0.104-0.226,0.522-0.277,0.539-0.528c0.012-0.174-0.082-0.372-0.224-0.478
		c-0.427-0.322-0.88,0.909-0.886,1.044c-0.01,0.276,0.699,0.763,0.43,0.711c-1.158-0.22-0.57,0.071-0.617-0.7
		c-0.029-0.451-1.57,0.705-1.316,0.329c0.402-0.591-0.562-1.817-0.328-2.193c0.621-0.986,2.57,0.196,2.877,0.307
		C64.545,34.437,64.579,32.082,65.678,33.321"/>
	<path fill="#CCCCCC" d="M55.52,48.965c1.5,1.137,0.621,0.91,1.06,1.661c0.104,0.174,1.437,0.735,1.411,0.903
		c-0.211,1.259-2.823-0.775-2.967-1.063C54.934,50.293,55.452,49.168,55.52,48.965"/>
	<path fill="#CCCCCC" d="M11.743,52.582c0.297,1.096,0.688,3.161-0.682,3.605c-0.39,0.127-0.727,0.41-0.922-0.254
		C9.936,55.229,11.195,51.904,11.743,52.582"/>
	<path fill="#CCCCCC" d="M41.798,48.893c1.242,0.906,2.899,4.056,4.427,3.984c0.215-0.011,0.364-0.311,0.57-0.273
		c0.588,0.104,1.057,1.188,1.62,1.399c0.872,0.328,2.176-0.331,3.101-0.155c0.937,0.178-0.117,0.49,0.051,0.979
		c0.16,0.468,1.311,0.682,1.422,1.155c0,0.002-0.53,1.009-0.53,1.009c-0.04,0.593,0.582,2.938,0.955,3.39
		c0.877,1.047,2.715,0.592,3.444,0.874c0.707,0.275,0.847,2.817-0.103,2.871c-0.323,0.015-1.124-0.785-1.409-0.659
		c-0.16,0.069,0.002,0.453-0.17,0.5c-0.587,0.156-1.025-1.412-1.268-1.648l-1.211-0.674c-0.038-0.137,0.619-1.259-0.271-1.457
		c-0.208-0.047-0.373,0.345-0.572,0.271c-0.293-0.104,0.562-0.451,0.547-0.764c-0.01-0.213-1.739-1.793-2.047-1.861
		c-1.019-0.217-4.049,0.809-4.701-0.512c-0.157-0.315,0.427-0.657,0.342-0.998c-0.196-0.805-0.95-0.703-1.404-0.92
		c-0.932-0.45-1.383-2.016-2.244-2.606c-0.432-0.293-3.723-1.743-4.13-1.555c-0.159,0.073,0.306,0.333,0.213,0.479
		c-0.059,0.092-1.825,0.61-1.916,0.564c-0.14-0.074,0.186-0.254,0.274-0.378C37.902,50.389,40.103,49.561,41.798,48.893"/>
	<path fill="#CCCCCC" d="M10.232,57.995c0.238,0.586,0.69,1.33,0.793,1.954c0.042,0.246-0.514,1.064,0.012,1.228
		c0.201,0.06,0.38-0.313,0.581-0.253c0.304,0.094,1.48,1.87,1.585,2.191l-0.186,0.74c-0.801,0.51-1.37-0.603-1.966-0.722
		c-0.004,0-1.365,0.259-1.367,0.257c-0.938-0.461-0.336-2.815-0.861-1.955L8.7,62.416c-0.671,0.725-1.035-0.854-0.984-1.221
		C8.076,58.675,9.792,61.496,10.232,57.995"/>
	<path fill="#CCCCCC" d="M44.773,63.984c0.979,0.672-0.104,1.777-0.92,1.513C43.762,65.468,44.529,63.998,44.773,63.984"/>
	<path fill="#CCCCCC" d="M60.055,63.441c0.268,0.295,0.704,0.992,1.057,1.162c0.117,0.061,0.262-0.014,0.394-0.021
		c0.13-0.009,0.312-0.128,0.392-0.023c0.26,0.334,0.104,0.844,0.156,1.268c0.479,3.89-3.142-1.795-3.142-1.824
		C58.916,63.323,59.671,63.464,60.055,63.441"/>
	<path fill="#CCCCCC" d="M11.859,66.068c0.778,1.266,3.74,2.717,3.575,3.149l-0.993-0.479c-1.191,0.012-0.002,1.758-1.167,1.235
		C11.972,69.393,9.905,66.9,11.859,66.068"/>
	<path fill="#CCCCCC" d="M55.206,68.135c1.073,0.797-0.651,2.441-0.864,2.254C53.564,69.697,54.434,68.177,55.206,68.135"/>
	<path fill="#CCCCCC" d="M63.27,67.663c0.328,0.147,2.321,0.663,2.424,0.823C67.172,70.859,60.725,68.633,63.27,67.663"/>
	<path fill="#CCCCCC" d="M66.988,70.122c0.355,0.382,1.342,0.085,1.414,0.394C68.432,70.652,66.18,72.589,66.988,70.122"/>
	<path fill="#CCCCCC" d="M62.059,70.436c-0.121,0.172-0.361,0.515-0.361,0.515S61.938,70.607,62.059,70.436"/>
	<path fill="#CCCCCC" d="M66.57,75.79c-0.319,0.742-0.479,2.085-1.37,1.927C64.006,77.503,65.357,74.92,66.57,75.79"/>
	<path fill="#CCCCCC" d="M69.891,74.829c1.24,6.011-2.965,2.635-2.68,1.651C67.471,75.605,69.374,74.277,69.891,74.829"/>
	<path fill="#CCCCCC" d="M58.143,81.693c0.047,0.781-1.643,2.295-2.512,1.605c-0.162-0.125-0.021-0.406-0.035-0.609
		c-0.013-0.201-0.133-0.435-0.029-0.608c0.345-0.599,1.486,0.785,1.623,0.397C57.6,81.285,55.604,81.838,58.143,81.693"/>
	<path fill="#CCCCCC" d="M68.379,84.977c0.352,0.297,1.498,0.988,1.318,1.627c-0.127,0.457-1.484,0.802-1.387,0.336
		C68.439,86.309,69.645,86.323,68.379,84.977"/>
	<path fill="#CCCCCC" d="M39.177,87.959c1.232,1.234,2.151,1.471,1.12,3.052c-0.125,0.197-0.155,0.525-0.38,0.583
		C39.404,91.729,38.096,88.67,39.177,87.959"/>
	<path fill="#CCCCCC" d="M36.884,37.707c0.068,0.219,0.117,0.368,0.123,0.36C37.094,37.971,36.95,37.837,36.884,37.707"/>
	<path fill="#CCCCCC" d="M36.875,37.669c0.006,0.014,0.006,0.024,0.01,0.038C36.882,37.693,36.876,37.683,36.875,37.669"/>
	<path fill="#CCCCCC" d="M71.782,30.916c-0.597,0.129-0.746,0.165-1.347,0.294C67.116,31.939,71.755,30.547,71.782,30.916"/>
	
		<text transform="matrix(0.3369 0.9415 -0.9415 0.3369 70.9717 69.8564)" fill="#CCCCCC" font-family="'Helvetica-BoldOblique'" font-size="8.8474"> </text>
</g>
<g id="Laag_3">
</g>
</svg>
