<?xml version="1.0" encoding="utf-8"?>
<!DOCTYPE svg PUBLIC "-//W3C//DTD SVG 1.1//EN" "http://www.w3.org/Graphics/SVG/1.1/DTD/svg11.dtd">
<svg version="1.1" id="Laag_1" xmlns="http://www.w3.org/2000/svg" xmlns:xlink="http://www.w3.org/1999/xlink" x="0px" y="0px"
	 width="68px" height="64px" viewBox="0 0 68.833 64.667" enable-background="new 0 0 68.833 64.667" xml:space="preserve">
<g id="Laag_2">
</g>
<g id="Laag_1_1_">
	<path fill="#CCCCCC" d="M52.967,59.855c-0.135-0.072-0.305-0.006-0.454-0.01c-0.154-0.002-0.315,0.045-0.459-0.008
		c-1.15-0.424-3.042-1.709-3.935-2.561c-0.457-0.431-0.834-1.768-1.399-2.01c-0.175-0.077-1.543,0.215-2.329,0.102
		c0.396,0.287,0.878,0.6,1.046,0.604c0.101,0.003,0.188-0.344,0.187-0.241c-0.008,0.253,0.396,0.832,0.16,0.742
		c-1.863-0.692-3.162-2.054-4.984-2.745c-0.514-0.193-1.016-0.159-1.562-0.178c-0.471-0.018-1.451-0.989-1.306-0.543
		c0.255,0.779,0.544,0.254,0.151,0.75c0,0,1.519,0.3,1.619,0.304c0.713,0.024,2.101,0.735,2.678,1.078
		c0.178,0.103,0.266,0.317,0.346,0.503c0.036,0.076-0.066,0.193-0.008,0.246c1.201,0.968,2.689,0.822,3.781,0.854
		c0.354,0.012,2.652,1.778,2.681,1.797c0.144,0.103,0.173,0.32,0.168,0.498c-0.002,0.06-0.179-0.064-0.183-0.004
		c-0.002,0.102,0.088,0.192,0.176,0.25c0.371,0.238,1.639,0.303,1.802,0.781c0.312,0.9,1.503,1.796,2.505,2.271
		c0.002,0,0.531,0.748,0.531,0.748c0.126,0.004,0.008-0.244,0.01-0.369c0-0.086-0.049-0.207-0.041-0.291l-0.136-0.082
		C53.821,61.696,53.65,60.221,52.967,59.855"/>
	<path fill="#CCCCCC" d="M14.538,27.05c0.291,0.409,0.854,1.608,1.293,1.817c0.498,0.238,0.727-0.453,0.94,0.43
		c0.112,0.456-0.25,0.964,0.351,1.444c0.745,0.595,1.615,0.804,2.189,1.802c0.04,0.072,0.009,0.169-0.016,0.246
		c-0.461,1.525-1.082-0.536-1.188-0.812c-0.257-0.661-1.746-1.055-2.2-1.62C15.265,29.542,14.975,28.017,14.538,27.05"/>
	<path fill="#CCCCCC" d="M15.906,35.339c0.777,0.943,1.559,1.884,2.339,2.824c0.043,0.049,1.356,1.525,1.124,1.59
		C18.335,40.044,15.847,36.266,15.906,35.339"/>
	<path fill="#CCCCCC" d="M32.196,47.837c0.659,0.168,1.321,0.338,1.98,0.508c0.662,0.167,1.321,0.335,1.987,0.502
		C38.523,49.449,31.326,50.835,32.196,47.837"/>
	<path fill="#CCCCCC" d="M31.355,50.515c1.864-0.078,5.115,0.252,6.743,1.266c0.291,0.182-1.141,0.1-2.288,0.004
		C34.072,51.639,32.925,51.259,31.355,50.515"/>
	<path fill="#CCCCCC" d="M34.822,53.875c1.015,0.181,4.104-0.228,4.556,0.832c0.222,0.521-1.937,0.258-2.15,0.252
		c-0.473-0.02-2.976,0.188-3.154-0.375C34.063,54.559,34.813,54.156,34.822,53.875"/>
	<path fill="#CCCCCC" d="M42.317,57.111c-0.787-0.298,2.092,1.051,2.569,1.066c0.229,0.007-0.425-0.18-0.636-0.268
		C43.607,57.642,42.963,57.376,42.317,57.111"/>
	<path fill="#CCCCCC" d="M45.709,54.873c0.475-1.729-3.545-3.597-4.179-4.822c-0.342-0.656,0.14-1.864-0.276-2.477
		c-0.252-0.379-1.219-0.511-1.584-0.797c-0.756-0.595-1.379-1.605-2.004-2.339c-1.135-1.332-1.92-2.993-3.094-4.284
		c-0.55-0.597-1.342-0.967-1.89-1.562c-0.559-0.604-0.982-1.862-1.672-2.303L29.95,36.24c-0.449-0.552,0.994-1.566,0.979-1.93
		c-0.019-0.441-0.61-0.648-0.835-1.029c-0.807-1.358-0.945-3.28-1.892-4.542c-0.434-0.583-1.424-0.751-1.859-1.331
		c-0.608-0.806,0.103-6.905,2.086-6.568c0.793,0.137,2.781,2.894,3.662,3.639c1.241,0.058,1.405-2.116,2.223-2.867
		c1.254-1.153,2.126,0.627,3.291,0.387c0.274-0.058,0.831-1.245,1.091-1.195c0.17,0.035,0.036,0.372,0.156,0.5
		c0.409,0.445,1.656,0.839,2.223,1.073c0.704,0.289,1.221-0.306,1.573-0.193c0.988,0.317,4.798,2.123,5.687,2.148
		c0.838,0.021,1.082-1.36,1.609-1.443c0.395-0.058,1.319,0.903,1.717,1.033c0.166,0.052,0.379,0.108,0.523,0.01l0.018-0.74
		c1.411-0.549,2.389,1.351,3.287,1.302c0.135-0.01,0.053-0.312,0.18-0.368c0.213-0.095,0.475-0.084,0.699-0.028
		c2.004,0.509,1.332,2.838,2.219,3.161c0.699,0.26,1.4,0.188,2.101,0.029c-0.994-1.441,0.813-0.347,1.235-1.219
		c0.236-0.48-1.213-2.238-0.664-2.725c0.809-0.719,0.64,0.829,1.051-0.481l-0.171-0.742c0.526-0.731,2.597,2.133,2.614-0.226
		c-1.291-0.213-3.703-0.858-4.494-2.019c-0.496-0.721,0.439-0.383,0.527-0.736c0.104-0.413-0.754-1.167-0.334-1.236
		c0.114-0.02,0.899,0.579,1.043,0.01c0.252-1.035-1.957-0.225-2.062-1.26c-0.042-0.413,0.82-1.075,0.709-1.471
		c-0.258-0.933-0.654-1.829-1.292-3.048c-0.124,0.034-0.257,0.057-0.39,0.061c-0.006,0-1.01-0.51-1.021-0.51
		c-0.775-0.014-0.964,1.377-1.404,1.706c-1.145,0.85-6.687,0.237-7.906-0.428c-0.813-0.439-1.369-1.37-2.186-1.792
		c-0.751-0.388-2.15,0.064-2.729-0.579c-0.519-0.572-0.494-1.637-0.953-2.256c-0.719-0.969-2.092-1.246-2.833-2.081
		c-0.529-0.595-2.226-2.252-3.544-3.693c-0.781-0.31-2.14-0.929-2.744-0.772c-1.047,0.269,0.044,1.863-0.614,2.196
		c-0.002,0-1.133-0.054-1.135-0.054c-0.186-0.01-0.396-0.114-0.566-0.027c-0.225,0.114-0.008,0.572-0.205,0.729
		c-1.084,0.87-5.081,0.679-4.93,2.711c0.038,0.529,0.988,1.021,1.116,1.542c0.075,0.307-0.283,2.76-0.502,2.942
		c-0.954,0.782-2.664-0.517-3.668,0.863c-0.785,1.075,0.771,0.93,0.593,1.684c-0.11,0.46-1.182,0.204-1.248,0.671
		c-0.063,0.415,0.935,1.815,0.386,2.246c-1.49,1.182-2.874-1.486-4.089-1.236c-0.321,0.067-0.489,0.496-0.813,0.565
		c-0.612,0.135-0.331,0.197-0.823-0.259c-0.686-0.637-1.445-1.411-1.603-2.374c-0.006-0.047,0-0.766-0.405-0.397
		c-0.5,0.453-0.514,1.439-0.999,1.911c-1.603,1.569-3.577-0.596-5.191-0.125l-0.058,0.739c-0.969,0.519-3.309-0.016-4.123-0.568
		c-0.236-0.068-0.932-0.614-0.863-0.071c0.081,0.66,0.065,1.72,0.166,2.241l0.672,0.302c0.122,0.33-0.773,2.291-0.217,2.708
		c0,0,0.145,0.013,0.334,0.024c0.52-0.05,1.382,0.111,1.055,0.084c0,0-0.643-0.049-1.055-0.084C4.13,20.778,3.965,20.839,4,20.976
		c0.244,0.917,1.176,1.427,1.738,2.366c0.115,0.198-0.019,0.869,0.099,0.996c0.13,0.144-0.023,0.303-0.039,0.494
		c-0.021,0.275,0.894,0.738,0.991,0.821l-0.057,0.735c0.119,0.313-0.082-0.995,0.252-0.971c0.332,0.026,0.808,0.895,0.836,0.558
		c0.006-0.09-0.25-1.266-0.064-1.488c0.197-0.242,1.043-0.67,0.965-1.168c-0.012-0.064-0.944-0.527-0.119-0.75
		c0.129-0.037,0.094,0.256,0.143,0.381c0.289,0.746-0.333,0.999,0.828,0.683c0.554-0.153-0.159-1.376,0.127-1.725
		c1.652-2.017,1.061-4.858,4.563-2.897c0.104,0.059,0.785,1.466,1.095,1.887c0.438,0.6,1.287,0.519,1.678,1.017
		c1.297,1.666-0.42,5.08,0.663,7.466c0.736,1.612,3.37,4.417,4.896,5.24c0.076,0.037,0.896-0.158,0.872,0.295
		c-0.049,0.816-2.184-0.793-2.26-0.787c-0.321,0.02-0.085,0.838-0.404,0.881c-0.002,0-0.841-0.791-0.841-0.791
		c-0.215-0.072,0.067,1.027-0.22,0.73c-0.881-0.924-0.517,0.729-0.414,0.963c0.897,2.047,5.755,7.229,7.925,8.104
		c0.207,0.083,0.091,1.726,0.053,2.474c-0.002,0.033,2.201,0.502,2.317,0.358c0.124-0.158-0.415-0.321-0.338-0.509
		c0.049-0.117,2.38-0.383,2.62-0.373c0.208,0.013,0.425-0.03,0.624,0.027c1.087,0.324-0.398,0.463-0.378,0.479
		c0.004,0.002,1.415,0.308,1.422,0.312c0.002,0,1.025,1.027,1.031,1.03c0.645,0.177,1.889,0.129,2.669,0.604
		c1.207,0.729,1.877,2.69,2.929,3.562c0.475,0.389,1.336,0.378,1.777,0.803c0.17,0.161,0.229,0.416,0.337,0.627
		c0.213,0.387,0.32,0.602,0.374,0.717c-0.07-0.193-0.168-0.586,0.163-0.576c0.177,0.005,0.067,0.355,0.166,0.498
		c0.035,0.05,0.669-0.147,0.724,0.021c0.172,0.525-0.63,1.004,0.592,1.379c0,0,0.002,0,0.004,0.002
		C44.65,55.242,45.641,55.119,45.709,54.873"/>
	<path fill="#CCCCCC" d="M13.971,22.741c0.559,1.004,1.281,2.021,1.719,3.083c0.097,0.235,0.349,0.634,0.126,0.75
		c-0.628,0.326-3.771-1.569-3.714-1.981c0.067-0.512,1.091-1.173,1.335-1.642l0.049-0.739C13.713,22.28,13.81,22.565,13.971,22.741"
		/>
	<path fill="#CCCCCC" d="M10.995,23.623c0.159,1.221,0.702,1.748,1.029,2.794c0.063,0.196-0.029,0.409-0.043,0.615
		c-0.04,0.617-0.085,1.229-0.127,1.849c-0.021,0.278,0.186,2.952,0.149,2.978c-0.515,0.354-1.16-2.461-1.245-2.736
		c-0.917-3.08,0.519-0.758,0.437-2.515C11.16,25.889,9.167,23.493,10.995,23.623"/>
</g>
<g id="Laag_3">
</g>
</svg>
