<?xml version="1.0" encoding="utf-8"?>
<!-- Generator: Adobe Illustrator 16.0.0, SVG Export Plug-In . SVG Version: 6.00 Build 0)  -->
<!DOCTYPE svg PUBLIC "-//W3C//DTD SVG 1.1//EN" "http://www.w3.org/Graphics/SVG/1.1/DTD/svg11.dtd">
<svg version="1.1" id="Laag_1" xmlns="http://www.w3.org/2000/svg" xmlns:xlink="http://www.w3.org/1999/xlink" x="0px" y="0px"
	 width="73.917px" height="46.5px" viewBox="0 0 73.917 46.5" enable-background="new 0 0 73.917 46.5" xml:space="preserve">
<g id="Laag_2">
</g>
<g id="Laag_1_1_">
	<path fill="#CCCCCC" d="M34.503,41.006c1.195-0.593,2.063-1.89,3.272-2.447c1.246-0.574,1.446,0.265,2.395,0.504
		c0.975,0.25,2.244-0.617,3.25-0.492c0.51,0.064,1.031,0.738,1.539,0.736c0.265,0,0.976-0.533,1.34-0.58
		c0.607-0.078,3.513-0.078,3.785-0.686c0.137-0.312-0.174-1.071,0.668-1.239c0.639-0.13,1.617,0.908,2.229,0.714
		c0.905-0.289,1.06-1.688,1.503-2.244c0.29-0.358,1.141-0.312,1.008-1.002c-0.134-0.709-0.32-1.688,0.297-2.474
		c0.235-0.298,0.756-0.233,1.012-0.512c0.938-1.028,1.391-2.999,2.062-4.239l0.541-0.998c-0.056-0.227-0.479-0.25-0.516-0.482
		c-0.065-0.448,0.471-0.776,0.704-1.164c0.613-1.021,1.143-2.729,1.877-3.583c0.002-0.002,0.828-0.266,0.828-0.266
		c0.103-0.158,0.021-0.37,0.029-0.557c0.02-0.373,0.039-0.742,0.055-1.113c0.012-0.186-0.041-0.384,0.031-0.555
		c0.687-1.639,2.946-3.434,4.051-4.06c0.178-0.105,0.408,0.039,0.608,0.061c0.002,0,1.224,0.127,1.226,0.127
		c1.326-0.342,1.699-1.987,2.721-2.811c-0.484-0.219-0.23-1.514-0.73-1.947c-0.85-0.74-1.396,0.141-2.149-0.172
		c-0.615-0.255-0.651-1.838-1.226-2.183c-0.332-0.198-0.809,0.206-1.152,0.034c-1.514-0.767,0.078-1.943-2.369-2.401l-0.051-0.006
		c-0.106,0.32-0.602,0.537-2.146,0.742c-0.41,0.055-1.527,0.477-1.884,0.352c-1.337-0.47-0.983-3.169-2.854-3.399
		c-0.963-0.114-2.109,1.271-3.091,1.286C51.438,3.977,49.33,1.734,47.3,3.516c-0.981,0.86-0.697,3.705-2.112,4.203
		c-0.405,0.144-1.093-0.411-1.481-0.244c-0.771,0.331-1.041,2.118-2.309,1.977c-0.872-0.101-1.604-1.316-2.469-1.486
		c-2.016-0.4-0.951,1.509-1.825,2.209c-0.929,0.749-4.984-0.388-6.448,0.67c-1.541,1.114-0.037,2.205,0.118,3.211
		c0.016,0.107-0.222-0.021-0.331-0.006c-0.69,0.108-1.391,0.335-2.072,0.496c-2.351,0.559-5.867,1.157-8.244,0.272
		c-1.661-0.619-3.854-4.076-5.168-4.355c-0.409-0.087-0.687-0.022-0.886,0.128l0.051,0.09c-0.021-0.027-0.033-0.061-0.051-0.09
		c-0.018,0.011-0.033,0.029-0.05,0.039c-0.539,0.475-0.425,1.636-0.797,1.992c-0.171,0.164-0.533,0.034-0.674,0.225
		c-0.08,0.109,0.269,0.132,0.324,0.26c0.08,0.176,0.361,1.844,0.259,1.982c-0.134,0.184-2.929,0.477-3.174,0.371
		c-1.061-0.45-1.413-2.062-3.148-0.38c-0.458,0.444,2.772,1.07,2.56,2.58c-0.252,1.757-2.122,0.91-2.756,1.857
		c-0.209,0.309,0.518,1.373,0.427,1.748c-0.167,0.669-0.698,0.394-0.624,1.454c0.047,0.691,0.975,0.491,0.863,0.78
		c-0.513,1.31-2.592,2.215-4.387,3.751l-0.022,0.07c0.416-0.102,0.968-0.112,1.708,0.008c1.078,0.18,0.192,0.854,0.279,1.25
		c0.118,0.564,0.998,0.969,1.116,1.533c0.058,0.267-0.434,0.462-0.369,0.724c0.096,0.401,0.787,1.25,1.643,2.188l0.294,0.123
		c-0.079-0.029-0.175-0.065-0.277-0.104c1.318,1.44,3.014,3.099,3.543,3.692c0.742,0.836,2.115,1.113,2.833,2.082
		c0.459,0.619,0.436,1.684,0.953,2.256c0.579,0.644,1.979,0.191,2.729,0.578c0.816,0.423,1.372,1.354,2.185,1.793
		c1.221,0.664,6.763,1.276,7.907,0.428c0.44-0.329,0.628-1.721,1.404-1.706c0.012,0,1.016,0.51,1.021,0.51
		c1.223-0.049,2.095-1.425,2.947-1.937C33.135,40.534,33.684,41.408,34.503,41.006"/>
</g>
<g id="Laag_3">
</g>
</svg>
