<?xml version="1.0" encoding="utf-8"?>
<!DOCTYPE svg PUBLIC "-//W3C//DTD SVG 1.1//EN" "http://www.w3.org/Graphics/SVG/1.1/DTD/svg11.dtd">
<svg version="1.1" id="Laag_1" xmlns="http://www.w3.org/2000/svg" xmlns:xlink="http://www.w3.org/1999/xlink" x="0px" y="0px"
	 width="63px" height="57px" viewBox="0 0 63.667 57.667" enable-background="new 0 0 63.667 57.667" xml:space="preserve">
<g id="Laag_2">
</g>
<g id="Laag_1_1_">
	<path fill="#CCCCCC" d="M45.171,24.763l-0.039-0.786c0-0.001,0.594-0.824,0.594-0.825c0.168-0.913-0.825-0.639-1.145-1.17
		c-0.528-0.872-0.033-2.225-0.602-3.172c-0.098-0.162-0.107-0.439-0.292-0.488c-0.153-0.041-2.004,0.925-2.079,1.076
		c-0.167,0.339,0.426,0.789,0.229,1.112c-1.021,1.665-3.791-0.056-4.66-0.88c-0.566-0.533-3.057-4.646-2.793-5.154
		c0.338-0.656,3.318-0.052,3.922-0.572c0.626-0.541-1.32-2.572,0.22-2.32c0.601,0.099,1.224,1.333,2.318,0.832
		c1.786-0.819,1.692-3.717,3.991-3.479l0.463-0.017c0.183-1.371,2.145-0.88,2.996-1.598c0.761-0.646-0.422,0.22-1.383-1.256
		c-0.455-0.699-0.552-1.781-1.754-1.904c-0.014-0.001,0.596,1.748,0.592,1.752l-0.594-0.467c-0.021-0.112-1.168-0.449-1.566-0.3
		c-0.797,0.303,0.02,2.553-0.514,3.165l-0.977,0.166l-0.924,0.443c-0.11-0.127,0.17-0.302,0.301-0.408
		c1.002-0.83-0.032,0.332,1.221-0.853c0.307-0.291,0.111-3.067,0.036-3.081C42.707,4.576,41.893,5.083,42,5.35
		c0.099,0.243-0.44,1.83-0.574,1.597c-0.123-0.209,0.265-0.442,0.246-0.685c-0.064-0.903-0.051-1.352-0.317-1.661
		c-0.121-0.142-0.25,0.313-0.433,0.358c-0.344,0.088-0.737,0.626-0.887,0.847c-0.029,0.057-0.066,0.1-0.066,0.1
		s0.027-0.042,0.066-0.1c0.019-0.036,0.037-0.075,0.018-0.129c-0.12-0.299,0.052-0.788-0.344-1.156
		c-0.19-0.176-0.297,0.449-0.519,0.587c-0.298,0.185-0.703,0.05-1.044,0.137c-0.139,0.033-0.43,0.247-0.42,0.103
		c0.02-0.297,0.427-0.841-0.777-0.801c-0.383,0.013-0.393,0.759-0.47,0.861c-0.446,0.604-1.149,0.299-1.634,0.691
		c-0.266,0.216,0.688,0.718,0.423,0.935c-0.202,0.163-1.198-0.391-0.929,0.433c0.158,0.489,0.943,1.153,0.746,1.312
		c-0.301,0.243-1.59-1.039-1.98-0.473c-0.206,0.297,0.816,0.627,0.588,0.908c-0.033,0.042-3.758-0.955-3.474,0.609
		c0.16,0.88,2.356,1.693,2.851,1.709c0.126,0.004,0.357-0.115,0.381,0.012c0.069,0.371,0.451-0.344,0.766,0.021
		c0.332,0.385-0.637,0.498,0.104,0.558c0.49,0.038,1.829-0.039,1.448,0.27c-0.363,0.294-1.422,0.577-1.993,1.214
		c-0.088,0.098-0.134,0.268-0.263,0.293c-0.657,0.129-1.111-0.41-1.503-0.556c-0.044-0.016-0.339,0.517-0.527,0.585
		c-0.369,0.13-1.425,0.094-1.706,0.404c-0.824,0.908,1.488,0.188,1.199,0.965c-0.068,0.182-0.417-0.349-0.549-0.205
		c0,0.002,0.57,0.99,0.57,0.99c-0.204,0.268-0.423,0.566-0.751,0.762c-0.167,0.1-0.413-0.063-0.548-0.205
		c-0.011-0.008-0.476-1.209-0.484-1.218c-0.316-0.37-0.983-0.108-1.318-0.233c-0.478-0.18-0.844-1.35-1.608-1.127
		c-0.395,0.115-0.469,0.756-0.858,0.89c-0.901,0.311-0.704-1.509-0.83-1.792c-0.459-1.021-0.437-0.079-1.043-0.137
		c-0.167-0.018-2.538-1.861-3.145-1.998c-1.321-0.295,0.056,0.891-0.169,1.24l-0.592-0.491c-0.001,0.001-0.454,0.32-0.498,0.067
		c-0.134-0.792-1.792-1.266-1.86-0.469c-0.014,0.168,0.333,0.222,0.321,0.389c-0.007,0.08-1.028,0.998-1.034,1.426
		c-0.002,0.168,0.161,0.439,0.321,0.388c0.234-0.078,0.607-1.542,1.12-1.653c0.288-0.062,0.571,0.436,0.505,0.721
		c-0.093,0.414-1.135,1.162-0.621,1.589c0.006,0.005,1.247-0.772,1.087-0.362c-0.15,0.383-1.187,0.525-1.08,1.149
		c0.143,0.825,0.871,1.046,0.428,1.737c-0.02,0.031-0.865-1.431-1.501,0.199c-0.114,0.295,2.858,0.107,3.2,0.719
		c0.239,0.426-0.697,0.697-0.763,0.75c-0.195,0.15,0.408,0.469,0.374,0.668c-0.105,0.619-2.525-0.801-3.157-0.439
		c-0.637,0.364-0.227,1.607-0.572,1.871c-0.076,0.057-1.774,0.158-2.15,0.205c-0.295,0.038-0.72-0.602-0.83-0.326
		c-0.05,0.128,1.001,1.545,0.708,1.854c-0.178,0.186-0.664-0.501-1.104-0.042c-0.089,0.096-0.336,0.172-0.272,0.286
		c0.173,0.313,0.089,0.562,1.623,1.163c0.734,0.287,0.896-0.763,1.653-0.14c0.755,0.619-1.652,0.297-1.366,1.039
		c0.147,0.379,0.625,0.583,1.023,0.66c0.169,0.033,1.538-0.799,1.604-0.426c0.041,0.217,0.478,0.436,0.241,0.617
		c-0.481,0.37-2.299,1.232-0.945,1.205c0.316-0.006,0.515-0.025,0.559,0.215c0.222,1.219,4.746,0.825,5.335,1.512
		c0.141,0.162-0.01,0.625,0.021,0.789c0.035,0.189-0.481,1.126-0.711,1.039c-0.12-0.045-0.053-0.502-0.107-0.562
		c-0.501-0.583-1.131,0.791-2.604-0.726c-0.024-0.024-2.164,1.818-2.361,1.976c-0.558,0.445-0.646,0.275-0.035,0.51
		c0.188,0.072,0.72,0.094,0.563,0.213c-0.64,0.492-1.558,1.762-2.229,2.027c-0.043,0.02-3.325,0.986-3.472,1.02
		c-0.378,0.082-0.969-0.266-1.164,0.07c-0.171,0.291,0.574,0.414,0.91,0.442c0.575,0.05,2.019,0.073,2.547-0.149
		c0.158-0.066,0.158-0.463,0.317-0.404c0.159,0.063-0.105,0.357-0.035,0.513c0.001,0.002,0.953,0.892,0.954,0.894
		c0.204,0.075,0.732,0.596,0.9,0.604c1.163,0.062,3.396-1.638,3.639-1.498c0.373,0.215-0.298,1.149-0.29,1.196
		c0.032,0.164,2.033,0.173,1.753,0.92c-0.076,0.199-1.603-0.526-1.926-0.463c-0.622,0.125-2.396,0.261-3.262,0.072
		c-0.451-0.096-0.725-0.711-1.186-0.715c-0.192-0.003-0.267,0.328-0.458,0.348c-0.582,0.062-1.042-1.147-1.696-0.653
		c-0.13,0.098-0.533,0.655-0.496,0.858c0.032,0.17,0.497,0.455,0.337,0.394c-0.506-0.196-3.106-0.271-3.044-0.134
		c0.611,1.332,1.775,0.285,0.033,1.59c-0.131,0.1-0.26,0.314-0.178,0.458c0.288,0.502,1.054,0.008,1.188,0.726
		c0.048,0.248-0.461-0.228-0.71-0.275c-0.526-0.104-1.595,0.035-1.612-0.894c-0.022-1.097,0.052,0.052-1.057-0.021
		c-0.133-0.008-0.376,0.105-0.4-0.025c-0.043-0.24,0.334-0.447,0.271-0.686c-0.111-0.402-1.496,0.176-1.547,0.181
		c-0.15,0.019-0.301-0.259-0.423-0.169c-0.198,0.145-0.051,0.578-0.271,0.684c-0.166,0.078-1.232-0.734-1.213,0.572
		c0.005,0.352,0.316,0.389,0.547,0.48c0.863,0.343,4.01,0.791,4.249,0.886c0.181,0.071,1.275,0.569,1.263,0.755
		c-0.028,0.404-0.751-0.564-1.139-0.443c0,0.002-0.657,0.531-0.836,0.461c-0.18-0.07-0.28,0.289-0.464,0.346
		c-0.655,0.199-2.767-0.49-3.102,0.353c-0.047,0.122,0.172,0.214,0.196,0.343c0.03,0.168,0.069,0.377-0.038,0.512
		c-0.051,0.062-1.223-0.393-1.375-0.281c-0.67,0.492,0.36,0.604,0.39,0.682L2.274,44.07c0.226,0.186,1.144-0.754,1.503-0.459
		c0.569,0.465-1.165,1.516-0.058,1.822c1.456,0.4,3.311-0.355,4.823-0.092c0.206,0.037,0.692-0.088,0.617,0.107
		c-0.091,0.233-2.123-0.238-2.449,0.363c-0.063,0.117,0.325,0.303,0.198,0.341c-1.081,0.337-1.593-0.851-3.153,0.875
		c-0.235,0.259-1.166-0.553-0.987,0.399C2.786,47.526,2.904,47.25,3,47.257c0.206,0.015,0.383,0.15,0.575,0.228
		c0.768,0.302,0.9-0.039,1.561-0.18c0.89-0.188,2.004,0.737,2.908,0.603c0.358-0.054,0.446-0.877,0.785-0.748
		c0.325,0.125,0.619,0.448,0.686,0.789c0.144,0.734-3.594,0.401-4.338,0.952c-0.267,0.197-0.73,0.656-0.246,1.483
		c0.601,1.023,1.356-0.711,1.797-0.354c0.177,0.141,0.316,0.905,0.778,0.562c0.13-0.098,0.02-0.408,0.176-0.457
		c0.125-0.04,0.672,0.439,0.866,0.332c0.143-0.078,0.012-0.438,0.175-0.457c0.557-0.068-0.122,1.309,0.051,1.596
		c0.261,0.439,0.814-0.154,0.897-0.182c0.416-0.133,0.016,0.469,0.635,0.506c1.101,0.061,0.944-0.27,1.13-0.361
		c0.154-0.072-0.141-0.492,0.029-0.512c0.593-0.074,1.168,0.966,1.561,1.113c0.1,0.037,0.651-0.41,0.836-0.471
		c0.605-0.195,0.946,0.938,1.361,0.771c0.7-0.279,0.906-1.603,1.617,0.077c0.192,0.453,0.026-1.313,0.513-1.379
		c0.133-0.018,3.159,1.088,2.669-1.235c-0.03-0.142-0.529-0.483-0.666-0.636c-0.123-0.139,0.402-0.043,0.547,0.068
		c0.291,0.227,1.45,0.268,1.556,0.441c0.274,0.451-1.131,0.531-1.203,0.604c-0.328,0.324,2.006,0.832,2.165,0.791
		c0.243-0.062,0.154-0.57,0.396-0.639l1.094,0.137c0.513-0.603-0.3-0.164,0.292-0.809c0.089-0.098,0.137-0.305,0.268-0.293
		c0.729,0.062,1.602,0.9,2.619,0.42c1.325-0.629-0.622-1.292,0.351-1.436c0.17-0.025,0.186,0.326,0.349,0.385
		c0.408,0.146,0.824-0.389,1.253-0.334c1.033,0.129,1.997,0.936,2.962,0.787c0.525-0.084-0.43,0.723,0.786,0.533
		c0.67-0.105,0.688-1.004,0.709-1.568c0.004-0.17-0.146-0.568,0.018-0.514c0.842,0.293,0.898,1.301,1.195,1.194
		c0.207-0.073,0.475-0.153,0.656-0.032c0.219,0.149-0.67,0.37-0.527,0.596c0.048,0.076,2.979,1.283,3.67,1.521
		c0.086,0.028,0.125-0.131,0.188-0.195c0.844-0.879-0.107-0.516,0.221-1.477c0.053-0.154,0.188-0.588,0.381-0.646l0.46-0.879
		c0.497-0.553,1.508-0.803,1.923-1.416c0.704-1.043,0.844-2.875,2.045-3.697c0.409-0.28,1.555-0.795,1.62-1.52
		c0.065-0.699,0.192-1.162,0.339-1.949c0.127-0.683,0.193-1.842,0.212-2.506c0.011-0.4-0.84-0.986-0.599-1.492
		c0.363-0.756,1.212,0.242,1.492,0.244c0.065,0-0.676-1.039-0.459-1.441c0.364-0.67,0.828-0.588,1.11-1.43
		c0.073-0.219-0.745-1.062-0.813-1.303c-0.344-1.246,1.166-2.276,0.816-3.33c-0.107-0.327-0.725-0.358-0.881-1.071
		c-0.621-2.84,3.502,1.031,2.221-1.048c-0.072-0.115,0.014-0.268,0.024-0.406l-0.169-0.313c-0.061-0.053-0.126-0.104-0.178-0.162
		c0.043,0.014,0.08,0.041,0.121,0.059l-0.183-0.335C47.607,24.233,46.498,25.773,45.171,24.763"/>
	<path fill="#CCCCCC" d="M48.806,25.488c-0.031-0.085-0.094-0.148-0.161-0.21l0.169,0.313
		C48.816,25.555,48.818,25.521,48.806,25.488"/>
	<path fill="#CCCCCC" d="M56.917,18.703c-1.17-1.165-2.293,0.522-3.139,0.239c-0.16-0.053-0.049-0.35,0.018-0.507
		c0.586-1.397,2.297-0.019,2.691-1.665c0.075-0.309-0.023-1.123-0.594-0.965c-0.18,0.051-0.327,0.53-0.428,0.37
		c-0.127-0.208,0.209-0.45,0.231-0.692c0.08-0.911-0.767-1.46-0.967-2.115c-0.006-0.021,0.707-2.916,0.267-3.496
		c-0.269-0.352-0.858,0.018-1.164-0.137c-3.685-1.855-0.207-0.653-4.364-0.982c-0.308-0.023-1.563-0.887-1.685-0.842
		c-0.479,0.185-2.418,3.928-2.518,1.271c-0.004-0.105,0.023-0.176,0.035-0.264l-0.463,0.017c-2.299-0.237-2.205,2.66-3.991,3.479
		c-1.095,0.501-1.718-0.733-2.318-0.832c-1.54-0.252,0.406,1.779-0.22,2.32c-0.604,0.521-3.584-0.084-3.922,0.572
		c-0.264,0.508,2.227,4.621,2.793,5.154c0.869,0.824,3.64,2.545,4.66,0.88c0.197-0.323-0.396-0.773-0.229-1.112
		c0.074-0.151,1.926-1.117,2.079-1.076c0.183,0.049,0.194,0.326,0.292,0.488c0.568,0.947,0.073,2.3,0.602,3.172
		c0.319,0.531,1.312,0.257,1.145,1.17c0,0.001-0.593,0.824-0.593,0.825l0.038,0.786c1.326,1.011,2.436-0.529,3.234,0.077
		l0.182,0.335c1.054,0.453,1.361,1.781,2.877,0.693c0.492-0.352,0.459-1.18,0.816-1.524c0.998-0.955,2.361,1.269,3.236-0.466
		c0.062-0.123,0.003-0.986-0.109-1.063c0,0-1.262,0.098-1.262,0.097c-0.163-0.371,0.766-0.362,0.997-0.696
		c0.703-1.002-0.567-1.61,0.412-2.169c0.165-0.095,0.198,0.321,0.299,0.482c0.392,0.63-0.599,3.906,0.37,3.068
		C56.841,23.065,57.693,19.479,56.917,18.703"/>
</g>
<g id="Laag_3">
</g>
</svg>
