<?xml version="1.0" encoding="utf-8"?>
<!DOCTYPE svg PUBLIC "-//W3C//DTD SVG 1.1//EN" "http://www.w3.org/Graphics/SVG/1.1/DTD/svg11.dtd">
<svg version="1.1" id="Laag_1" xmlns="http://www.w3.org/2000/svg" xmlns:xlink="http://www.w3.org/1999/xlink" x="0px" y="0px"
	 width="132px" height="178px" viewBox="0 0 132.75 178.75" enable-background="new 0 0 132.75 178.75" xml:space="preserve">
<g id="Laag_2">
</g>
<g id="Laag_1_1_">
	<path fill="#CCCCCC" d="M90.128,148.616c-1.144,0.407-0.974,1.78-1.92,2.837c-2.435,2.717-2.521,3.527-3.735,6.654
		c-0.216,0.547-1.062,0.845-1.272,1.392c-0.125,0.331-0.116,2.146,0.047,2.458c0.315,0.598,1.323,0.057,1.737,0.838
		c0.082,0.157,0.324,0.416,0.17,0.499c-0.19,0.104-0.367-0.267-0.582-0.278c-0.604-0.035-0.295,0.523,0.082,1.967
		c0,0,0.781,0.291,0.781,0.293c1.127,1.975-1.127,0.125,0.154,0.742c0.805,0.385-1.865,1.508-2.102,1.836
		c-0.698,0.957-0.289,3.992-1.037,3.852c-0.785-0.141-1.596-1.321-2.52-1.379c-0.453-0.029-0.574,0.451-1.033,0.422
		c-0.328-0.021-3.11-1.171-3.307-1.443c-0.984-1.392-1.301-3.24-2.691-4.357c-1.482-1.191-2.84-0.248-4.326-0.813
		c-0.038-0.012-2.421-1.36-2.479-1.415c-0.405-0.391-0.603-1.252-1.07-1.561c-0.137-0.088-0.328-0.026-0.492-0.038
		c-0.165-0.013-0.337,0.009-0.494-0.04c-1.031-0.322-2.299-1.876-2.955-2.701c-0.255-0.318-3.561-2.027-4.05-2.072
		c-0.659-0.061-1.251-0.123-1.911-0.05c-0.202,0.025-0.402,0.045-0.602,0.07c-0.473-1.267-0.396-1.366-1.436-1.61
		c-0.467-0.109-0.431-1.006-0.475-1.273c-0.01-0.068-0.508-1.023-0.496-1.03c1.342-0.671,0.346-2.117,1.277-3.078
		c0.691-0.714,1.891-0.839,2.67-1.229c0.79-0.399-0.389-0.748,0.283-0.957c0.557-0.18,0.578,2.379,1.731,2.612
		c1.956,0.401,1.868-2.017,2.554-2.237c0.849-0.271,0.645,0.592,1.557,0.135c0.051-0.026,0.864-0.635,1.017-0.407
		c0.319,0.478,0.327,1.47,0.638,1.776c0.477,0.471,1.428-0.613,1.754,0.143c1.582,3.653,3.154,0.991,5.606,1.172
		c0.4,0.033,0.639,0.54,1.267,0.585c1.728,0.128,4.604,0.374,6.193-0.547c0.291-0.17,0.729-1.12,1.055-1.157
		c1.134-0.129,2.427,0.096,3.497,0.469l0.557,0.524c1.973-0.094,1.373-2.813,2.043-1.351c0.414,0.908,3.336-1.053,4.051-0.754
		C90.673,148.452,90.745,148.273,90.128,148.616"/>
	<path fill="#CCCCCC" d="M121.754,105.641c-0.208-0.346,0.487-1.043-0.148-1.48c-1.246-0.858-4.271-1.859-5.933-2.875
		c-1.8-1.105-2.717-2.963-4.731-3.855c-3.77-1.679-8.453-2.951-11.672-5.687c-3.674-3.119,4.31-3.91,2.194-7.045
		c-0.888-1.315-3.848,0.103-5.146-0.262c-1.121-0.315-1.979,0.139-3.141,0.072c-2.051-0.119-5.648-1.794-7.171-3.157
		c-0.429-0.383,0.136-0.872-0.103-1.243c-0.397-0.61-1.61-0.707-2.111-1.376c-2.604-3.458-4.51-5.038-5.768-9.481
		c-0.582-2.044-1.453-9.148-2.563-10.43c-1.491-1.719-1.646-0.746-3.245-1.996c-1.093-0.853-1.908-2.167-2.92-3.124
		c-2.594-2.45-6.066-3.69-6.613-7.892c-0.279-2.136-0.623-5.111,0.336-7.159c0.23-0.497,0.569,0.902,1.348,0.623
		c0.329-0.118-0.35-0.682-0.256-1.017c0.049-0.173,0.553-0.25,0.535-0.074c-0.016,0.165,0.602-0.099,0.631-0.188
		c0.043-0.123,0.576-1.033,0.54-1.066c-0.435-0.369-1.599-1.639-1.601-1.639c-0.213,0.122,0.131-0.076-0.148-0.262
		c-0.146-0.097-0.435,0.101-0.52-0.049c-0.205-0.358,0.374-0.258,0.404-0.579c0.046-0.477-0.193-0.697-0.24-1.141
		c-0.016-0.165,0.213-0.479,0.049-0.492c-0.377-0.037-0.965,0.926-0.855-0.208c0.164-1.668-0.381,0.338-0.533-0.793
		c-0.016-0.128-0.148-0.302-0.051-0.378c0.863-0.674,1.697-1.805,1.802-2.075c-0.083,0.024-0.161,0.061-0.217,0.119
		c0.202-0.211,0.255-0.22,0.217-0.119c0.442-0.141,1.181,0.061,1.222-0.362c0.019-0.203-0.473-0.424-0.298-0.524
		c0.211-0.124,0.421,0.288,0.665,0.31c0.531,0.049,0.08-1.18,0.736-0.426c0.149,0.174,0.837-0.112,0.688,0.063
		c-0.882,1.035-1.456,0.275-1.887,1.559c-0.001,0.003,0.682-0.264,1.807-0.697c1.315-0.514,2.903-1.659,4.319-1.72
		c0.207-0.009,2.256-0.051,1.804-0.835c-0.095-0.166-0.347,0.219-0.537,0.203c-0.022-0.003-0.545-0.325-0.299-0.521
		c0.746-0.6,1.094-0.997,1.932-0.331c0.369,0.295,1.152,0.078,1.523,0.376c0.157,0.125,0.319,0.32,0.303,0.521
		c-0.016,0.198-0.519,0.313-0.383,0.462c0.135,0.152,0.36-0.192,0.543-0.286c0.783-0.414,0.904-1.826,1.979-0.997
		c0.891,0.687,0.634,1.359,1.049,2.063c0.097,0.166,0.619,0.14,0.497,0.287c-0.146,0.18-0.462-0.1-0.688-0.053
		c-0.097,0.021-0.127,0.153-0.189,0.232c0.669,0.161,1.346,0.591,1.814,0.016c1.104-1.347-2.185-2.562-2.767-3.31
		c-0.587-0.759,0.888-1.707,0.537-2.436c-0.211-0.445-1.705,0.523-1.497-0.616c0.104-0.564,2.393-1.638,2.073-2.308
		c-0.339-0.716-3.099-0.622-2.753-1.959c0.375-1.451,3.168-0.87,3.671-3.17l0.141-0.23c-4.356-1.004-9.975-1.132-12.938-3.354
		c-0.338-0.254-0.359-1.108-0.729-1.31c-0.197-0.107-0.532,0.112-0.673-0.064c-0.258-0.325,0.432-0.823,0.287-1.215
		c-0.153-0.406-1.207-0.505-1.439-0.883c-0.054-0.085-0.085-1.429-0.025-1.491c0.232-0.226,1.016-0.284,0.815-0.536
		c-0.446-0.57-2.093,0.101-2.644,0.215c-1.564,0.323-7.464-0.305-7.967,0.047c-0.699,0.486-1.048,2.515-1.84,2.774
		c-0.192,0.063-2.726-0.662-2.798-0.816c-0.126-0.269,0.604-0.78-0.558-1.06c-0.655-0.159-1.383,0.349-2.013-0.237l0.03-0.246
		c-0.24,1.091-0.926,1.873-1.193,2.842c-0.223,0.81,1.064,0.624,0.833,1.59l-0.422,0.695c-1.833,0.532-1.534-2.686-3.392-1.655
		c-1.806,1.002,0.301,2.628,0.313,3.023c0,0.005-0.658,1.158-0.658,1.162c-0.043,0.926,1.186,1.009-0.184,1.472
		c-0.18,0.061-0.368,0.262-0.539,0.181c-0.569-0.272-0.295-2.239-0.878-2.598c-1.268-0.785-2.515,1.207-3.539,0.792
		c-1.813-0.74-0.278-2.46-1.271-3.403c-0.216-0.208-0.305,0.706-0.602,0.666c-0.113-0.014-0.553-1.563-1.317-0.425
		c-0.114,0.175,0.004,0.416,0.005,0.624c0.001,0.465,0.177,1.441,0.006,1.867c-0.616,1.527-3.878,2.752-3.75,4.721
		c0.027,0.421,1.415,1.919,0.039,2.25c-1.019,0.248-0.777-1.73-1.092-2.144l-1.121-0.655c-0.072-0.465,0.784-0.662,0.849-1.127
		c0.021-0.144-3.396-2.097-3.681-3.267c-0.122-0.503,0.387-1.917,0.421-2.518c0.013-0.219,0.198-0.508,0.04-0.659
		c-0.283-0.275-3.175,1.795-3.539,2.016c-1.365,0.837,0.274,0.698,0.062,1.715c-0.124,0.589-3.575,3.391-3.808,3.424
		c-0.723,0.099-1.697-1.415-2.563-1.396c-1.512,0.033-3.537,1.431-5.152,0.683c-0.226-0.107-0.375-0.324-0.482-0.6l-0.077-0.243
		c-4.956,2.235-2.307,1.802-1.227,4.301c0.076,0.179-0.024,0.388-0.035,0.58c0,0.002-0.073,1.155-0.073,1.155
		c0.215,0.586,1.591,1.162,1.643,1.769c0.066,0.784-3.458,3.573-4.104,3.581c-0.749,0.014-0.405-0.732-1.89-0.313
		c-0.185,0.051-0.51-0.031-0.557,0.155C4.621,27.05,5.736,28.042,5.836,28.4c0.09,0.317-0.305,0.678-0.162,0.975
		c0.413,0.853,2.078,1.078,2.52,1.919c1.128,2.133-1.596,2.904-2.492,4.342c-0.491,0.787,0.807,0.851,0.668,1.361
		c-0.166,0.613-0.919,0.935-0.32,1.948c2.415,4.091,6.723,2.617,7.376,3.176c1.578,1.353-2.158,3.504-2.478,4.36
		c0,0.002,0.11,0.876,0.148,1.174c0.538,0.099,1.313,0.382,1.599,0.349c1.362-0.159,4.537-0.525,5.475-1.668
		c0.162-0.194-0.208-0.549-0.065-0.758c0.215-0.317,0.743-0.305,0.987-0.602c0.388-0.474-0.212-0.713,0.529-1.172
		c0.411-0.248,1.358-0.16,1.686-0.5c0.326-0.339,0.258-1.116,0.387-1.44c0.188-0.474,3.303-1.652,3.811-1.698
		c0.146-0.017,3.616,1.43,3.709,1.508c0.009,0.01,0.201,1.532,0.744,1.099c0.198-0.159,0.031-0.785,0.274-0.711
		c0.832,0.266,4.79,4.65,5.711,5.479c0.264,0.239-0.083-1.033,0.125-0.981c0.248,0.064,2.296,1.35,2.663,1.58
		c2.679,1.668,0.163,6.303,1.311,8.367c0.655,1.172,1.601,2.182,1.909,3.706c0.267,1.321-1.325,3.583-0.881,4.367
		c0.189,0.336,1.913-0.302,2.667,0.561c0.779,0.893-0.471,1.311-0.378,1.695c0.114,0.469,1.731,0.692,2.08,0.983
		c0.023,0.019,2.326,3.653,2.326,3.733c-0.006,1.474-1.421,0.312-1.096,1.614c0.092,0.371,2.318,0.257,3.268,0.358
		c2.512,0.272,2.893,4.871,4.168,5.891c0.002,0.003,0.914,0.095,0.914,0.095c0.676,0.323,1.542,1.227,2.049,1.689
		c0.932,0.849,0.473,2.113,0.998,3.067c0.41,0.752,1.846,1.23,2.41,1.963c0.372,0.483,0.891,2.402,1.432,2.607
		c0.189,0.074,0.377-0.23,0.576-0.191c0.388,0.068,0.646,0.938,1.02,1.079c1.287,0.484,1.531-0.3,2.461,1.703
		c0,0,0.447,1.275,0.448,1.275c0.45,0.394,2.116-1.114,2.887-0.99c0.832,0.136,1.454,1.211,2.269,1.362
		c0.754,0.138,1.447-0.715,2.31-0.25c1.312,0.707,2.345,3.656,2.865,4.912c0.082,0.197,0.389,1.279,0.571,1.875
		c-0.016-0.037-0.025-0.071-0.016-0.106c0.047-0.141,0.243-0.229,0.393-0.219c0.386,0.03,0.516,0.53,0.899,0.562
		c0.353,0.023,0.619-0.449,0.968-0.426c0.506,0.039,2.428,1.546,2.299,2.137c-0.164,0.725-2.146,0.762-1.998,1.586
		c0.027,0.148,0.209,0.282,0.357,0.273c0.502-0.031,1.07-0.913,1.571-0.877c1.269,0.086,2.173-0.348,3.407-0.266
		c0.848,0.056,2.104,3.39,2.193,4.084c0.131,1.035-1.459,1.252-1.099,2.396c0.226,0.717,1.929,0.883,2.396,1.131
		c1.066,0.571,1.645,3.072,3.062,2.891c0.944-0.117,1.558-3.377,3.185,0.058c0.229,0.481,0.857,1.363,0.897,1.892
		c0.104,1.365-0.156,3.367,0.712,4.713c0.635,0.988,1.447,1.72,1.764,3.041c0.379,1.597-0.011,3.357,0.526,4.942
		c0.512,1.513,1.603,0.925,1.224,2.763c-0.568,2.752-2.775,0.746-4.379,2.239c-0.775,0.726,0.901,1.687,0.396,2.871
		c-1.819,4.278-1.475,1.636-3.262,3.362c-0.398,0.38-0.266,4.34,1.116,4.722c5.714,1.581,3.72-2.961,7.123-5.292
		c0.915-0.624,2.356-0.552,2.813-1.838c0.66-1.876-0.86-3.816,0.619-5.374c2.516-2.655,6.434-0.175,7.072-2.92
		c0.021-0.101-0.904-0.927-0.921-1.263c-0.018-0.479,0.452-0.977,0.438-1.459c-0.02-0.598-0.539-1.078-0.322-1.73
		c0-0.003,0.62-1.205,0.62-1.205c-0.183-0.441-0.949-0.251-1.326-0.541c-0.912-0.701-1.987-2.273-3.147-2.826
		c-0.933-0.445-1.871,0.23-2.641-0.848c0.004-0.122,0.08-0.621,0.033-0.736c-1.047-2.658,0.879-1.687,1.297-3.634
		c0.092-0.421-0.302-0.819-0.327-1.246c-0.009-0.159,3.347-5.271,3.831-5.752c1.368-1.364,1.873-0.423,3.219-0.374
		c0.379,0.012,0.973-0.371,1.325-0.203c0.397,0.189-1.551,0.776-1.358,1.186c0.166,0.354,1.84,1.169,2.224,1.307
		c0.974,0.354,5.537,0.709,5.821,1.398c0.078,0.188,0.082,1.051,0.158,1.234c0.174,0.426,0.801,0.482,0.922,1.008
		c0.023,0.102-0.131,0.164-0.197,0.242c-0.131,0.16-0.438,0.28-0.391,0.479c0.045,0.204,0.474,0.073,0.562,0.262
		c0.461,0.95,0.3,2.169,2.021,3.001c2.787,1.346,1.959-0.369,2.525-2.406c0.251-0.906,1.153-0.789,1.176-1.947
		C127.154,108.723,122.493,106.864,121.754,105.641"/>
</g>
<g id="Laag_3">
</g>
</svg>
