<?xml version="1.0" encoding="utf-8"?>
<!-- Generator: Adobe Illustrator 16.0.0, SVG Export Plug-In . SVG Version: 6.00 Build 0)  -->
<!DOCTYPE svg PUBLIC "-//W3C//DTD SVG 1.1//EN" "http://www.w3.org/Graphics/SVG/1.1/DTD/svg11.dtd">
<svg version="1.1" id="Laag_1" xmlns="http://www.w3.org/2000/svg" xmlns:xlink="http://www.w3.org/1999/xlink" x="0px" y="0px"
	 width="75.333px" height="52.667px" viewBox="0 0 75.333 52.667" enable-background="new 0 0 75.333 52.667" xml:space="preserve">
<g id="Laag_2">
</g>
<g id="Laag_1_1_">
	<path fill="#CCCCCC" d="M9.124,38.382c0.614-0.363,0.69-1.715,1.229-2.193c1.191-1.057,4.896-2.627,6.521-2.798
		c1.673-0.173,3.534,0.84,5.194,0.567c0.366-0.061,1.165-0.865,1.512-0.776c0.433,0.106,0.835,1.856,1.459,1.636
		c0.002,0,0.662-0.99,0.662-0.992c1.053-0.76,1.834,0.342,2.816,0.366c0.595,0.015,1.201-0.577,1.798-0.565
		c1.172,0.025,2.396,1.336,3.566,1.276c0.485-0.024,1.02-0.837,1.501-0.804c0.75,0.047,1.077,1.139,1.986,0.373
		c0.662-0.561,1.296-2.688,2.511-2.564c1.274,0.129,1.023,3.363,2.479,3.715c0.002,0.002,1.287,0.055,1.289,0.055
		c0.646,0.027,1.29,0.052,1.938,0.076c0.217,0.01,0.431,0.018,0.646,0.024c0.215,0.009,0.448-0.065,0.644,0.024
		c1.705,0.775,5.377,5.671,7.418,6.229c2.946,0.807,3.375-3.064,5.301-2.881c0.352,0.034,0.869,0.916,1.214,0.865
		c0.002-0.001,0.496-0.775,0.498-0.775c0.233-0.07,0.479,0.064,0.721,0.096c0.237,0.031,0.479,0.062,0.718,0.095
		c0.241,0.032,0.516,0.219,0.721,0.093c0.057-0.031,0.943-2.924,1.365-3.531c0.713-1.037,2.397-1.486,3.041-2.57
		c0.93-1.571-0.699-3.092-1.061-4.42c0,0,0.204-0.75,0.202-0.75c-0.214-0.293-0.791-0.1-1.017-0.381
		c-0.002-0.004-0.42-1.41-0.423-1.412c-0.198-0.31-0.668-0.352-0.897-0.637c-0.496-0.613,0.684-1.521-0.469-1.892
		c-0.504-0.164-1.438,0.52-1.766,0.414c-0.05-0.017,0.891-2.914,0.801-3.22c0,0-0.756-0.65-0.756-0.652
		c0.078-0.418,2.133-1.786,0.952-2.99c-0.581-0.591-2.358-0.709-2.75-1.424c-0.705-1.302,0.481-1.491-1.493-1.307
		c-0.258,0.566-3.441-1.156-3.927-1.096c-0.935,0.117-1.772,1.878-2.712,1.912c-0.395,0.014-4.307-3.153-4.506-3.494l0.066-0.966
		c-0.183-0.141-0.455-0.02-0.682-0.029c-0.004,0-1.361-0.06-1.363-0.061c-0.307-0.165-0.15-0.798-0.474-0.926
		c-0.345-0.138-0.705,0.406-1.062,0.315c-0.805-0.202-1.703-2.464-2.723-2.213c-0.27,0.065,0.141,1.002-0.059,1.202
		c-0.368,0.375-0.729-1.115-1.541-0.859c-1.604,0.505-4.987,3.175-6.17,3.238l-0.116,0.003c-0.06,0.24-0.109,0.481-0.118,0.73
		c-0.09,2.509,2.428,5.667,1.408,8.333c-0.42,1.098-4.285,4.238-5.41,4.126c-1.09-0.107-1.018-0.501-1.869-0.878
		c-0.774-0.344-1.429-0.021-1.968-0.881c-0.661-1.051-0.461-2.857-1.252-3.798c-0.313-0.373-1.158-0.345-1.531-0.664
		c-1.552-1.329-3.267-2.477-3.022-4.695c0.018-0.185-0.358,0.09-0.542,0.136c-1.559,0.397-2.77,1.707-4.29,2.16
		c-0.756,0.225-1.621-0.079-2.308,0.533c-3.163,2.819-1.474,6.205-2.719,8.462c-0.557,1.011-2.136,1.319-2.591,2.206
		c-0.112,0.215,0.004,0.482,0.006,0.725c0.008,0.24,0.01,0.48,0.012,0.721c0.009,0.775-0.713,2.223-0.521,2.899
		c0.036,0.125,0.126,0.235,0.232,0.349c0.006,0.002,0.008,0.006,0.014,0.01c0.38,0.379,0.998,0.75,0.62,1.56
		c-0.232,0.495-0.461-1.298-0.618-1.562c-0.006-0.004-0.008-0.008-0.014-0.011c-0.031-0.041-0.06-0.012-0.084,0.134
		c-0.112,0.609,0.04,3.369,0.25,5.987L7.856,38.4C7.856,38.401,9.122,38.382,9.124,38.382"/>
</g>
<g id="Laag_3">
</g>
</svg>
