<?xml version="1.0" encoding="utf-8"?>
<!DOCTYPE svg PUBLIC "-//W3C//DTD SVG 1.1//EN" "http://www.w3.org/Graphics/SVG/1.1/DTD/svg11.dtd">
<svg version="1.1" id="Laag_1" xmlns="http://www.w3.org/2000/svg" xmlns:xlink="http://www.w3.org/1999/xlink" x="0px" y="0px"
	 width="75px" height="52px" viewBox="0 0 75.333 52.667" enable-background="new 0 0 75.333 52.667" xml:space="preserve">
<g id="Laag_2">
</g>
<g id="Laag_1_1_">
	<g>
		<path fill="#CCCCCC" d="M34.955,32.718c-0.354-0.953-1.17-0.842-1.771-1.154c-0.315-0.164-0.159-1.289-0.479-1.441
			c-1.266-0.609-3.823,1.099-5.026,0.387c-0.138-0.082,0.101-0.368-0.014-0.485c-0.926-0.962-3.767-0.981-4.92-1.835
			c-0.303-0.225-0.229-0.855-0.589-0.961c-0.321-0.091-0.574,0.333-0.886,0.457c-0.004,0.396-0.04,0.723-0.095,0.771
			c-0.185,0.158-0.551-0.156-0.721,0.012c-0.49,0.494,0.926,2.953,0.63,3.633c-0.565,1.299-5.808,0.473-6.201-0.174
			c-0.099-0.164,2.364-2.391,2.568-2.692c0.329-0.493,0.788-1.216,1.228-2.039c-0.075-0.022-0.146-0.042-0.219-0.063
			c-0.369,0.668-0.776,1.299-1.156,1.859c-3.494,5.148-5.412,1.731-7.319,3.191c-0.924,0.706-0.003,1.891-0.003,2.672
			c-0.002,1.17-1.388,2.952-2.878,4.209c5.642,1.551,22.513,3.232,27.389,1.212c0.041-0.019,0.072-0.054,0.11-0.082
			C32.627,36.451,35.411,33.939,34.955,32.718"/>
		<path fill="#CCCCCC" d="M19.497,20.968c0,0,0.029,0.443,0.044,0.666c0.041,0.636,0.179,1.359,0.132,1.996
			c-0.083,1.157-0.592,2.38-1.211,3.502c0.073,0.021,0.144,0.041,0.219,0.063C19.792,25.133,20.808,22.422,19.497,20.968"/>
		<path fill="#CCCCCC" d="M65.54,24.142c0.1-1.716,1.461-2.92,1.047-4.704v-0.063c-0.305,0.03-0.637,0.005-1.01-0.097
			c-2.041-0.558-5.713-5.455-7.418-6.229c-0.195-0.09-0.429-0.016-0.644-0.024c-0.216-0.007-0.429-0.015-0.646-0.024
			c-0.646-0.025-1.291-0.05-1.938-0.077c-0.002,0-1.287-0.053-1.289-0.055c-1.454-0.352-1.203-3.586-2.479-3.715
			c-1.215-0.122-1.85,2.006-2.512,2.565c-0.908,0.766-1.236-0.325-1.986-0.373c-0.48-0.033-1.016,0.779-1.5,0.804
			c-1.172,0.06-2.396-1.251-3.566-1.276c-0.598-0.012-1.203,0.579-1.799,0.565c-0.981-0.025-1.763-1.126-2.815-0.367
			c0,0.002-0.66,0.993-0.662,0.993c-0.624,0.222-1.026-1.528-1.459-1.636c-0.347-0.087-1.146,0.716-1.512,0.777
			c-1.66,0.272-3.521-0.741-5.194-0.568c-1.625,0.171-5.33,1.742-6.521,2.798c-0.539,0.478-0.615,1.83-1.229,2.194
			c-0.002,0-1.268,0.018-1.268,0.018l-0.244-0.042c0.202,2.486,0.456,4.844,0.598,5.117c0.608,1.214,1.271,2.427,1.475,3.854
			c0.124,0.86-0.555,1.213-0.541,1.947c0.002,0.25,0.343-0.613,0.562-0.494c0.212,0.116,0.291,0.984,0.281,1.65
			c0.312-0.124,0.564-0.548,0.886-0.457c0.36,0.104,0.286,0.737,0.589,0.961c1.153,0.854,3.994,0.874,4.92,1.835
			c0.114,0.117-0.124,0.402,0.014,0.486c1.203,0.709,3.761-0.998,5.026-0.389c0.319,0.154,0.163,1.278,0.479,1.442
			c0.601,0.312,1.417,0.2,1.771,1.155c0.456,1.221-2.327,3.731-0.351,7.476c0.266-0.204,0.409-0.628,0.739-0.678
			c1.194-0.187,1.208,1.153,1.812,1.638c1.41,1.129,2.538-0.074,3.754,2.285c0.491,0.945-0.389,2.104,0.264,2.671
			c0.627,0.542,4.605,0.351,5.307-0.007c0.195-0.1,0.208-0.447,0.417-0.51c0.821-0.238,1.222,1.484,2.271,1.099
			c0.73-0.267,1.092-1.526,1.814-1.81c0.186-0.071,0.395,0.031,0.594,0.047c0.198,0.016,0.394,0.031,0.592,0.047
			c0.199,0.015,0.426,0.15,0.594,0.046c0.601-0.382-0.551-1.622-0.264-1.937c0.408-0.453,2.049-0.127,2.617-0.408
			c0.905-0.444,0.401-1.506,0.898-2.01c0.252-0.254,0.713-0.047,1.072-0.068c0.539-0.037,0.924-0.814,1.377-0.582
			c1.197,0.617-0.754,3.672,2.121,2.048c0.166-0.093,0.399-0.117,0.492-0.28c1.199-2.039-2.195-2.285-2.229-2.527
			c-0.211-1.529,1.496-2.399,1.646-3.531c0.106-0.801-0.867-2.428-0.512-3.131c1.533-3.062,2.329-1.643,3.544-2.941
			c0.498-0.537,0.243-2.057,0.815-2.498c0.638-0.494,2.359,0.467,3.025,0c0.276-0.195,0.098-1.206,0.305-1.487
			c0.006-0.002,0.957-0.564,0.961-0.567C69.213,23.899,65.504,24.726,65.54,24.142"/>
		<path fill="#CCCCCC" stroke="#A7A9AC" stroke-width="0.5" stroke-linecap="round" stroke-linejoin="round" d="M66.584,19.438
			c0.416,1.783-0.946,2.988-1.045,4.704c-0.035,0.584,3.674-0.243,3.092,0.962c-0.002,0.003-0.954,0.565-0.959,0.567
			c-0.207,0.281-0.028,1.292-0.307,1.487c-0.664,0.467-2.388-0.494-3.025,0c-0.571,0.44-0.316,1.961-0.814,2.498
			c-1.215,1.299-2.011-0.119-3.544,2.941c-0.356,0.703,0.618,2.33,0.513,3.131c-0.152,1.132-1.858,2.002-1.647,3.531
			c0.032,0.242,3.428,0.488,2.229,2.527c-0.094,0.164-0.326,0.188-0.492,0.28c-2.875,1.624-0.926-1.43-2.121-2.048
			c-0.455-0.232-0.838,0.544-1.379,0.582c-0.358,0.021-0.819-0.188-1.071,0.068c-0.497,0.504,0.007,1.565-0.897,2.011
			c-0.568,0.278-2.21-0.046-2.619,0.407c-0.285,0.313,0.864,1.555,0.265,1.937c-0.168,0.104-0.394-0.03-0.593-0.046
			c-0.199-0.018-0.395-0.032-0.594-0.046c-0.197-0.017-0.406-0.119-0.593-0.048c-0.724,0.283-1.084,1.543-1.813,1.81
			c-1.051,0.386-1.449-1.337-2.271-1.098c-0.209,0.062-0.221,0.409-0.417,0.509c-0.7,0.357-4.681,0.549-5.306,0.007
			c-0.652-0.567,0.228-1.725-0.266-2.671c-1.215-2.359-2.343-1.154-3.752-2.285c-0.604-0.484-0.617-1.824-1.812-1.638
			c-0.378,0.058-0.501,0.614-0.85,0.76c-4.968,2.058-22.397,0.274-27.714-1.296"/>
	</g>
</g>
<g id="Laag_3">
</g>
</svg>
