<?xml version="1.0" encoding="utf-8"?>
<!-- Generator: Adobe Illustrator 16.0.0, SVG Export Plug-In . SVG Version: 6.00 Build 0)  -->
<!DOCTYPE svg PUBLIC "-//W3C//DTD SVG 1.1//EN" "http://www.w3.org/Graphics/SVG/1.1/DTD/svg11.dtd">
<svg version="1.1" id="Laag_1" xmlns="http://www.w3.org/2000/svg" xmlns:xlink="http://www.w3.org/1999/xlink" x="0px" y="0px"
	 width="32.5px" height="32.75px" viewBox="0 0 32.5 32.75" enable-background="new 0 0 32.5 32.75" xml:space="preserve">
<g id="Laag_2">
</g>
<g id="Laag_1_1_">
	<path fill="#CCCCCC" d="M26.334,15.05c-0.066-0.977-2.379-1.947-3.072-2.392c-0.539-0.345-0.847-1.103-1.337-1.383
		c-0.423-0.238-0.983-0.073-1.438-0.25c-1.146-0.431-6.265-4.987-6.258-5.712c-0.376,0.056-1.257,0.343-1.615,0.23
		c-0.37-0.112-0.502-0.791-0.888-0.75C9.892,5,13.255,7.624,12.209,9.486c-0.908-0.847-0.991-1.739-2.138-1.754
		C8.078,9.5,7.888,12.163,7.656,12.378c-0.539,0.511-1.255,0.02-1.644,0.96c-1.264,3.061,2.58,3.613-0.451,5.891
		c0.248,0.586,0.364,1.342,0.487,1.758l0.136,0.082c0.002-0.034,0.012-0.063,0.047-0.078c0.345-0.147,0.729,0.359,1.091,0.268
		c0.211-0.056,0.273-0.561,0.466-0.458c1.141,0.646-0.879,0.558-0.846,1.191c0.039,0.657,0.946-0.089,1.097,0.016
		c0.378,0.265,0.391,1.62,1.07,1.746c0.369,0.067,0.78-0.425,1.103-0.231c0.284,0.17-0.029,0.718,0.17,0.987
		c0.878,1.22,1.845,1.356,2.532,2.497c0.392,0.643-0.181,0.998,0.169,1.48c0.585,0.799,1.495,0.994,2.412,1.138
		c0.069-0.784,0.134-1.567,0.234-2.347l0.132-0.984c-0.161-0.4-1.238-0.825-1.274-1.241c-0.024-0.274,2.457-3.866,2.774-4.37
		c0.293-0.465,1.384-2.755,2.015-2.752c0.628,0.002,0.175,2.809,1.269,2.963c0.752,0.108,1.81-1.615,2.551-1.477
		c0.55-1.869-1.141-1.829-0.907-2.221C22.88,16.184,26.447,16.74,26.334,15.05"/>
</g>
<g id="Laag_3">
</g>
</svg>
