<?xml version="1.0" encoding="utf-8"?>
<!-- Generator: Adobe Illustrator 16.0.0, SVG Export Plug-In . SVG Version: 6.00 Build 0)  -->
<!DOCTYPE svg PUBLIC "-//W3C//DTD SVG 1.1//EN" "http://www.w3.org/Graphics/SVG/1.1/DTD/svg11.dtd">
<svg version="1.1" id="Laag_1" xmlns="http://www.w3.org/2000/svg" xmlns:xlink="http://www.w3.org/1999/xlink" x="0px" y="0px"
	 width="43px" height="30.583px" viewBox="0 0 43 30.583" enable-background="new 0 0 43 30.583" xml:space="preserve">
<g id="Laag_2">
</g>
<g id="Laag_1_1_">
	<path fill="#CCCCCC" d="M35.295,15.165c0.143-0.552,0.85-0.824,0.312-1.488c-0.81-1.004-1.588-3.292-2.543-4.101
		c-0.942-0.804-2.066-0.695-3.029-1.727c-0.273-0.288-1.924-1.679-1.855-2.063c-1.142-1.446-5.377,1.21-7.105,1.411
		c-1.462,0.174-3.29-1.169-4.194,0.82c-0.09,0.188,0.005,0.412,0.009,0.617c0.003,0.205,0.144,0.458,0.01,0.614
		c-0.499,0.577-1.308-0.923-1.666-0.957c-0.801-0.082-3.528,0.833-4.203,1.284c-0.709,0.472,0.114,5.153-2.365,2.976l-0.229-0.033
		C8.231,13.258,8.019,14,7.939,14.777c-0.059,0.573,0.619,1.701,0.383,2.214c-0.144,0.318-0.846,0.157-0.92,0.497
		c-0.142,0.632,1.177,1.558,1.125,2.21c-0.002,0.014-0.735,0.977-0.737,0.989c-0.035,0.319,2.374,5.769,2.66,6.138
		c0.53,0.686,1.069-0.257,1.494-0.262c0.465-0.005,0.973,0.163,1.312,0.477c0.186,0.168-0.215,0.637,0.012,0.737
		c0.423,0.197,8.832-1.28,8.962-1.382c1.178-0.9,1.178-3.307,3.09-3.523c0.299-0.033,0.464,0.483,0.764,0.475
		c0.014-0.002,1.275-0.527,1.29-0.529c1.14-0.087,2.565,1.242,3.75,0.626c0.36-0.19,0.323-0.864,0.71-1.006
		c0.003-0.003,0.762,0.47,0.764,0.467c1.407-0.68-0.902-2.924,2.312-3.036l0.187-0.052C35.741,18.461,34.936,16.554,35.295,15.165"
		/>
</g>
<g id="Laag_3">
</g>
</svg>
