<?xml version="1.0" encoding="utf-8"?>
<!DOCTYPE svg PUBLIC "-//W3C//DTD SVG 1.1//EN" "http://www.w3.org/Graphics/SVG/1.1/DTD/svg11.dtd">
<svg version="1.1" id="Laag_1" xmlns="http://www.w3.org/2000/svg" xmlns:xlink="http://www.w3.org/1999/xlink" x="0px" y="0px"
	 width="41px" height="41px" viewBox="0 0 41 41" enable-background="new 0 0 41 41" xml:space="preserve">
<g>
	<path fill="#CCCCCC" d="M39.355,5.985C38.568,5.58,39.064,5.692,38.98,5.07c-0.081-0.587-1.262-0.429-1.482-0.976
		c-0.145-0.354,0.128-0.896-0.094-1.237c-0.208-0.317-0.569-0.555-0.936-0.643c-1.216-0.291-2.713,0.604-3.93,0.311
		c-0.922-0.221-1.852-0.618-2.897-0.505c-1.294,0.141-4.2,0.759-5.112,1.776c-0.406,0.458-0.462,1.408-0.93,1.795l-0.043,0.237
		c0.182,0.874-0.898,2.24-0.672,2.823c0.32,0.827,2.024,0.194,2.494,0.825c0.527,0.702-1.371,1.372-0.965,2.404
		c0.761,1.936,1.383,0.542,2.034,1.349c1.082,1.335-3.57,4.52-4.298,4.384c-0.905-0.165-2.151-1.293-2.948-1.774l-1.174-0.715
		c-0.002-0.191,1.226-0.473,1.299-1.231c0.042-0.427-0.346-2.499,0.2-2.67c0.678-0.217,1.553,0.781,2.333-0.303
		c0.072-0.101-0.005-0.246-0.008-0.371c-0.019-0.991-0.914,0.493-1.205-2.066c0,0-0.362-1.297-0.361-1.298l-1.549,0.199
		c-1.081-0.133,0.047-0.973-1.13-1.199c-0.081-0.016-0.97,2.158-1.059,2.356c-1.24,2.75-1.633,5.243-3.611,7.575
		c-0.845,0.995-2.126,2.048-3.175,2.824c-0.328,0.245-1.11-0.131-1.235,0c-0.356,0.376,0.309,1.923,0.164,2.257
		c-0.124,0.288-0.535-0.353-0.844-0.418c-0.299-0.06-3.201,1.644-3.165,1.827c0.024,0.128,0.122,0.271,0.25,0.3
		c0.425,0.087,0.564-0.38,0.991-0.294c0.734,0.154,0.301,1.42,1.25,1.494c1.093,0.084,1.183-0.341,1.944,0.39
		c0.122,0.116,0.205,0.429,0.056,0.506c-0.062,0.03-1.741-1.405-1.945-0.392c-0.148,0.741,3.193,1.732,2.166,2.412
		c-0.746,0.492-3.254-1.652-3.111-2.354c0.038-0.188-0.08-0.392-0.202-0.536c-0.48-0.573-3.745-0.795-4.082,0.146
		c-0.515,1.426,1.598,1.259,2.047,1.417c0.297,0.102,0.448,0.964,0.854,1.164c0.999,0.493,0.73-0.255,1.344-0.47
		c0.577-0.2,1.312,0.949,1.807,1.104c0.149,0.051,0.316-0.018,0.473-0.028c0.159-0.009,0.361-0.139,0.473-0.027
		c0.103,0.098,0.081,0.406,0.049,0.723c0.417,0.162,0.938,0.635,1.266,0.523c0.818-0.269-0.575-1.268,0.927-1.546
		c0.216-0.042,0.505-0.288,0.647-0.12c0.157,0.183-0.243,0.494-0.139,0.716c0.501,1.056,2.118-1.043,2.736-0.464
		c0.314,0.298-0.932,0.756-0.68,1.105c0.959,1.338,1.824-0.602,2.668-0.109c0.155,0.09,0.417,2.506,0.993,3.023
		c0.167,0.148,0.448,0.029,0.669,0.043c0.222,0.013,0.447,0.025,0.669,0.039c0.223,0.014,0.46-0.039,0.669,0.043
		c0.567,0.218,3.095,2.016,3.284,2.563l-0.581,0.638c-0.38,0.72-2.238,4.236-1.814,4.852c0.222,0.322,2.209,0.424,2.799,0.504
		l0.045-0.118c-0.039-0.216-0.205-0.439-0.123-0.642c0.004-0.006,1.08-0.785,1.084-0.795c0.68-2.092-2.625-2.246-1.514-2.978
		c0.226-0.147,0.453,0.431,0.718,0.374c2.484-0.543,1.425-2.181,1.522-2.441c0.279-0.747,1.372-1.203,1.736-1.915
		c1.143-2.231-2.098-6.13-1.084-7.079c0.15-0.14,0.408,0.018,0.611,0.026c0.202,0.008,0.429,0.111,0.611,0.025
		c0.092-0.044,0.441-0.741,0.736-0.691c0.646,0.112,1.131,1.178,1.779,1.291c0.402,0.068,2.894-0.277,3.303-0.424
		c2.449-0.882-0.699-1.803,0.101-2.438c0.932-0.744,2.735-0.768,3.519-1.874c0.363-0.512,0.828-3.129-0.049-3.439
		c-0.18-0.061-0.186,0.396-0.373,0.43c-0.219,0.037-1.969-0.893-2.1-1.085c-0.678-0.993,0.689-0.864,0.789-1.093
		c0.258-0.599-1.051-1.182,0.347-1.169c0.706,0.006,1.47,0.665,2.169,0.602c0.296-0.026,0.812-2.693,1.104-3.066
		c0.541-0.699,1.914-3.686,2.029-5.42C39.912,6.325,39.546,6.084,39.355,5.985z"/>
</g>
</svg>
