<?xml version="1.0" encoding="utf-8"?>
<!DOCTYPE svg PUBLIC "-//W3C//DTD SVG 1.1//EN" "http://www.w3.org/Graphics/SVG/1.1/DTD/svg11.dtd">
<svg version="1.1" id="Laag_1" xmlns="http://www.w3.org/2000/svg" xmlns:xlink="http://www.w3.org/1999/xlink" x="0px" y="0px"
	 width="197px" height="177px" viewBox="0 0 197.417 177.667" enable-background="new 0 0 197.417 177.667"
	 xml:space="preserve">
<g id="Laag_2">
</g>
<g id="Laag_1_1_">
	<path fill="#CCCCCC" d="M123.88,18.061c0.082-0.15,0.106-1.818,0.082-1.848c-0.963-1.154-3.686,1.07-2.104,1.861
		C121.859,18.075,123.556,18.651,123.88,18.061"/>
	<path fill="#CCCCCC" d="M99.91,30.52c0.168,0.006,0.356,0.084,0.514,0.02c0.719-0.293,1.266-1.801,2.254-2.234
		c0.893-0.392,0.062,0.589,0.082,0.633c0.08,0.145,3.271-0.029,3.223-0.539c-0.023-0.278-0.812-0.178-0.709-0.438
		c0.068-0.172,0.458-0.021,0.521-0.195c0.058-0.164-0.256-0.258-0.301-0.427c-0.055-0.202-0.115-0.464,0.016-0.626
		c0.016-0.021,1.119-0.161,1.139-0.182c0.615-0.791-0.902-0.893-0.898-1.065c0.006-0.293,0.625-0.317,0.631-0.61
		c0.026-1.143-1.457,0.707-1.443,0.173c0.021-0.786,0.684-0.678,0.143-1.454c-0.076-0.109-0.135,0.27-0.265,0.306
		c-0.321,0.091-1.136-1.151-0.719,0.083c0.044,0.141,0.2,0.285,0.143,0.42c-0.065,0.142-0.276,0.262-0.418,0.196
		c-0.233-0.111-0.491-1.508-0.985-1.278c-0.437,0.205,0.617,1.123,0.576,1.266c-0.222,0.786-1.261-0.662-1.627-0.468
		c-0.287,0.154,0.746,0.652,0.486,0.85c-0.331,0.252-1.396-0.63-1.225-0.251c0.156,0.346,1.869,0.881,1.82,0.896
		c-0.289,0.087-1.729-0.399-0.934,0.179c0.143,0.102,0.467,0.416,0.294,0.427c-1.003,0.063-1.674-0.785-2.615-0.196
		c-0.161,0.097-0.553,0.124-0.479,0.295c0.026,0.057,1.625-0.092,1.436,0.263c-0.123,0.226-1.346,0.274-1.354,0.368l0.877,0.451
		c0.231,0.338-0.485,0.58-0.373,0.824c0.158,0.352,0.937-0.423,0.724,0.445c-0.223,0.918-2.24,0.013-2.159,0.967
		C98.375,30.756,101.601,28.924,99.91,30.52"/>
	<path fill="#CCCCCC" d="M91.319,30.415c0.172-0.1,0.203,0.39,0.392,0.443c1.41,0.398,3.527-2.412,3.505-3.601
		c-0.038-1.601-4.704,2.745-4.796,4.372C91.222,33.52,91.137,30.523,91.319,30.415"/>
	<path fill="#CCCCCC" d="M85.02,34.086c0.227-0.118,2.764,0.513,2.443-0.48c-0.049-0.148,1.66,0.313-0.106,0.842
		c-0.597,0.178-1.033,0.438-1.569,0.75c1.294,0.622,2.664,0.78,3.711-0.622c0.468-0.624-0.671-0.706-0.785-0.894
		c-0.07-0.12,1.009-0.842,0.806-1.223c-0.168-0.309-0.799,0.675-0.964,0.367c-0.354-0.656,0.933-0.961-0.381-2.346
		c-0.391-0.412-0.982,0.404-0.882,0.789c0.047,0.177,0.864,1.379,0.74,1.525c0,0-0.701-0.467-0.701-0.466
		c-0.188,0.12-0.504-0.243-0.51-0.243c-0.382-0.203,0.088,1.155-0.401,1.455c-0.703,0.428-1.482-0.688-1.718-0.959
		c-0.088-0.1,0.6,1.223-0.371,0.821c-0.217-0.09-0.065-0.772-0.266-0.653c-0.239,0.137-0.53-0.342-1.044,1.412
		c-0.065,0.226,0.181,0.436,0.27,0.654C83.886,36.263,84.623,34.293,85.02,34.086"/>
	<path fill="#CCCCCC" d="M92.637,35.774c0.077-0.109,0.156-0.218,0.239-0.332c-0.08,0.055-0.145,0.102-0.162,0.123
		C92.665,35.629,92.644,35.702,92.637,35.774"/>
	<path fill="#CCCCCC" d="M89.308,36.86C89.337,36.829,89.344,36.815,89.308,36.86"/>
	<path fill="#CCCCCC" d="M90.957,36.958c1.354,0.073-1.703,1.621-0.959,2.076c1.772,1.092,2.585-1.322,2.943-1.758
		c0.106-0.127-0.018,0.33-0.025,0.496c-0.01,0.165-0.157,0.396-0.023,0.494c0.617,0.467,1.661-1.5,2.295-1.729
		c0.188-0.068,0.397,0.018,0.595,0.028c0.201,0.009,0.397,0.018,0.597,0.026c0.2,0.008,0.465,0.179,0.593,0.026
		c0.746-0.884,0.11-2.514,0.132-2.961c0.008-0.176,0.429-0.265,0.33-0.408c-0.118-0.174-0.46,0.096-0.626-0.028
		c-0.151-0.112-0.642-1.085-1.202-1.108c-0.15-0.008,0.094,0.284,0.138,0.428c0.372,1.165-0.93-0.433-1.229,0.574
		c-0.18,0.6,1.207,0.545,0.784,1.095c-0.104,0.13-1.239,0.008-1.172,0.367c0.027,0.125,0.266,0.107,0.307,0.228
		c0.063,0.202,0.069,0.449-0.031,0.634c-0.085,0.155-0.197-0.292-0.293-0.438c-0.13-0.191-0.891,0.219-1.232,0.443
		c-0.083,0.114-0.162,0.223-0.239,0.332c-0.047,0.4,0.381,0.867-0.505,0.822c-0.071-0.004,0.186-0.38,0.505-0.822
		c0.007-0.072,0.027-0.145,0.077-0.209c0.018-0.021,0.082-0.068,0.162-0.123c0.371-0.505,0.752-1.006,0.791-1.101
		c0.696-1.618-0.982-0.118-1.188-0.272c-0.3-0.226,0.578-0.489,0.771-0.807c0.212-0.34,0.605-2.08,0.007-2.112
		c-0.828-0.041-2.254,0.903-2.053,1.368c0.087,0.205,0.506,0.228,0.496,0.449c-0.018,0.348-1.353-0.33-1.186,0.57
		c0.043,0.206,0.182,0.322,0.358,0.406c0.219,0.018,0.467,0.109,0.697,0.221c0.22,0.066,0.43,0.148,0.572,0.31
		c0.034,0.04-0.236-0.144-0.572-0.31c-0.243-0.072-0.496-0.126-0.697-0.221c-0.271-0.025-0.487,0.065-0.508,0.432
		c-0.035,0.595,1.628,0.938,1.186,1.338c-0.159,0.145-0.416-0.092-0.626-0.14c-0.058-0.013-0.846-0.343-0.948,0.052
		c-0.061,0.246,0.621,0.756,0.385,0.66c-0.208-0.084-0.275-0.439-0.498-0.453c-0.175-0.01-0.175,0.344-0.341,0.404
		c-0.293,0.111-1.035,0.111-0.864,0.374c0.31,0.476,0.567,0.325,0.649,0.249c0.036-0.045,0.029-0.031,0,0
		c-0.039,0.049-0.125,0.162-0.268,0.414c-0.063,0.109,0.242,0.084,0.362,0.127c0.12,0.041,0.425,0.016,0.36,0.127l-0.839-0.049
		c-0.562,0.309-1.539,1.654-1.727,2.242C87.742,40.135,90.943,36.956,90.957,36.958"/>
	<path fill="#CCCCCC" d="M90.874,33.944c0.201,0.095,0.454,0.148,0.697,0.221C91.34,34.053,91.092,33.961,90.874,33.944"/>
	<path fill="#CCCCCC" d="M84.562,40.047c0.286-0.219,0.61-0.394,0.858-0.655c0.151-0.162,0.074,0.433,0.074,0.433
		c0.177,0.172,3.107-2.205,3.007-2.371c-0.573-0.945-2.155,1.007-2.282,1.031c-0.142,0.025,0.149-0.25,0.14-0.526
		c-0.01-0.265-0.771-0.327-0.829-0.267c-0.146,0.156,0.119,0.496-0.039,0.637l-0.365-0.877c-0.385-0.101-0.798,0.225-1.092,0.494
		c-0.538,0.497,0.416,0.941,0.029,1.141c-0.009,0.004-1.035-0.288-1.041-0.286c-0.134,0.058-0.147,0.272-0.134,0.419
		c0.008,0.099,0.232,0.135,0.193,0.228c-0.276,0.678-0.979,0.348-0.829,1.227C82.977,40.579,83.958,40.514,84.562,40.047"/>
	<path fill="#CCCCCC" d="M78.767,41.696c1.463,0.314,0.707-0.861,0.717-1.018c0.062-0.76,1.693-0.104,2.18-0.692
		c0.368-0.444-2.428-1.104-2.787-1.069c-0.381,0.041-0.875,0.201-0.999,0.564l0.725,0.271c-0.006,0.008-0.982,0.341-0.984,0.348
		c-0.11,0.233,0.655,0.229,0.599,0.479c-0.129,0.563-1.254,0.619-0.737,1.229C78.679,40.78,77.841,41.497,78.767,41.696"/>
	<path fill="#CCCCCC" d="M169.63,4.409c-0.269-0.83-1.87,0.258-1.965,0.206c-0.541-0.291,0.625-1.259-0.242-1.389
		c-0.122-0.017-1.457,0.753-1.805,0.786c-1.386,0.137-0.828-1.207-1.433-0.464c-0.166,0.203-0.633-0.141-0.782,0.073
		c-0.423,0.598,0.961,0.844,0.445,1.572c-0.006,0.008-1.303-1.011-1.863-0.836c-1.027,0.32,0.693,1.004,0.602,1.156
		c-0.111,0.183-1.358-0.732-1.301-0.085c0.107,1.191,1.897,0.487,2.358,0.797c0.11,0.074-0.183,0.492-0.14,0.609
		c0.279,0.022,0.506,0.078,0.453,0.07c-0.15-0.018-0.375,0.072-0.453-0.059c-0.004-0.002,0.002-0.009,0-0.012
		c-0.522-0.044-1.239,0.033-0.715,0.89c0.104,0.171-0.4,0.036-0.596,0.054c-0.975,0.09-0.93,0.978-0.767,1.493
		c0.116,0.372,1.294,0.216,1.046,0.517c0,0.002-1.225-0.298-1.225-0.298c-1.293,0.263,0.014,1.512,0.354,1.806
		c0.444,0.375-1.222-0.164-1.51-0.072c-0.296,0.094-1.659,2.227-1.98,1.598c-0.44-0.869,1.151-2.541,0.634-3.319
		c-0.117-0.176-0.402-0.153-0.61-0.153c-0.255-0.001-0.668,0.429-0.735,0.186c-0.092-0.326,1.016-0.683,1.18-0.832
		c0.596-0.553,0.312-2.941,0.145-3.052c-1.104-0.725-2.766,2.647-3.135,3.087c-0.354,0.418-0.332,0.84-0.688,1.475
		c-0.711,1.266-2.249,2.085-3.073,3.281c-0.66,0.949,0.883,0.174,0.557,0.781c-0.34,0.629-1.697,2.58-2.152,2.607
		c-0.132,0.01-0.374,0.157-0.402,0.026c-0.053-0.223,0.002-0.326-0.125-0.403c-0.123-0.072-0.39,1.664-0.795,0.255
		c-0.434-1.497,1.09-1.585,1.452-2.556c0.408-1.094-1.231,0.729-0.752-0.771c0.376-1.168,0.89,0.185,0.948-0.878
		c0.007-0.152,0.286-0.318,0.172-0.42c-0.175-0.158-1.178-0.071-1.411-0.113c-0.444-0.084,0.587-0.068,0.533-0.314
		c-0.122-0.525,4.469-4.478,4.412-4.696c-0.207-0.816-2.437,0.699-2.738,0.6c-0.253-0.083,0.651-1.271-0.698-1.567
		c-0.271-0.062,0.164,0.525,0.25,0.789c0.084,0.275-0.541,1.697-0.799,1.47c-0.164-0.149,0-1.616-0.6-1.579
		c-1.098,0.07-0.602-0.16-0.602-0.164c-0.17-1.355-0.763,1.134-1.359,0.488c-0.038-0.039-0.536-1.541-1.432-0.724
		c-0.754,0.689,0.879,0.992,0.861,1.16c-0.057,0.538-0.9-0.142-0.535,1.043c0.053,0.171-0.34-0.114-0.507-0.173
		c-0.62-0.211-1.103-1.234-1.709-0.312c-0.942,1.44,3.97,0.866,2.929,2.471c-0.484,0.746-2.037-1.491-2.72-0.456
		c-0.114,0.172-0.052,0.409-0.067,0.613c-0.004,0.066,0.049,0.148,0.012,0.202c-0.256,0.346-0.938,0.435-0.955,0.863
		c-0.021,0.448,0.943,0.2,1.23,0.547c0.105,0.13,0.485,0.382,0.32,0.391c-2.818,0.15-0.723-1.894-4.473,0.901
		c-0.264,0.198-0.857,0.516-0.76,0.986c0.064,0.304,1.037-0.117,0.916,0.165c-0.133,0.298-0.559,0.312-0.469,0.841
		c0.033,0.188-0.378,0.062-0.566,0.093c-1.815,0.296,0.283,1.104-0.373,1.589c-0.299,0.225-1.025-0.119-1.1,0.252
		c-0.115,0.566,2.102,0.613,2.155,0.732c0.053,0.119-1.172,1.12-1.272,1.085c0,0,0.508-0.846-0.033-0.823
		c-0.461,0.02-0.639,0.729-1.08,0.867c-0.004,0.002-0.313-1.025-1.137-3.247c0,0-0.355-0.032-0.539-0.05
		c-0.36-0.032-0.715-0.089-1.078-0.1c-0.198-0.004-0.408,0.07-0.605,0.021c-0.156-0.04-0.896-0.576-1.219-0.371
		c-0.764,0.489-0.281,1.065,0.188,1.225c0.273,0.091,1.06,0.378,0.771,0.387c-0.007,0-1.112-0.376-1.12-0.377
		c-1.727-0.132,0.145-0.255-0.352-1.629c-0.059-0.157-0.332,0.009-0.5,0.014c-0.168,0.005-0.39-0.108-0.506,0.015
		c-0.061,0.065-1.492,2.254-0.914-0.387c0.104-0.475-0.941,0.428-1.188,0.848c-0.075,0.134,1.04,1.205,0.43,1.219
		c-0.241,0.006-0.241-0.43-0.411-0.604c-0.281-0.284-1.185-1.235-1.443-1.402c-0.4-0.265-0.344,1.203-0.379,1.234
		c-0.193,0.177-0.252-0.551-0.512-0.606c-0.225-0.045-1.302,0.472-1.295,0.841c0.008,0.409,1.586,0.251,1.721,0.382
		c0.196,0.191-0.271,0.617-0.088,0.823c0.567,0.636,3.043,0.274,3.834-0.29c0.215-0.155-0.26,0.496-0.49,0.629
		c-0.119,0.069,0.464,0.322,0.615,0.396c0.241,0.114-0.367,0.464-0.332,0.729c0.181,1.472-0.802-1.487-0.951,0.538
		c-0.096,1.275,0.341,0.982,0.953,1.629c0.201,0.215,0.561,0.641,0.328,0.82c-0.525,0.41-0.819-0.482-1.354-1.207
		c-0.543-0.738-1.399-0.293-1.849-0.992c-0.366-0.566-0.41-1.48-1.645-1.207c-0.292,0.063-0.834,0.713-0.693,1.039
		c0.119,0.28,1.066,0.227,0.816,0.399c-1.688,1.183-1.909,1.476-1.909,1.476c-1.252-0.406,0.173-1.412,0.015-1.653
		c-0.679-1.003-1.312,1.435-1.34,1.462c-0.215,0.178-1.918,0.395-1.932,0.43c-0.136,0.275,0.41,0.517,0.413,0.825
		c0.002,0.308-0.526,0.548-0.405,0.831c0,0.002,1.028,0.615,1.028,0.615c0.345,0.297,1.38,1.087,0.931,1.006
		c-0.72-0.13-1.285-1.294-1.957-0.998c-0.634,0.282-0.648,2.071-1.218,2.505c-0.385,0.294-1.073,0.331-1.543,0.839l-0.515,0.836
		c-0.918,0,1.406-1.836,1.439-1.883c1.34-1.816,1.699-6.707,0.594-7.05c-0.478-0.148,0.099,1.444-0.403,1.445
		c-0.447,0.001-0.283-0.938-0.306-1.031c-0.027-0.109-0.836,2.378-1.22,2.067c-0.221-0.183,1.022-1.553-0.103-0.414
		c-2.397,2.433,0.229,1.79,0.512,2.556c0.168,0.456-0.959-0.397-1.432-0.278c-0.814,0.205-0.43,2.251-1.551,2.699
		c-0.32,0.129,0.572-0.488,0.621-0.831c0.106-0.727,1.012-3.678,0.118-4.15c-1.098-0.581-4.961,1.423-4.414,2.865
		c0.121,0.314,2.918-0.003,1.941,0.645c-0.185,0.122-0.293-0.376-0.509-0.42c-0.584-0.119-1.547,0.563-1.143,1.234
		c1.154,1.923,1.682-0.427,2.756,2.534c0.057,0.164,0.45,0.324,0.303,0.42c-0.607,0.406-1.237-0.549-1.539-0.64
		c-1.604-0.479,1.062,0.317,0.729-0.62c-0.291-0.799-1.008-0.236-1.545-0.434c-0.916-0.34-1.176-2.16-1.607-2.521
		c-0.186-0.153-2.107,0.075-2.365,0.376c-0.734,0.861,1.664,2.121,2.289,2.332c0.363,0.122,1.227,0.371,0.953,0.641
		c-0.084,0.086-1.639-0.856-2.056-0.449c-0.198,0.197,0.369,0.843,0.091,0.839c-0.25-0.005-0.625-1.304-0.804-1.269l-0.151,0.972
		c-0.012-0.007-1.281-3.934-2.289-2.273c-0.146,0.239,0.139,0.561,0.082,0.835c-0.068,0.343-1.523,1.607-1.176,1.854
		c0.194,0.139,0.525-0.122,0.719,0.019c0.235,0.166-0.377,0.588-0.225,0.832c0.102,0.156,0.471,0.039,0.512,0.222
		c0.031,0.151-0.311-0.008-0.465-0.013c-0.156-0.002-0.316-0.041-0.466-0.01c-0.481,0.095-1.944,0.346-2.292,0.566
		c-0.236,0.149-0.67,1.535-0.682,1.872c-0.016,0.464-1.465-1.187-0.646,0.613c0.158,0.345,0.729-0.226,1.104-0.282
		c0.193-0.03,1.397,0.301,1.392,0.566c-0.011,0.33,0.181-0.712-2.312,0.564c-0.575,0.295,2.638,0.791,1.951,1.115
		c-0.865,0.407-1.994-1.84-2.988-0.375c-0.465,0.693,1.49,0.972,1.916,1.189c0.178,0.092,0.552,0.3,0.406,0.437
		c-0.426,0.405-2.141-1.011-2.693-0.933c-1.303,0.184-0.547,1.036-0.561,1.04c-0.748,0.271-0.609-0.767-1.119-0.889
		c-0.813-0.192-2.926,0.585-2.478,1.598c0.063,0.144,0.319,0.339,0.193,0.433c-2.363,1.746,1.228,0.619,2.292,0.517
		c0.252-0.024,0.703,0.21,0.615,0.448c-0.076,0.211-0.604,0.188-0.539,0.404c0.148,0.516,2.965-1.279,3.301-1.164
		c0.607,0.211-0.512,0.975-0.45,1.051c0.269,0.35,2.146,0.155,2.501,0.924c0.07,0.152-3.075-0.895-3.146-0.521
		c-0.101,0.499,1.746,0.907,1.236,0.892c-0.688-0.021-1.902-1.4-2.314-0.289c-0.283,0.771,1.896,1.516,0.761,2.588l0.032-1.066
		c-0.479-1.059-1.475-1.73-2.491-1.264c-0.214,0.1-0.485,0.471-0.646,0.295c-0.159-0.175,0.402-0.396,0.34-0.627
		c-0.166-0.633-3.348-0.575-3.621-0.082c-0.165,0.294,2.8,2.182,2.974,3.047c0.072,0.343-0.672-0.234-0.936-0.465
		c-0.471-0.415-2.397-2.613-3.098-1.85c-0.118,0.133-0.394,0.242-0.336,0.411c0.188,0.55,0.415,0.218,0.384,0.873
		c0,0,0.351,0.017,0.527,0.025c0.512,0.024,1.193-0.118,1.375,0.062c0.206,0.201,0.373,0.373,0.196,0.33
		c-0.122-0.031-1.827,0.375-1.321,1.117c0.211,0.313,2.216-0.639,2.645,0.331c0.128,0.286-2.717-1.017-2.251,0.33
		c0.048,0.14,0.282,0.085,0.42,0.128c1.031,0.309-0.006-0.153,0.19,0.545c0.229,0.802,0.494,0.775-0.156,1.066
		c-0.286,0.131-0.024,0.645-0.024,0.645c0.153,0.206,0.543,0.877,0.397,0.664c-0.376-0.557-1.486-0.611-1.874-1.162
		c0-0.001-0.056-1.075-0.056-1.076c0-0.002-1.021-0.906-1.021-0.909c-0.016-0.226,0.581-2.034,0.232-2.558
		c-0.702-1.049-0.756,1.526-2.003,1.821c-0.057,0.073-0.13,0.032-0.005,0.002c0.002,0,0.005-0.002,0.005-0.002
		c0.058-0.068,0.096-0.245-0.076-0.645c-0.089-0.209-0.338-0.607-0.506-0.455c-0.108,0.098-0.531,0.478-0.67,0.604
		c-0.109,0.099-0.128-0.094-0.307-0.23c-0.156-0.119-1.424,1.133-1.455,1.203c-0.204,0.512,1.01,0.896,0.934,0.484
		c-0.321-1.694,1.702-0.076,2.36-0.301c0.191-0.066,0.273-0.506,0.448-0.406c0.186,0.105-0.17,0.477-0.033,0.643
		c0.125,0.149,0.769,0.117,0.628,0.246c-0.13,0.114-0.59,1.23-0.706,1.254c-0.317,0.063-1.174-1.605-2.145,0.1
		c-0.016,0.025-0.02,0.039-0.031,0.061c-0.071,0.193-0.159,0.284,0,0c0.12-0.337,0.184-0.961-1.236-0.35
		c-0.475,0.205-0.581,0.443-0.601,0.573c0.02,0.073,0.018,0.101,0.008,0.098c0.01,0.003,0.012-0.024-0.008-0.098
		c-0.01-0.044-0.029-0.103-0.062-0.181c-0.474-1.113-2.657,0.145-2.481,0.277c0.394,0.303-0.357-0.15-0.668,0.387
		c-0.043,0.07,0.045,0.156,0.091,0.223c0.854,1.178,0.797-0.535,1.576,0.531c0.133,0.184,0.697,0.039,0.629,0.256
		c-0.014,0.041-3.629,0.395-2.008,1.17c0.664,0.318,3.896-1.915,3.973-1.701c0.097,0.264,1.219,0.238,1.436,0.188
		c0.13-0.029,0.446-0.2,0.383-0.088c-0.442,0.775,0.3,0.048,0.637,1.111c0.047,0.147,0.291,0.416,0.136,0.44
		c-0.314,0.05-2.184-2.198-2.736-1.013c-0.21,0.452-0.42,0.162-0.546,0.184c-0.006,0.002-0.258,0.347-0.936,1.242
		c-0.285,0.375,0.939-0.161,1.408-0.135c0.277,0.016,0.224,0.584,0.232,0.662c0.009,0.145,0.173,0.442,0.027,0.436
		c-0.048-0.005-2.054-1.659-1.409,0.133c0.423,1.175,3.628-0.387,4.326-0.193c0.474,0.132-2.703,0.561-2.437,1.17
		c0,0.001,1,2.496,0.5,2.633c-0.128,0.036-0.486-3.003-1.894-2.93c-0.455,0.024-0.947,1.227-1.127,0.801
		c-0.087-0.202,0.036-0.785,0.054-0.865c0.037-0.157,0.105-0.487,0.039-0.647c-0.36-0.853-2.469-0.316-2.719,0.263
		c-0.394,0.92,1.725,0.79,1.994,0.994c0.288,0.224-0.766-0.014-1.094,0.148c-0.116,0.059-0.158,0.207-0.235,0.311
		c-0.498,0.65-0.252-1.066-1.384-0.416c-0.165,0.094-1.589,1.795-1.606,1.846c-0.339,0.873,1.913-0.1,1.927-0.086
		c0.776,0.793,0.43,0.337,0.524,0.252c0.136-0.119,0.36,0.022,0.542,0.034c0.218,0.015,0.442,0.109,0.65,0.041
		c0.43-0.14,0.993-0.962,1.229-0.576c0.62,1.01-0.434,0.435-0.597,0.835c-0.054,0.137,0.289,0.089,0.427,0.135
		c0.926,0.292,1.172-0.185,0.848,0.377c-0.05,0.09,0.105,0.224,0.206,0.23c0.878,0.051,2.484-0.559,2.799,0.59
		c0.054,0.201-1.766-0.936-2.27-0.342c-0.082,0.1,0.215-0.001,0.264,1.104c0.01,0.205,0.563,0.324,0.412,0.46
		c-0.79,0.705-0.678-1.338-0.688-1.347c-0.27-0.236-2.215-0.677-2.362-0.578c-0.767,0.519-0.36,0.475-0.175,1.079
		c0.045,0.143,0.014,0.437-0.137,0.428l-0.597-0.91c0.022-0.361,1.046-0.705,0.707-0.826c-0.711-0.253-1.101,0.154-1.711,1.195
		c-0.082,0.142-0.056-0.354-0.192-0.446c-0.796-0.556-1.422-0.108-1.609-0.329c-0.234-0.268-0.979,0.348-0.97,0.588
		c0.039,1.154,1.927,0.399,1.596,1.421c-0.105,0.326-1.323-1.46-2.039-0.58c-0.094,0.118,0.11,0.297,0.078,0.443
		c-0.031,0.159-0.118,0.322-0.248,0.42c-1.363,1.007-0.146-0.563-0.917-0.942c-0.585-0.285-0.807,0.596-0.918,0.588
		c-0.7-0.053-1.08,0.733-1.159,0.787c-0.029,0.02-1.779-0.227-1.651,0.088c0.463,1.148,1.835,1.212,2.814,1.975
		c0.608,0.476-3.033-0.809-3.175-0.25c-0.101,0.4,1.533,0.386,1.605,0.569c0.177,0.429,0.164,0.165,0.422,0.251
		s-0.564,0.006-0.784,0.158c-1.013,0.72-3.161-1.18-3.452,0.379c-0.176,0.938,1.299,0.334,1.373,0.773
		c0.021,0.135-1.496-0.186-1.375,0.547c0.092,0.559,0.874,0.459,1.599,0.23c-0.014-0.035-0.005-0.066,0.053-0.094
		c2.046-0.951,1.069-0.267-0.053,0.094c0.096,0.26,1.894,0.717,1.431,0.68c-0.888-0.071-1.219-0.671-2.185-0.398
		c-0.422,0.119-0.767,0.212-0.514,0.839c0.1,0.251,0.959,0.111,0.751,0.285c-0.85,0.714-1.004-1.188-1.779-1.255
		c-0.188-0.016-0.546-0.1-0.562,0.09c-0.033,0.378,1.158,1.266,0.854,1.701c-0.163,0.232-1.732,0.406-1.094,1.014
		c1.163,1.099,2.131-0.878,2.896,0.021c0.089,0.102,0.37,0.305,0.194,0.376c-0.165,0.067-1.281,0.642-1.279,0.642
		c1.223-0.342,3.499,0.422,4.121,0.105c0.409-0.207,1.183-1.02,1.599-0.542c0.165,0.188-0.434,0.243-0.65,0.366
		c-0.196,0.108-0.329,0.181-0.433,0.238c0.313-0.151,0.727-0.299-0.106,0.412c-0.593,0.506-2.325-0.373-2.528,0.098
		c0.006,0.033,0.002,0.063-0.021,0.092c-0.003,0.075,0.002,0.158,0.051,0.282c0.088,0.204,1.827,0.204,1.413,0.555
		c-0.366,0.312-1.021-0.348-1.443-0.114l-0.499,0.627c-0.565-1.006,0.33-1.118,0.479-1.35c0.022-0.028,0.026-0.059,0.021-0.092
		c-0.021-0.08-0.119-0.178-0.355-0.321c-0.211-0.126-5.286,1.227-5.644,1.438c-0.147,0.086-0.431,0.088-0.437,0.256
		c-0.047,1.163,2.026-0.039,2.354-0.011c0.134,0.011-0.789,1.19-0.785,1.266c0.008,0.087,1.973,1.353,1.506,1.492
		c-1.288,0.385-1.622-2.213-3.256-0.761c-1.265,1.121,0.638,1.291,0.17,1.798c-0.1,0.111-0.938-0.577-1.16,0.341
		c-0.054,0.227,0.962,1.428,1.057,1.436c0.15,0.015,0.523,0.244,0.374,0.258c-1.426,0.15-0.858-1.594-1.672-1.492
		c-0.413,0.05-1.68,1.387-1.314,1.887c0.089,0.123,0.394-0.096,0.448,0.043c0.062,0.154-0.27,0.256-0.268,0.422
		c0.045,1.326,0.858-0.365,1.058-0.348c0.331,0.031,0.103,0.01,0.335,0.031c0.239,0.022,0.21,0.455,0.167,0.687
		c-0.176,0.898-0.29,0.853,1.025,1.215c0.337,0.093-0.851-0.166-1.035,0.13c-0.128,0.203,1.068,1.208,0.217,1.365
		c-0.879,0.161-0.81-0.78-1.461-0.248c-0.127,0.102-0.476,0.181-0.373,0.302c0.109,0.13,0.487-0.349,0.475-0.181
		c-0.005,0.046-1.568,0.863-1.472,0.872c1.98,0.189,2.992,0.321,2.956,0.39c-0.055,0.102-1.563,0.008-1.72,0.008
		c-0.282,0.002,0.239-0.096,0.157,0.748c-0.006,0.066-1.742-0.008-0.742,0.605c0.623,0.383,3.014-1.475,2.986-1.299
		c-0.319,2.063-3.201,1.346-4.463,2.282c-0.12,0.091-0.067,0.295-0.099,0.442c-0.124,0.541-0.959-0.692-1.475-0.823
		c-0.843-0.215-0.961,0.991-1.163,1.236c-0.51,0.626-1.937-0.397-2.33,0.208c-0.153,0.233-1.293-0.097-1.725,0.945
		c-0.199,0.492-0.088,0.414-0.049,0.447c0.334,0.272,1.242-0.067,1.24,0.361c-0.006,0.52-1.689,0.358-1.36,0.76
		c0.101,0.121,0.313-0.043,0.473-0.063c1.622-0.215,4.42-3.875,6.449-1.938c0.201,0.19-0.498-0.287-0.775-0.303
		c-0.912-0.051-2.258,0.308-2.93,0.947c-0.106,0.101-0.008,0.262,0.15,0.242c0.785-0.109,0.489,0.152-0.026,0.223
		c-0.155,0.021,0.769,0.418,0.769,0.418c0.135,0.037-0.232,0.166-0.366,0.188c-0.193,0.032-1.422-0.149-1.517,0.07
		c-0.071,0.174,0.45,0.366,0.298,0.483c-0.168,0.135-2.15-0.436-1.521,1.199c0.64,1.661,0.995,0.231,1.243,0.359
		c0.147,0.076,0.024,0.41,0.184,0.473c0.321,0.127,1.1-0.234,1.038,0.107c-0.012,0.061-1.818,0.142-1.895,0.256
		c-0.092,0.142,0.293,0.346,0.184,0.475c-0.244,0.287-1.725,0.5-0.072,0.675c1.82,0.19-0.896,0.087-0.947,0.126
		c-0.144,0.111-1.097,1.875-1.467,1.661c-0.056-0.029,0.89-1.382,0.864-1.5c-0.157-0.826-1.097,0.223-1.133-0.352
		c-0.016-0.292-0.565-2.107-1.156-2.175c-0.69-0.077-0.094,0.827-0.176,1.57c-0.005,0.026-2.206-0.147-2.25,0.198
		c-0.011,0.107,1.615,0.754,1.258,1.283c-0.049,0.077-1.135-0.757-1.192-0.822c-0.144-0.148-0.986-0.445-1.129-0.359
		c-0.935,0.563,0.079,0.31-0.019,1.139c-0.037,0.316-0.688,1.112-0.973,1.251c-0.165,0.082-0.675-0.486-1.069,0.098
		c-0.2,0.295,1.073,0.688,0.732,0.775c-0.222,0.057-1.044-0.355-1.255-0.382c-0.082-0.009-0.145,0.126-0.143,0.211
		c0.033,0.696,0.191,0.401-0.314,0.647c-0.078,0.037-0.197,0.145-0.145,0.211c0.131,0.164,0.457,0.111,0.555,0.297
		c0.184,0.354-0.776-0.201-1.136-0.369c-0.274-0.127-0.075,0.602-0.113,0.9c-0.093,0.738-0.921,0.873-0.81,1.731
		c0.004,0.036,1.41-0.7,1.664-0.021c0.063,0.17-0.361,0.033-0.539,0.048c-0.414,0.036-2.241,0.266-2.234,0.292
		c0.036,0.172,0.49,0.121,0.439,0.287c-0.153,0.5-2.184,0.158-2.4,1.068c-0.137,0.584-0.109,0.148-0.058,1.373
		c0.009,0.248,0.4-0.328,0.646-0.377c0.875-0.177,1.176,0.024,1.963-0.439c1.239-0.729,0.143,0.158,1.319-0.065
		c0.202-0.036-0.328,0.248-0.494,0.371c-0.235,0.179-1.937,0.487-1.906,0.707c0.052,0.414,0.552,2.321,1.096,2.672
		c0.597,0.388,8.062-3.021,8.331-3.84c0.573-1.761-3.301-0.181-3.167-0.362c0.597-0.797,2.729-1.184,3.629-1.648
		c0.069-0.034,0.472-0.443,0.883-0.829c-0.071-0.245,0.13-0.298,0.362-0.333c0.349-0.301,0.621-0.487,0.562-0.238
		c-0.045,0.188-0.319,0.205-0.562,0.238c-0.116,0.104-0.236,0.214-0.362,0.333c0.018,0.069,0.058,0.153,0.126,0.257
		c0.131,0.199,2.056,0.363,1.705,0.641c-0.642,0.498-3.339,0.379-3.033,1.731c0.013,0.053,2.975-0.278,2.313,0.823
		c-0.491,0.828-4.219,1.453-5.406,2.268c-0.21,0.146-0.662,0.527-0.432,0.639c0.047,0.023,1.855-0.488,1.849-0.477
		c-0.066,0.1-0.122,0.178-0.176,0.254c0.049,0.068,0.086,0.197,0.098,0.428c0.01,0.144-1.758-0.057-1.049,0.801
		c0.211,0.25,0.803,0.031,0.92,0.336c0.129,0.336-0.547,0.627-0.906,0.588c-1.088-0.127-4.143-1.633-5.061-0.838
		c-0.375,0.324,0.053,0.871,0.524,1.365c0.126,0.041,0.257,0.068,0.374,0.131c0.123,0.063,0.11,0.185,0.066,0.315
		c0.402,0.407,0.633,0.692,0.06,0.623c-0.378-0.046-0.149-0.358-0.06-0.623c-0.137-0.138-0.289-0.288-0.44-0.446
		c-0.796-0.264-1.755-0.181-2.499,0.002c-0.189,0.047,0.275-0.271,0.413-0.408c0.263-0.262,0.728-0.637,0.735-1.062
		c0-0.062-1.365-2.919-1.423-2.945c-1.114-0.502-1.05,0.953-1.235,1.223c-0.162,0.23-0.384-0.645-0.649-0.547
		c-0.241,0.089-0.21,0.525-0.442,0.634c-0.108,0.051-0.313,0.065-0.353-0.048c-0.079-0.215,0.28-0.555,0.09-0.68
		c-0.256-0.168-1.763,1.063-1.715,1.152c0.657,1.289-0.029-0.258-0.036,1.152c-0.004,0.58,1.98,0.168,2.275,0.072
		c0.121-0.039-0.217,0.125-0.324,0.188c-0.527,0.303-0.975,0.111-1.541,0.256c0,0-1.156,0.539-1.156,0.537
		c-0.088-0.094,1.115-2.361-0.162-2.334c-0.232,0.006-0.61,1.08-1.068,0.777c-0.4-0.268-1.357-0.646-1.654-0.233
		c-0.307,0.429,0.852,0.812,0.699,1.024c-0.314,0.441-1.674-0.439-1.77,0.557c-0.115,1.211,0.855,0.861,1.515,1.26
		c0.429,0.26-1.147-0.115-1.491,0.252c-0.313,0.336,0.42,0.986,0.348,0.977c-0.629-0.09-1.55-0.92-2.277-1.024
		c-0.793-0.116-0.267-0.021-1.017,0.313c-0.06,0.025,0.042,0.123,0.063,0.185c0.229,0.656,0.057,1.069,0.803,1.338
		c0.172,0.062,0.359,0.052,0.538,0.078c0.179,0.026,0.562-0.103,0.536,0.077c0,0,0.193-0.188,0.285,0.273
		c0.137,0.707-0.71,0.142-0.775,0.586c-0.088,0.611,1.471,1.479,1.771,2.113c0.301,0.646-2.226-1.748-1.783-1.186
		c0.025,0.031,0.045,0.049,0.065,0.076c0.708,0.324,0.699,0.85,0,0c-0.09-0.041-0.19-0.08-0.306-0.111
		c-0.172-0.047-0.355,0.245-0.512,0.158c-0.451-0.254,0.22-1.252,0.202-1.366c-0.066-0.413-1.126-0.731-1.295-1.122
		c-0.253-0.568,0.584-0.417-0.222-0.961c-0.105-0.07-0.654,0.037-0.748,0.12c-0.338,0.299-1.128,0.647-0.884,1.026
		c0.136,0.213,0.415-0.4,0.663-0.363c0.549,0.084,0.679,0.878,1.02,1.314c0.667,0.857-0.41,1.291,0.565,1.945
		c0.486,0.327,1.741,1.17,1.958,1.684c0.121,0.283,0.104,1.112-0.132,0.914c-0.335-0.289-0.011-0.695-0.347-0.984
		c-0.485-0.414-1.658-1.062-2.077-1.701c-0.542-0.826-0.163-1.512-1.006-2.244c-0.297-0.258-0.775,0.436-1.142,0.292
		c-0.538-0.21-0.464-0.776-1.24-0.655c-0.934,0.146-1.117,0.922-1.701-0.035c-1.01-1.649-1.678-0.768-3.014-0.25
		c-0.271,0.105-0.872-0.201-0.868,0.09c0.011,1.082,1.474,1.277,2.161,1.752c-0.18-0.028-0.357-0.059-0.537-0.086
		c-0.18-0.028-0.354-0.1-0.537-0.088c-1.057,0.062-0.682,0.666-0.94,1.248c-0.233,0.523,3.29-0.319,4.349-0.354
		c0.326-0.011,1.188,0.056,0.939,0.265c-0.59,0.493-2.625-0.351-2.487,1.01c0.017,0.16,0.32,0.049,0.479,0.074
		c1.011,0.159,2.229-0.404,3.313-0.418c0.176-0.002,1.903,0.604,1.645,0.686c-0.707,0.215-2.231-0.533-3.85-0.094
		c-0.943,0.26-0.673,0.729-0.856,0.567c-0.228-0.2-0.539,0.539-0.403,0.828c0.026,0.022,0.049,0.043,0.072,0.063
		c0.32,0.154,2.49-0.115,2.351,0.356c-0.039,0.136-1.459-0.114-1.598-0.015c-0.198,0.146-0.106,0.685-0.347,0.646
		c-0.242-0.037,0.016-0.527-0.135-0.721c-0.039-0.051-0.143-0.152-0.271-0.27c-0.014-0.006-0.047-0.008-0.053-0.017
		c-0.01-0.015-0.013-0.03-0.02-0.047c-0.541-0.474-1.531-1.22-1.875-1.19c-0.303,0.026-0.403,1.369-0.461,1.328
		c-0.26-0.179-0.093-2.906-1.418-1.867c-0.139,0.106,0.191,0.322,0.164,0.494c-0.039,0.239-0.128,0.545-0.354,0.643
		c-1.433,0.607,0.742-1.045-0.891-1.317c-0.744-0.124-0.998,0.827-1.148,0.979c-0.197,0.201-0.117-0.627-0.362-0.764
		c-0.294-0.16-2.022-0.299-2.235,0.086c-0.553,0.989,2.35,1.185,2.889,1.896c-0.201-0.033-1.718-0.304-2.299-0.31
		c-0.164-0.004-0.382-0.131-0.493-0.008c-2.168,2.404,2.549,0.236,2.91,0.338c1.658,0.471,1.024,2.047,1.673,2.619
		c1.188,1.055,2.327,0.438,2.159,0.818c-0.364,0.824-1.577-0.369-2.03-0.092c-0.168,0.102-0.021,0.389-0.035,0.582
		c-0.01,0.193,0.031,0.397-0.033,0.58c-0.113,0.332-0.694,0.492-0.633,0.838c0.145,0.795,0.986-0.076,1.25-0.031
		c0.195,0.031,0.485,0.547,0.289,0.516c-0.309-0.051-1.451,0.119-1.696-0.275c-0.3-0.477,0.583-0.76,0.671-1.063
		c0.298-1.039-0.42-4.03-1.69-4.034c-1.089-0.002-1.315,0.95-1.376,0.823c-0.183-0.383-0.878-0.871-1.104-0.069
		c-0.234,0.828,1.803,3.465,0.465,3.838c-0.119,0.035,0.12-0.213,0.18-0.32c0.466-0.84-0.684-1.832-0.883-2.617
		c-0.081-0.33,0.056-0.83-0.243-0.982c-0.368-0.188-2.916,0.537-2.929,1.133c-0.011,0.369-0.532-0.694-0.363,0.644
		c0.159,1.276,2.881,2.063,2.788,2.604c-0.059,0.34-0.614-0.313-0.918-0.473c-0.365-0.188-0.979,0.193-1.226-0.135
		c-0.221-0.299-0.092-1.137-0.445-1.021c-0.131,0.045-0.696,1.709-1.132,1.449c-0.382-0.229,2.036-2.092,0.569-2.49
		c-1.291-0.352-1.051,0.879-1.267,1.156c-0.027,0.035-0.103,0.041-0.127,0.008c-0.324-0.465-0.896-2.033-1.906-1.524
		c-1.527,0.769,1.52,1.459,0.227,2.163c-0.19,0.105-2.012-3.106-2.076-2.977c-0.05,0.107-0.073,0.172-0.101,0.242
		c0.198,0.08-0.224,0.572,0,0c-0.067-0.027-0.2-0.01-0.465,0.123c-0.763,0.379,0.208,0.584,0.234,0.75
		c0.027,0.174-0.34,0.236-0.328,0.412l0.726,0.137c0.344,0.234,0.775,0.523,0.826,0.938c0.164,1.307-2.116,0.68-2.023,1.437
		c0.018,0.145,0.216,0.196,0.322,0.297c0.002,0,1.431-0.05,1.433-0.05c0.851-0.028,2.48,0.384,3.469,0.709
		c0.699,0.229,1.59,0.935,2.506,1.492c0.363,0.047,0.768,0.317,1.152,0.563c0.333,0.117,0.662,0.191,0.976,0.166
		c0.063-0.006,0.285-0.151,0.567-0.319c0.059-0.097,0.139-0.187,0.281-0.244c0.04-0.017,0.096-0.011,0.154,0
		c0.663-0.345,1.427-0.569,1.551,0.283c0.115,0.782-1.027-0.203-1.551-0.283c-0.154,0.08-0.303,0.164-0.436,0.244
		c-0.154,0.25-0.154,0.555-0.729,0.526c-0.233-0.01-0.516-0.18-0.814-0.373c-0.382-0.131-0.767-0.33-1.152-0.563
		c-0.139-0.017-0.273-0.011-0.395,0.062c-0.523,0.301,0.4,0.856-0.689,0.352c-0.235-0.109-0.291-0.662-0.528-0.566
		c-0.311,0.125-0.049,1.408-0.731,1.287c-0.174-0.031,0.255-0.252,0.323-0.414l0.204-1.146c-0.208-0.01-0.416-0.02-0.622-0.03
		c-0.208-0.01-0.416-0.021-0.623-0.03c-0.101-0.007-0.201-0.021-0.303-0.029c-0.11,0.143-0.358,0.225-0.726,0.158
		c-0.144-0.025,0.263-0.146,0.407-0.162c0.106-0.013,0.214-0.008,0.319,0.004c0.141-0.182,0.063-0.465-0.316-0.713
		c-0.496-0.318-2.48-1.39-2.84-0.281c-0.062,0.188,0.403,0.369,0.28,0.523c-0.113,0.143-1.207,0.045-1.588,0.414
		c-0.112,0.106-0.057,0.305-0.085,0.456c-0.043,0.229,0.056,0.546-0.129,0.688L8.444,118c-0.311-0.105-0.666,0.194-0.777,0.446
		c-0.887,1.988,1.872,0.892,2.719,1.337c0.399,0.213-0.872,0.254-1.322,0.309c-0.126,0.016,0.258-0.035,0.382-0.008
		c0.12,0.026,1.338,0.496,1.261,0.707c-0.349,0.934-2.13-0.533-1.684,0.875c0.306,0.963,2.167,0.836,3.246,0.848
		c0.007-0.002,0.021-0.012,0.027-0.012c0,0,0.008,0.008,0.013,0.012c0.374,0.004,0.652,0.025,0.723,0.121
		c0.106,0.141,0.311,0.408,0.164,0.504c-0.001,0-0.813-0.574-0.887-0.625c-0.011-0.002-0.027,0-0.04,0
		c-0.224,0.039-0.865,0.514-1.082,0.5c-1.031-0.066-3.364-1.783-4.341-0.57c-0.261,0.324,0.625,1.154,0.354,1.492
		c-0.115,0.145,0.365-0.068,0.536-0.135c0.553-0.219,0.263-0.15,0.863-0.197c0.894-0.068,1.772-0.164,2.599,0.281
		c0.752,0.406-2.116-0.484-2.189-0.084c-0.032,0.174-0.052,0.328-0.062,0.461c1.293,0.293-0.111,1.611,0,0
		c-0.286-0.064-0.695-0.082-1.297-0.004c-0.44,0.059-0.96,0.137-1.239,0.479c-0.19,0.236,0.268,0.347,0.283,0.529
		c0.005,0.084,1.522,0.19,1.641,0.782c0.124,0.617-1.396-0.659-1.4-0.022c-0.004,0.584,1.098,0.873,1.725,1.037
		c0.333,0.086,0.307,0.674,0.616,0.826c0.168,0.084,1.213-0.697,1.284-0.718c0.547-0.157,0.891,0.371,1.525,0.039
		c0.22-0.115,0.331-0.893,0.372-0.646c0.136,0.812-0.162,0.83,0.907,0.638c0.239-0.045,0.411-0.111,0.526-0.181
		c0.245-0.328,0.31-0.172,0,0c-0.046,0.063-0.097,0.144-0.156,0.244c-0.056,0.101,0.104,0.223,0.208,0.274
		c0.686,0.354,1.066-0.289,1.441-0.225c0.154,0.027-0.129,0.312-0.08,0.463c0.221,0.664,1.824,0.885,2.315,0.635
		c0.499-0.256-0.304-0.795-0.092-0.965c0.131-0.105,0.37,0.195,0.496,0.084l-0.09-0.963c0.174-0.115,0.428,0.189,0.618,0.104
		c0.417-0.19,0.348-0.985,0.784-1.133c0.134-0.045,0.251,0.215,0.236,0.355c-0.042,0.367-1.411,1.277-1.26,1.447
		c0.755,0.877,2.225,0.846,3.144,0.996c0.332,0.055-0.817,0.697-0.524,0.863c0.507,0.289,1.707-0.67,2.137-0.603
		c0.371,0.062,1.057,0.551,1.116,0.178c0.025-0.157-0.782-1.394-0.77-1.543c0.028-0.433,1.589-2.276,2.313-2.075
		c0.326,0.092-0.439,0.524-0.707,0.733c-0.48,0.383-1.732,2.174-0.676,2.674c0.836,0.396,1.353,0.078,1.932-0.17
		c0.154-0.063,0.479-0.09,0.497,0.076c0.074,0.692-1.798,0.325-2.092,0.385c-0.257,0.052-0.63,0.108-0.694,0.362
		c-0.077,0.306,0.801,0.671,0.51,0.794c-0.59,0.245-2.354-1.41-3.231-0.521c-0.198,0.205-0.271,0.399-0.272,0.596
		c0.064,0.143,0.103,0.289,0.111,0.432c0.37,0.762,1.468,1.494,0.508,2.354c-0.113,0.101,0.568-1.332-0.398-1.488l-1.322,0.259
		c-0.15-0.437,0.948-0.351,1.149-0.763c0.058-0.116,0.066-0.237,0.063-0.36c-0.008-0.144-0.047-0.289-0.111-0.433
		c-0.215-0.483-0.668-0.944-0.768-1.239c-0.088-0.261-0.531-0.149-0.787-0.25c-1.456-0.562-0.338-0.375-1.524,0.34
		c-0.35,0.209-0.863,0.03-1.195,0.271l-0.406,0.881c-0.186,0.076-0.125-0.424-0.026-0.598c0.572-1.013-0.733-0.007-0.765-0.015
		c-0.311-0.054,0.46-0.642,0.284-0.899c-0.276-0.402-2.792-0.963-3.183-0.797c-0.244,0.104-0.335,0.838-0.495,0.625
		c-0.143-0.189,0.13-0.515,0-0.714c-0.143-0.221-0.443,0.332-0.704,0.351c-0.209,0.012-0.461-0.25-0.619-0.111
		c-0.134,0.115,0.313,0.408,0.164,0.504c-0.023,0.014-0.934-0.564-1.239-0.225c-0.159,0.178-0.029,0.58-0.252,0.67
		c-0.021,0.006-2.534-2.164-3.26-1.086c-0.779,1.156-0.33,1.041-0.341,1.129c-0.106,0.789,1.003,1.854,1.107,1.639
		c0.114-0.238,0.277,0.529,0.536,0.578c1.115,0.205,1.302-1.564,2.245-0.303c0.05,0.068-0.166-0.045-0.25-0.047
		c-0.173-0.004-0.345,0.018-0.519,0.024c-0.286,0.015-1.54,0.668-1.729,0.992c-0.093,0.159,1.897,1.228,1.2,1.896
		c-0.134,0.129-0.473-0.009-0.542,0.139c-0.191,0.402-0.167-0.898-0.412-1.27c-0.268-0.412-2.021-1.574-2.401-1.646
		c-0.259-0.047,0.41,0.348,0.536,0.58c0.155,0.289,1.273,2.164,1.233,2.381c-0.075,0.406-1.013-1.082-1.039-0.672
		c-0.119,1.822,2.547,1.834,3.334,0.857c0.517-0.646,0.322-0.566,1.044-1.128c0.125-0.094,0.325-0.438,0.375-0.288
		c0.074,0.229-0.353,0.454-0.252,0.672c0.093,0.19,0.515-0.068,0.625,0.11c0.189,0.308-1.231,3.604-1.585,3.774
		c-1.196,0.586-1.555-1.604-2.259-1.848c-0.913-0.318-0.328,1.816-0.343,1.852l-0.754-0.141c-0.25,0.096-0.772,0.574-0.508,0.623
		c0.318,0.059,1.051,0.875,1.088,1.162c0.053,0.402-1.173,0.461-0.929,0.785c0.206,0.273,1.074-0.148,1.011,0.188
		c-0.044,0.242-0.347,0.301-0.128,0.695c0.644,1.17,2.475-2.898,3.369-2.738c0.475,0.084-0.722,0.238-1.133,1.23
		c-0.329,0.789-0.659,0.492-0.717,1.787c-0.038,0.887,1.252-0.283,1.182-0.027c-0.298,1.088-0.043,0.77,0.552,1.299
		c0.233,0.205-0.659-0.078-0.93,0.072c-0.357,0.197,0.194,0.996,0.594,1.066c1.498,0.266,0.464-1.764,0.924-2.232
		c0.402-0.412,3.497-0.893,2.975-2.107c-0.073-0.174-0.125-0.262,0.041-0.231c0.167,0.028,0.383,0.205,0.505,0.086
		c0.112-0.106,0.114-0.241,0.076-0.394c-0.058-0.106-0.106-0.233-0.144-0.377c-0.114-0.239-0.232-0.487-0.195-0.709
		c0.049-0.285,0.073,0.244,0.195,0.709c0.037,0.144,0.085,0.271,0.144,0.377c0.06,0.105,0.128,0.189,0.217,0.205
		c1.022,0.177,2.386-1.309,3.337-1.342c0.452-0.018-1.521,0.938-0.571,1.096c0.799,0.136,2.088-0.952,2.681-1.342
		c0.145-0.096,0.33-0.424,0.436-0.287c0.138,0.177-1.006,0.916-0.946,1.037c0.152,0.306,0.895-0.156,1.008,0.164
		c0.053,0.15-0.215,0.275-0.373,0.297c-0.767,0.105-1.216-0.166-2.049,0.258c-1.111,0.564-2.303,4.539-2.466,4.605
		c-0.365,0.145,0.044-0.791,0.154-1.171c0.154-0.519,1.824-3.649,0.799-3.688c-0.5-0.018-4.004,2.484-4.137,2.873
		c-0.73,2.148,2.192,0.326,1.486,1.215c-0.26,0.328-1.635,0.177-2.025,0.367c-0.833,0.41-0.438,1.049-0.795,1.539
		c-0.148,0.201-1.327-0.153-1.57-0.041c-0.225,0.107-0.666,0.732-1.1,1.004c-0.109,0.068,0.286-0.018,0.383,0.068
		c0.345,0.307,0.466,1.941,1.493,1.229c0.394-0.272-0.119-0.981,0.547-0.862c0.093,0.017-0.784,1.112-0.119,1.418
		c0.426,0.197,2.084-0.899,2.67-0.976c1.698-0.211,0.844,0.195-2.029,1.086c-0.001,0-0.936,0.078-0.938,0.076
		c-0.085-0.033-0.085-0.617-0.301-0.533c-0.546,0.214-1.462,0.353-1.486,0.938c-0.02,0.477,0.93,0.28,1.11,0.438
		c0.235,0.207-0.726-0.155-0.938,0.072c-0.161,0.176,0.023,0.519-0.124,0.701c-0.113,0.137-0.459-1.412-1.371-1.209
		c-0.371,0.082-0.704,2.568-1.578,2.117c-0.384-0.195,0.805-0.797,0.811-0.814c0.075-0.174,0.454-1.604,0.469-1.84
		c0.011-0.178,0.007-0.479-0.169-0.512c-1.099-0.201-0.348,2.066-0.854,1.77c-0.233-0.137,0.015-0.772-0.256-0.77
		c-1.693,0.029-2.004,2.865-1.417,4.076c0.148,0.307,0.303-1.088,0.559-0.861c0.001,0.002,0.662,0.287,0.729,0.375
		c0.144,0.188-0.086,0.467-0.127,0.699c-0.044,0.232-0.164,0.467-0.129,0.701c0.122,0.793,1.09,0.064,1.244-0.256
		c0.139-0.283,0.226-0.623,0.171-0.934c-0.021-0.115-0.332-0.302-0.215-0.279c2.299,0.416-1.667,2.789,1.076,1.4
		c0.006-0.005,1.069-0.048,1.074-0.05c0.408-0.258,0.006-1.157-0.307-1.26c-0.363-0.119-0.093,0.032,0.212-0.445
		c0.17-0.267-0.121-1.063,0.167-0.933c0.292,0.134,0.237,0.656,0.517,0.814c0.424,0.236,1.803,0.256,1.374,0.482
		c-0.133,0.072-0.486,0.307-0.658,0.391c0.197,0.143,0.847,0.58,1.621-0.582c0.46-0.695,0.251-0.365,0.665-1.047
		c0.105-0.17,0.172-0.65,0.31-0.508c0.109,0.109-0.437,0.982,0.174,1.031c0.45,0.035,1.732-0.223,1.352,0.021
		c-0.883,0.562-4.06,1.055-4.307,2.471c-0.099,0.562,0.303,0.055,0.386,0.067c0.204,0.035-1.271,0.681,0.313,1.261
		c0.559,0.205,1.326-0.593,1.843-0.646c0.348-0.035,1.034,0.178,1.034,0.178s-3.292,0.242-3.987,1.478
		c-0.156,0.277,1.155,0.264,0.867,0.395c-0.521,0.232-2.019,0.064-2.154,0.826c-0.127,0.723,0.784,0.711,1.045,0.91
		c0.395,0.299-0.574,0.459-0.157,1.66c0.059,0.174,0.229-0.281,0.344-0.422c0.18-0.222,0.536-0.715,0.815-0.822
		c0.757-0.293,2.374-0.234,3.184-0.098c0.481,0.082-0.973,0.067-1.454,0.153c-0.696,0.125-2.721,0.466-2.8,1.447
		c-0.026,0.319,1.096,0.817,1.181,0.933c0.225,0.282-0.711-0.203-1.002-0.416c-0.518-0.384-0.988-1.865-1.535-1.966
		c-0.596-0.104-0.068,0.578-0.385,0.656c-0.93,0.233-0.127-1.058-0.692,0.118c-0.073,0.146,0.485-1.68-0.716-1.739
		c-0.848-0.045,1.039,1.606-0.59,0.776c-0.176-0.088-0.141,0.392-0.106,0.586c0.284,1.601-2.185,1.791-0.261,5.158
		c0.521,0.908,2.145,1.373,2.287,1.621c0.122,0.209-0.053,0.492,0.007,0.727c0.052,0.201,0.208,0.361,0.313,0.541
		c0.63,1.091,3.078,2.716,4.261,2.914c0.703,0.119-0.465-1.854,0.992-1.043c0.068,0.037,0.026,0.191-0.041,0.236
		c-0.192,0.119-1.104,0.713-0.328,1.154c0.293,0.168,1.172-0.588,0.96-0.326c-0.834,1.039-2.828,0.699-1.982,2.336
		c0.805,1.553,0.672,0.318,1.847-0.418c0.14-0.088-0.031-1.115,0.022-0.965c0.386,1.059,0.313,0.777,1.345,0.947
		c0.079,0.014-0.477,0.279-0.692,0.363c0.187-0.031,0.357,0.373,0.576,0.346c0.253-0.033-0.629,0.598-0.383,0.664
		c0.406,0.107-0.034,0.383,0.285,0.773c0.188,0.231,0.41-0.439,0.647-0.621c0.151-0.117,1.334-0.027,1.504,0
		c0.321,0.051,1.217,0.897,1.751,1.004c0.92,0.184,1.256-0.771,1.616-0.717c0.316,0.047,1.815,0.588,2.3,0.11
		c0.241-0.237,0.685-0.929,0.745-1.34c0.025-0.156-0.086-0.494,0.072-0.472c1.141,0.17-1.052,2.271,0.684,1.793
		c0.695-0.19,0.557-0.524,1.143-1.281c0.896-1.159,1.66-0.131,2.098-0.418c0.13-0.088,0.394-1.391,0.867-1.323
		c0.494,0.069-0.355,0.664,0.828-0.121c0,0,0.4-0.907,0.4-0.909c0.545-0.568,1.609-0.693,2.082-1.396
		c0.143-0.209-0.417-0.778-0.166-0.743c2.087,0.289,1.115-0.125,1.828-1.072c0.161-0.217-0.777-0.56-0.381-0.651
		c0.955-0.226,3.185,0.385,3.215-1.01c0.02-0.89-1.555,0.618-1.445-0.191c0.025-0.182,0.151-0.385,0.326-0.438
		c1.455-0.432,1.603,0.005,1.636-0.264c0.024-0.181-0.308-0.358-0.198-0.505c0.189-0.256,0.568,0.377,0.887,0.355
		c0.307-0.021,0.809-0.064,0.848-0.371c0.125-0.967,0.214-0.479-0.279-1.953c-0.084-0.256-0.789-0.373-0.592-0.557
		c0.203-0.186,0.543-0.168,0.814-0.133c0.078,0.01-0.032,0.156-0.03,0.236c0.002,0.24-0.024,0.49,0.039,0.723
		c0.021,0.084,0.931,0.219,1.231,0.758c0.074,0.129,0.219,0.238,0.219,0.387c-0.002,0.242-0.371,0.5-0.223,0.691
		c0.607,0.783,2.175-1.059,2.536-1.119c0.319-0.055-0.308,1.797,0.597,0.551c0.281-0.385,0.156-0.518,0.378-0.641
		c0.747-0.412,0.518-1.223,0.854-1.842c0.055-0.104,0.332-0.076,0.969-0.361c0.662-0.299,0.454-2.908,0.238-3.078
		c-0.396-0.307-1.002-0.289-1.101-1.088c-0.042-0.365,0.948-0.195,1.065-0.826c0.014-0.07,0.012-0.141,0.012-0.213
		c-0.022-0.369-0.039-0.768-0.13-1.09c-0.349-0.238-1.261-0.686-1.046-0.984c0.512-0.713,0.824,0.555,0.845,0.58
		c0.093,0.107,0.153,0.246,0.201,0.404c0.065,0.045,0.118,0.088,0.13,0.113c0.084,0.18-0.005,0.396-0.006,0.594
		c-0.001,0.127,0.006,0.256,0.006,0.383c0.046,0.803,0.125,1.459,1.097,0.822c1.048-0.686-0.278-3.166-0.143-4.307
		c0.042-0.353,0.735,0.035,1.057-0.113c0.361-0.164,0.267-0.443,0.698-0.393c1.221,0.143,0.098,2.391-0.018,2.379
		c-0.082-0.01-0.117-1.89-0.451-1.722c-0.184,0.095-0.79,1.356-0.838,1.568c-0.102,0.471,0.859,3.211,0.725,3.899
		c-0.037,0.178-1.051,0.482-0.993,0.601c0.087,0.17,0.397,0.131,0.493,0.297c0.063,0.108-0.148,1.11,0.122,1.209
		c0.116,0.039,0.737-0.578,0.78,0.09c0.033,0.509-0.832,2.295,0.121,2.404c0.099,0.01,0.699-1.492,0.551-0.179
		c-0.023,0.207,0.218,0.687,0.338,0.519c0.139-0.194-0.09-0.543,0.08-0.707c0.217-0.211,0.797,1.058,0.811,1.045
		c0.563-0.541,0.826-0.849,0.953-1.022c-0.014-0.023-0.023-0.043-0.038-0.068c-0.062-0.092,0.29-0.287,0.038,0.068
		c0.657,1.094-0.93,1.029,0.879,1.227c0.531,0.059,1.256,1.48,0.732,1.432c0.089,1.303-0.121,2.973,1.59,1.687
		c2.881-2.173,0.537-7.826,1.271-9.652c0.235-0.584,1.678-0.655,1.957-1.228c0.307-0.631-0.556-1.92-0.429-2.186
		c0.238-0.49,4.143-0.375,5.466-2.785c0.099-0.18,0.038-0.406,0.057-0.611c0.069-0.737-0.007-1.737,0.23-2.438
		c0.286-0.851,1.019-1.283,1.108-2.263c0.237-2.547-2.299-5.06-2.093-7.511c0.107-1.295,2.604-0.436,3.247-0.87
		c0.397-0.269,1.942-3.582,1.88-4.056c-0.372-2.805-4.56-2.979-4.975-5.619c-0.351-2.203,2.006-5.008,2.067-7.264
		c0.047-1.654-1.611-3.215-1.613-4.805c0-0.66,0.605-1.361,0.688-2.018c0.086-0.648-0.323-1.471-0.155-2.101
		c0.14-0.53,1.043-0.966,1.12-1.507c0.147-1.098-1.541-2.506-1.333-3.592c0.196-1.03,1.977-1.746,2.193-2.774
		c0.099-0.474-0.425-0.935-0.343-1.411c0.072-0.386,3.823-4.531,4.263-4.863c0.804-0.604,2.031-0.813,2.977-1.104
		c2.941-0.9,6.474,3.195,7.671-0.982c1.4-4.875-1.603-3.469-2.858-5.438c-0.398-0.63,1.187-2.226,1.495-2.639
		c1.109-1.493,2.578-3.021,3.44-4.662c0.235-0.446,0.171-1.128,0.452-1.541c0.005-0.005,0.969-0.825,0.971-0.829
		c0.097-0.189,0.031-0.422,0.047-0.632c0.011-0.211,0.024-0.421,0.042-0.632c0.043-0.632,0.085-1.262,0.13-1.894
		c0.014-0.209-0.004-0.423,0.043-0.629c0.219-1.013,1.015-2.017,1.108-3.046c0.065-0.701-1.053-3.57-0.624-4.039
		c0.36-0.393,5.655,0.359,6.571-1.58c0.32-0.668-0.745-1.966-0.513-2.678c0.161-0.492,1.473-1.049,1.851-1.436
		c1.036-1.062,1.656-2.556,2.718-3.586c0.59-0.57,1.838-0.952,2.27-1.641c1.527-2.443-1.532-3.327-1.491-5.293
		c0.022-1.133,1.909-1.085,2.421-1.764c0.935-1.24,1.094-3.202,2.043-4.298c0.653-0.749,2.134-1.013,2.942-1.606
		c0.226-0.163,0.274-0.621,0.555-0.623c1.121-0.005,2.811,2.096,3.886,1.833c2.377-0.579,1.024-6.604,1.447-7.011
		c1.649-1.59,10.108,2.634,11.673,2.271c0.002,0,1.054-0.991,1.057-0.993c1.842-1.739-0.896-0.647-0.949-1.771
		c-0.028-0.653,2.302-1.997,2.508-2.968c0.166-0.776-1.182-3.229-0.971-3.368c0.399-0.259,1.916-0.009,2.408-0.013l0.169-0.058
		c-0.093-0.054-0.157-0.104-0.169-0.151c-0.242-0.944,2.998,0.395,3.012,0.391c0.145-0.047,0.102-0.282,0.15-0.423
		c0.258-0.726-0.312-0.705-0.383-1.464c-0.18-1.88,2.867-2.104,4.007-1.324c1.315,0.899,3.56,3.927,4.282,5.355
		c0.152,0.303,0.098,1.494,0.363,1.681c0.188,0.133,0.466,0.009,0.697,0.015c0.697,0.014,1.397,0.024,2.096,0.036
		c0.231,0.002,0.467,0.006,0.697,0.009c0.234,0.003,0.48-0.071,0.699,0.01c0.002,0.002,0.865,0.812,0.87,0.813
		c0.479,0.076,2.707-0.875,3.094-1.193c0.354-0.292,0.458-1.33,0.87-1.52c0.25-0.121,4.784,1.373,5.316,1.62
		c0.262,0.123,1.509,1.466,1.557,1.394c0.285-0.444,0.816-0.512,1.098-0.918c0.69-1.006,0.018-2.607,1.566-3.279
		c1.035-0.452,2.323-0.19,2.578-1.868c0.097-0.636-0.689-1.611-0.785-2.259c-0.134-0.917,0.912-5.98,1.188-6.354
		c0.578-0.789,1.61-1.248,2.191-2.037c0.236-0.321,0.199-0.846,0.525-1.077c1.289-0.919,2.846,0.428,3.992-0.131
		c1.885-0.917,2.887-2.488,5.24-2.356c1.521-1.27,0.17-2.102,0.43-3.75l0.623-1.155c-0.025-0.05-0.34-0.413-0.59-0.487
		c-0.574-0.168-2.207,1.404-1.97,0.402c0.204-0.865,2.001-1.394,2.379-2.281c0.056-0.125,0.007-0.271,0.009-0.408
		c0.002-0.035,0.033-0.097,0.002-0.103c-0.914-0.11-2.728,1.206-3.72,1.491c-0.229,0.065,0.411-0.242,0.617-0.365
		c0.267-0.159,2.175-1.261,2.099-1.53c-0.045-0.165-0.339-0.058-0.509-0.085c-0.78-0.13-1.151-0.082-1.317-0.006
		c-0.032,0.283-0.256,0.117,0,0c0.004-0.041,0.012-0.073,0.006-0.137c-0.014-0.146-0.465-0.021-0.414-0.16
		c0.07-0.193,2.16-0.215,2.57-0.256c0.131-0.015,0.383,0.09,0.393-0.041c0.052-0.829-0.171-0.477,0.408-0.855
		c0.142-0.09,0.473,0.113,0.494-0.051c0.026-0.188-0.5-0.184-0.438-0.361C168.696,5.404,169.888,5.202,169.63,4.409"/>
	<path fill="#CCCCCC" d="M176.13,21.811c0.459,1.441-5.654,4.805-1.075,6.019c1.882,0.501,1.124-3.221,1.442-3.751
		c0.7-1.167,3.141-1.638,4.141-2.601c0.165-0.161,0.262-0.383,0.391-0.574c0.174-0.251,0.657-1.081,0.086-1.372
		c-0.138-0.069-0.556-0.062-0.433-0.156c0.944-0.719,5.765,2.922,5.28-0.589c-0.098-0.723-0.504-1.247-0.873-1.867v-0.013
		c-0.641,0.017-2.135-0.148-2.444,0.13c-0.156,0.138,0.239,1.423,0.213,1.643c-0.028,0.247-0.649,0.544-0.685,0.298
		c-0.019-0.154,0.854-1.707,0.141-2.105c-0.893-0.496-0.732,0.871-0.684-0.536c0.014-0.46-1.014,0.745-0.775,1.142
		c0.756,1.281-0.09,0.891-0.402,0.884c-0.342-0.007-0.687,0.01-1.014,0.127c-0.363,0.132-1.075-0.028-1.417,0.173l-0.66,0.774
		c-0.423-0.336,1.142-1.675,1.118-2.079c-0.141-2.359-2.262,0.305-2.45,0.084c-0.442-0.529,1.882-1.189,1.198-1.752
		c-0.671-0.555-2.494,0.334-2.818,0.07c-0.135-0.107,0.271-0.273,0.254-0.442c-0.072-0.642-3.035-0.019-3.147-0.889
		c-0.03-0.206-0.138-0.503,0.028-0.624c0.187-0.129,0.44,0.091,0.66,0.137c0.219,0.043,0.438,0.088,0.657,0.132
		c1.101,0.224,2.323,0.121,3.464,0.223c3.607,0.317,4.163-0.19,6.049-2.411c0.336-0.396,3.185-0.719,3.211-1.053
		c0.017-0.242-0.557-1.858-0.978-1.926c-0.325-0.053-0.519,0.608-0.835,0.525c-1.056-0.271-1.213-1.479-2.3-1.338
		c-0.132,0.018-2.763,0.871-2.649,0.545c0.053-0.158,0.332-0.042,0.497-0.062c0.61-0.078,1.623-0.644,1.06-1.159
		c-0.108-0.102-0.272-0.144-0.42-0.15c-0.232-0.014-0.612,0.305-0.695,0.087c-0.021-0.058,1.102-0.669,0.126-0.808
		c-1.276-0.178-0.872,0.352-1.604,0.992c-0.258,0.225-1.08,0.644-0.969,0.324c0.1-0.278,1.135-1.906-0.095-1.622
		c-0.224,0.051-2.329,1.499-2.329,1.499c-0.225-0.18,0.061-0.589,0.203-0.84c0.09-0.154-0.018-0.059-0.219-0.178
		c0,0,0.521-0.67,0.521-0.671c-0.61-0.616-2.08-1.074-3.095-0.864c-0.887,0.182-1.518,1.201-1.872,2.032
		c-0.058,0.126-0.132,0.295-0.058,0.413c0.113,0.181,0.611,0.149,0.539,0.35c-0.024,0.066-1.436,0.68-1.139,1.55
		c0.062,0.19,1.768,0.705,0.823,1.14c-0.175,0.08-0.252-0.348-0.44-0.362c-1.947-0.151-0.882,3.205-0.899,3.996l-0.496,1.083
		c-0.114,0.132-0.498,0.291-0.652,0.318C170.302,19.579,174.929,18.059,176.13,21.811"/>
	<path fill="#CCCCCC" d="M152.596,6.247l-0.843-0.748c0.01-0.305,0.979,0.023,0.873-0.262c-0.131-0.348-2.815,0.09-1.138-0.729
		c1.026-0.5,1.835,0.125,1.983,0.066c0.427-0.182-1.309-0.536-1.057-0.932c0.123-0.196,0.453-0.098,0.681-0.148
		c1.896-0.415-0.116-0.165,0.725,0.45c0.005,0.002,1.354-0.302,1.357-0.301c0.139,0.041-0.866,1.104-0.386,1.438
		c0.021,0.016,2.434-0.978,1.572-0.119C155.778,5.557,153.458,5.86,152.596,6.247"/>
	<path fill="#CCCCCC" d="M131.51,12.478c0.835-1.818,0.579-1.177-0.744-1.81c-0.234-0.11,0.504-0.113,0.758-0.088
		c0.181,0.019,0.388,0.154,0.535,0.054c0.114-0.076-0.144-0.376-0.013-0.405c0.015-0.004,1.1,0.58,1.113,0.575
		c0.277-0.077-0.33-0.513-0.322-0.801c0.039-1.181,0.549,0.293,0.701,0.183c0.176-0.127,0.012-0.49,0.181-0.614
		c0.643-0.464,0.589,1.706,1.727,0.956c0.438-0.287-1.413-1.572-0.058-1.619c0.335-0.012,0.706,1.191,1.04,1.179
		c1.752-0.064,0.438-1.423,0.532-1.64c0.447-1.004,1.035,0.507,1.307,0.353c0.689-0.387-0.337-1.509,0.861-0.845
		c0.146,0.081,0.379,0.238,0.312,0.391c-0.234,0.531-3.253,3.672-4.044,3.605c-0.335-0.025-0.492-0.643-0.821-0.581
		c-0.002,0-0.469,0.828-0.473,0.828c-0.189,0.007-0.223-0.378-0.415-0.394c-0.386-0.032-0.595,0.579-0.978,0.641
		c-0.709,0.11,0.194-1.082-0.418-0.6C131.867,12.181,132.16,12.894,131.51,12.478"/>
	<path fill="#CCCCCC" d="M141.187,11.717c-1.846-2.825,0.303-2.971,0.363-2.861c0.1,0.181-0.2,0.456-0.067,0.613
		c0.468,0.549,1.72-0.334,1.94,0.918C143.571,11.241,141.187,11.717,141.187,11.717"/>
	<path fill="#CCCCCC" d="M137.714,14.928c-1.237-0.568,0.388-2.105-0.269-1.625l-0.366,0.832c-0.486,0.021-1.281-0.883-0.957-1.395
		c0.453-0.709,1.463-0.525,1.869-0.885c0.111-0.1,0.008,0.801,0.322,0.598c1.341-0.854-0.818-0.439,0.76-1.05
		c0.129-0.05,0.268,0.057,0.403,0.084c0.136,0.028-0.537-0.889-0.537-0.891c0.011-0.246,1.254,0.255,1.313,0.35
		c0.072,0.114-0.021,0.271-0.031,0.407c-0.012,0.136-0.081,0.282-0.031,0.409c0.604,1.531-0.568,1.756-1.893,2.733
		C138.102,14.641,137.714,14.928,137.714,14.928"/>
	<path fill="#CCCCCC" d="M136.716,15.17c-0.935-0.086-3.303,0.154-3.752-0.896c-0.098-0.23,0.416-0.295,0.66-0.36
		c0.861-0.234,2.475,0.01,3.174,0.847C137.188,15.219,136.937,15.165,136.716,15.17"/>
	<path fill="#CCCCCC" d="M118.421,18.29c-0.896-0.229-2.371-2.965-1.405-2.875c0.364,0.033,0.354,0.639,0.532,0.958
		c0.662,1.184,0.133,0.046,0.676-0.136c0.07-0.025,1.306,1.266,1.209,1.506L118.421,18.29"/>
	<path fill="#CCCCCC" d="M113.43,21.352c-0.644-0.668-2.774-0.947-2.214-1.684c0.275-0.361,3.082-1.733,3.16-1.743
		c0.172-0.022,0.429-0.214,0.504-0.065c0.022,0.033-0.299,1.369,0.498,1.239c0.195-0.031,0.516-1.438,1.021-0.816
		c0.127,0.159-0.164,0.487-0.005,0.616c0.485,0.4,0.446-0.739,0.808,0.005C117.625,19.77,114.039,21.228,113.43,21.352"/>
	<path fill="#CCCCCC" d="M107.859,24.574c-0.709-0.412-1.896-1.437-0.179-1.146c0.505,0.084,1.75,0.393,1.534-0.072
		c-0.273-0.587-0.948,0.656-0.963-0.435c-0.008-0.618,2.379-0.032,1.828-0.309c-0.263-0.132-1.916-0.36-1.135-1.128
		c0.219-0.213,0.539,0.288,0.809,0.43c0.218,0.117,0.238-1.157,1.029-0.601c0.408,0.288-0.068,1.675,0.383,1.456
		c0.93-0.453-0.359-2.488-0.063-2.485c0.3,0.006,1.604,0.446,1.821,0.646c1.137,1.052-0.734,1.409-1.252,2.054
		c-0.602,0.75,1.148,0.71-0.224,1.242C110.462,24.61,108.917,24.475,107.859,24.574"/>
</g>
<g id="Laag_3">
</g>
</svg>
