<?xml version="1.0" encoding="utf-8"?>
<!-- Generator: Adobe Illustrator 16.0.0, SVG Export Plug-In . SVG Version: 6.00 Build 0)  -->
<!DOCTYPE svg PUBLIC "-//W3C//DTD SVG 1.1//EN" "http://www.w3.org/Graphics/SVG/1.1/DTD/svg11.dtd">
<svg version="1.1" id="Laag_1" xmlns="http://www.w3.org/2000/svg" xmlns:xlink="http://www.w3.org/1999/xlink" x="0px" y="0px"
	 width="117.5px" height="96.667px" viewBox="0 0 117.5 96.667" enable-background="new 0 0 117.5 96.667" xml:space="preserve">
<g id="Laag_2">
</g>
<g id="Laag_1_1_">
	<path fill="#CCCCCC" d="M20.496,61.83c1.472,0.424,0.504,1.457,1.272,2.289c1.436,1.549,3.701,1.117,4.604,1.979
		c0.003,0,0.405,1.25,0.407,1.252c0.08,0.048,1.062-0.482,1.268-0.184c0,0,0.097,1.234,0.097,1.236
		c0.793,0.59,2.147-1.271,3.176-0.589c2.753,1.831-1.71,2.335-1.416,3.38c0.101,0.355,1.414,1.133,1.717,1.371
		c1.28,1.021,0.902,2.701,2.515,3.328c0.153,0.064,0.315,0.258,0.468,0.186c0.006-0.002,0.84-1.193,0.845-1.195
		c0.351-0.26,1.896-0.289,2.086-0.659c0.125-0.242-1.887-2.925-1.308-3.005c0.192-0.024,4.323,1.83,4.361,1.884
		c0.094,0.131-0.137,0.377-0.018,0.489c0.214,0.205,2.71,0.451,2.998,0.339c0.252-0.099,0.09-0.824,0.342-0.729
		c0.304,0.119,0.759,1.453,0.584,1.74c-0.177,0.289-1.489,0.139-1.602,0.447c-0.207,0.586,1.197,0.791,1.4,1.023
		c0.293,0.332,0.192,0.881,0.444,1.244c0.922,1.321,2.071-0.761,2.404-0.679c0.215,0.054,2.643,1.76,3.237,2.041
		c0.21,0.101,1.403,0.188,1.491,0.272c0.631,0.605,0.174,2.306,0.747,2.969c0.37,0.435,1.396,0.326,1.752,0.767
		c0.376,0.466-0.138,1.813,0.289,2.224c0.315,0.303,0.971-0.043,1.28,0.262c0.213,0.209-0.254,1.312-0.016,1.479
		c1.847,1.293,3.5-3.496,4.852-2.906c0.545,0.236,0.438,1.896,0.949,2.222c0.381,0.239,1.998,0.653,2.09,0.745
		c0.512,0.513-0.593,2.953-0.006,2.955c0.529,0.002,0.762-0.489,1.291-0.489c0.229,0,1.17,0.771,1.295,0.737
		c0.252-0.062,1.938-3.291,3.539-3.459c0.459-0.047,0.832,0.49,1.295,0.486c0.459-0.002,0.828-0.57,1.282-0.504
		c0.75,0.111,1.358,1.641,2.113,1.705c1.735,0.137,1.202-1.986,2.067-1.998c0.002,0,0.65,0.482,0.652,0.482
		c0.008,0,0.787-0.748,0.795-0.75c0.627-0.172,1.604,0.465,2.262,0.453c0.332-0.008,0.631-0.312,0.963-0.264
		c0.76,0.1,3.037,1.106,3.58,1.643c0.332,0.326,0.188,1.141,0.521,1.467c1.059,1.02,6.32,2.527,7.85,2.473
		c1.633-0.057-0.994-1.305-1.363-1.924c-0.133-0.229,0.619-1.42,0.589-1.746c-0.431-4.84-2.423-1.834,0.901-7.039
		c0.894-1.396,6.41-8.969,7.387-9.553c1.552-0.93,3.744,0.146,3.978-2.652c0.118-1.416-1.688-2.16-1.899-3.35
		c-0.197-1.114,1.533-0.521,1.686-0.826c0.018-0.038-2.042-2.27-2.753-3.43c-0.539-0.879-1.994-2.271-2.254-3.213
		c-0.056-0.213,0.05-0.438,0.073-0.659l0.148-1.315c-0.18-0.855-1.111-1.553-1.345-2.398c-0.38-1.356,0.487-1.98,0.794-2.979
		c0.236-0.787,0.064-4.04-0.518-4.641c-0.359-0.366-2.322-1.466-2.82-1.593l-0.749,0.272c-0.588-0.322-0.416-1.103-0.188-1.503
		c0.91-1.601,1.588-2.947,3.146-4.013c0.812-0.555,2.879-1.118,3.232-2.11c1.129-3.181-3.932-13.904-4.709-17.873
		c-0.651-0.568,0.229-1.725-0.265-2.671c-1.215-2.359-2.343-1.155-3.753-2.285c-0.604-0.484-0.617-1.824-1.812-1.638
		c-0.33,0.05-0.474,0.474-0.738,0.678c0.011,0.025,0.02,0.051,0.035,0.078c-0.016-0.026-0.024-0.053-0.035-0.078
		c-0.038,0.028-0.069,0.064-0.11,0.082c-4.876,2.02-21.747,0.339-27.389-1.212c-0.921,0.78-1.884,1.358-2.581,1.457
		c-2.628,0.377-4.687,0.649-6.777-1.159l0.022-1.459c-0.114-0.822-0.608-0.901-0.845-1.233c-0.097-0.132,0.053-0.322,0.082-0.484
		c0.024-0.162,0.137-0.332,0.081-0.485c-0.186-0.497-1.431-1.158-0.411-1.223c0.388-0.025,1.99,0.985,2.294,1.257
		c0.297,0.261,0.543,1.358,0.661,0.983c0.246-0.784-3.189-2.812-3.81-2.987C49.169,6.466,44.143,7.596,42,8.267
		c-1.164,0.365-2.019,1.404-3.111,1.833c-0.981,0.385-3.651,0.063-4.13,1.291c-0.48,1.227-1.906,2.591-2.633,3.29
		c-0.105,0.101-0.957,0.079-0.874-0.043c0.118-0.176-1.718,0.077-2.51,0.36c-2.974,1.058-6.216,1.66-9.252,2.382
		c-1.07,0.255-2.073,1.293-3.046,1.504c-0.551,0.117-1.061-0.096-1.534-0.468l-0.067,0.111c-0.194,0.139-0.251,0.572-0.222,1.173
		c0.513,0.3,1.13,0.715,1.369,0.375c0.212-0.302,0.355-1.228,0.583-0.937c0.328,0.419,1.254,1.507,1.472,1.199
		c0.079-0.117,0.178-0.476,0.243-0.35c0.512,0.994-1.113,1.346-1.03,2.129c0.075,0.766,0.789,0.405,0.59,1.141
		c-0.033,0.119,0.016,0.406-0.101,0.36c-0.127-0.053-1.741-1.847-2.229-2.108c-0.063-0.038-0.359,0.162-0.621,0.323
		c0.443,2.495,1.249,5.62,1.183,6.565c-0.034,0.506-0.805,2.736-1.117,3.107c-0.719,0.858-2.742,1.347-2.176,3.03
		c0.519,1.546,4.113,2.333,4.245,4.222c0.05,0.744-0.971,1.634-1.075,2.382c-0.159,1.18,1.246,1.625,1.507,2.556
		c0.165,0.576-0.406,1.356-0.281,1.945c0.002,0.008,0.576,0.52,0.578,0.529c0.316,1.306-1.891,2.534-1.772,3.568
		c0.095,0.803,1.116,1.488,1.236,2.293c0.062,0.414-0.6,1.327-0.423,1.693c0.256,0.516,1.438,0.635,1.789,1.102
		c0.402,0.523,0.875,2.582,0.883,3.25c0.01,0.521-1.431,4.195-2.182,5.766C20.744,64.029,17.346,60.917,20.496,61.83"/>
	<path fill="#CCCCCC" d="M17.236,63.841c3.556,0.229,0.09-2.93,3.26-2.012c1.472,0.424,0.504,1.457,1.272,2.289
		c1.436,1.549,3.701,1.117,4.604,1.979c0.003,0,0.405,1.25,0.407,1.252c0.08,0.048,1.062-0.482,1.268-0.184
		c0,0,0.097,1.234,0.097,1.236c0.793,0.59,2.147-1.271,3.176-0.589c2.753,1.831-1.71,2.335-1.416,3.38
		c0.101,0.355,1.414,1.133,1.717,1.371c1.28,1.021,0.902,2.701,2.515,3.328c0.153,0.064,0.315,0.258,0.468,0.186
		c0.006-0.002,0.84-1.193,0.845-1.195c0.351-0.26,1.896-0.289,2.086-0.659c0.125-0.242-1.887-2.925-1.308-3.005
		c0.192-0.024,4.323,1.83,4.361,1.884c0.094,0.131-0.137,0.377-0.018,0.489c0.214,0.205,2.71,0.451,2.998,0.339
		c0.252-0.099,0.09-0.824,0.342-0.729c0.304,0.119,0.759,1.453,0.584,1.74c-0.177,0.289-1.489,0.139-1.602,0.447
		c-0.207,0.586,1.197,0.791,1.4,1.023c0.293,0.332,0.192,0.881,0.444,1.244c0.922,1.321,2.071-0.761,2.404-0.679
		c0.215,0.054,2.643,1.76,3.237,2.041c0.21,0.101,1.403,0.188,1.491,0.272c0.631,0.605,0.174,2.306,0.747,2.969
		c0.37,0.435,1.396,0.326,1.752,0.767c0.376,0.466-0.138,1.813,0.289,2.224c0.315,0.303,0.971-0.043,1.28,0.262
		c0.213,0.209-0.254,1.312-0.016,1.479c1.847,1.293,3.5-3.496,4.852-2.906c0.545,0.236,0.438,1.896,0.949,2.222
		c0.381,0.239,1.998,0.653,2.09,0.745c0.512,0.513-0.593,2.953-0.006,2.955c0.529,0.002,0.762-0.489,1.291-0.489
		c0.229,0,1.17,0.771,1.295,0.737c0.252-0.062,1.938-3.291,3.539-3.459c0.459-0.047,0.832,0.49,1.295,0.486
		c0.459-0.002,0.828-0.57,1.282-0.504c0.75,0.111,1.358,1.641,2.113,1.705c1.735,0.137,1.202-1.986,2.067-1.998
		c0.002,0,0.65,0.482,0.652,0.482c0.008,0,0.787-0.748,0.795-0.75c0.627-0.172,1.604,0.465,2.262,0.453
		c0.332-0.008,0.631-0.312,0.963-0.264c0.76,0.1,3.037,1.106,3.58,1.643c0.332,0.326,0.188,1.141,0.521,1.467
		c1.059,1.02,6.32,2.527,7.85,2.473c1.633-0.057-0.994-1.305-1.363-1.924c-0.133-0.229,0.619-1.42,0.589-1.746
		c-0.431-4.84-2.423-1.834,0.901-7.039c0.894-1.396,6.41-8.969,7.387-9.553c1.552-0.93,3.744,0.146,3.978-2.652
		c0.118-1.416-1.688-2.16-1.899-3.35c-0.197-1.114,1.533-0.521,1.686-0.826c0.018-0.038-2.042-2.27-2.753-3.43
		c-0.539-0.879-1.994-2.271-2.254-3.213c-0.056-0.213,0.05-0.438,0.073-0.659l0.148-1.315c-0.18-0.855-1.111-1.553-1.345-2.398
		c-0.38-1.356,0.487-1.98,0.794-2.979c0.236-0.787,0.064-4.04-0.518-4.641c-0.359-0.366-2.322-1.466-2.82-1.593l-0.749,0.272
		c-0.588-0.322-0.416-1.103-0.188-1.503c0.91-1.601,1.588-2.947,3.146-4.013c0.812-0.555,2.879-1.118,3.232-2.11
		c1.129-3.181-3.932-13.904-4.709-17.873"/>
</g>
<g id="Laag_3">
</g>
</svg>
