<?xml version="1.0" encoding="utf-8"?>
<!-- Generator: Adobe Illustrator 16.0.0, SVG Export Plug-In . SVG Version: 6.00 Build 0)  -->
<!DOCTYPE svg PUBLIC "-//W3C//DTD SVG 1.1//EN" "http://www.w3.org/Graphics/SVG/1.1/DTD/svg11.dtd">
<svg version="1.1" id="Laag_1" xmlns="http://www.w3.org/2000/svg" xmlns:xlink="http://www.w3.org/1999/xlink" x="0px" y="0px"
	 width="66.5px" height="89.5px" viewBox="0 0 66.5 89.5" enable-background="new 0 0 66.5 89.5" xml:space="preserve">
<g id="Laag_2">
</g>
<g id="Laag_1_1_">
	<path fill="#CCCCCC" d="M28.523,73.305c0.94-0.723,2.041-0.688,2.753-1.885c0.127-0.209,0.042-0.555,0.246-0.691
		c1.201-0.803,3.666,1.086,4.21-1.553c0.037-0.186-0.076-0.41-0.234-0.512c-0.002-0.004-1.337-0.123-1.339-0.125
		c-0.479-0.453-0.54-2.803-0.668-3.486c-0.124-0.645-0.71-0.828-0.433-1.453c0.047-0.102,2.094-3.246,2.137-3.272
		c0.597-0.408,2.873-0.357,3.207-0.953c0.102-0.185-0.245-0.388-0.202-0.592c0.151-0.73,1.675-1.066,1.721-1.998
		c0.056-1.084-1.342-0.755-1.757-1.397c-0.132-0.207,0.324-0.463,0.244-0.693c-0.115-0.344-0.614-0.445-0.743-0.786
		c-0.604-1.573,0.601-3.827,0.585-3.957c-0.082-0.677-1.779-3.404-1.454-3.908c0.104-0.16,0.36,0.128,0.54,0.192
		c0.749,0.266,4.932,2.027,5.402,1.904c0.838-0.22,2.966-3.213,3.054-4.142c0.093-0.967-0.938-1.656-0.964-2.416
		c-0.062-2.017,3.361-0.901,3.634-2.384c0.074-0.408-0.688-0.836-0.31-1.408c0.008-0.016,0.766-0.498,0.773-0.514
		c0.59-0.924,1.576-3.914,1.694-4.883c0.08-0.671-0.556-1.445-0.456-2.114c0.184-1.236,0.729-0.238,1.341-0.446
		c1.042-0.347,1.705-1.782,2.728-2.183c0.67-0.266,1.68,0.142,2.433-0.208c0.71-0.331,3.362-1.963,3.647-2.662
		c0.875-2.146-2.904-2.41-2.865-3.06c0.031-0.516,1.27-2.071,1.054-2.503c-0.11-0.218-0.577-0.025-0.698-0.237
		c-0.141-0.255,0.51-0.536,0.368-0.786c-0.463-0.83-1.019-0.273-1.61-0.688c-0.324-0.226-0.258-0.869-0.629-0.997
		c-0.121-0.042-0.138,0.212-0.209,0.318c-0.371,0.571-0.859,0.02-1.382-0.223c-0.379-0.174-2.082-1.469-2.481-1.258l-0.152,0.988
		c-0.236,0.189-2.741,0.378-3.018,0.238c-0.351-0.174-0.265-0.833-0.619-1.004c-0.004-0.002-1.377,0.031-1.381,0.029
		c-0.227-0.153,0.707-0.317,0.598-0.569c-0.174-0.403-0.713-0.533-1.13-0.669c-0.403-0.13-1.787,0.069-2.071-0.221
		c-0.115-0.118,0.26-0.329,0.167-0.466c-0.59-0.877-2.131,0.96-3.017,0.212c-2.307-1.941,2.58-2.367,1.699-3.577
		c-1.207-1.658-5.17-1.457-7.231-0.569l-0.651,0.347c-0.395,0.353-1.88,1.502-2.027,2.069c-0.384,1.49,1.227,0.986,1.902,1.238
		c0.141,0.055-0.285,0.083-0.432,0.104c-0.901,0.12-1.156-0.305-1.298,0.651c-0.375,2.529-1.401,4.861-0.675,7.285
		c0.313,1.051-2.128,3.208-2.061,4.149c0.004,0.065,0.706,0.221,0.516,0.532c-0.123,0.201-1.449,0.378-0.781,1.021
		c0.276,0.266,1.515,0.076,1.142,0.163c-0.534,0.121-2.481,0.745-2.799,1.056c-1.021,0.997-1.58,2.714-2.526,3.837
		c-0.289,0.342-1.213,1.124-1.313,1.554c-0.236,1.023,1.441,0.474,1.073,1.455c-0.115,0.307-0.477-0.595-0.801-0.563
		c-0.221,0.022-0.284,0.345-0.425,0.517c-1.719,2.083-3.459,4.666-5.465,6.457c-0.29,0.257-1.464,0.619-1.597,0.968
		c-0.075,0.194,0.258,0.402,0.184,0.598c-0.074,0.191-0.272-0.329-0.45-0.435c-0.344-0.209-0.759,0.301-1.159,0.345
		c-0.165,0.018-0.328-0.038-0.492-0.058c-0.164-0.019-0.404-0.195-0.492-0.055c-0.043,0.068,0.424,1.467,0.015,2.106
		c-0.422,0.664-1.279,1.056-1.69,1.722c-0.93,1.511-1.506,3.511-2.658,4.763c-0.129,0.142,1,2.412,1.11,2.682
		c0.196,0.467,0.857,1.501,0.839,2.005c-0.022,0.656-1.527,0.44,0.039,0.629c0.222,0.022,0.444,0.052,0.666,0.074
		c0.762,0.09,2.06-0.361,2.648-0.222c0.346,0.082,0.611,1.113,1.104,0.938c0.166-0.058,0.357-0.215,0.354-0.392
		c-0.002-0.131-0.409-0.016-0.364-0.135c0.11-0.293,0.593-0.256,0.804-0.487c0.094-0.104,0.075,0.276,0.054,0.415
		c-0.069,0.408-0.386,0.878-0.291,1.33c0.138,0.656,1.361,0.961,1.288,1.005c-1.236,0.745-2.592-2.017-3.484-2.353
		c-0.191-0.072,0.187,0.359,0.28,0.541c0.188,0.361,0.497,0.684,0.563,1.086c0.49,2.992-2.672,4.42-3.06,5.918l0.563,0.736
		c0.274,0.842-0.633,1.793-0.762,2.594c-0.114,0.697,0.885,0.078,0.922,0.342c0.009,0.082-1.591,0.687-1.795,1.422
		c-0.6,2.166-1.815,3.998-3.252,5.836c-0.333,0.431-1.323,0.759-1.533,1.255c-0.052,0.118,0.129,0.221,0.192,0.332
		c0.415,0.719,4.283-0.363,5.451,0.473c0.561,0.402,7.158,4.707,7.174,4.709c1.18,0.231,3.064-1.172,4.277-1.321
		c0.19-0.021,0.733,0.041,1.407,0.151C26.493,78.383,26.048,75.211,28.523,73.305"/>
</g>
<g id="Laag_3">
</g>
</svg>
