<?xml version="1.0" encoding="utf-8"?>
<!-- Generator: Adobe Illustrator 16.0.0, SVG Export Plug-In . SVG Version: 6.00 Build 0)  -->
<!DOCTYPE svg PUBLIC "-//W3C//DTD SVG 1.1//EN" "http://www.w3.org/Graphics/SVG/1.1/DTD/svg11.dtd">
<svg version="1.1" id="Laag_1" xmlns="http://www.w3.org/2000/svg" xmlns:xlink="http://www.w3.org/1999/xlink" x="0px" y="0px"
	 width="103.167px" height="72.5px" viewBox="0 0 103.167 72.5" enable-background="new 0 0 103.167 72.5" xml:space="preserve">
<g id="Laag_2">
</g>
<g id="Laag_1_1_">
	<path fill="#CCCCCC" d="M95.356,39.665c-1.124,0.288-1.985,1.677-3.077,2.091c-0.613,0.234-1.697-0.104-2.244,0.25
		c-1.074,0.697,1.185,1.211-0.211,1.266c-1.314,0.051-3.587-0.094-4.648-0.994c-0.807-0.688,0.142-1.284-1.213-1.611l-0.642-1.175
		c0,0-1.108-0.634-1.108-0.636c-0.039-0.422,0.844-0.431,0.959-0.838c0.172-0.609-1.326-4.567-1.43-5.563
		c-0.298-2.961,1.273-5.845,0.821-8.77c-0.933-6.038-6.838-7.597-7.987-10.619l0.049-1.246c-0.248-0.343-0.918-0.073-1.209-0.382
		c-0.43-0.449-1.295-1.684-1.723-2.319c-1.516-2.249-1.71-5.153-3.794-7.092c-1.532-1.426-5.218-1.438-6.778,0.07
		c-0.666,0.644-0.312,2.402-1.25,3.064c-1.123,0.791-7.43,0.596-9.145,2.133c-0.816,0.733-1.409,3.239-3.159,2.672
		c-0.432-0.141-2.511-3.182-3.843-3.232c-0.969-0.039-1.968,0.926-2.938,0.9c-0.843-0.022-1.762-0.896-2.531-0.86
		c-0.48,0.024-0.65,0.529-1.131,0.553c-1.002,0.047-2.169-1.309-3.197-1.089c-0.002,0.002-0.64,0.522-0.64,0.522
		c-0.938-0.05-2.325-2.025-3.219-1.842c-0.912,0.184-0.351,1.761-1.246,2.021c-0.473,0.137-1.032-1.053-0.996-0.085
		c0,0.029,0.129,0.827-0.31,0.626c-1.021,0.823-1.395,2.469-2.721,2.811c-0.002,0-1.223-0.127-1.225-0.127
		c-0.201-0.021-0.432-0.166-0.608-0.061c-1.104,0.626-3.365,2.421-4.052,4.06c-0.071,0.171-0.02,0.369-0.031,0.555
		c-0.015,0.371-0.035,0.74-0.054,1.113c-0.01,0.187,0.072,0.398-0.029,0.557c0,0-0.827,0.264-0.829,0.266
		c-0.734,0.854-1.263,2.562-1.876,3.583c-0.234,0.387-0.771,0.715-0.705,1.164c0.035,0.232,0.46,0.256,0.516,0.482l-0.541,0.998
		c-0.671,1.24-1.122,3.211-2.062,4.239c-0.255,0.277-0.775,0.214-1.011,0.512c-0.617,0.785-0.431,1.764-0.297,2.473
		c0.132,0.691-0.718,0.644-1.008,1.002c-0.443,0.557-0.598,1.956-1.503,2.244c-0.613,0.195-1.592-0.843-2.229-0.713
		c-0.843,0.168-0.532,0.928-0.668,1.239c-0.273,0.607-3.178,0.607-3.786,0.686c-0.364,0.047-1.075,0.58-1.339,0.58
		c1.489,2.434,2.062,1.721,3.445,3.191c0.467,0.494,0.638,2.166,1.228,2.462l0.856-0.505c0.082,0,0.011,0.165,0.002,0.248
		c-0.018,0.188-0.054,0.373-0.08,0.557c-0.061,0.408-0.069,3.357-0.052,3.395c1.177,2.862,5.429,2.622,7.352,4.343
		c1.344,1.205-1.265,1.92-0.997,2.736c0.128,0.394,1.48,0.627,1.759,0.955c0.884,1.017-1.637,0.826-1.902,1.021
		c-1.266,0.926,2.434,1.585,2.484,1.685l0.201,1.229c0.765,0.705,2.967-0.137,3.875,0.407c0.498,0.302,0.852,2.592,1.814,2.178
		c1.279-0.556,1.385-4.479,3.455-3.187c0.926,0.576,1.985,1.086,2.842,1.76c1.084,0.853-2.524,0.152-2.954,1.33
		c-0.444,1.229,0.846,2.396,2.377,3.389c1.526,0.986,3.294,1.802,3.834,2.327c0.681,0.653-3.241,2.26-1.824,3.522
		c1.898,1.696,4.685-0.576,6.681-0.076c2.585,0.646,6.607,2.199,9.273,1.588c0.628-0.145,1.104-0.93,1.729-1.084
		c0.219-0.055,0.449,0.037,0.673,0.057c0.227,0.016,0.449,0.035,0.674,0.053c0.896,0.071,1.795,0.145,2.693,0.213
		c2.552,0.194,5.061,1.789,7.475,0.688c2.875-1.312,3.4-3.507,5.524-5.104c1.905-1.429,5.972-2.632,8.294-3.149
		c0.738-0.165,3.221-0.646,3.885-0.343c0.293,0.133,0.448,1.515,1.396,1.605c0.71,0.069,1.951-0.98,2.604-0.74
		c0.444,0.166,0.411,0.928,0.826,1.16c0.721,0.405,1.494-0.64,2.073-0.699c0.485-0.045,1.134,1.902,1.739,2.183
		c2.013,0.938,3.473,0.864,5.649,0.774c-0.04-0.328-0.058-0.656-0.028-0.982c0.248-2.717,0.545-3.706-0.129-6.192
		c-0.358-1.319,2.158-4.922,2.121-4.95c-0.479-0.402-0.853,1.848-1.266,1.379c-0.457-0.504,0.139-1.711,0.158-1.754
		c0.125-0.223-0.375-0.496-0.256-0.717c0.088-0.154,1.895-0.21,1.923-0.215c0.981-0.107-0.103-1.66-0.661-1.166
		c-0.004,0.004,0.036,1.745-1.111,1.115c-1.39-0.766,1.51-1.526,1.555-1.912c0.024-0.191-2.707-3.979,0.483-3.532
		c1.548,0.218,0.022,0.917,0.396,1.943l0.258,0.715c0.248,0.043,0.904-1.89,0.898,0.147c-0.004,0.146-0.022,0.274-0.052,0.396
		c0.085-0.06,0.167-0.126,0.254-0.169c0.929-0.471,4.306-0.311,4.582-1.534c0.124-0.562,0.323-4.741,0.304-4.76
		c-0.295-0.246-1.179-0.324-0.953-0.631c0.104-0.142,0.346-0.044,0.519-0.064C99.106,40.369,97.558,39.098,95.356,39.665"/>
</g>
<g id="Laag_3">
</g>
</svg>
