<?xml version="1.0" encoding="utf-8"?>
<!-- Generator: Adobe Illustrator 16.0.0, SVG Export Plug-In . SVG Version: 6.00 Build 0)  -->
<!DOCTYPE svg PUBLIC "-//W3C//DTD SVG 1.1//EN" "http://www.w3.org/Graphics/SVG/1.1/DTD/svg11.dtd">
<svg version="1.1" id="Laag_1" xmlns="http://www.w3.org/2000/svg" xmlns:xlink="http://www.w3.org/1999/xlink" x="0px" y="0px"
	 width="54.667px" height="71.417px" viewBox="0 0 54.667 71.417" enable-background="new 0 0 54.667 71.417" xml:space="preserve">
<g id="Laag_2">
</g>
<g id="Laag_1_1_">
	<path fill="#CCCCCC" d="M45.194,59.509c-0.128-0.654-1.106-0.812-1.313-1.192c-0.109-0.202,0.037-0.461,0.054-0.69
		c0.051-0.692,0.103-1.385,0.153-2.08c0.021-0.285,0.048-1.084,0.213-1.354c0.888-1.396,1.76-0.15,2.699-0.662
		c0.471-0.259,2.979-4.441,2.72-4.789c-0.044-0.059-2.457-2.49-2.615-2.619c-0.626-0.533-1.808-0.562-2.368-1.156
		c-1.055-1.118-2.574-6.514-1.67-7.85c0.38-0.566,1.717-0.484,2.098-1.054c0.392-0.584,0.088-1.684,0.627-2.491l-0.039-0.238
		c-1.53-0.991-2.82-2.158-2.377-3.388c0.431-1.178,4.039-0.479,2.955-1.331c-0.856-0.674-1.916-1.184-2.843-1.759
		c-2.069-1.293-2.176,2.631-3.454,3.186c-0.964,0.414-1.316-1.876-1.814-2.178c-0.908-0.543-3.11,0.298-3.875-0.407l-0.201-1.229
		c-0.051-0.099-3.75-0.758-2.484-1.684c0.266-0.194,2.786-0.005,1.902-1.021c-0.277-0.327-1.631-0.562-1.76-0.955
		c-0.268-0.816,2.342-1.531,0.998-2.736c-1.924-1.721-6.175-1.48-7.353-4.343c-0.018-0.036-0.009-2.985,0.052-3.394
		c0.026-0.184,0.063-0.369,0.08-0.557c0.009-0.083,0.08-0.248-0.002-0.248l-0.856,0.505c-0.59-0.296-0.761-1.968-1.228-2.462
		c-1.384-1.471-1.956-0.758-3.445-3.191c-0.508,0.002-1.03-0.672-1.54-0.736c-1.006-0.126-2.275,0.742-3.25,0.492
		c-0.947-0.24-1.147-1.078-2.394-0.504c-1.21,0.556-2.078,1.853-3.274,2.446C8.77,8.241,8.221,7.367,7.876,7.572
		C7.024,8.084,6.152,9.46,4.929,9.509c0.134-0.004,0.266-0.026,0.39-0.061c0.638,1.219,1.035,2.115,1.292,3.048
		c0.111,0.396-0.751,1.058-0.709,1.471c0.105,1.035,2.314,0.225,2.062,1.26c-0.143,0.569-0.928-0.029-1.042-0.01
		c-0.42,0.069,0.437,0.823,0.333,1.236c-0.087,0.354-1.023,0.016-0.527,0.736c0.791,1.16,3.204,1.806,4.494,2.019
		c-0.018,2.358-2.087-0.506-2.614,0.226l0.171,0.742c-0.411,1.311-0.242-0.237-1.051,0.481c-0.548,0.486,0.901,2.244,0.665,2.725
		c-0.424,0.872-2.23-0.223-1.236,1.219c0,0,0,0,0.002,0c1.112-0.252,2.221-0.729,3.327-0.461c-0.106,0.858-0.029,2.178-0.374,2.961
		c-0.868,1.953-2.25,2.367-2.337,4.668c-0.069,1.852,1.672,1.098,2.457,1.753c0.347,0.285,0.274,0.862,0.521,1.238
		c0.629,0.959,1.623,1.111,2.295,1.742c0.554,0.52-0.246,1.316-0.719,1.479c-0.465,0.156-2.859-0.579-2.813-0.229
		c0.021,0.149,4.264,5.516,1.942,5.899c-1.8,0.295,0.273-1.737-2.394,0.964c-0.007,0.725,5.112,5.281,6.258,5.713
		c0.456,0.176,1.017,0.012,1.439,0.25c0.49,0.279,0.798,1.037,1.337,1.383c0.693,0.443,3.005,1.414,3.072,2.392
		c0.113,1.69-3.454,1.134-4.047,2.146c-0.232,0.393,1.457,0.353,0.908,2.221c1.694,0.314,1.089,2.892,2.014,3.693
		c0.434,0.379,2.391,0.34,3.119,1.467c1.142,1.765,0.783,3.315,0.355,4.891l0.229,0.033c2.479,2.178,1.656-2.504,2.365-2.977
		c0.675-0.451,3.402-1.365,4.203-1.283c0.357,0.033,1.167,1.533,1.666,0.957c0.135-0.156-0.007-0.41-0.01-0.615
		c-0.004-0.204-0.1-0.43-0.01-0.616c0.904-1.989,2.732-0.646,4.195-0.819c1.729-0.201,5.965-2.857,7.104-1.412
		C43.429,61.065,45.496,61.035,45.194,59.509"/>
</g>
<g id="Laag_3">
</g>
</svg>
