<?xml version="1.0" encoding="utf-8"?>
<!-- Generator: Adobe Illustrator 16.0.0, SVG Export Plug-In . SVG Version: 6.00 Build 0)  -->
<!DOCTYPE svg PUBLIC "-//W3C//DTD SVG 1.1//EN" "http://www.w3.org/Graphics/SVG/1.1/DTD/svg11.dtd">
<svg version="1.1" id="Laag_1" xmlns="http://www.w3.org/2000/svg" xmlns:xlink="http://www.w3.org/1999/xlink" x="0px" y="0px"
	 width="107px" height="201px" viewBox="32.208 0 107 201" enable-background="new 32.208 0 107 201" xml:space="preserve">
<g id="Laag_2">
</g>
<g id="Laag_1_1_">
	<path fill="#CCCCCC" d="M107.714,7.669c-0.211,0.14,1.138,2.592,0.972,3.368c-0.207,0.971-2.537,2.314-2.508,2.968
		c0.053,1.123,2.79,0.031,0.948,1.771c-0.002,0.001-1.055,0.993-1.057,0.993c-1.564,0.363-10.022-3.861-11.673-2.271
		c-0.423,0.406,0.93,6.432-1.447,7.011c-1.075,0.263-2.764-1.838-3.886-1.833c-0.279,0.001-0.329,0.46-0.554,0.623
		c-0.81,0.594-2.29,0.857-2.943,1.606c-0.949,1.096-1.108,3.057-2.043,4.298c-0.512,0.679-2.398,0.63-2.421,1.764
		c-0.041,1.966,3.019,2.849,1.491,5.292c-0.432,0.689-1.68,1.071-2.27,1.641c-1.062,1.03-1.682,2.524-2.718,3.586
		c-0.378,0.386-1.689,0.943-1.851,1.436c-0.232,0.711,0.833,2.009,0.513,2.677c-0.916,1.939-6.211,1.188-6.571,1.581
		c-0.429,0.468,0.689,3.337,0.624,4.039c-0.094,1.029-0.89,2.034-1.108,3.046c-0.047,0.206-0.029,0.42-0.043,0.629
		c-0.045,0.632-0.087,1.262-0.13,1.894c-0.018,0.211-0.031,0.421-0.042,0.632c-0.016,0.21,0.05,0.442-0.047,0.632
		c-0.002,0.004-0.966,0.824-0.971,0.829c-0.281,0.414-0.217,1.095-0.452,1.541c-0.862,1.642-2.331,3.169-3.44,4.662
		c-0.309,0.414-1.894,2.009-1.495,2.639c1.256,1.969,4.259,0.563,2.858,5.438c-1.197,4.178-4.729,0.083-7.671,0.982
		c-0.945,0.29-2.173,0.498-2.977,1.104c-0.439,0.332-4.19,4.477-4.263,4.862c-0.082,0.477,0.441,0.938,0.343,1.412
		c-0.217,1.028-1.997,1.744-2.193,2.774c-0.208,1.085,1.48,2.495,1.333,3.592c-0.077,0.541-0.98,0.977-1.12,1.507
		c-0.168,0.629,0.241,1.451,0.155,2.1c-0.082,0.658-0.688,1.358-0.688,2.019c0.002,1.59,1.66,3.149,1.613,4.804
		c-0.062,2.256-2.418,5.061-2.067,7.264c0.415,2.642,4.603,2.815,4.975,5.619c0.063,0.473-1.482,3.786-1.88,4.055
		c-0.643,0.437-3.14-0.425-3.247,0.871c-0.206,2.45,2.33,4.963,2.093,7.51c-0.09,0.979-0.822,1.412-1.108,2.263
		c-0.237,0.699-0.161,1.701-0.23,2.438c-0.019,0.205,0.042,0.433-0.057,0.611c-1.323,2.409-5.228,2.295-5.466,2.784
		c-0.127,0.267,0.735,1.556,0.429,2.186c-0.279,0.571-1.722,0.645-1.957,1.229c-0.733,1.826,1.61,7.479-1.271,9.65
		c-1.711,1.288-1.501-0.382-1.59-1.686c-0.002,0-0.002,0.002-0.005,0.002c-0.307-0.032-0.515-2.525-2.037-0.381
		c-0.788,1.107-0.086-0.189,0.184,0.736l-0.71,0.4c0.002,0.002,0.736,0.559,0.736,0.561c0.328,1.115-0.597,2.221-0.444,2.826
		c0.159,0.633,0.642,1.486,0.56,2.219c-0.097,0.912-0.933,1.918-0.908,2.781c0.006,0.161-0.146,0.463,0.014,0.48
		c0.549,0.061,1.02-0.846,1.533-0.873c0.305-0.018,0.494,0.566,0.357,0.84c-0.087,0.173-0.444,0.021-0.559,0.18
		c-0.096,0.135,0.031,0.963,0.031,0.963c0.541,0.201,0.99-0.455,1.169-0.836c0.294-0.617,0.126-1.357,0.333-1.884
		c0.128-0.321-0.016,0.851,0.298,0.99c0.181,0.08,0.363-0.2,0.56-0.183c0.207,0.022-0.34,0.258-0.45,0.435
		c-0.319,0.516-1.388,1.276-1.157,2.04c0.067,0.226,0.471-0.079,0.69-0.167c1.296-0.526,0.876-1.11,2.524-0.94
		c0.139,0.014-0.237,0.135-0.355,0.203c-0.123,0.07-0.126,2.186-0.358,2.848c-0.225,0.642-1.767,3.849-1.761,3.908
		c0.028,0.34,1.084,0.748,1.14,0.84c0.057,0.094-1.271,0.631-1.066,1.094c0.063,0.146,0.272-0.213,0.429-0.195
		c1.453,0.148,0.161,1.316,0.777,1.768c0.125,0.092,0.352-0.336,0.43-0.199c0.348,0.613-0.508,3.256-0.25,3.836
		c0.32,0.721,1.102-2.45,1.48-1.061c0.129,0.481-0.857,1.001-0.549,1.395c0.381,0.49,0.607-0.362,0.795,0.32
		c0.141,0.521-0.228,0.729-0.527,1.154c-0.025,0.03,0.563,0.501,0.748,0.798c0.016,0.023,0.865,3.897,0.867,3.95l1.056,0.583
		c0.827,0.75,0.985,2.085,1.251,3.021c0.354,1.256,2.213,0.209,2.024,2.358c-0.244,2.722-2.099-0.327-2.792,1.444
		c-0.061,0.148,1.802,1.849,1.43,2.798c-0.354,0.91-2.807-1.677-2.679-0.729c0.151,1.094,1.556,5.254,2.204,6.025
		c0.567,0.671,0.594-0.167,0.922,0.811c0.053,0.152-0.009,0.326-0.044,0.482c-0.035,0.163-0.23,0.309-0.184,0.471
		c0.159,0.541,0.85,0.647,1.168,1.315c0.335,0.703-1.388,0.899-1.4,1.337c-0.021,0.518,0.573,1.503,0.396,1.98
		c-0.003,0.004-2.066,0.109-1.343,0.609c0.37,0.258,0.875-0.166,1.016-0.152c0.903,0.08,2.124,1.574,3.619,1.283
		c1.064-0.209,1.555-0.75,2.378-1.024c0.563-0.188,1.43,0.062,2.009-0.087c0.901-0.231,1.577,1.459,2.654,0.927
		c2.535-1.254,0.642-3.193,0.35-4.832c-0.307-1.699,1.599-3.483,2.723-4.415c0.786-0.653,1.306,0.896,2.072,0.624
		c1.12-0.396-0.952-1.674-0.189-2.164c1.03-0.658,0.563,0.25,1.162,0.289c0.165,0.01,0.018-0.397,0.17-0.474
		c0.402-0.197,1.269,0.545,1.666,0.348c0.151-0.075,0.006-0.482,0.174-0.475c0.301,0.021,0.791,0.645,1.368,0.567
		c0.246-0.03,0.343-0.464,0.591-0.45c0.241,0.016-0.189,0.533-0.043,0.726c0.177,0.225,2.308-1.085,2.58-0.822
		c0.121,0.116-0.307,0.383-0.167,0.476c0.183,0.119,1.529,0.073,1.951,0.346c0.47,0.304-0.935,0.408,0.232,0.979
		c0,0,0.459-0.812,0.518-0.913c0.343-0.606,1.019-0.707,1.287-1.414c0.567-1.481,0.845-2.861,1.594-4.029
		c0.301-0.467-0.156-1.256,0.496-1.666c2.24-1.402,0.01-0.045,0.764-1.412c0.181-0.332,0.996,0.166,1.114-0.19
		c0.36-1.063-0.353-0.259-0.401-0.261c-0.678-0.029,0.171-1.004,0.189-1.197c0.078-0.744-0.21-2.293,0.117-2.644
		c0.353-0.372,0.996,0.215,1.104,0.049c0.252-0.397-0.793-1.218-0.894-1.726c-0.232-1.181,1.579-4.031,2.104-4.238
		c1.641-0.641-2.717-1.526-1.411-2.219c0.188-0.1,0.187,0.451,0.39,0.496c0.925,0.205,0.021-1.637,0.074-1.677
		c0.315-0.257,1.205,0.458,1.218,0.05c0.031-0.688-1.909-1.744-2.193-2.609c-0.04-0.123-0.237-0.415-0.118-0.366
		c0,0.001,0.011-0.239,0.549-0.214c0.32,0.013,0.337,0.494,0.653,0.508c0.093,0.003,0.258-0.582,0.166-0.713
		c-0.441-0.641-0.682,0.188-0.642-0.746c0.014-0.314,0.597,0.266,0.789,0.514c0.409,0.525,1.256,1.104,1.313,1.012
		c0.525-0.849-0.797-1.34-0.751-1.469c0.056-0.174-0.235-0.308-0.251-0.488c-0.018-0.165,0-0.41,0.154-0.471
		c0.239-0.096,0.26,0.25,0.271,0.01c0.008-0.239,0.502-0.221,0.559-0.457c0.009-0.037-0.921-1.443-1.008-1.717
		c-0.185-0.559,1.308,1.59,1.438,1.018c0.108-0.473,0.451-1.021,0.066-1.673l-0.793-0.271c0.023-0.625,0.446-0.801,0.299-0.702
		c-0.208,0.135-0.438,0.549-0.785-0.513c-0.089-0.264,1.577,0.788,0.697-0.688c0,0-1.182-0.524-1.182-0.525
		c-0.114-0.482,0.961,0.279,1.457,0.3c0.827,0.033,0.532-0.935,1.51-0.897c0.154,0.008-0.291-0.135-0.39-0.252
		c-0.333-0.383-0.453-1.271-0.746-1.461c-0.264-0.174-2.174-0.658-2.771-0.597l-0.303,0.703c-0.002,0-0.496-0.737-0.498-0.737
		c-0.389-0.089-1.567,0.09-1.197-0.058c1.052-0.412,6.255,0.726,6.782,0.288c0.211-0.176,0.071-0.087,0.412-0.225
		c0.271-0.111,0.807-0.535,0.557-0.696c-0.32-0.204-0.927-0.179-0.907-0.746c0.021-0.587,1.43,0.649,1.711,0.537
		c0.19-0.078,0.229-0.374,0.412-0.464c0.163-0.075,0.387,0.117,0.532,0.019c0.139-0.092,0.201-0.315,0.147-0.472
		c-0.047-0.146-0.491-0.137-0.387-0.252c0.13-0.147,0.396,0.015,0.595,0.021c0.198,0.007,0.431,0.129,0.595,0.021
		c0.402-0.271-0.688-1.312-0.219-1.437c1.37-0.364,0.927,0.029,1.06,0.033c0.132,0.004,0.279,0.076,0.396,0.012
		c0.279-0.157-0.213-0.653-0.103-0.956c0.141-0.38,0.192-2.847,0.479-2.839c0.026,0,0.404,0.486,0.777,0.497
		c0.177,0.005-0.529,3.211,0.029,3.569c0.337,0.213,0.711,0.79,0.924,0.263c0.23-0.577,1.368-3.533,2.593-3.505
		c0.242,0.006-0.207,0.476-0.149,0.709c0.035,0.137,1.88-1.38,1.876-1.386c-0.543-1.03-1.176-0.36-1.141-2.16
		c0.005-0.12,2.379,0.791,2.885,0.054c0.083-0.116-0.105-0.58-0.766-1.198c-0.248-0.235-0.988-0.824-0.905-0.49
		c0.119,0.463,0.598,0.598,0.235,1.427c-0.014,0.028-1.223-0.056-1.973,0.196c-0.203,0.067-1.471-0.381-1.958-0.283
		c-0.832,0.166-0.812,1.719-0.832,1.641c-0.214-0.873-0.494-0.234-1.291-0.749c-0.266-0.171-0.725-0.519-0.913-0.264
		c-0.189,0.257,0.347,0.745,0.103,0.952c-0.004,0.006-0.577-1.203-1.316-1.229c-0.161-0.004-0.937,1.621-1.688,0.657
		c-0.114-0.153,0.423-0.062,0.535-0.219c0-0.002-0.24-0.723-0.24-0.723c0.032-0.035,1.018,0.205,0.542-0.455
		c-0.376-0.521-1.742-0.067-2.219-0.315c-0.524-0.275-0.767-1.688-1.502-1.72c-0.357-0.014-1.064-0.162-1.054,0.195
		c0,0.014,0.931,0.656,0.931,0.672c0.024,0.455-0.746-0.586-1.191-0.684c-1.146-0.248-2.583,0.318-3.81,0.305
		c-0.433-0.004-1.508-0.709-1.074-0.733c0.206-0.013,0.417,0.013,0.618,0.06c0.167,0.04,0.304,0.204,0.479,0.202
		c0.187-0.004,0.525-0.644,0.677-0.442c0.163,0.217,0.496-0.023,0.922-0.195c0.108-0.043,0.142,0.211,0.25,0.248
		c0.165,0.06,0.386,0.135,0.523,0.022c1.025-0.85-0.333-1.917,0.593-1.635c0.364,0.112,0.961,1.599,1.372,1.479
		c0.004,0,0.684-0.918,0.691-0.92c0.644-0.281,1.433,1.199,1.925,0.785c0.071-0.061-0.897-1.172,0.035-0.945
		c0.262,0.062,1.143,0.748,1.146,0.75c0.603,0.349,0.817,0.946,1.396,1.232c0.079,0.039-0.599-2.627-0.045-2.607
		c0.277,0.009-0.056,0.603,0.101,0.83c0.163,0.236,0.5,0.779,0.758,0.855c0.148,0.043,0.329-0.359,0.398-0.225
		c0.08,0.16-0.269,0.285-0.276,0.465c-0.003,0.113,1.37,0.988,1.54,0.994c0.386,0.012,0.436-1.518,0.436-1.529
		c-0.067-0.719-0.916-0.725-1.212-1.309c-0.033-0.021-0.053-0.029-0.053-0.029c-0.006-0.024,0.004-0.049,0.004-0.074
		c-0.029-0.084-0.054-0.176-0.059-0.283c-0.007-0.135,0.171-0.219,0.206-0.35c0.038-0.152,0.136-0.376,0.014-0.473
		c-0.606-0.472-0.933,0.698-0.946,1.154c-0.009,0.252,0.218,0.983,0.139,0.745c-0.078-0.237-0.501-1.069-0.514-1.231l0.414-0.695
		c-0.195-0.301-1.302-0.039-1.034-0.27c0.166-0.143,0.432,0.012,0.65,0.021c0.216,0.008,0.443,0.093,0.649,0.021
		c0.203-0.072,0.545-1.195,0.793-0.449c0.315,0.946-0.283,1.393-0.313,1.812c0.014,0.037,0.031,0.069,0.049,0.104
		c0.184,0.104,0.843,0.471,0.843,0.471c0.144-0.069,0.01-0.315,0.014-0.475c0.007-0.236-0.066-0.49,0.022-0.709
		c0.149-0.375,0.037,0.83,0.226,1.189c1.111,2.159-0.295,0.902-0.082,2.842c0.124,1.108,1.961,0.715,2.085,0.292
		c0.065-0.208,0.49,0.158,0.657,0.019c0.184-0.158-0.021-0.535,0.146-0.709c0.922-0.957-0.064,1.213,1.552,0.981
		c0.409-0.058-0.682-0.92-0.368-1.192c0.13-0.115,0.349,0.008,0.521,0.012c0.177,0.002,0.352,0.006,0.523,0.01l0.541-0.938
		c0.268-0.234,1.441-0.369,1.578-0.683c0.096-0.221-0.264-0.521-0.119-0.713c0.13-0.173,0.464,0.121,0.651,0.01
		c0.36-0.21,1-1.641,1.453-1.635c0.139,0.002,0.986,1.072,1.297,0.254c0.42-1.116-2.055-0.466-2.112-0.581
		c-0.227-0.429,0.926-0.605,0.963-1.09c0.036-0.413-0.782-1.124-0.37-1.188c0.463-0.067,0.397,0.99,0.847,1.113
		c0.141,0.039,0.17-0.248,0.179-0.391c0.058-0.921-1.261-3.098-1.507-3.328c-0.398-0.377-0.489,0.154-0.639-0.008
		c-0.944-1.02-0.825,0.078-1.175,0.688c-0.184,0.323,0.055-0.793-0.149-1.104c-0.188-0.287-2.318-1.064-0.839-1.037
		c0.521,0.008,0.192,0.003,0.771,0.014c0.149,0.002,0.445-0.09,0.39-0.229c-0.188-0.451-0.993-0.33-1.271-0.73
		c-0.737-1.055,1.294,0.036,0.016-0.941c-0.423-0.323-1.236,0.209-1.537,0.203c-0.254-0.006,0.198-0.461,0.27-0.701
		c0.036-0.122-0.258-0.006-0.384-0.008c-0.13-0.002-0.277,0.063-0.386-0.008c-1.285-0.883-1.138-2.869-1.837-3.104
		c-1.246-0.42-1.114,1.221-1.447,1.606c-0.099,0.113-0.252-0.164-0.376-0.246c-1.072-0.703,0.091-1.359-0.455-1.895
		c-0.688-0.676-1.474,0.189-2.171,0.167c-0.097-0.004-0.054-1.178-1.103-1.213c-0.49-0.019,1.245-0.413,1.171-0.899
		c-0.023-0.19-0.382-1.047-0.518-1.427c-0.177-0.483-1.156-1.293-0.632-1.899c0.147-0.168,0.634,0.014,0.64-0.211
		c0.01-0.211-0.444,0.073-0.63-0.022c-0.112-0.058,0.329-1.065,0.291-1.161c-0.021-0.059-0.45-1.314-0.318-1.648
		c0.068-0.172,0.49-0.033,0.51-0.218c0.057-0.481-0.701-0.729-0.835-1.196c-0.11-0.394,0.082,0.002,0.374,0.012
		c0.294,0.012,1.005,0.294,0.88,0.031c-0.184-0.365-1.151-0.606-1.21-1.211c-0.097-0.97,0.57-0.021,0.883-0.203
		c0.172-0.101-0.299-0.289-0.359-0.479c-0.097-0.297-0.058-0.635,0.033-0.933c0.076-0.248-0.682-0.241-0.606-0.488
		c0.036-0.119-0.628-0.219,0.528-0.798c0.224-0.112,0.89,0.346,0.74,0.143c-0.244-0.322-1.219-0.119-1.103-0.505
		c0.139-0.456,1.25-0.18,1.266-0.653c0.012-0.33-1.12-0.31-0.85-0.496c1.141-0.795,1.274,1.209,2.566,1.25
		c0.025-0.155,0.054-0.31,0.076-0.463c0.246-1.486-1.306-0.223-0.994-1.896c0.071-0.374-0.435-0.213-0.218-0.938
		c0.291-0.955,0.933-1.524,1.049-1.826c0.248-0.634-0.139-2.356,0.469-3.233c0.303-0.438-0.114,0.677,0.608,0.25
		c0.124-0.073,0.447-0.098,0.374-0.222c-0.438-0.707-2.467-0.828-2.252-2.386c0.012-0.082,0.19,0.069,0.244,0.009
		c0.103-0.123,0.143-0.3,0.136-0.46l-0.339-0.704c0.701-1.994,2.021,1.899,2.658,0.776c0.098-0.17-0.36-0.275-0.354-0.473
		c0.031-1,1.127-0.052,1.469-0.189c0.517-0.211,0.387-1.505,0.658-1.833c0.203-0.244-0.039,0.739,0.219,0.93
		c0,0,0.746-0.674,0.746-0.675c0.114-0.257-0.382-0.435-0.469-0.704c-0.426-1.313-0.307-2.731-1.106-3.946
		c-0.097-0.145-0.262-0.318-0.428-0.479c-0.014,0.001-0.025,0.007-0.045,0.006c-0.219-0.007-0.465-0.473-0.465-0.473
		s0.252,0.217,0.51,0.467c0.396-0.029,0.624-0.535,1.141,0.958c0.116,0.337,0.727,0.708,0.947,0.714
		c0.177,0.003-0.572,0.535-0.503,0.679c0.602,1.213,1.199-0.256,1.337-0.199c0.147,0.059,0.25-0.565,0.503-0.91
		c0.059-0.081,1.049,1.269,1.561,0.493c0.083-0.129,0.095-0.333,0.01-0.461c-0.104-0.148-0.566-0.083-0.479-0.24
		c0.096-0.176,0.399,0.008,0.601,0.012c0.043,0,0.087,0.023,0.124,0.002c0.695-0.425,0.384-0.257,0.614-0.68
		c0.461-0.841-1.449,0.037-1.42-1.406c0.005-0.285,0.428,0.468,0.716,0.473c0.266,0.004,1.169-1.633,0.933-1.82
		c-0.099-0.08-0.417-0.2-0.296-0.236c0.003-0.001,1.313,0.253,1.314,0.251c0.271-0.188-0.503-0.635-0.347-0.923
		c0.067-0.123,0.279,0.005,0.421,0.007c0.141,0.002,0.878,0.557,1.013,0.474c0.657-0.407-0.707-0.928-0.467-0.924
		c0.229,0.004,0.489-0.442,0.838,0.011c0.189,0.252,0.205,1.158,0.825,0.928c0.136-0.049,0.397-0.087,0.362-0.225
		c-0.043-0.172,0.201-1.603,0.977-1.595c0.067,0,0.651-2.243,0.736-2.284c0.12-0.056,1.053,1.315,1.18,1.153
		c0.395-0.498-1.242-2.42-0.461-2.291c0.988,0.166,0.932,1.412,1.536,1.839c0.69,0.486,0.556-1.439,1.671-2.509
		c0.579-0.558,2.143-0.158,2.372-0.459c0.243-0.315,0.067-0.864,0.351-1.142c0.275-0.265,0.039-0.118,0.237-0.229
		c0.617-0.342,0.019,1.362,0.479,1.138c0.441-0.215,0.111-2.052,0.813-2.056c0.273-0.003,0.087,0.682,0.361,0.68
		c0.003,0,0.463-0.686,0.468-0.686c1.323-0.224,1.864-2.716,2.311-4.345c0.221-0.809,2.578-2.42,2.65-2.531
		c0.128-0.191-0.047-0.288,0.112-0.229c0.205,0.074,1.674-1.433,1.719-1.617c0.215-0.902-0.437,0.13-0.813,0.016l-0.016-0.904
		c-0.27-0.167-1.252-0.203-0.935-0.209c2.573-0.044,0.467-0.072-0.722-1.568c0-0.001-0.93-0.436-0.93-0.437
		c-0.729-1.813,0.796-0.913,0.796-0.913c0.037-0.168,0.503-0.068,0.458-0.234c-0.177-0.64-1.845,0.283-1.859-0.874
		c-0.006-0.585,0.566,0.618,1.037-0.013c0.17-0.229,0.153-1.222,0.437-1.581c0.293-0.369,1.498-0.646,1.708-0.929
		c0.624-0.845-1.167-0.166,0.159-0.564c0.132-0.04,0.378,0.018,0.399-0.12c0.114-0.761-0.113-2.391-1.318-3.335l-0.912-0.21
		c-0.297-1.34,2.214,1.482,2.753,1.069c1.233-0.948-2.399-0.947-1.399-1.764c0.348-0.286,3.088-0.217,3.172-0.289
		c0.178-0.144-0.103-0.567,0.102-0.672c0.165-0.087,0.177,0.51,0.352,0.438c1.108-0.468-0.861-1.463-1.059-1.539
		c-0.163-0.06,0.342,0.068,0.51,0.102c0.622,0.118,1.401,0.096,1.86-0.383c0.168-0.173-0.374-0.303-0.577-0.43
		c-0.678-0.421-2.391-0.637-2.412-1.723c-0.005-0.158,0.229,0.217,0.346,0.326c0.586,0.555,0.074,0.138,0.803,0.538
		c0.529,0.29,2.871,1.485,3.205,1.474c0.356-0.01-0.857-2.332-0.842-1.758c0.004,0.166-0.275,0.087-0.234-0.216
		c0.104-0.724-0.715-0.637-0.25-0.883c1.076-0.569,1.045,0.976,0.971-1.583c0-0.058,1.137,0.611,1.146,0.632
		c0.021,0.082,0.037,0.147,0.054,0.216c0.077-0.052,0.198-0.067,0.399-0.007c0.239,0.069,0.109,0.662,0.359,0.654
		c0.928-0.032-0.175-1.901-0.18-1.994c-0.014-0.432,1.354,1.247,1.396,1.285c0.248,0.254,1.143,0.143,1.486,0.614
		c0.139,0.189,0.059,0.521,0.25,0.658c0.215,0.158,0.242-0.489,0.426-0.684c0.482-0.516,0.035-0.94,0.293-1.125
		c0.38-0.272,0.982,0.238,1.264,0.616c0.078,0.107,0.254,0.306,0.344,0.208c0.244-0.259,0.296-0.534,0.434-0.463
		c0.936,0.475,0.832-0.544,1.562-0.292c0.357,0.122,1.082,0.781,1.391,0.822c0.086,0.011,1.025-1.109,1.48-0.973
		c-0.224-1.102-0.616-2.16-1.229-3.037c-1.219-1.753-2.325-2.145-2.554-4.52c-0.123-1.268,1.029-1.302,1.441-2.269
		c0.293-0.683-0.238-1.709-0.005-2.416c0-0.001,0.626-0.688,0.626-0.688c0.126-1.708-3.09-2.973-3.064-4.661
		c0.018-1.146,1.121-1.186,1.312-2.234c0.348-1.954-1.869-0.761-2.348-1.63c-0.327-0.588,0.593-1.054,0.688-1.543
		c0.204-1.07-1.175-2.773-0.49-3.861c0.223-0.352,0.795-0.354,1.037-0.69c0.453-0.625-1.131-1.049-1.615-1.646
		c-0.145-0.173-0.284-0.347-0.424-0.519c-0.496-0.607-1.232-0.092-1.365-0.267c-0.186-0.245,0.104-1.085-0.27-1.485
		c-2.234-2.416-4.609-1.497-6.848-2.763c-0.971-0.549-6.682-4.499-7.316-5.157c-0.451-0.463,0.559-0.688-0.223-1.261
		c-0.191-0.14-1.203-0.432-1.604-0.673l-0.168,0.058C109.63,7.66,108.114,7.411,107.714,7.669"/>
	<path fill="#CCCCCC" d="M98.365,159.766c0.22,0.4,0.814,0.771,0.659,1.207c-0.128,0.371-0.76,0.24-1.091,0.463
		c-0.002,0.004-0.14,0.955-0.146,0.959c-0.397,0.252-1.717-0.759-1.381,1.418c0.069,0.438-0.239,1.656-0.031,2.158
		c0.355,0.869,1.404,0.049,1.214,0.979c-0.073,0.368-0.856,0.307-1.1,0.463c-1.177,0.748-0.527,1.856-0.577,1.914
		c-0.496,0.559-2.307,0.487-2.64,1.396c-0.055,0.149,0.413,0.09,0.411,0.248c0,0-0.837,0.465-0.839,0.465
		c-0.442,0.633,0.91,2.069-1.153,2.383c-0.23,0.033-0.546,0.16-0.693-0.019c-0.328-0.397,1.677-2.026,1.296-2.377
		c-0.155-0.143-0.212,0.478-0.422,0.474c-0.167-0.004-0.132-0.316-0.127-0.485c0.011-0.54-0.137-1.396-0.504-2.175
		c-0.496-1.057,0.515-1.017,0.324-2.154c-0.42-2.529-0.829-1.714,1.04-3.816c0.559-0.629,0.751-1.852,1.409-2.369
		c0.321-0.258,0.932,0.08,1.218-0.217c0.729-0.742-0.468-0.688,0.565-1.188c1.134-0.552,0.447,1.444,0.924,1.452
		c0.317,0.005,0.349-1.364,0.427-1.433c0.158-0.136,0.3,0.302,0.4,0.485C97.619,160.126,98.216,159.764,98.365,159.766"/>
	<path fill="#CCCCCC" d="M82.787,167.543c-0.043,1.196-1.449,3.463-1.947,4.257c-0.029,0.046-0.188,1.328-0.202,1.679
		c-0.033,0.791-1.37,2.834-1.684,3.934c-0.066,0.234-2.407,7.771-2.626,5.781c-0.624-5.688,1.748-7.434,4.113-11.811
		C80.938,170.465,81.53,166.355,82.787,167.543"/>
</g>
<g id="Laag_3">
</g>
</svg>
