<?xml version="1.0" encoding="utf-8"?>
<!-- Generator: Adobe Illustrator 16.0.0, SVG Export Plug-In . SVG Version: 6.00 Build 0)  -->
<!DOCTYPE svg PUBLIC "-//W3C//DTD SVG 1.1//EN" "http://www.w3.org/Graphics/SVG/1.1/DTD/svg11.dtd">
<svg version="1.1" id="Laag_1" xmlns="http://www.w3.org/2000/svg" xmlns:xlink="http://www.w3.org/1999/xlink" x="0px" y="0px"
	 width="46px" height="34.667px" viewBox="0 0 46 34.667" enable-background="new 0 0 46 34.667" xml:space="preserve">
<g id="Laag_2">
</g>
<g id="Laag_1_1_">
	<path fill="#CCCCCC" d="M13.725,27.933l0.058-0.739c1.614-0.471,3.589,1.694,5.191,0.125c0.485-0.472,0.499-1.458,0.999-1.911
		c0.405-0.367,0.399,0.352,0.405,0.397c0.157,0.963,0.917,1.737,1.603,2.374c0.492,0.455,0.211,0.395,0.823,0.259
		c0.324-0.069,0.492-0.498,0.813-0.565c1.215-0.25,2.599,2.418,4.089,1.236c0.549-0.432-0.449-1.831-0.386-2.246
		c0.066-0.467,1.138-0.211,1.248-0.671c0.178-0.754-1.379-0.608-0.594-1.685c1.004-1.379,2.715-0.08,3.668-0.862
		c0.219-0.183,0.578-2.636,0.502-2.942c-0.127-0.521-1.078-1.013-1.115-1.541c-0.151-2.033,3.846-1.842,4.93-2.711
		c0.197-0.158-0.02-0.616,0.205-0.73c0.171-0.087,0.381,0.018,0.566,0.027c0.002,0,1.133,0.054,1.135,0.054
		c0.658-0.333-0.434-1.928,0.613-2.196c0.688-0.177,2.334,0.643,3.022,0.877l-0.294-0.123c-0.855-0.938-1.547-1.787-1.643-2.188
		c-0.064-0.262,0.427-0.457,0.369-0.723c-0.119-0.565-0.998-0.969-1.117-1.534c-0.086-0.396,0.8-1.07-0.278-1.25
		c-3.997-0.655-2.499,2.548-3.32,2.682c-0.97,0.163-2.268-1.031-3.208-0.785c-0.619,0.161-0.99,1.221-1.607,1.396
		c-1.838,0.522-4.535-1.73-6.432-0.386c-0.357,0.252-0.289,1.137-0.604,1.445c-0.404,0.394-2.034,1.248-2.481,1.444
		c-0.808,0.349-0.899-0.539-1.486-0.722c-0.819-0.254-1.928,0.344-2.734,0.055c-0.003-0.004-0.792-0.8-0.792-0.802
		c-0.986-0.557-2.203-0.946-3.533-1.252l-0.141,0.229c-0.503,2.3-3.295,1.719-3.671,3.17c-0.345,1.337,2.415,1.243,2.753,1.959
		c0.318,0.67-1.971,1.743-2.073,2.308c-0.208,1.141,1.286,0.172,1.497,0.616c0.35,0.729-1.124,1.677-0.537,2.437
		c0.582,0.748,3.871,1.963,2.766,3.31c-0.469,0.575-1.146,0.146-1.814-0.017c-0.268,0.322,0.306,0.752,0.284,0.767
		c-0.002,0.002-1.274,0.063-1.276,0.063c-0.487,0.172-0.137,0.896-0.525,0.785C10.416,27.917,12.756,28.451,13.725,27.933"/>
</g>
<g id="Laag_3">
</g>
</svg>
