<?xml version="1.0" encoding="utf-8"?>
<!-- Generator: Adobe Illustrator 16.0.0, SVG Export Plug-In . SVG Version: 6.00 Build 0)  -->
<!DOCTYPE svg PUBLIC "-//W3C//DTD SVG 1.1//EN" "http://www.w3.org/Graphics/SVG/1.1/DTD/svg11.dtd">
<svg version="1.1" id="Laag_1" xmlns="http://www.w3.org/2000/svg" xmlns:xlink="http://www.w3.org/1999/xlink" x="0px" y="0px"
	 width="64px" height="34.667px" viewBox="0 0 64 34.667" enable-background="new 0 0 64 34.667" xml:space="preserve">
<g id="Laag_2">
</g>
<g id="Laag_1_1_">
	<g>
		<path fill="#CCCCCC" d="M7.581,24.839c0.199-0.149,0.477-0.215,0.886-0.127c1.313,0.279,3.507,3.736,5.168,4.354
			c2.377,0.886,5.894,0.286,8.244-0.272c0.682-0.16,1.382-0.387,2.072-0.496c0.109-0.016,0.347,0.113,0.331,0.007
			c-0.155-1.007-1.659-2.097-0.118-3.212c1.464-1.057,5.52,0.08,6.448-0.67c0.874-0.699-0.19-2.608,1.825-2.209
			c0.864,0.17,1.597,1.387,2.469,1.486c1.268,0.143,1.537-1.646,2.308-1.977c0.39-0.167,1.077,0.388,1.481,0.244
			c1.416-0.498,1.132-3.344,2.113-4.203c2.029-1.782,4.139,0.461,6.063,0.434c0.979-0.016,2.128-1.4,3.091-1.286
			c1.87,0.23,1.518,2.93,2.854,3.399c0.355,0.125,1.475-0.297,1.885-0.352c3.845-0.506,1.232-1.082,2.132-3.2
			c0.554-1.306,1.642-1.091,2.258-3.445c0.326-1.243,1.347-2.755,1.418-3.881c-2.03-0.517-4.387-1.357-5.058-2.004
			c-0.335-0.326-0.189-1.141-0.521-1.467c-0.543-0.536-2.82-1.544-3.58-1.643c-0.332-0.047-0.632,0.256-0.963,0.264
			c-0.658,0.012-1.636-0.626-2.262-0.454c-0.008,0.002-0.787,0.751-0.795,0.751c-0.002,0-0.65-0.482-0.652-0.482
			c-0.865,0.011-0.332,2.135-2.068,1.997c-0.754-0.063-1.362-1.593-2.112-1.705c-0.455-0.066-0.824,0.502-1.283,0.504
			C40.751,5.2,40.379,4.664,39.92,4.711c-1.602,0.168-3.288,3.396-3.539,3.459c-0.125,0.033-1.066-0.738-1.295-0.738
			c-0.529,0-0.762,0.492-1.291,0.489c-0.587-0.002,0.518-2.443,0.006-2.955C33.708,4.875,32.09,4.46,31.708,4.22
			C31.197,3.895,31.304,2.236,30.759,2c-1.351-0.589-3.004,4.199-4.851,2.906c-0.238-0.165,0.229-1.271,0.016-1.479
			c-0.31-0.305-0.965,0.04-1.28-0.262c-3.604,1.103-2.723,1.432-5.371,3.105c-0.238,0.15-0.623,0.022-0.811,0.229
			c-0.774,0.836-0.573,2.615-1.378,3.42c-0.313,0.313-1.18,0.123-1.471,0.454c-0.005,0.007-0.349,1.217-0.356,1.223
			c0,0.003-1.313,0.558-1.315,0.558c-4.107,1.732-5.937-1.879-8.076,3.713c-0.273,1.339-1.619,2.93-1.335,3.762
			c0.168,0.494,0.89,0.804,1.104,1.279c0.213,0.469-0.029,1.314,0.264,1.737c0.002,0.004,0.81,0.271,0.813,0.276
			c0.364,0.486,0.432,1.287,0.866,1.912v-0.002L7.581,24.839"/>
	</g>
</g>
<g id="Laag_3">
</g>
</svg>
