<?xml version="1.0" encoding="utf-8"?>
<!-- Generator: Adobe Illustrator 16.0.0, SVG Export Plug-In . SVG Version: 6.00 Build 0)  -->
<!DOCTYPE svg PUBLIC "-//W3C//DTD SVG 1.1//EN" "http://www.w3.org/Graphics/SVG/1.1/DTD/svg11.dtd">
<svg version="1.1" id="Laag_1" xmlns="http://www.w3.org/2000/svg" xmlns:xlink="http://www.w3.org/1999/xlink" x="0px" y="0px"
	 width="194.333px" height="125.25px" viewBox="0 0 194.333 125.25" enable-background="new 0 0 194.333 125.25"
	 xml:space="preserve">
<g id="Laag_2">
</g>
<g id="Laag_1_1_">
	<path fill="#CCCCCC" d="M22.467,30.979c-0.662,0.403-2.119,1.62-3.324,1.38c-1.151-0.229-2.056-2.095-3.211-2.251
		c-0.248-0.031-0.269,0.469-0.506,0.54l-0.988-0.075c-0.167-0.012-0.344-0.104-0.496-0.041c-0.789,0.334-1.396,1.713-2.231,1.93
		c-0.57,0.147-1.938-0.378-2.401-0.046c-0.53,0.375-0.244,1.849-0.735,2.284c-0.719,0.64-2.813,0.108-2.101,1.796
		c1.173,0.319,2.565,0.864,2.916,1.351c0.322,0.458,0.975,3.699,0.525,4.16c-0.883,0.899-2.714,0.992-3.162,2.48
		c-0.299,0.996,0.783,2.432,0.461,3.42c-0.132,0.394-2.509,3.26-2.931,3.436L4.18,51.41c0.047,0.818,0.254,1.657,1.002,1.838
		c1.297,0.312,7.596-1.379,7.624-1.354c1.324,1.221-5.023,4.121-6.177,5.437c-0.223,0.254,0.531,0.608,0.642,0.939
		c0.217,0.631-1.21,2.847-0.719,3.014c0.419,0.146,1.829-1.25,1.966-1.632l-0.246-0.719c0.052-0.108,1.214-1.159,1.409-1.349
		c1.006-0.961,1.325-1.619,2.062-2.637c1.563-2.171,5.15-1.958,6.613-4.283c0.409-0.655,1.151-1.662,1.478-2.359
		c0.234-0.494-0.086-1.604,0.375-2.014c1.541-1.362,4.426,0.214,5.05-0.237c1.075-0.78,1.289-2.102,2.986-2.035
		c0.908,0.034,3.515,1.174,3.685,1.099c0.718-0.322-0.447-1.438-0.345-1.449c0.91-0.096,0.543,1.413,0.926,1.635
		c0.279,0.163,3.913-0.62,4.221-0.959c0.685-0.752,0.403-1.436,0.309-2.265c-0.047-0.409,1.149-0.731,0.602-1.307
		c-0.458-0.48-2.367-0.205-3.041-0.402c-2.537-0.746-6.217-1.729-8.216-3.589c-0.624-0.583-1.886-2.488-2.185-3.248
		c-0.487-1.247,1.078-0.262,0.36-2.509h-0.052C24.115,31.019,22.792,30.784,22.467,30.979"/>
	<path fill="#CCCCCC" d="M189.161,7.446c-0.272-0.123-1.636-0.945-1.895-0.854c-1.008,0.342,0.576,1.011-0.678,0.325
		c-0.154-0.084-0.395-0.091-0.461-0.252l0.26-1.101c-0.067-0.064-2.569,0.64-2.667,0.771c-0.382,0.515,0.049,1.652-0.345,2.154
		c-0.313,0.396-2.982,0.351-3.489,0.408c-4.048,0.479-2.153,1.21-3.583,1.85c-0.219,0.096-0.473-0.039-0.713-0.059
		c-0.945-0.081-1.887-0.159-2.836-0.238l-0.082-0.023c-0.33,1.087-0.767,2.426-0.94,2.601c-0.499,0.496-3.399,3.322-4.028,3.637
		c-0.388,0.195-0.896,0.099-1.262,0.336c-0.562,0.367-0.861,1.326-1.24,1.855c-0.121,0.165-5.101,4.123-5.108,4.126
		c-0.796,0.315-1.294-0.613-1.875-0.539c-0.464,0.06-0.688,0.73-1.147,0.8c-0.581,0.088-1.228-0.626-1.871-0.546
		c-0.6,0.077-0.924,0.721-1.632,0.407c-0.683-0.299-1.231-1.438-2.165-0.983c-0.47,0.224-0.727,1.153-1.219,1.313
		c-0.01,0.002-1.375-0.173-1.383-0.17c-0.143,0.034-0.854,0.895-1.1,1.026c-0.756,0.407-1.742,0.394-2.483,0.849
		c-0.438,0.271-0.623,0.959-1.044,1.262c-0.57,0.404-0.178-0.213-0.787-0.069c-0.668,0.16-1.609,1.139-2.743,1.404
		c-0.299,0.069-5.124,0.257-5.325,0.213c-1.434-0.327-1.523-1.928-2.855-1.628c-0.479,0.104-0.713,1.446-1.317,1.807
		c-0.51,0.304-2.558-0.98-2.922-1.123c-0.738-0.284-1.942,0.787-2.782,0.352c-0.968-0.5-0.148-1.941-2.568-2.219
		c-3.82-0.438-2.608,2.498-4.429,2.441c-0.725-0.024-0.825-0.436-1.293-0.74c-0.34-0.223-0.839-0.056-1.188-0.256
		c-1.838-1.058-1.248-2.881-2.6-4.081c-0.205-0.184-0.347-0.604-0.613-0.546c-0.291,0.059-0.553-0.457-0.821-0.339
		c-0.319,0.145,0.021,0.145-0.632,0.378c-3.103,1.115-2.887,2.798-6.75,1.325c-0.641-0.242-3.551-2.941-2.641-4.009
		c-0.136,0.041-0.263,0.072-0.359,0.069c-0.625-0.02-0.924-0.833-1.676-0.937c-0.231-0.034,0.369,1.068-0.765,1.897
		c-0.498,0.362-4.939,1.673-5.656,1.789c-0.783,0.125-1.69-0.333-2.484-0.307c-1.522,0.05-7.154,0.539-8.417,0.948
		c-1.345,0.443-2.719,1.838-3.853,2.637c-1.036,0.729-2.596,0.812-3.702,1.343c-0.777,0.372-1.092,1.42-1.777,1.775
		c-0.18,0.094-1.058,0.174-1.42,0.47c-0.557,0.452-0.669,1.442-1.203,1.927c-2.104,1.918-4.834,3.41-6.906,5.255
		c-0.126,0.112-0.618-0.002-0.736,0.106c-0.051,0.043,0.394,1.349,0.392,1.436c-0.006,0.646-1.203,2.035-1.752,2.24
		c-0.003,0-1.141-0.089-1.144-0.089c-0.619,0.109-1.172,0.605-1.782,0.742c-1.808,0.404-4.073-0.279-5.855-0.622
		c-0.507-0.096-1.54-0.626-2.014-0.565c-0.453,0.058-0.709,1.198-1.139,1.387c-1.927,0.841-4.755-0.083-6.534,0.311
		c-1.994,0.438-4.859-1.874-5.511,1.015c-0.199,0.872-0.573,1.583-0.479,2.408c0.037,0.357,2.28,1.084,2.581,1.192
		c1.132,0.401,0.116,0.652,0.327,1.199l0.901-0.351c0.368,0.112-0.034,0.995,0.675,0.912c0.311-0.038,0.666-0.639,1.06-0.619
		c0.945,0.04,4.314-0.359,4.447-0.21c0.205,0.229-2.838,1.646-3.528,1.587c-0.272-0.021-0.186-0.723-0.458-0.688
		c-0.396,0.046-0.461,0.748-0.845,0.843c-1.89,0.453-5.404,0.793-6.881,2.765c-0.932,1.246,4.077,0.841,4.125,1.268l-0.722,0.331
		c-1.127,1.48-1.786,0.26-3.349,0.622c-0.398,0.092-0.693,0.442-1.069,0.612c-0.834,0.374-2.541-0.223-2.962-0.179
		c-1.032,0.107-6.196,1.807-5.916,0.605c0.123-0.518,1.188-0.673,1.379-1.376c0,0-0.444-0.037-0.665-0.057
		c-0.403-0.036-2.125,0.103-2.17,0.087c-0.824-0.267-0.098-0.483-0.61-0.434c-0.103,0.012-0.094,0.188-0.161,0.262
		c-1.276,1.346,3.939,1.601,1.033,2.866c-1.077,0.472-4.589,0.445-5.544-0.465c-0.076-0.072,0.621-1.159-0.3-1.21
		c-0.96-0.052-3.401,1.547-3.461,1.545c-2.723-0.118-2.609,0.279-4.396,1.852c-0.019,0.018-0.463,1.008-0.485,1.025
		c-0.293,0.251-0.877,0.027-1.111,0.338c-0.472,0.617-0.199,2.06-0.731,2.771c-0.7,0.932-1.337,0.12-2.008,1.143
		c-0.655,0.995,0.437,3.179,0.51,4.151c0.067,0.893-1.229,1.828-0.938,2.781c0.177,0.583,4.411-0.502,9.249-1.977
		c0.19-0.059,0.701-0.19,0.78,0.179c0.311,1.414-1.316,1.472-1.567,1.856c-0.087,0.129-1.524,2.781-1.728,2.367
		c-0.08-0.16-0.094-0.009-0.17,0.262c0.19,0.022,0.387,0.049,0.582,0.072c0.193,0.024,0.417-0.026,0.585,0.074
		c0.487,0.294,0.32,0.678,1.254,1.124c2.091,1.007-0.9,2.152,0.076,3.197c1.196,1.278,3.012-1.035,3.187,0.955
		c0.016,0.153-0.211,0.268-0.362,0.278c-2.603,0.229,2.396,0.535-0.901,0.82c-0.208,0.016-0.434-0.324-0.599-0.197
		c-0.249,0.188,1.163,1.133,0.104,1.224c-0.641,0.055-1.198-0.468-1.932,0.163c-0.094,0.083-0.042,0.248-0.067,0.376
		c-0.02,0.126-0.128,0.264-0.063,0.374c0.568,0.982,2.051,1.223,2.163,2.525c0.004,0.063-0.041,0.063-0.106,0.043
		c0.61,0.321,1.226,0.598,0.556,0.654c-0.258,0.021,0.543,0.047,0.777-0.064c0.451-0.22,2.048-0.754,1.567,0.321
		c-0.213,0.476-3.099,1.321-3.577,1.326c-0.527,0.007-0.565-0.649-0.858-0.91c-0.116-0.104-0.262-0.257-0.412-0.213
		c-0.651,0.195,0.168,2.038-0.031,1.972c-1.858-0.604-0.583-2.541-0.845-3.129c-0.36-0.808-1.595-2.369-2.693-1.994
		c-1.392,0.471-0.39,1.781,0,2.461c0.062,0.107-0.045,0.246-0.068,0.371c-0.02,0.129-0.191,0.354-0.066,0.377
		c0.474,0.078,1.115-0.461,1.592,0.361c0.345,0.598-1.209-0.619-0.553,0.416c0.246,0.387-0.717,1.229-1.06,1.436
		c-0.153,0.095-1.028-0.903-1.051-0.898c-0.406,0.031,0.39,0.938,0.096,1.221c-0.136,0.139-0.409-0.041-0.583,0.047
		c-0.071,0.039-0.059,0.221,0.019,0.244c0.491,0.161,0.942,0.82,1.421,0.629c0.258-0.106,0.553-0.47,0.566-0.293
		c0.007,0.104-0.222,0.164-0.175,0.26c0.077,0.158,1.3,0.38,1.617,0.607c2.606,1.842-0.372-0.703,2.86-0.976
		c0.104-0.007,0.209,0.125,0.218,0.229c0.011,0.176,0.778,2.1,1.453,2.088c0.896-0.015,0.358-0.467,1.054-0.336
		c0.867,0.16,1.055,0.938,1.862,1.063c0.387,0.062,0.808-0.246,1.172-0.104c0.193,0.076,0.354,0.26,0.436,0.452
		c0.283,0.671-0.423,1.236-0.239,1.746c1.073,2.918-1.014,1.415-2.353,2.421c-0.73,0.549,2.124,0.733,2.489,1.254
		c0.091,0.133,0.134,0.353,0.041,0.485c-0.321,0.481-0.063,2.831,0.068,2.944c1.115,0.978,1.767-1.356,2.475-1.209
		c0.822,0.177-0.966,1.341-0.04,1.724c1.053,0.438,0.277-0.313,0.742-0.562c0.537-0.282,0.159,1.356,0.751,1.652
		c0.416,0.203,0.434-1.023,0.895-1.066c0.413-0.041,0.37,0.787,0.313,1.195c-0.068,0.536-0.801,0.094-0.963,0.34
		c-0.173,0.26,0.631,0.83,0.487,0.936c-0.343,0.26-0.721,0.688-1.143,0.602c-0.642-0.137-1.283-1.123-1.673-0.832
		c-0.141,0.108-0.252-0.115-0.524,0.785c-0.081,0.258-0.897,1.077-0.22,1.985c0.286,0.392,1.659-1.099,1.892-1.156
		c0.128-0.03,1.73,0.951,1.876,0.808c0.114-0.113-0.157-0.363-0.047-0.484c0.191-0.215,2.025,0.094,2.403,0.016
		c1.308-0.275,4.867-2.068,5.722-0.818c0.404,0.594-0.64-0.377-0.57,0.305c0.087,0.863,0.101-0.153-0.521,0.79
		c-0.073,0.11,0.173,0.389,0.251,0.467c-0.445-0.44-1.163-0.558-1.812-0.063c-0.061,0.043,0.534,1.867,0.394,1.926
		c-0.264,0.111-1.228-0.307-1.44-0.348c-0.914-0.186-1.386,0.455-2.137,0.7c-0.392,0.127-0.841-0.286-1.216-0.13
		c-0.468,0.195-1.979,1.352-2.453,1.703c-0.172,0.13-0.727,0.146-0.575,0.298c0.839,0.853,1.498-0.071,2.193-0.203
		c0.155-0.028,1.371,0.456,1.44,0.354c0.416-0.627-0.212-1.106,0.458-1.516c0.811-0.5,2.992,0.022,3.975-0.394
		c0.273-0.114,0.102-1.177,0.723-0.81c0.083,0.047,0.132,1.451-0.274,1.256c-0.123-0.061-0.279-0.022-0.396,0.041
		c-0.331,0.172-1.159,0.276-0.948,0.586c0.049,0.07,1.417,0.103,1.467,0.587c0.066,0.663-2.084,0.62-1.101,1.092
		c1.246,0.601,1.595-1.562,2.021-1.921c0.087-0.071,1.522-0.622,1.543-0.646c0.052-0.084-1.881-2.22-0.4-1.927
		c0.204,0.038,0.48,0.236,0.446,0.443c0.004,0,1.043,0.386,1.045,0.386c0.121-0.04,0.04-0.252,0.063-0.378
		c0.128-0.804-0.774-0.465,0.205-0.88c0.425-0.184,0.574,0.673,0.699,0.906c0.07,0.133,1.355-0.797,1.563-0.412
		c0.235,0.441-0.368,1.44,0.182,1.701c0.192,0.09,1.76-0.377,2.242,0.25c0.315,0.406,0.646,0.392,0.648,0.418
		c0.012,0.092-1.032,0.492-0.118,0.75c0.212,0.062,0.683-1.012,0.688-1.06c0.012-0.062-0.376-0.067-0.277-0.706
		c0.047-0.312,0.201-0.758,0.514-0.796c0.313-0.033,0.36,0.644,0.676,0.664c0.168,0.009,1.616,0.021,1.702,0.789
		c0.018,0.153-0.256,0.175-0.372,0.288c-0.232,0.244-1.012-0.258-0.74,0.576c0.517,1.587,0.853-0.864,1.477,0.57
		c0.272,0.625-0.237,1.461-0.147,2.229c0.021,0.206,4.914,2.089,5.105,2.11c0.468,0.057,1.002-0.418,1.402-0.168
		c0.043,0.029,0.074,0.047,0.109,0.071c0.273,0.138,0.585,0.362,0,0c-0.246-0.129-0.449-0.182,0.149,0.39
		c0.112,0.109,0.315,0.084,0.43,0.192c0.126,0.122,0.17,0.308,0.26,0.464c0.161,0.291,0.392-0.705,0.727-0.705
		c1.049,0,0.664-0.339,1.896-1.094c0.239-0.146,0.575,0.258,0.832,0.143c0.383-0.174,0.259-1.017,0.675-1.07
		c0.21-0.024,0.452,0.438,0.662,0.408c1.371-0.172,0.1-0.268,0.505-0.801c0.284-0.367,2.829-0.485,3.03-0.145
		c0.087,0.154-0.161,0.335-0.14,0.512c0.023,0.174,0.175,0.309,0.264,0.459c0.077,0.137,0.171-0.269,0.252-0.402
		c0.167-0.265,0.576-0.389,0.618-0.695c0.157-1.128-0.205-0.876-0.451-1.913c-0.161-0.683,1.087-1.662,1.073-2.604
		c-0.01-0.598-1.567-4.474,0.579-4.761c0.309-0.042,0.541,0.353,0.852,0.38c2.273,0.186,4.94-1.158,7.221-0.259
		c2.217,0.874,4.984,2.394,7.457,2.615c0.74,0.067,0.995-0.261,1.661,0.244c3.468,2.628,3.589,4.817,8.248,5.885
		c1.842,0.423,1.688-1.103,3.034-1.476c0.375-0.104,1.666,0.302,1.869,0.188c0.006,0,0.438-1.055,0.442-1.061
		c0.4-0.266,1.366,0.102,1.829-0.055c0.717-0.242,1.14-0.598,1.908-0.816c0.359-0.104,0.707,0.378,1.078,0.312
		c0.612-0.104,0.279-0.859,0.631-1.096c1.008-0.688,0.559,0.646,1.115,0.55l0.073-0.758c0.161-0.231,1.836-2.297,1.853-2.301
		c0.709-0.255,0.845,1.337,1.242,1.268c0.283-0.049,0.023-0.919,0.031-0.996c0.055-0.591,0.928-0.303,1.104-0.688
		c0.166-0.371-0.266-0.799-0.213-1.203c0.154-1.25,3.746-5.355,4.764-6.319c0.841-0.794,2.742-1.687,3.73-0.69
		c0.182,0.181,0.092,0.615,0.336,0.684c0.002,0,0.979-0.186,0.98-0.186c1.311,0.166,3.633,1.02,4.633,1.852
		c0.098,0.078,1.583-1.55,1.734-1.581c0.378-0.073,0.506,0.397,0.881,0.326c0.832-0.165,0.516-0.847,0.747-1.396
		c0.104-0.236-0.026,0.073-0.832-0.082c-0.272-0.053-0.021-0.746,0.25-0.799c0.081-0.014,1.515-0.604,2.213-1.186
		c0.612-0.51,1.168-2.379,1.91-2.629c0.206-0.064,0.438,0.039,0.636,0.125c6.221,2.615-1.105,6.75-1.604,9.291
		c-0.119,0.603,3.379,2.716,3.281,4.072c-0.011,0.172-0.203,0.637-0.425,1.114c1.058-0.028,2.546,1.384,3.142,1.071
		c0.168-0.087,0.024-0.377,0.039-0.567c0.174-2.516,1.182-1.399,1.75-2.786c0.244-0.593-0.801-2.453-0.396-2.91
		c0.302-0.338,3.271-0.444,3.698-1.02c0.264-0.359-1.662-1.766-1.882-2.102c-0.528-0.812-0.93-5.889-0.32-6.422
		c0.134-0.121,4.615,0.408,4.848,0.715c0.002,0.003-0.187,1.039-0.187,1.041l0.886,0.31c0.002-0.002,0.43-0.843,0.432-0.845
		c1.016-0.565,2.738,0.109,3.823-0.335c3.114-1.279,6.237-6.699,10.045-6.287c1.634,0.179,3.118,1.696,4.757,1.896
		c1.752,0.215,5.896-0.979,7.512-1.688c1.603-0.705,3.423-1.232,4.934-2.108c3.609-2.098,6.049-6.336,9.848-8.101
		c2.938-1.359,6.582-1.147,9.631-2.474c0.156-0.066-0.93-1.565-0.916-4.066c0.007-1.108,1.162-2.413,1.146-3.878
		c-0.013-1.191-0.619-3.075-0.645-4.458c-0.022-1.228,0.537-1.936,0.506-3.284c-0.024-1.056-0.854-2.144-0.883-3.258
		c-0.096-3.694-0.748-14.624-0.854-10.602c-0.038,1.424,1.122-0.689,1.144-3.77c0.01-1.172-1.041-1.838-1.082-3.002
		c-0.01-0.307,1.02-1.119,1.008-1.426c-0.047-1.347-0.096-2.682-0.145-3.996c-0.029-0.793-0.582-1.053-0.611-1.828
		c-0.043-1.137,1.017-3.354,0.975-4.441c-0.061-1.557-3.918-1.635-3.977-3.059c-0.041-1.039,3.141-2.883,3.101-3.834
		c-0.071-1.729-0.142-3.3-0.203-4.669c-0.026-0.581-0.051-1.125-0.075-1.631c-0.01-0.215-0.02-0.423-0.029-0.623
		C189.268,8.763,189.19,7.459,189.161,7.446z"/>
</g>
<g id="Laag_3">
</g>
</svg>
