<?xml version="1.0" encoding="utf-8"?>
<!-- Generator: Adobe Illustrator 16.0.0, SVG Export Plug-In . SVG Version: 6.00 Build 0)  -->
<svg version="1.2" baseProfile="tiny" xmlns="http://www.w3.org/2000/svg" xmlns:xlink="http://www.w3.org/1999/xlink" x="0px"
	 y="0px" width="466.477px" height="331.484px" viewBox="186.104 126.1 466.477 331.484" xml:space="preserve">
<g id="Background">
</g>
<g id="Ukraine">
	<path fill="#CCCCCC" d="M390.778,396.506l-0.389,0.33l-0.692,0.749l-0.39,0.33l-0.33,0.092l-0.359,0.06l-0.3,0.119l-0.119,0.33
		l-0.181,0.33l-0.479,0.39l-1.201,0.659l1.831-0.778l2.399-1.77l5.491-5.22l-1.531,0.898L390.778,396.506z M465.715,385.077
		l-0.3-0.42l-1.079,0.09l-0.24-0.241l-0.238-0.359l-0.571,0.06l-0.989,0.451l-0.752-0.57l-0.72-0.03l-1.649,0.33l-3.42-0.479
		l-0.211-0.241h-0.119l-0.181,0.211l10.051,1.65L465.715,385.077z M442.166,379.767l-3.119-0.75l-7.682-1.89l-0.957-0.571
		l-0.57-0.72l-0.36-1.02l-0.392-1.471l-0.42-0.179v0.63l0.211,0.868l0.179,0.541l0.66,1.05l0.751,0.689l3.75,1.441l8.7,1.858
		l0.99,0.481l0.538,0.119l-0.3-0.238L442.166,379.767z M634.85,267.389l-1.109-1.32l-0.931-1.469l-0.509-1.082l-0.151-1.171
		l0.452-1.198l0.419-0.39l0.931-0.541l0.359-0.511l0.119-0.749l-0.359-0.39l-2.34-0.63h-0.479l-0.571,0.211l-1.409,1.438
		l-0.601,0.362l-0.719,0.268l-0.723,0.149l-0.659-0.03l-0.479-0.208l-1.23-1.201l-0.96-0.448l-0.839-0.241l-0.722-0.511
		l-0.598-1.258l-0.36-1.591l-0.271-0.839l-0.3-0.392l-1.409-0.148l-0.451-0.211l-0.869-0.568l-0.9,0.179l-0.931,0.449l-0.93,0.211
		l-0.901-0.211l-0.689-0.449l-0.538-0.749l-1.32-3.451l-0.63-0.539l-0.931,0.328l-0.419,0.481l-0.752,1.141l-0.449,0.388
		l-0.39,0.121l-2.25,0.151l-0.63-0.63l-0.601-0.903l-0.809-0.749l-2.491-0.72l-1.438-1.05l-0.151-0.151l-0.119-0.327l-0.06-0.601
		l-0.211-0.72v-0.089l-0.06,0.089l-0.571,0.209l-0.211,0.148l-0.208,0.092l-1.171-0.211l-1.739,0.333l-0.871-0.333l-0.57-0.39
		l-0.42-0.181l-1.049-0.119l-0.479-0.208l-0.271-0.422l-0.72-2.129l-0.33-0.422l-0.451-0.06l-0.66,0.119l-1.528-0.119l-0.393,0.089
		l-0.238,1.112l0.179,1.709l-0.119,1.62l-1.141,0.779l-0.238-0.06l-0.422-0.298l-0.271-0.063l-0.298,0.092l-1.59,1.018l-0.122-0.208
		v-0.571l-0.359-0.659l-0.03-0.06l-0.778-1.351l-0.72-0.93l-0.812-0.72l-0.931-0.601l-1.888-0.871l-0.841-0.6l-2.28-3.538
		l-0.839-0.841l-0.181-0.241l-0.03-0.39l0.06-0.39l0.241-0.897l-0.06-1.563l-0.752-0.809l-2.099-1.02l-0.39-0.99l-0.33-1.23
		l-0.36-0.96l-0.48-0.27l-2.399,0.332l-0.689,0.298l-1.412,1.439l-0.72,0.54l-3.448,1.022l-1.712-0.272L557.754,231l-1.561,0.571
		l-3.96,2.339l-0.3,0.301l-0.211,0.33l-0.39,0.809l-0.211,0.3l-0.449,0.301l-0.541,0.06l-0.538-0.09l-0.511-0.208l-0.36-0.303
		l-0.06-0.328l0.06-0.361l-0.029-0.779l0.06-0.149l-0.06-0.089l-0.36-0.243l-0.211-0.09l-0.749-0.178l-0.66-0.481l-0.54-0.119
		l-0.479-0.301l-0.24-0.092h-0.301l-0.179,0.092l-0.48,0.479l-0.539,0.362l-0.57,0.237l-0.57,0.03l-0.541-0.268l-2.37-3.812
		l-0.689-0.33l-0.181-0.69l-0.66-0.36l-4.139-0.333l-2.25,0.273l-0.419,0.149l-0.33,0.271l-0.481,0.66l-0.271,0.271l-0.208,0.089
		h-0.452l-0.208,0.09l-0.39,0.481l-0.271,0.479l-0.33,0.39l-0.57,0.181l-0.512-0.029l-0.479-0.151l-0.481-0.238l-0.449-0.333
		l-0.508-0.598l-0.151-0.57l-0.03-0.66l-0.181-0.871l-0.328-0.63l-0.422-0.357l-0.508-0.181l-0.512-0.092l-0.809-0.327l-0.511-0.933
		l-1.139-4.528l-0.03-0.479l0.359-0.451l1.858-0.839l-0.568-0.719l-0.029-0.812l0.089-0.93l-0.21-1.05l-0.209-0.359l-0.271-0.241
		l-0.601-0.36l-0.33-0.33l-0.029-0.39l0.06-0.451l-0.06-0.541l-0.211-0.479l-0.479-0.66l-0.182-0.479l-0.029-0.571l0.06-0.481
		l-0.03-0.449l-0.3-0.509l-0.301-0.181l-0.567-0.121l-0.211-0.238l-0.06-0.36v-1.02l-0.092-0.422l1.319-0.268l0.333-0.333
		l0.208-0.66l-0.208-0.417l-0.422-0.243l-0.479-0.149l-0.811-0.06l-1.62,0.39l-0.809-0.06l-0.69-0.69l-0.481-1.26l-0.567-3.481
		l-0.182-0.538l-0.3-0.39l-0.449-0.181l-0.511,0.092l-0.479,0.208l-0.451,0.089l-0.449-0.298l-0.449-0.213l-0.359,0.032l-1.112,0.69
		l-1.949,0.841l-1.65,0.387l-1.739-0.119l-0.419-0.149l-0.33-0.33l-0.24-0.57l-0.119-0.598l-0.152-0.511l-0.329-0.362l-0.72-0.089
		l-1.531,0.271l-0.779-0.3l-1.709-0.601l-0.9-0.149l-0.841,0.208l-0.898,0.752l-0.422,0.181l-0.567-0.122l-1.713-0.75l1.383-0.96
		l0.959-1.02l0.599-1.29l-0.208-1.29l-0.482,0.271h-0.389l-0.42-0.089l-0.389-0.181l-0.36-0.241l-0.481-0.449l-0.24-0.33l-0.09-0.33
		l0.122-0.211l0.538-0.119l0.148-0.33l0.063-0.39l-0.063-0.332l-0.089-0.328l-0.029-0.392l0.06-0.36l0.211-0.689l0.059-0.39
		l-0.059-0.838l-0.182-0.66l-0.33-0.541l-0.99-1.141l-0.178-0.298l-0.092-0.362l-0.119-0.779l-0.09-0.271l-0.33-0.211l-0.841-0.238
		l-0.271-0.392l0.24-0.898l0.932-0.541l4.049-0.96l1.411,0.03l0.449-0.119l0.9-1.079l-0.029-1.59l-0.66-1.531l-0.931-0.931
		l-0.48-0.33l-0.779-0.898l-0.42-0.303h-0.27l-0.449,0.211l-0.271-0.119v-0.092l-0.092-0.538l-0.059-0.181l-0.149-0.149
		l-0.329-0.208l-0.152-0.122l-0.898-1.168l-0.48-0.362h-1.201v-0.328l0.182-0.57l-0.09-0.66l-0.511-0.811l-0.3-0.66l-0.149-0.749
		l-0.06-1.261l-0.092-0.66v-0.211l0.422-0.868v-0.452l-0.06-0.36l-0.151-0.36l-0.24-0.449l-0.391-0.63l-0.389-0.449l-1.531-1.052
		l-0.33-0.419l-0.6-1.32l-0.449-0.63l-0.99-0.63l-0.479-0.449l-0.363-0.69l-0.178-0.541l-0.271-0.36l-0.601-0.211l-1.079-0.03
		l-1.079,0.211l-2.102,0.99l-1.65,1.65l-0.508,0.06l-0.422-0.63l0.15-1.471l-0.448-0.66l-0.362,0.213l-0.33,0.298l-0.33,0.241
		l-0.419,0.03l-0.36-0.181l-0.66-0.479l-0.419-0.089h-1.53l-2.34-0.449l-0.33,0.06l-0.39,0.268l-0.601,0.782l-0.3,0.3l-0.449,0.179
		l-0.241,0.149l-0.27,0.541l-0.179,0.211l-0.211,0.06l-0.3-0.181l-0.211-0.03l-0.42,0.211l-2.459,2.19l-0.422,0.238l-0.419-0.06
		l-0.72-0.57l-0.389-0.208h-0.689l-1.412,0.36h-0.72l-4.709-2.489l-1.142,0.357l-2.068-0.779l-0.961,0.211l-0.33,1.32l0.119,0.419
		l0.451,0.809l0.09,0.332l-0.151,0.449l-0.268,0.241l-0.3,0.179l-0.241,0.241l-0.211,0.689l-0.298,2.34l-0.691,1.501l-1.051,0.841
		l-3.299,1.558l-0.449,0.03l-1.441-0.39l-0.869,0.092l-1.26,0.628l-0.39,0.092l-0.451-0.273l-0.089-0.598v-0.722l-0.119-0.63
		l-0.541-0.538l-0.779-0.151l-1.472,0.122l-2.729,0.151l-4.17-0.812h-2.191l-1.888,0.782l-0.511,0.598l-0.359,0.782l-0.391,0.66
		l-0.54,0.238l-0.571-0.208l-1.108-0.93l-0.571-0.33l-0.93-0.119l-3.271,0.208l-0.598,0.179l-0.36,0.422l0.149,0.66l-0.119,0.179
		l-0.06,0.181l-0.063,0.181l-0.089,0.208l0.69,0.089l0.27,0.541l-0.211,0.511l-0.63,0.03l-0.149-0.211l-0.15-0.06l-0.149,0.06
		l-0.21,0.151l-0.18,0.238l-0.059,0.241v0.3l-0.211,0.33l-0.271,0.3l-0.3,0.238l-0.33,0.213l-0.66,0.268v0.119l0.06,0.241
		l0.122,0.151v0.268l-0.33,0.452l-0.211,0.238l-0.208,0.092l-0.722-0.062l-0.179,0.062l-0.092,0.241v0.357l-0.06,0.333l-0.479,0.268
		l-0.151,0.243l-0.119,0.268l-0.119,0.119l-0.059,0.122l-0.511,0.689l-0.149,0.271l-0.092,0.119v0.149l0.181,0.362l0.03,0.6
		l-0.419,0.449l-0.541,0.36l-0.3,0.33l0.481,0.241l0.179,0.03v0.298l-0.271,0.303l-0.089,0.449l-0.029,0.479l-0.151,0.362
		l-0.268,0.119l-0.752,0.03l-0.3,0.089l0.151,0.511l-0.271,0.809l0.151,0.541l-0.181,0.149l-0.181,0.303l-0.119,0.089l0.06,0.149
		l0.089,0.36l-0.298,0.122l-0.692,0.63v0.268l0.452,0.392l0.208,0.119v0.238l-0.179,0.06l-0.089,0.062l-0.092,0.089l-0.119,0.092
		v0.238l0.271,0.362l0.779,0.238l0.39,0.208l-0.179,0.422l-0.122,0.179l-0.208,0.181l0.3,0.211l0.238,0.238l0.092,0.303
		l-0.151,0.298l0.122,0.452l0.179,0.298l0.211,0.151l0.241,0.122v0.268l-0.33-0.06l-0.271,0.089l-0.181,0.271l-0.06,0.479
		l0.089,0.451l0.181,0.089h0.241l0.298,0.211l0.122,0.241l0.241,1.079l0.119,0.211l0.181,0.238l0.03,0.181l-0.3,0.119l0.148,1.079
		l-0.66,0.69l-0.72,0.541l-0.06,0.571l-0.419,0.75l-0.062,0.089l-0.03,0.901l-0.119,0.241l-0.271,0.06l-0.179-0.36l-0.271-0.3
		l-0.3-0.208l-0.33-0.092l-0.33,0.032l-0.36-0.122l-0.541-0.811l-0.359-0.328l-0.33-0.092h-0.72l-0.359-0.119l-0.333-0.3
		l-0.72-0.931l-0.179-0.39l0.06-0.03l0.211-0.779l0.03-0.303v-0.387l-0.03-0.303l-0.062-0.238l-0.238-0.181l-0.3-0.3l-1.201-0.601
		l-0.33-0.357l-0.9-1.231l-0.66-0.511l-0.689-0.179l-3.33,0.089l-0.541,0.179l-1.439,0.749h-0.3l-0.389-0.268l-0.241-0.03
		l-0.3,0.208l-0.39,0.72l-0.241,0.273l-0.419,0.119l-2.161-0.362l-0.298-0.417l-0.211-0.571l-0.389-0.689l-0.422-0.303l-0.509-0.06
		l-0.541,0.089l-0.479,0.181l-0.481,0.449l-0.241,0.421l-0.36,0.419l-0.568,0.211l-0.63,0.06l-0.33,0.179l-0.24,0.451l-0.33,0.928
		l-0.36,0.63h-0.481l-1.049-0.419l-0.539,0.181l-0.93,0.809l-0.481,0.181l-0.538-0.3l-0.3-0.689l-0.211-0.841l-0.271-0.749
		l-0.479-0.571l-0.389-0.3l-0.151-0.419l0.211-0.99l-0.092-0.99l-0.268-0.63l-0.812-1.198l-0.508-1.382l-0.3-0.479l-0.571-0.362
		l-0.96-0.238l-0.479,0.03l-0.481,0.179l-0.479,0.481l-0.571,1.201l-0.449,0.509l-0.63,0.241h-1.471l-0.69,0.149l-0.749,0.421
		l-0.75,0.601l-0.66,0.809l-0.481,1.05l-0.06,0.63l0.06,1.442l-0.119,0.568l-0.422,0.479l-0.238-0.387l-0.181-0.719l-0.178-0.481
		l-0.3-0.03l-0.33,0.208l-0.33,0.151l-0.392-0.181l-0.238-0.39l-0.151-0.539l-0.36-2.131l-0.06-0.782l-0.211-0.509l-0.63-0.24
		l-2.128-0.449h-0.66l-0.63,0.211l-1.201,0.809l-0.63,0.601l-0.3,0.179l-0.298-0.119l-0.151-0.3l-0.271-1.049l-0.149-0.39l-0.3-0.33
		l-0.69-0.422l-0.3-0.297l-0.211-0.422l-0.03-0.36v-0.33l-0.089-0.389l-0.359-0.39l-0.481-0.03l-0.539,0.268l-0.511,0.451
		l-0.479,0.72l-0.782,1.469l-0.568,0.511l-0.452,0.181h-2.339l-0.449-0.122l-0.452-0.238l-1.439-1.561l-0.511-0.271l-0.538,0.089
		l-0.452,0.422l-0.298,0.63l-0.151,0.779v0.481l0.03,0.446l0.03,0.422l-0.119,0.511l-0.122,0.238l-1.109,1.501l-0.241,0.241
		l-0.39,0.06l-0.33-0.149l-0.39-0.303l-0.33-0.357l-0.151-0.303l0.782-1.92l0.179-0.958l-0.3-0.812l-0.39-0.211l-1.35-0.03
		l-2.58-1.049l-0.839-0.03l-0.452,0.241l-0.66,0.719l-0.509,0.271l-0.481,0.03l-1.409-0.241l-0.96,0.3l-0.509,0.062l-0.33-0.303
		l0.148-0.66l0.36-0.839l0.06-0.66l-0.689-0.179l-0.571,0.06l-0.479-0.06l-0.33-0.333l-0.181-0.749v-1.02l0.063-0.811l-0.151-0.601
		l-0.63-0.357l-0.99-0.21L321.66,177l-2.402,0.841l-1.588-0.271l-4.53-2.01l-5.25-0.178l-0.33-0.181l-0.3-0.419l-0.06-0.362
		l0.06-0.357v-0.27l-0.271-0.151l-5.55-0.238l-0.72-0.333l-1.531-1.379l-0.719-0.149l-1.65,0.06l-5.101-0.96l-2.01,0.389
		l-7.919-0.119l-4.019-1.079l-1.08,0.03l-1.082,0.36l-2.129,1.141l-6.691,1.077l-0.509-0.03l-1.471-0.357l-5.939,0.479l-0.509,0.181
		l-0.511,0.539l-0.868,1.29l-0.36,0.752l-0.571,2.518l-0.66,0.96l-2.699,1.861l-3.57,3.21l-0.96,0.149l-0.689-0.63l-0.66-0.809
		l-0.96-0.392l-0.601-0.06l-1.68-0.511h-0.541l-2.34,0.6l-0.3,0.151l-0.241,0.271l-0.3,0.509l-0.03,0.3l0.151,0.3l0.66,1.829
		l0.06,0.362l-0.119,0.601l-0.211,0.119l-0.211-0.178l0.03,0.238l0.151,0.541l0.63,0.238l0.419,0.151l0.33,0.241l-0.359,0.779
		l0.03,0.241l0.96,1.439l0.181,0.449l-0.271,0.122l-0.181,0.271l-0.03,0.389l0.151,0.509l-0.452,0.181l-0.419,0.449l-0.33,0.57
		l-0.119,0.511l0.149,0.809l0.36,0.211h0.449l0.392,0.271l1.32,2.908l0.539,0.66l1.201,0.781l1.139,1.139l0.271,0.451l-0.389,0.208
		l-0.089,0.362l0.359,0.75l0.63,0.96l0.211,0.509l0.268,1.59v0.241l-0.089,0.3l0.181,0.149l0.3,0.122l0.298,0.208l0.271,0.392
		l0.06,0.298l0.03,0.332l0.122,0.479l0.36,0.598l1.62,1.501l1.979,1.109l0.3,0.481l-0.3,0.66l-0.719,0.149h-0.782l-0.479,0.211
		l-0.63-0.36l-0.66,0.089L249,212.762l-0.3,0.66l0.03,0.719l0.362,0.481l0.568,0.268l0.66,0.089v0.24l-0.3,0.66l0.33,0.571
		l0.66,0.389l0.63,0.149l-0.149,0.871l0.179,0.781l0.601,1.469l-0.539,0.96l0.238,1.769l0.151,0.511l0.119,0.119l-0.03,0.089
		l-0.3,0.422l-0.449,0.479l-1.531,0.811l-0.06,0.449l0.03,0.722l-0.03,0.479l-0.122,0.39l-0.538,1.23l-1.26,0.541l-4.32,0.059
		l-0.811,0.269l-0.419,0.211l-0.33,0.33l-0.271,0.54l-0.33,1.05l-0.33,0.479l-1.891,2.04l-0.69,0.57l-1.29,0.992l-1.079,0.839
		l-5.461,5.91l-0.719,1.111l-0.869,0.689l-0.96,1.047l-2.58,3.812l-0.99,1.021l-0.122,0.298l-0.179,0.749l-0.122,0.273l-0.208,0.208
		l-0.422,0.149l-0.208,0.151l-0.241,0.271l-1.469,2.669l-0.392,0.42l-0.268,0.121l-0.511,0.119l-0.271,0.238l-0.179,0.332
		l-0.422,1.171l-1.798,2.427l-0.601,1.412l0.449,1.319l0.151,0.539l0.148,1.563l0.092,0.417l0.06,0.213l0.3,0.509l0.509,0.539
		l0.151,0.272l0.089,0.568l0.33,3.361l-0.089,0.539l-0.39,1.108l-0.33,1.29l-0.392,0.779l-0.119,0.451l0.149,0.179l0.122-0.089
		l0.33-0.39l0.36,0.271h-0.03l-0.089,0.029l0.779,0.541l0.69,0.928l0.449,0.333l1.082,0.601l0.3,0.357v0.303l-0.211,0.719
		l-0.03,0.479l0.089,0.33l0.39,0.659l0.092,0.179l-0.271,0.571l-0.481-0.209l-0.539-0.481l-0.421-0.208l-0.268-0.09l-0.452-0.63
		l-0.238-0.24l-0.271-0.032l-0.541,0.181l-0.871-0.06l-0.508,0.06l-0.511-0.06l-0.598-0.39l-0.9-0.989l-0.481-0.151l-0.509,0.48
		l-0.181,0.601l-0.179,0.839l-0.122,0.841v0.599l-0.36,0.332l-0.93,0.148l-0.419,0.33l-0.509,1.531l-0.3,0.63l-0.03,0.179v0.481
		l-0.062,0.208l-0.208,0.333l-0.571,0.479l-0.241,0.33l-0.149,0.449v0.271l0.03,0.3l0.06,1.229l-0.06,0.243l-0.181,0.417
		l-0.208,0.302l-0.21,0.179l-0.179,0.241l-0.092,0.479l0.03,0.779l-0.149,0.752l-0.3,0.66l-0.39,0.508l-0.3,0.182l-0.63,0.211
		l-0.3,0.208l-0.179,0.241l-0.241,0.57l-0.151,0.271l-1.558,1.26l-0.362,0.568l-0.06,0.723l0.27,1.438l-0.089,0.57l-0.27,0.571
		l-0.03,2.577l0.57,0.092h0.06l0.241-0.272l0.779-0.298l0.811,0.119l0.839,0.422l-0.36,1.079v0.568l0.66-0.03l0.181,0.03l0.179,0.3
		v0.36l-0.06,0.421l0.03,0.509l0.271,0.72l1.168,1.802l0.151,0.148l0.179,0.029l0.181-0.06l0.181-0.148l0.089-0.029h0.179
		l0.481,0.178l0.39,0.092l0.36-0.032l0.449-0.237h0.092l0.089,0.029l0.089,0.03l1.771,2.339l0.3,0.72l0.33,1.142l0.419,0.838
		l0.119,0.151h0.06l0.33-0.181h1.712l0.449-0.148l0.39-0.271l0.419-0.122l0.392,0.241l0.089,0.181l0.871,0.479l0.719,0.66l0.33,0.39
		l0.238,0.481l0.181,0.66l-0.089,0.359l-0.151,0.33l-0.03,0.57l-0.419,0.509l0.211,0.422l0.868,0.72l0.481-0.151l0.419-0.301
		l0.181-0.479l-0.241-0.749l0.208-0.422l0.359-0.03l0.422,0.211l0.36,0.271l0.39,0.238l0.39,0.122l0.389-0.06l1.022-0.812
		l0.33-0.601l0.539-1.649l0.481-0.72l0.479-0.241l0.541,0.092l1.65,0.568l0.419,0.301l0.99,1.171l1.142,0.96l0.538,0.63l0.181,0.06
		l0.179,0.03h0.181l0.179-0.06h0.122l1.561,0.778l0.479-0.029l0.181-0.119l0.149-0.181l0.119-0.209l0.122-0.24l0.238-0.211
		l0.271-0.09l0.9-0.181l0.449,0.151l1.531,0.179l0.99,0.33l0.571,0.062l1.65-0.092l0.39,0.211l1.23,1.139l0.149,0.541h0.511
		l2.399-0.99l0.749,0.03l0.392,0.3l1.198,0.33l0.481,0.211l0.869,0.839l0.421,0.089l0.03-0.029l1.409,0.541l0.511,0.029l1.68-0.868
		l1.168-0.032l0.931-0.809l0.541-0.301h0.449l1.35,0.33l1.35-0.029l0.452,0.119l1.109,0.659l0.601,0.481l0.36,0.479l0.151,0.57
		l0.03,0.481l0.119,0.449l0.419,0.479l0.812,0.511l1.92,0.75l0.33,0.3l0.3,0.419l0.809,1.441l0.57,0.869l0.449,0.3l2.821-0.479
		l1.499-0.66l0.993-0.96l2.31-3.841l1.02-0.72l11.728-1.26l1.561-0.631l1.26-0.148l0.72-0.33l0.39-0.09l1.141,0.119l1.528-0.448
		l2.31-0.032l1.142-0.509l0.241-0.36l0.538-1.23l0.3-0.39l0.63-0.54l0.3-0.33l0.36-0.75l0.39-1.108l0.241-1.142l-0.03-0.809
		l0.181-1.171l0.179,0.089l0.449,0.03l0.452-0.119l0.779-0.39l0.389-0.122l1.142-0.06l0.389-0.089l3-0.66l0.72-0.359l0.032-0.301
		l0.089-0.449l0.271-0.421l0.779-0.509l0.119-0.481l0.151-0.301l0.479,0.182l0.33,0.359l0.27,0.449l0.3,0.393l0.449,0.208
		l0.481-0.029l0.271-0.241l0.089-0.479v-0.69l-0.119-0.689l-0.151-0.422l-0.03-0.33l0.24-0.359h0.149l0.39,0.151h0.181l0.211-0.211
		l0.06-0.268l0.089-0.211l0.271-0.092l0.779,0.362l0.782,0.659l0.838,0.509l0.901-0.148l0.24-0.241l0.179,0.03l0.151,0.089
		l0.268-0.029l0.3,0.06l0.122-0.09l-0.03-0.179l-0.092-0.211l-0.03-0.15v-0.238l-0.06-0.301l0.03-0.271l0.271-0.089l0.241,0.089
		l0.508,0.301l2.551,0.96l0.779,0.029l0.901-0.48l1.441-1.799l0.868-0.449l0.452,0.119l0.689,0.63l0.33,0.119l0.39-0.208
		l1.439-1.231l0.541-0.749h0.99l0.271-0.06l0.63-0.422l0.509,0.06l0.06,0.931l0.481,0.24l2.97-0.029l0.809,0.39l1.531,1.139
		l0.36,0.303l0.75,1.139l0.181,0.179l0.541,0.812l0.96,0.39l2.128,0.27l0.481,0.241l0.39,0.449l0.119,0.63l-0.479,1.409l0.33,0.271
		l0.538,0.03l0.362-0.09l0.75-0.63l0.39-0.06l0.181,0.601l0.089,0.689l0.241,0.419l0.39,0.119l0.571-0.119l0.508-0.3l0.39-0.33
		l0.39-0.271l1.111-0.119l0.419,0.06l0.241,0.3l0.06,0.69l-0.181,0.719l-0.268,0.33l-0.33,0.211l-0.362,0.449l-0.149,0.512
		l0.06,0.508l0.271,0.301l0.511-0.09l0.36-0.419l0.208-0.541l0.3-0.419l0.541-0.09l0.36,0.269l0.241,0.481l-0.03,0.538l-0.39,0.451
		l0.689,1.409l0.298,0.301l0.481,0.33l0.241-0.03l0.089-0.33v-0.601l0.179-0.749l0.451-1.29l0.539-0.24l0.782,0.029l2.19,0.9
		l1.65,0.03l0.869,0.151l0.66,0.449l0.151,0.271l0.06,0.27l0.03,0.238l0.06,0.241l0.39,0.93l0.181,0.961l0.03,0.211l0.148,0.238
		l0.392,0.359l0.63,1.111l0.779,0.839l0.841,0.66l0.719,0.3l0.869-0.179l1.052-1.382l0.75-0.359h0.419l0.33,0.121l0.3,0.271
		l0.271,0.449l0.179,0.541l0.211,1.228l0.181,0.512l0.33,0.271l0.928,0.3l0.241,0.179l-0.089,0.481l-0.36,0.509l-0.452,0.48
		l-0.298,0.39l-0.211,0.631v0.389l0.241,0.241l0.809,0.3l0.3,0.269l0.089,0.392l-0.27,0.449l-0.72,0.931l-0.119,1.108l0.03,1.261
		l-0.241,1.319l-0.63,1.08l-0.598,0.811l-0.3,0.931l0.3,1.409l0.208,0.449l0.36,1.05l0.211,0.362l0.419,0.329l0.181-0.181
		l0.238-0.39l0.392-0.181l0.36,0.181l0.419,0.749l0.72,0.479l0.181,0.362l0.119,0.419l0.211,0.359l0.359,0.211l0.36,0.09l0.36,0.148
		l0.3,0.452l0.119,0.538v0.511l0.06,0.512l0.33,0.538l0.33,0.3l0.362,0.182l0.39,0.029l0.389-0.121l0.419-0.39l0.33-0.449
		l0.122-0.541l0.238-0.541l0.481-0.06l0.479,0.03l0.452,0.181l0.39,0.36l0.33,0.601l0.211,0.809l0.03,0.812l-0.271,0.598l-0.6,0.3
		l-0.089,0.752l0.238,1.828l-0.149,0.871l-0.33,0.42l-0.511,0.151l-0.66,0.059l-0.06,0.09v0.24l0.06,0.119l0.722,1.38l0.208,0.211
		l0.271-0.211l0.211-0.449l0.268-0.39l0.451-0.029l0.33,0.208l0.271,0.362l0.179,0.479l0.03,0.541l-0.179,0.479l-0.3,0.329
		l-0.271,0.39l-0.178,1.29l-0.122,0.541l-0.03,0.449l0.21,0.39l0.149,0.032l0.601-0.063l0.211,0.122l0.36,0.419l0.208,0.182
		l0.392,0.148l0.779,0.06l0.359,0.151l0.39,0.39l0.541,0.9l0.449,0.33l0.751,0.119l0.69-0.06l0.689,0.09l0.69,0.57l0.119,0.24
		l0.181,0.631l0.119,0.179l0.21,0.029l0.208-0.148l0.241-0.092l0.271,0.151l0.06,0.24v0.749l0.03,0.33l0.092,0.241l0.268,0.508
		l0.122,0.271l0.03,0.631l-0.211,2.16l-0.089,0.39l-0.119,0.33l-0.092,0.33v0.449l0.092,0.359l0.298,0.72l0.062,0.33l-0.271,0.752
		l-0.541,0.089l-0.419,0.03l0.089,0.778l0.33,0.422l1.049,0.449l0.03,0.09l0.122,0.33l0.089,0.062l0.151-0.062l0.298-0.179h0.151
		l0.181,0.148l0.149,0.211l0.3,0.601l-0.181,0.3l1.082,0.868l0.39,0.481l0.241-0.211l0.359-0.06l0.39,0.06l0.33,0.211l-0.571,1.05
		l-0.63,0.601l-1.05,0.181l-2.821-0.181l-0.39,0.089l-0.419,0.241l-0.901,0.778l-0.479,0.063l-0.481-0.541l-0.06-0.24v-0.66
		l-0.03-0.33l-0.122-0.3l-0.509-0.779l-1.26-1.201l-0.3-0.538v0.958l-0.271,0.511l-0.479,0.181h-0.66l-0.149,0.209l0.119,0.841
		l-0.181,0.568l-0.33,0.332l-0.389,0.149l-0.419-0.03l-0.36-0.211l-0.33-0.449l-0.33-0.749l-0.36-0.3l-0.333-0.122l-0.749-0.148
		l-0.36-0.151l-0.149-0.238l-0.03-0.271l0.03-0.271l0.149-0.271l0.122-0.238l0.06-0.24l-0.03-0.241l-0.122-0.211l-0.571-0.089
		l-0.509,0.271l-0.449,0.511l-1.052,1.588h-0.3l-0.419-0.63l-0.571-1.198l-0.33-0.122l-0.419,0.723l-0.089,0.419l0.119,0.689v0.301
		l-0.179,0.449l-0.122,0.06l-0.179-0.06l-0.3,0.089l-0.871,0.96l-0.539,0.33l-0.422-0.33v-0.359l0.151-0.33l0.208-0.33l0.151-0.33
		l0.06-0.419l-0.03-2.91l-0.151-0.75l-0.39-0.48h-0.508l-2.102,1.2l-1.29,0.479l-1.769,1.2l-0.479,0.749l-0.151,0.961l0.181,1.26
		l0.419,1.65l0.03,0.541l-0.149,0.63l-0.181,0.509v0.481l0.419,0.538l1.412,1.319l0.119,0.752l-0.271,0.809l-0.541,0.931
		l-0.809,0.931l-0.181,0.541l0.062,0.838l0.419,1.502l-0.06,0.689l-0.601,0.271l-4.17,1.079l-0.419,0.271l-0.271,0.509v0.57
		l0.33,1.201l0.089,0.63l-0.03,0.689l-0.149,0.449l-0.3,0.3l-0.449,0.271l-0.69,0.149l-0.181,0.151v0.208l0.06,0.301l0.03,0.359
		l-0.089,0.33l-0.63,0.362l-1.59,0.148l-0.389,0.63l0.181,0.631l-0.151,0.271l-0.69,0.208l-0.419,0.271l-0.27,0.271l-0.541,0.839
		l-0.179,0.392l0.208,0.238l0.36,0.211l0.3,0.33l0.151,0.481l0.03,0.479l0.089,0.479l0.33,0.452l-0.63,0.3l-0.148,0.119
		l-0.151,0.301v0.089l0.062,0.06l0.149,1.142l-0.119,0.389l-0.511,0.241l-1.531-0.06l-1.799-0.481l-1.709-0.119l-1.26,0.96
		l-0.211,0.39l-0.179,0.42l-0.06,0.24l0.328,0.39l0.601-0.06l0.689,0.39l0.452,0.63l-0.122,0.66l0.692,1.831l0.479,0.838l0.541,0.36
		l0.39,0.121l0.838,0.479l2.131,0.541l1.98,1.049l3.181,0.72l0.898-0.119l0.752-0.029l0.297-0.122l0.271-0.3l-0.66-0.301
		l-0.178-0.148l-0.122-0.241l-0.06-0.3l0.06-0.271l0.689-0.33l-0.03-0.509l0.03-0.481l0.63-0.148l0.36,0.119l0.63,0.451l0.541,0.09
		l0.3,0.211l0.389,0.419l0.481,0.271l0.539-0.211l0.122-0.24l0.06-0.66l0.149-0.301l0.181-0.119l0.208-0.06l0.541-0.029l0.33-0.181
		l1.23-1.021l1.02-0.3l0.419-0.179l0.33-0.359l0.181-0.092l0.57-0.03l0.119-0.089l0.089-0.241l0.211-0.238l0.36-0.3l0.511-0.271
		l0.389-0.029l0.39,0.089h0.509l0.211-0.089l0.211-0.151l0.178-0.179l0.151-0.182l0.208-0.148l0.271,0.06l0.271,0.148l0.241,0.063
		l1.829,0.179l3.332,1.2l1.109,0.99l0.271,0.148l0.538,0.512l0.392,1.168l0.119,1.32l-0.3,0.96l0.149,0.211l0.032,0.241
		l-0.062,0.237l-0.119,0.241l0.36,0.089l0.419-0.119l0.392-0.211l0.449-0.448l0.03-0.03l-0.03-0.06l-0.03-0.271l0.06-0.359
		l0.271-0.812l0.03-0.268l0.181-0.481l0.089-0.301l0.03-0.3l-0.06-1.439l-0.092-0.719l-0.179-0.631l-0.33-0.359l0.479,0.029
		l0.241-0.419l-0.03-0.66l-0.181-0.541l-0.36-0.419l-0.179,0.269l-0.122,0.57l-0.149,0.511l-0.119-0.57l-0.151-0.119l-0.179,0.029
		l-0.181-0.062v0.121l-0.119,0.119l-0.151,0.03l-0.06-0.149v-0.781l-0.39,0.092l-0.06,0.33l0.03,0.419l-0.092,0.301l-0.268,0.029
		l-0.27-0.181l-0.211-0.269l-0.36-0.811v-0.301l0.36-0.119l0.151-0.151l0.119-0.327l0.148-0.332l0.241-0.149l0.33-0.271l0.782-1.23
		l0.3-0.39l-0.63,0.63l-0.362,0.241l-0.449,0.089l-0.449-0.029l-0.33-0.119l-0.601-0.3l0.211-1.531l-0.062-1.649l0.151-1.351
		l0.809-0.63l-0.178-0.39l-0.122-0.24l-0.06-0.271l0.03-0.509l0.122-0.422l0.449-0.598l0.089-0.271l-0.089-0.151l-0.33-0.449
		l-0.089-0.24l0.06-0.271l0.119-0.179l0.122-0.03l0.119,0.301l0.151,0.148l0.509,0.42l0.089,0.032l0.062,0.06l0.149,0.208
		l0.181,0.392l-0.032,0.209l-0.149,0.271l-0.149,0.541l0.149,1.62l-0.06,0.238l0.541,0.3l0.449,0.72l0.271,0.93l-0.03,0.901
		l0.3-0.271l0.66-0.241l0.36-0.208l-0.122-0.271v-0.09l0.06-0.06l0.062-0.21l0.479,0.24l0.419-0.211l0.359-0.33l0.422-0.181
		l0.119-0.119l-0.179-0.241l-0.362-0.359l-0.627-0.241l-0.333-0.208l-0.179-0.451l0.149-0.69l0.511-0.359l0.66-0.119h0.541
		l0.06-0.06l0.06-0.151l0.06-0.148l0.151-0.06l0.208,0.06l0.03,0.119l-0.03,0.151l0.059,0.119l0.511,0.359l0.181,0.24l0.119,0.33
		l0.149-0.93l-0.208-0.271l-0.181-0.36l-0.119-0.449l0.03-0.57l0.179-0.479l0.211-0.092l0.089,0.211l-0.149,0.359v0.241l0.241,0.3
		l0.238,0.39l0.122-0.779l0.06-0.841l0.178-0.689l0.541-0.271l0.571,0.24l1.109,0.898l0.211-0.119l0.06-0.149l0.149,0.06
		l0.151,0.119l0.06,0.06l0.181-0.029l0.03-0.119v-0.182l0.089-0.238l0.03-0.21l0.089-0.901l0.122-0.39l0.179-0.329l0.211-0.241
		l0.179,0.06l0.151,1.92l-0.06,0.452l1.561-1.261l1.35-1.35l2.64-3.511l2.94-2.82l0.208-0.479l0.481-1.35l0.208-0.271l0.392-0.211
		l0.33-0.479l0.508-0.99l1.68-2.369l0.69-1.382l0.122-0.33v-0.39l-0.181-0.271l-0.539-0.359l-0.122-0.179l0.3-0.451l1.29,0.092
		l0.39-0.36l0.99-1.319l0.062-0.151l0.208-1.05l0.089-0.211l0.092-0.148l0.06-0.06l0.119-0.092l-0.119-0.209l-0.181-0.181h-0.089
		l-0.181-0.689l-0.389-0.871l-0.089-0.449l0.148-0.3l0.722-0.99l0.3-0.271h0.238l0.99,0.24l0.3-0.089l1.41-0.99l0.332-0.121
		l0.268,0.121l0.211,0.03l0.57-0.481l0.209-0.149l0.541-0.06l0.99-0.329l1.289-0.182l1.23-0.39h0.66l1.65,0.449l0.449,0.33
		l0.182-0.271l0.299,0.211l0.66,0.089l0.33,0.182l0.33-0.271l1.05-0.57l0.479-0.119l0.299-0.301l0.813-1.29l0.359-0.3l0.029-0.119
		l0.449-0.689l0.182-0.449l-0.092-0.241l-0.75-0.601l-0.208-0.118l-0.151-0.211l-0.06-0.512l-0.03-0.208l-0.27-0.871l0.359,0.151
		l0.271,0.449l0.36,0.871l0.329,0.268l0.3,0.211l0.271-0.09l0.089-0.089l0.03-0.121l0.451-0.72l0.148-0.182l0.179-0.119l0.452-0.181
		l0.178-0.149l0.182-0.419l0.148-0.511l0.211-0.209l0.301,0.449l-1.109,1.65l-0.301,0.271v0.329l-0.329,0.75l-1.32,2.221l-0.24,0.6
		l0.089,0.479l0.182,0.121l0.27,0.03l0.51-0.03l0.211,0.06l0.33,0.33l0.178,0.119l0.541-0.089l0.24-0.42l0.18-0.481l0.422-0.208
		l1.438-0.122l2.31,0.901l1.02,0.148l1.05-0.208l0.271-0.151l0.541-0.36l0.178-0.211l0.211-0.448l-0.029-0.211l-0.119-0.269
		l-0.063-0.601l0.182-1.53l-0.09-0.241l-0.9-1.198v-0.93l0.301-0.75l0.508-0.511l0.571-0.179l0.541-0.392l0.419-0.929l0.211-1.021
		l-0.092-0.749l-0.508,0.3l-0.541,0.181l-0.42-0.121l-0.211-0.601l0.121-0.568l0.33-0.541l0.69-0.811l-0.782-0.149l-1.078,0.149
		l-0.75-0.33l0.179-1.588l0.181-0.241l0.33-0.57l0.182-0.57l-0.301-0.269l-0.121-0.062l-0.119-0.149l-0.182-0.181l-0.598-0.148
		l-0.121-0.182l0.029-2.039l-0.24-0.42l-1.05-0.271l-0.479-0.3l-0.36-0.39l-0.15-0.39l0.059-0.181l0.33-0.63l0.092-0.119
		l0.238,0.119l0.03,0.27l-0.119,0.69l0.211,0.419l1.469,0.722l0.329,0.36l0.09,0.271v0.359l0.063,0.66l0.178,0.538l0.241,0.151
		l0.3,0.09l0.33,0.3l0.359,0.9l-0.089,0.839l-0.659,1.471l0.359,0.39l0.449,0.06l1.049-0.179l0.66,0.09l0.151,0.24l-0.181,0.36
		l-0.72,1.079l-0.089,0.449l0.24,0.3l1.198,0.211l0.241,0.359l0.029,0.512l-0.119,0.689l-0.512,1.229l-0.63,1.02l-0.448,1.081
		l0.089,1.439l0.241,0.601l0.27,0.479l0.209,0.512l0.092,0.659l0.119,0.571l0.3,0.689l0.39,0.601l0.33,0.39l0.389,0.179l1.472,0.3
		l0.39,0.271l0.33,1.26l0.33,0.36l0.57-0.72l0.238-0.029l0.481-0.182l0.271-0.029l0.238-0.119l0.392-0.481l0.269-0.09l0.121,0.09
		l0.359,0.601l1.591,0.87l1.739-0.24l3.211-1.831l0.57,0.121l0.66-0.329l0.627-0.481l0.57-0.269l-0.27,0.568l-0.33,0.33
		l-0.359,0.271l-0.36,0.39l-0.419,0.271l-1.111,0.121l-0.449,0.298l-1.68,1.412l-0.66,0.897l0.451,0.631l-0.662,0.691l-0.928,0.39
		l-1.02,0.09l-0.992-0.241l-1.288-0.838l-2.61-0.601h-0.481l-1.38,0.24l-2.039-0.451h-2.041l-0.33-0.119l-1.38-0.841l-0.809-0.238
		l-4.171,0.327l-0.359-0.179l-0.631-0.689l-0.752-0.601l0.393,0.809l2.789,2.851l0.33,0.119l0.181,0.211l0.538,1.441l-0.029-1.081
		l0.029-0.33l0.092-0.271l0.148-0.179l0.33-0.39l0.391-0.181l0.541,0.029l0.54,0.151l3.329,1.38l1.05,0.179l0.901-0.09l0.389,0.151
		l1.08,1.469l0.211,0.42l-0.182,0.121h-0.33l-0.301,0.06l-1.258,1.171l-0.211,0.149l-1.801,0.329l-1.32-0.3l-0.508,0.06l-0.39,0.181
		l-0.481,0.36l-0.301,0.479l0.122,0.541l0.33,0.359l0.36,0.241l0.419,0.148l1.501,0.063l0.179-0.151l-0.06-0.39l-0.09-0.449
		l0.119-0.422l1.98,1.531l1.201,0.63l0.748-0.3l0.66,0.57l0.9,1.198l0.301,0.182l0.33,0.06l1.079,0.389l0.601,0.122l0.63-0.063
		l0.72-0.33l-0.06,0.33l-0.149,0.211l-0.451,0.42l0.121,0.211l0.09,0.479l0.09,0.271l0.029,0.151l0.06,0.449l0.03,0.089l0.121,0.063
		l0.301-0.032l0.537,0.362l4.801,1.379l0.961-0.151l0.179-0.119l0.392-0.419l0.238-0.182l0.24-0.089l3-0.541l0.9-0.449l0.359-0.089
		l0.571,0.06l1.29,0.449l0.209,0.029l0.541-0.029l0.181,0.029l0.208,0.151l0.182,0.03h0.33l2.518-0.422l0.332-0.449l-0.211-0.99
		l1.41,0.689l0.511,0.36l0.238,0.089h0.241l0.3-0.148l0.181-0.03l0.75-0.39l0.479-0.87l0.393-0.961l0.537-0.6l-0.238,2.401
		l-0.092,0.419l-0.178,0.449l1.888-0.271l0.541,0.182l0.06,0.39l-0.268,0.48l-0.393,0.39l0.151,0.03h0.119l0.122,0.029l0.119,0.182
		l0.479-0.692l0.63,0.121l0.63,0.571l0.72,1.02l0.211,0.179h1.469l0.511,0.211h0.241l-0.481-0.72l0.24-0.422l0.602-0.179
		l0.629-0.029v-0.271l-0.629-0.42l0.029-0.511l0.419-0.509l0.511-0.451l0.602-0.209l0.389,0.36l0.72,1.379l0.119,0.539l-0.208,0.392
		l-0.271,0.359l0.03,0.39l0.3,1.172l0.03,0.237l-0.179,0.301l-0.121,0.33l0.029,0.271l0.271,0.119l-0.06,0.151l-0.211,0.389
		l-0.449,0.601l0.301,0.211l0.178-0.092l0.182-0.208l0.271-0.122l0.599-0.06l1.352,0.36l0.449,0.24l0.419,0.39l-0.419,0.24
		l-0.809,0.209l-0.393,0.211l-0.359-0.149l-0.061,0.631l0.061,0.809l-0.03,0.39l-0.509,0.089l-0.27-0.029l-0.122-0.179l-0.089-0.211
		l-0.211-0.179l-0.269-0.122l-0.24-0.06l-0.241,0.03l-0.27,0.121l-0.479,0.33l-0.57,0.72l-0.571,0.179l-0.238,0.03l-0.3-0.06
		l-0.452-0.33l-0.178-0.06l-0.359,0.151l-0.99,0.659l-0.359,0.149l-0.723,0.809l-0.119,0.211l-0.871,0.359l-1.738,1.082l-0.84,0.09
		l-0.84-0.481l-0.391-0.509l-0.211-0.151l-0.208,0.181l-0.032,0.33l0.182,0.209l0.24,0.121l0.119,0.119l-0.119,0.422l-0.301,0.238
		l-5.43,2.521l-1.621,1.109l-0.719,0.752l-0.18,0.237l-0.092,0.182l-0.059,0.3l0.029,0.271l0.092,0.33l-0.032,0.269l-0.329,0.121
		l-0.269-0.029l-0.452-0.182l-0.24-0.029l-0.359,0.06l-0.179,0.181l-0.151,0.24l-0.209,0.238l-0.33,0.271l-0.359,0.211l-0.451,0.149
		l-0.57,0.06l-0.449,0.121l-2.821,2.158l-0.72,0.752l-0.33,0.898l0.092,0.481l0.66,1.828l0.539,0.092l0.84,0.419l0.51,0.179h1.711
		l0.36-0.208l0.839-0.9l0.389-0.271l0.512-0.09l3.57,0.301l0.99,0.39l0.87,0.57l1.528,1.35l0.211,0.119l0.42,0.181l0.211,0.149
		l0.27,0.511l0.209,0.301l0.6,0.359l0.842,1.05l0.359,0.33l1.079,0.3l0.511,0.271l0.209,0.479l0.24,0.33l0.541-0.148l0.839-0.512
		l0.9-0.33l0.99-0.148l0.419,0.179l1.32,1.201l1.65,1.049l0.6,0.782l0.39,1.379l0.092,0.871l0.089,0.3l0.42,0.839l0.06,0.211
		l0.092,0.538l0.268,1.32v0.781l-0.089,0.66l-0.148,0.568l-0.271,0.422l-0.93,0.329l-0.33,0.42l-0.211,0.601l-0.148,0.689
		l-0.061,0.179l-0.092,0.121l-0.178,0.149l0.208,0.422l0.122,0.508l0.148,0.931l0.24,0.689l0.03,0.36l-0.089,0.541l-0.211,0.359
		l-0.301,0.359l-0.209,0.42l0.03,0.511l0.208,0.179l0.781,0.151l0.33,0.119l-0.48,0.211l-1.229,0.029l-0.332,0.119l-0.179,0.122
		l-0.271,0.029l-0.509-0.029l-0.211,0.06l-0.541,0.39l-0.208,0.089l-0.723,0.151l-0.089-0.089l0.03,0.39l0.181,0.389l2.55,1.799
		l0.301,0.33l0.42,0.33l0.508-0.029l0.512-0.149l0.419-0.029l0.271,0.24l0.719,0.928l0.152,0.301l0.148,0.63l0.33,0.3l1.801,0.842
		l0.479,0.119l1.591,0.029l0.27-0.029l0.479-0.149h0.301l1.501,0.598l0.538,0.093l0.481-0.06l2.581-1.231l0.537-0.089l0.33-0.122
		l0.813-0.57l0.27-0.268l0.33-0.571l0.209-0.511l0.3-0.359l1.142-0.241l0.3-0.238l0.509-0.811l0.06-0.119v-0.211l0.122-0.119
		l0.029-0.09l0.27,0.03h0.33l0.539,0.06l0.211-0.06l0.24-0.422l0.931-2.429l0.809-1.409l0.241-0.301l0.119-0.24l0.96-1.35h0.089
		l0.03,0.029v0.09l0.029,0.092l0.601-0.631l0.781-0.33l1.921-0.421l0.897-0.39l1.68-1.139l0.871-0.33l1.65,0.3l0.389-0.181
		l0.33-0.241l0.781,0.182l0.42-0.09l0.182-0.151l0.148-0.211l0.182-0.179l0.268-0.151l0.24-0.029l0.812,0.029l0.479,0.182
		l0.301,0.419l0.211,0.452l0.238,0.359l1.02,0.148l0.659-1.049l0.512-1.469l0.601-1.082l0.419-0.211l1.02-0.238l0.42-0.39
		l0.54-1.111l0.42-0.3l0.601,0.359l0.151-0.148l0.237-0.182l0.092-0.148l1.14,0.9l-0.149-1.02l0.03-0.452l0.271-0.389l0.359-0.151
		l0.779,0.062l0.33-0.151v-0.208l-0.69-0.301l-0.148-0.151l-0.092-0.33l0.06-0.27l0.121-0.269l0.06-0.392l0.211-0.269l1.258-1.021
		l0.871-0.42l0.99-0.208h1.049l1.022,0.179l1.739,0.689l1.561,0.99l0.268,0.271l0.723,0.87l0.148,0.33l0.211,0.75l0.479,0.24
		l1.65-0.3l1.831,0.119l0.359-0.39l0.42-0.779l0.54-0.541l0.75,0.33v-0.24l1.35,0.841l2.131,0.479l0.479-0.119l0.09-0.181
		l0.151-0.568l0.089-0.211l0.241-0.151l0.271-0.06l2.128-0.089l1.71-0.631l0.33-0.3l0.062-0.509l-0.3-0.511l-0.66-0.72l-0.151-0.72
		v-0.72l0.211-1.979l0.179-0.722l0.271-0.69l0.3-0.448l0.211-0.09l0.539-0.029l0.211-0.122l0.148-0.298l-0.06-0.151l-0.148-0.148
		l-0.092-0.241l0.121-0.689l0.33-0.359l0.449-0.122l0.57,0.092l0.72,0.39l0.271,0.09h0.3l0.779-0.211l0.181-0.36l-0.181-0.778
		l-0.419-1.172l-0.36-0.419l-0.359-0.211l-0.39,0.092l-0.422,0.449l-0.359,0.119l-0.39-0.359l-0.601-0.779l-0.479-0.09l-1.412,0.33
		l-0.479-0.121l-0.749-0.509l-0.452-0.092l-0.268,0.092l-0.211,0.208l-0.211,0.182h-0.301l0.211-0.601l-0.181-0.419l-0.39-0.122
		l-0.39,0.33l-0.3,0.3l-2.729-0.029l-0.481,0.181l-0.508,0.509l-0.66,0.422l-0.09,0.149l-0.33,1.02l-0.722,0.93l-0.868,0.182
		l-0.931-0.33l-1.801-1.082l-0.42-0.33l-0.179-0.419l0.119-0.601l0.182-0.541l-0.063-0.329l-0.567-0.06l-0.393,0.24l-0.33,0.511
		l-0.208,0.628l-0.092,0.63l-0.06,0.151l-0.36,0.509l-0.119,0.122l-0.329,0.089l-0.122,0.211l-0.029,0.3l-0.09,0.33l-0.66,0.69
		l-0.508,0.33l-4.23,1.168l-0.9-0.089l-3.541-2.491l-6.87-10.14l-2.068-4.079l-1.261-3.389l-0.24-0.422l-0.271-0.39l-0.208-0.449
		l-0.87-4.171l-0.211-0.538l-0.119-0.511l-0.119-2.191l-0.152-0.568l-0.029-0.27l0.029-0.36l0.122-0.33l0.419-0.57l0.09-0.151
		l1.02-0.479l0.06-0.33l0.032-0.39l0.179-0.301l0.271-0.15l0.06,0.15l0.03,0.238l0.15,0.211l0.301,0.09h0.238l2.25-0.568l1.05-0.66
		l0.811-0.931l1.41-2.19l0.811-0.839l0.179-0.392l0.122-0.538l-0.092-0.301l-0.119-0.271l-0.09-0.448l-0.24-0.512l-0.419-0.63
		l-0.182-0.689l0.511-0.66l0.06,0.63l0.241,0.63l0.298,0.479l0.362,0.24l0.297,0.301l0.182,0.119l0.24,0.062l0.39,0.03l0.179,0.06
		l-0.479,1.29l-0.151,0.93l0.211,0.779l0.57,0.509l0.479-0.03l0.422-0.359l0.42-0.449l-0.09,0.871l-0.33,0.568l-0.87,0.9l-0.69,1.23
		l-0.24,0.601l-0.57,0.63l-0.66,1.32l-1.229,0.66l-2.491,0.749l0.119,0.33l0.063,0.148l-0.841,0.541l-0.75,0.871l-0.092,0.33
		l0.422,0.148l0.898-0.449l0.57-0.419l0.812-0.182l0.568-0.479l0.96-0.332l0.57-0.599l0.601-0.841l1.261-2.58l0.509-0.601
		l2.279-3.749l0.36-0.359l0.841-0.57l0.359-0.36l0.72-1.02l0.36-0.419l0.451-0.33l2.818-1.441l0.781-0.72l1.921-2.25l0.719-0.571
		l1.32-0.749l1.77-1.02l0.57,0.029l3.27-0.63l1.71,0.241l0.9-0.211h0.419l0.512,0.211l0.148,0.148l0.122,0.151l0.208,0.419
		l0.06,0.06l0.271,0.182v0.179l-0.03,0.211l-0.06,0.148l0.119,0.332l0.03-0.062l0.032-0.208l0.238-0.092l0.24-0.149l0.09,0.119
		v0.511h0.181l0.149-1.02l0.451-0.781l1.62-1.709l0.689-0.539l0.779-0.362l1.201-0.238l0.989-0.6h1.559l0.181-0.119l0.211-0.241
		l0.269-0.24l0.392-0.119l0.66,0.208l0.419,0.03l0.39-0.238l0.33,0.238l0.779,0.271l0.362,0.211l0.868,1.02l0.211,0.148v0.63
		l-0.301,1.231l-0.449,0.96l-0.48-0.211h-0.179v0.271l0.598,0.181l0.601-0.57l0.451-0.931l0.179-0.931l0.241-0.838l0.448-0.782
		l0.33-0.778l-0.208-0.809l0.779-0.122l1.26-1.23l0.839-0.298l0.271-0.151l0.781-0.66l0.269-0.148l0.421-0.063l2.759-1.079
		l1.112-0.868l0.449-0.122l0.809,0.151l0.841,0.42l0.541,0.689l-0.092,0.871l0.541-0.241l0.39-0.57l0.63-1.23l2.521-3.57
		l1.499-1.588l0.811-0.3l3.089,0.567l1.021-0.029l2.58-0.928l2.131,0.359l0.268-0.151l0.601,0.151l0.931,0.36l0.211-0.09l0.63-0.362
		l0.119-0.119l0.119-0.06l0.781,0.631l0.601,0.237v0.571l-0.541,1.111l0.812-0.392l1.288-1.799l0.481-0.481l-0.39-0.898
		l-0.122-1.111l0.151-1.05l0.449-0.809l0.449-0.3l0.541-0.271l0.511-0.33l0.33-0.512l0.06-0.719l-0.211-0.39l-0.39-0.182
		l-0.419-0.029l-0.9,0.151l-0.449-0.06l-0.301-0.359l0.06-0.571l0.301-0.63l0.719-0.99l0.601-1.079l0.149-0.99l-0.09-2.521
		l0.33-1.23l0.449-1.23l0.601-1.02l0.812-0.571l5.009-0.689l0.601-0.268l0.449-0.393l0.9-1.02l0.449-0.33l0.359-0.06l0.841,0.33
		l0.512-0.06l0.238-0.57l0.211-1.469l0.419-1.62l0.601-1.382l0.811-1.02l1.109-0.449l3.87,0.148l1.29,0.871l0.479,0.119l0.481-0.03
		l0.96-0.268l3.57-0.121l0.479,0.089l0.809,0.541l0.422,0.211l0.538-0.03l1.022-0.3l0.538,0.179l0.69,0.121l1.441-0.3l0.72,0.06
		l2.398,0.63l0.782-0.151l0.598-0.598l0.392-0.9l0.179-1.02l-0.029-0.241l-0.119-0.479v-0.241l0.06-0.33l0.24-0.54l0.09-0.271
		l0.06-0.539l-0.03-0.359l-0.33-0.781l-0.24-0.39l-0.179-0.211l-0.063-0.179l0.211-0.33l0.271-0.181l1.32-0.238l0.148,0.029
		l0.063-0.062l0.029-0.33l-0.362-1.109l0.063-0.841l0.3-0.689l1.198-2.248l0.452-0.541l1.139-0.871l0.419-0.479l0.301-0.66
		l0.06-0.689l-0.36-0.601l-0.509-0.121l-1.26,0.451l-0.481,0.06l-1.65-1.05l1.62-1.379l0.422-0.541l0.539-0.541l-0.238-0.298
		l-0.182-0.481l-0.24-0.93l-0.749-1.65l-0.241-0.208l-0.238-0.303l-0.062-0.568l0.121-0.032l0.209,0.032l0.24-0.092l0.09-0.298
		l-0.03-0.121l-0.06-0.149l-0.06-0.211l-0.029-0.268l-0.182-0.933l-0.479-0.631l-0.63-0.357l-2.852-0.362l-0.479,0.182l-0.931,0.06
		l0.241-0.9l1.469-4.858l0.211-0.303l0.601-0.238l0.179-0.329l0.151-0.42l0.208-0.392l0.481-0.539l0.509-0.27l0.57-0.03l2.64,1.05
		l0.96-0.122l1.05-0.838l0.449-0.601l0.33-0.72l-0.06-0.689l-0.449-0.601l-0.601-0.09l-0.449,0.449l-0.422,0.541l-0.508,0.271
		l-0.301-0.119l-0.449-0.601l-0.24-0.211l-0.271-0.062l-0.839,0.121l-1.891-0.419l-0.57-0.241l-0.271-0.359l-0.179-0.511l-0.33-0.66
		l-0.422-0.419l-0.479-0.33l-0.33-0.452l0.182-1.828l0.419-0.301l1.198,0.09l1.979-0.689h0.723l0.719,0.121l0.36-0.032l0.271-0.179
		l0.119-0.359l-0.06-1.169l0.119-0.511l0.511-0.871l0.66-0.628l1.409-0.962l0.451-0.509l0.776-1.261l0.452-0.39l0.57-0.332
		l0.179-0.327l0.03-1.32l0.329-1.23l0.06-0.66L634.85,267.389z"/>
</g>
<g id="copyright">
</g>
</svg>
