<?xml version="1.0" encoding="utf-8"?>
<!DOCTYPE svg PUBLIC "-//W3C//DTD SVG 1.1//EN" "http://www.w3.org/Graphics/SVG/1.1/DTD/svg11.dtd">
<svg version="1.1" id="Laag_1" xmlns="http://www.w3.org/2000/svg" xmlns:xlink="http://www.w3.org/1999/xlink" x="0px" y="0px"
	 width="88px" height="136px" viewBox="0 0 88.333 136" enable-background="new 0 0 88.333 136" xml:space="preserve">
<g id="Laag_2">
</g>
<g id="Laag_1_1_">
	<path fill="#CCCCCC" d="M54.262,43.084c0.158-0.005,0.312-0.054,0.469-0.124c-0.35-0.013-0.677-0.03-0.895-0.046
		C53.977,42.978,54.118,43.088,54.262,43.084"/>
	<path fill="#CCCCCC" d="M82.167,105.273c-0.17-0.779-0.867-1.358-1.362-1.953c-3.289-3.928-5.722-1.872-7.796-3.764
		c-0.42-0.383-2.135,2.516-2.166,2.485c-0.379-0.345-1.879-2.22-1.92-2.245c-0.088-0.057-1.025-0.211-1.021-0.26
		c0.051-0.537,3.262-1.749,3.628-2.11c1.123-1.103,0.544-4.808-0.225-5.849c-0.331-0.449-3.005-4.286-3.034-4.303
		c-0.639-0.287-1.52,0.113-2.128-0.047c-0.542-0.144-0.274-0.679-0.979-0.637c-0.178,0.012-0.599-0.127-0.472-0.249
		c0.47-0.452,2.044,0.647,2.578,0.675c0.426,0.021,0.854-0.281,1.269-0.177c0.688,0.179,0.648,1.931,1.439,2.134
		c1.027,0.262,0.255-0.402,1.064,0.018c0.309,0.16,0.291,1.136,0.539,0.893c0.705-0.695-1.805-5.49-1.439-6.908
		c0.156-0.604,1.498-0.5,1.502-1.125c0-0.069-1.666-1.959-1.928-2.508c-0.409-0.859-0.391-2.301-0.536-3.156
		c-0.284-1.694-3.839-3.279-5.062-3.609c-0.473-0.128,0.588-0.887,0.521-1.37c-0.052-0.364-0.867-0.83-0.856-2.372
		c0.006-0.554,0.374-1.353,0.34-1.796c-0.119-1.567-0.965-3.232-0.584-4.94c0.295-1.327,0.825-2.879,0.608-4.358
		c-0.026-0.182-0.92-0.877-1.313-1.116c-1.158-0.71-0.897-3.576-1.545-4.457c-0.697-0.948-2.471-1.401-3.129-2.401
		c-0.125-0.192-0.082-0.886-0.41-1.126c-0.17-0.126-0.406-0.119-0.608-0.177c-1.39-0.404-0.837,0.742-1.826,0.978
		c-1.431,0.341-3.608-1.429-4.864-1.951c-0.332-0.137-1.24-0.13-1.279-0.639c-0.096-1.249,1.973,0.622,2.293,0.691
		c2.379,0.525,2.277-1.228,4.263-1.507c1.079-0.15,1.173,0.979,2.862,0.208c0.043-0.02,0.103-0.02,0.127-0.058
		c0.972-1.537-1.541-1.103-1.235-2.149c0.121-0.41,0.772-0.981,0.198-1.223c-0.029-0.008-0.061-0.02-0.09-0.03
		c-0.084-0.027-0.176-0.049-0.307-0.063c-0.441-0.05-0.873,0.163-1.309,0.244c-0.146,0.026-0.705,0.018-1.245-0.003
		c-0.156,0.07-0.312,0.119-0.47,0.124c-0.146,0.004-0.285-0.106-0.424-0.17c-0.156-0.012-0.262-0.022-0.246-0.029
		c0.08-0.037,0.162-0.01,0.246,0.029c0.218,0.016,0.545,0.033,0.895,0.046c0.45-0.202,0.893-0.581,1.348-0.596
		c0.481-0.016,1.002,0.244,1.512,0.418c0.033,0.01,0.063,0.019,0.09,0.03c0.349,0.113,0.689,0.174,1.012,0.066
		c1.15-0.383,2.841-1.58,3.412-2.278c0.13-0.157,0.109-0.885,0.465-1.119c0.197-0.128,0.945-0.153,1.266-0.39
		c0.461-0.343,2.691-3.181,2.906-3.68c0.271-0.624,0.314-1.419,0.852-2.007c0.775-0.845,2.736-1.578,2.883-2.686
		c0.078-0.606-0.062-2.221-0.538-2.639c-0.628-0.552-1.261-0.464-2.095-0.589c-1.635-0.25-3.625-1.536-5.094-1.965
		c-0.461-0.136-0.973,0.191-1.438,0.077c-0.822-0.203-1.47-1.143-2.272-1.424c-0.834-0.294-2.152-0.009-3.009,0.094
		c-1.237,0.15-4.952,0.961-5.063,0.702c-0.071-0.17,0.382-0.195,0.404-0.377c0.018-0.158-0.465-0.287-0.32-0.352
		c0.588-0.263,2.162,0.391,2.578-0.957c0.273-0.889-3.09,0.03-3.145,0.027c-0.298-0.017,0.615-0.866,0.876-0.981
		c0.224-0.1,1.294,0.145,1.7,0.027c1.377-0.404-0.012,0.977,0.768,0.739c0.543-0.169,2.162-1.313,2.389-1.776
		c0.279-0.568-1.461,0.729-1.637,0.252c-0.056-0.155,0.266-0.253,0.271-0.418c0.002-0.091-0.168-0.076-0.26-0.08
		c-0.239-0.013-0.482,0.077-0.717,0.029c-0.107-0.022-1.216-0.796-1.022-0.819c0.226-0.026,0.421,0.189,0.646,0.203
		c0.282,0.013,0.59,0.125,0.848,0.009c0,0,0.609-1.063,0.611-1.064c0.406-0.314,1.178-0.449,1.642-0.749
		c1.25-0.806,7.397-2.584,7.565-3.716c0.077-0.514-0.554-0.563-0.369-1.104c0.078-0.229,1.787-1.615,1.375-1.831
		c-0.529-0.278-2.002-0.842-2.482-0.986c-0.148-0.045-0.434-0.04-0.451,0.114c-0.029,0.272,0.45,0.819,0.18,0.8
		c-0.914-0.066-1.382-0.981-2.228-0.922c-0.535,0.04-2.431,0.749-2.886-0.133c-0.072-0.143,0.248-0.338,0.141-0.456
		c-0.182-0.203-0.322,0.603-0.593,0.565c-0.224-0.03-2.248-0.495-2.364-0.486c0,0-0.831,0.573-0.832,0.572
		c-0.208-0.274,0.543-0.646,0.396-0.958c-0.609-1.274-1.326-0.446-1.926-0.107c-0.276,0.156-0.91,0.851-0.76,0.573
		c0.266-0.497,0.396-0.336,0.832-0.802c0.43-0.456-1.566-1.255-2.104-2.173c0,0-0.104,0.176-0.154,0.263
		c-0.344,0.584-0.997,0.664-1.247,1.04c-0.313,0.473,1.03,1.294,0.651,1.462c-0.586,0.259-0.174-0.475-0.711,0.021
		c-0.133,0.125,0.291,0.517,0.108,0.538c-0.276,0.03-0.422-0.55-0.69-0.474c-0.672,0.19-0.562,1.319-0.264,1.918
		c0.81,0.146,1.709,1.337,0.241,0.333c-0.088-0.06-0.171-0.185-0.241-0.333c-0.023-0.003-0.047-0.016-0.07-0.018
		c-0.471-0.05-1.117,0.393-1.625,0.225c-0.377-0.121-0.243-0.582-0.619-0.704c-0.446-0.147,0.641,1.942,0.632,1.964
		c-0.041,0.129-0.261-0.177-0.382-0.124c-0.947,0.414,1.183,1.14-0.735,0.515c-0.088-0.028-0.338-0.362-0.565-0.436
		c-0.228-0.074-0.271,0.446-0.224,0.682c0.169,0.852,1.007,1.574,1.075,2.364c0.001,0.02,0.723,1.542,0.661,1.473
		c-0.794-0.896-0.878-1.41-1.744-2.077c-0.451-0.347-0.049,0.405-0.535,0.329c-0.359-0.057-0.765,1.465-1.179,0.117
		c-0.072-0.239,0.719-1.071-0.289-0.851c-0.656,0.142,0.15,2.319-0.674,2.047c-0.231-0.077-0.31-3.174-1.326-1.072
		c-0.24,0.5-0.409,0.931,0.068,1.412c0.139,0.14,0.623,0.321,0.441,0.398c-0.283,0.121-0.491-0.377-0.775-0.257
		c-1.71,0.728,0.876,2.566,1.315,2.962c0.27,0.242-1.027,0.098-1.186,0.113c-0.292,0.028-0.571-2.809-1.76-0.332
		c-0.413,0.861-0.025,0.079,0.29,0.856c0.063,0.154-0.642,0.866-0.508,1.095c0.397,0.682,1.495-0.467,1.785-0.166
		c0.17,0.176-0.22,0.516-0.096,0.727c0.003,0.005,0.018-0.002,0.021,0.001c0.086-0.006,0.17-0.013,0.254-0.019
		c0.302-0.109,0.743-0.373,0.819-0.349c0.03,0.009,0.028,0.073,0.003,0.094c-0.183,0.175-0.489,0.228-0.822,0.254
		c-0.121,0.043-0.213,0.057-0.254,0.019c-0.589,0.033-1.195,0.059-1.365,0.565c-0.01,0.035,1.802,0.788,2.512,1.586
		c0.081,0.091-0.221,0.18-0.335,0.144c-0.893-0.293-0.299-1.281-1.546-1.015c-0.451,0.096,0.022,0.463-0.225,0.685
		c-0.16,0.142-0.788,0.222-0.488,0.598c0.335,0.424,1.6,1.074,1.261,1.176c-1.022,0.307-1.358-1.57-2.479-0.566
		c-0.206,0.185,0.61,1.683,0.854,1.805c0.127,0.063,0.287,0.01,0.431,0.015c0.144,0.004,0.563-0.041,0.431,0.015
		c-1.458,0.613-1.548-1.387-2.49-0.824c-0.414,0.248-0.172,1.078-0.587,1.326c-0.21,0.125-0.55-0.153-0.732,0.008
		c-0.049,0.046,0.353,0.349,1.423,0.984c0.174,0.101,0.666-0.247,0.602-0.055c-0.077,0.232-0.432,0.293-0.677,0.283
		c-0.123-0.004-0.079-0.258-0.188-0.316c-1.408-0.756-0.388,0.791-0.435,0.871c-0.135,0.241-5.104-1.276-3.75,0.267
		c0.491,0.559,1.358,0.847,2.24,1.041c0.545-0.072,1.121-0.134,1.394-0.077c0.1,0.02,0.254,0.223,0.432,0.429
		c0.178,0.04,0.341,0.08,0.481,0.127c0.155,0.05,0.553,0.02,0.463,0.152c-0.29,0.424-0.649,0.066-0.944-0.279
		c-0.521-0.113-1.177-0.207-1.826-0.352c-0.4,0.054-0.785,0.112-1.021,0.132c-0.119,0.011,0.409,1.335,0.541,1.453
		c0.811,0.727,1.179,1.927,2.571,1.107c1.04-0.613,1.952-1.059,2.998-1.554c0.517-0.245,0.883-0.663,1.399-0.939
		c0.146-0.078,0.509-0.388,0.441-0.235c-0.456,0.995-2.821,0.858-0.123,1.732c0.153,0.049-0.311,0.105-0.472,0.101
		c-0.514-0.016-1.215-0.523-1.735-0.057c-2.139,1.925-1.408,1.062,0.083,1.548c0.233,0.076-0.44,0.235-0.681,0.286
		c-0.536,0.112-1.115-0.625-1.342,0.068c-0.004,0.012,0.911,0.596,1.176,0.892c0.108,0.121,0.463,0.277,0.325,0.359
		c-0.248,0.148-1.217-0.796-1.519-0.75c-0.622,0.096-2.194,2.009-2.178,2.588c0.005,0.161,0.35,0.201,0.325,0.361
		c-0.077,0.497-1.351,1.313-0.854,1.245c0.396-0.055-1.85,1.835-1.771,2.214c0.086,0.409-0.506,0.011,0.039,0.777
		c0.002,0.004,1.164-0.38,1.167-0.378c0.125,0.138-0.28,0.247-0.419,0.372c-1.709,1.51-1.106,1.527,0.402,1.49
		c0.042-0.001-1.646,0.84-2.138,1.504c-0.667,0.9-0.59,2.304-1.337,3.129c-0.334,0.368-1.607,0.634-1.426,1.569
		c0.218,1.125,2.291,0.193,2.748-0.111c-0.006-0.13-0.026-0.26-0.021-0.391c0.006-0.207-0.019-0.426,0.053-0.619
		c0.24-0.631,1.328-1.294,1.494-1.806c0.167-0.509-0.049-1.263,0.604-1.841c0.386-0.341,0.994-0.226,1.378-0.566
		c0.097-0.087-0.802-3.501-0.022-3.571c0.204-0.018,0.257,0.408,0.461,0.406c0.25-0.004,2.539-1.403,2.889-1.602
		c0.679-0.385,0.303-0.668,1.099-0.662c0.177,0.001,0.652-0.257,0.509-0.152c-1.078,0.789-5.797,2.514-4.636,4.661
		c0.761,1.405,1.144-0.727,1.463-1.304c0.032-0.06,0.697,0.903,0.724,0.742c0.215-1.264-0.284,1.432,0.578,1.203
		c0.086-0.023,1.677-2.376,1.692-2.505c0.049-0.401-0.039-1.492,0.235-1.193c0.958,1.049-0.153,1.22,0.167,1.322
		c0.418,0.135,0.212,0.869,0.444,1.241c0.356,0.578,1.003,0.923,1.322,1.433c0.149,0.24-0.551-0.138-0.807-0.255
		c-0.923-0.421-1.648-1.559-2.306-0.059c-0.494,1.128,0.126,1.762-0.948,2.493c-0.309,0.21,0.479,0.596,0.592,0.951
		c0.342,1.096,1.238,1.736,0.892,2.826c-0.25,0.793-0.857,0.268-1.379,0.579c-0.859,0.513-1.133,1.839-1.839,2.467
		c-0.425,0.378-1.161,0.4-1.6,0.761c-0.777,0.636-0.902,1.52-0.781,2.427c0.036,0.284,0.15,0.94-0.124,0.854
		c-0.939-0.304,0.469-2.167-0.924-1.831c-1.484,0.359,0.478,3.986,0.52,4.508l-0.297,0.926c0.028,0.124,0.204,0.15,0.308,0.227
		c0.818,0.602-0.66-2.893,1.621-2.926c0.599-0.009,1.936,3.576,2.918,3.728c1.302,0.199,0.01-2.927,0.88-3.29
		c0.006-0.003,0.395,1.396,0.739,1.504c0.24,0.076,0.638-0.537,0.696-0.292c0.093,0.386-0.4,0.974,0.121,1.563
		c0.648,0.735,0.652-0.815,0.977-0.715c0.476,0.146-1.276,0.986,0.406,1.143c0.128,0.011,1.41-0.223,1.458-0.316
		c0.023-0.043-0.433-0.895,0.213-0.697c0.016,0.005,1.086,0.548,1.794,0.547c0.783-0.003,0.377-1.187,0.769-1.545
		c0.055-0.049,1.678,0.605,2.069,0.791c0.719,0.342,1.897,0.229,2.486,0.568c0.323,0.187-0.756,0.043-0.689,0.303
		c0.041,0.16,0.437,0.217,0.347,0.357c-0.114,0.174-0.422,0.127-0.622,0.068c-0.191-0.057-1.252-1.354-1.521-0.452
		c-0.071,0.237,0.166,0.81-0.071,0.739c-0.208-0.063-0.099-0.464-0.275-0.588c-0.565-0.4-1.43,1.453-1.526,1.57
		c-0.604,0.725-2.666,1.818-2.72,2.988c-0.044,0.938,1.035,1.938,1.111,2.877c0.054,0.682-0.526,1.7,0.211,2.35
		c0.521,0.462,0.624,0.095,0.91-0.235c0.117-0.136,0.305-0.575,0.35-0.404c0.328,1.273-1.993,1.57-0.27,2.97
		c0.193,0.156,0.648-1.501,1.395-1.62c0.246-0.037,0.09,1.141,0.639,0.95c0.316-0.11,0.716-1.117,1.189-0.413
		c0.064,0.098-0.07,0.512-0.201,1.209c-0.08,0.43-1.113,0.551-1.328,0.881c-0.223,0.34,0.506,1.027,0.433,1.141
		c-0.12,0.187-0.343,0.339-0.562,0.347c-0.22,0.008-0.951-0.562-1.481-0.183c-0.339,0.242-0.935,2.24-0.618,2.615
		c0.254,0.301,1.033-0.049,1.134,0.334c0.05,0.184-0.254,0.295-0.421,0.385c-1.171,0.632-2.191,2.101-2.054,3.507
		c0.132,0.151,0.21,0.514,0.27,0.896c0.159,0.309,0.384,0.604,0.701,0.876c0.149,0.128,1.242,0.205,1.287,0.375
		c0.257,0.945-1.569,0.148-1.785-0.268c-0.087-0.166-0.138-0.578-0.203-0.983c-0.148-0.289-0.24-0.59-0.27-0.896
		c-0.015-0.017-0.028-0.043-0.045-0.056c-0.321-0.209-0.766,0.077-1.138,0.172c-0.806,0.207,0.773,2.619,0.021,2.556
		c-0.879-0.077-0.875-2.375-2.086-2.406c-0.905-0.021-2.484,0.791-3.279,0.031c-0.009-0.011-0.618-1.231-0.927-1.05l0.071,0.787
		c-0.39,0.262-2.284-0.053-2.785-0.09c-0.681-0.049-1.743,1.506-2.152,1.377c-0.123-0.037-0.099-0.381-0.214-0.321
		c-0.364,0.186-0.217,0.831-0.506,1.12c-1.128,1.127-3.148,0.586-4.074,1.922c-0.437,0.629,0.006,0.65,0.75,0.621
		c0.812-0.031,0.277,0.693,0.858,0.785c0.233,0.037,1.626-2.321,3.602-0.924c0.917,0.647-1.539,2.09,0.862,2.825
		c0.024,0.009-1.723,0.634-1.877,1.47c-0.168,0.904,1.374,1.008,1.375,1.193l-1.014,0.199c-1.109,0.891-1.222,2.619-2.756,3.247
		c-0.53,0.216-0.999-0.017-1.456,0.06c-0.484,0.078-0.898,0.803-1.385,0.848c-0.456,0.045-1.333-0.713-1.749-0.551
		c-0.34,0.131-1.305,1.051-1.686,1.262c-0.02,0.012-1.974-0.766-2.187-0.7c-0.24,0.069-0.153,0.53-0.373,0.649
		c-0.264,0.149-2.487,0.18-2.209,0.541c0.372,0.483,1.324,0.491,1.537,1.047c0.591,1.545-1.855,1.057-1.629,1.533
		c0.307,0.651,1.465,0.989,0.875,0.799c-0.251-0.08,0.372,0.402,0.435,0.656c0.115,0.455-0.05,0.889,0.803,1.032
		c0.23,0.038,2.089,0.028,2.282-0.045c0.319-0.123,0.259-0.75,0.59-0.843c0.463-0.131,0.946,0.188,1.42,0.277
		c0.236,0.047,0.495,0.252,0.708,0.139c0.152-0.08,0.192-0.141,0.368-0.144c0.192,0,0.271-0.067,0.293,0.095
		c0.035,0.256-0.28,1.123,0.221,1.353c0.357,0.163,2.051,0.601,2.062,0.64c0.158,0.592-2.125,0.104-2.132,0.109
		c-0.125,0.105-0.073,0.322-0.147,0.468c-0.849,1.722,3.85,0.728,4.126,0.763c0.426,0.051,0.225,2.211,0.391,2.428
		c0.823,1.078,2.085,2.101,3.65,2.38c0.902,0.162,1.229-0.604,1.757-1.015c1.462-1.133,2.21,0.267,3.972-0.369
		c0.953-0.34,1.729-1.198,2.687-1.52l0.807-0.025c0.122-0.108-0.022-0.516,0.137-0.472c0.831,0.239-0.8,0.731-2.934,2.39
		c-1.122,0.871-2.657,0.973-3.75,1.804c-0.497,0.379-0.68,2.144-0.991,2.269c-2.244,0.897-5.708-2.197-8.241-2.479
		c-0.281-0.032-2.684-0.47-2.771-0.343c-0.639,0.918-0.117,2.234-1.769,2.535c-0.573,0.104-1.077-1.324-1.643-1.029
		c-0.937,0.488-0.696,2.527-1.332,3.187c-0.509,0.526-1.733,0.586-2.316,1.072c0,0-0.599,0.84-0.599,0.842
		c-1.057,0.39-1.606-0.165-2.4,0.263c-0.534,0.287-0.167,0.52-0.301,0.938c-0.299,0.923-0.979,0.264-1.505,0.545
		c-0.217,0.116-0.053,0.53-0.227,0.703c-1.491,1.482-6.593,0.39-6.427,2.296c0.168,1.927,2.082-0.351,2.421-0.237
		c1.107,0.362,1.647,3.385,1.731,3.412l0.531-0.605c1.115-0.135,1.206-0.146,0.909-1.256c-0.083-0.313,0.58-0.304,0.832-0.508
		c0.195-0.16,0.21,0.326,0.226,0.332c0.487,0.157,0.582-0.673,0.907-0.742c0.428-0.094,1.009,0.201,1.509-0.035
		c0.359-0.168,0.523-1.166,0.9-1.26c0.138-0.035,1.651,0.658,1.988,0.715c0.653,0.109,1.917-0.112,2.462,0.427
		c0.162,0.161,0.09,0.546,0.308,0.612c0.517,0.162,0.757,0.186,0.873,0.17c-0.044-0.213,0.224-0.026,0,0
		c0.006,0.033,0.01,0.061,0.033,0.111c0.026,0.057,3.315,2.748,3.809,2.709c0.014,0,0.362-1.057,0.508-1.128
		c0.258-0.13,1.674-0.229,1.717-0.768c0.065-0.786-0.932,0.092-0.391-0.888c0.128-0.234,0.583-0.078,0.746-0.289
		c0.498-0.642,1.017-1.899,1.001-2.777c-0.007-0.457,0.17,1.154,0.622,1.211c0.511,0.061,1.189-0.727,1.707-0.773
		c0.715-0.066,1.545,0.5,2.331,0.435c1.33-0.116,2.452,0.929,3.351,2.169c0.26,0.359,0.673,0.648,0.783,1.079
		c0.051,0.198-0.361,0.667-0.169,0.591c0.642-0.26-0.071-1.512,0.894-1.406c1.063,0.116,2.879,2.282,3.886,1.869
		c1.796-0.736-0.979-1.234-0.375-2.148c0.086-0.129,0.301,0.086,0.454,0.127c0.151,0.043,0.36,0.002,0.453,0.127
		c0.102,0.141-0.106,0.399,0.019,0.519l0.738-0.306c0.483-0.016,0.598,0.172,1.125,0.058c0.633-0.137,1.176,0.724,1.75,0.74
		c0.195,0.006,2.625-0.681,2.658-0.802c0.188-0.688-1.268-1.306-1.121-1.836c0.092-0.342,0.571,0.433,0.775,0.723
		c0.283,0.402,0.923,1.98,1.579,1.955c0.787-0.032-0.362-1.428,0.862-0.785c0.507,0.268-0.049,0.624,0.389,0.357
		c0.689-0.418,0.891,0.03,1.212,0.324c0.019,0.016-0.548,2.84,1.11,1.312c0.072-0.067-0.004,0.253,0.089,0.277
		c1.463,0.383,3.618-0.461,5.167,0.075c1.242,0.431,2.264,2.2,3.589,2.435c0.46,0.08,1.103-0.771,1.517-0.891
		c0.903-0.256,2.004,0.204,2.916-0.035c0.647-0.172,0.616-0.744,1.447-0.656c0.003,0,1.073,0.429,1.077,0.429
		c0.62-0.037,0.8-0.99,1.397-1.347c1.274-0.769,3.594-0.034,4.11-1.799c0.047-0.158,0.009-0.336,0.013-0.502
		s0.008-0.334,0.012-0.502s-0.082-0.361,0.011-0.502c0.317-0.479,0.622-0.488,0.885-1.05c0,0-0.479-0.061-0.721-0.088
		c-0.241-0.028-0.481-0.06-0.724-0.087c-1.006-0.122-4.109,0.543-4.547-0.758c-0.148-0.439,1.262,0.057,1.217-0.083
		c-0.655-1.943-1.992,0.024-2.815-0.562c-0.215-0.152-0.674-0.44-0.483-0.623c0.159-0.154,1.799,0.356,1.771-0.072
		c-0.088-1.33-3.096-0.592-3.158-0.78c-0.117-0.351,5.012-0.502,5.104-0.681c0.17-0.336-0.371-0.651-0.557-0.979
		c-0.178-0.312,0.694,0.314,1.049,0.254c0.399-0.068,0.6-1.088,0.496-1.394c-0.287-0.857-1.421,0.36-1.852-0.196
		c-0.081-0.105-0.348-0.234-0.242-0.312c1.458-1.071,3.383,1.051,5.485-0.441c0.079-0.059,0.212-0.107,0.206-0.204
		c-0.051-0.729-0.947,0.258-0.896-0.213c0-0.007,1.03-1.011,1.03-1.017c0.008-0.34-0.066-0.346,0.131-0.221
		c0.174,0.11,0.055,0.539,0.26,0.565c0.318,0.042,1.279-1.228,1.586-1.39c0.348-0.183,0.77-0.154,1.153-0.232
		c0.647-0.131,0.84-2.102,1.058-2.521C81.512,109.271,82.9,108.634,82.167,105.273"/>
	<path fill="#CCCCCC" d="M57.681,42.812c-0.026-0.011-0.056-0.02-0.089-0.03C57.622,42.792,57.651,42.804,57.681,42.812"/>
	<path fill="#CCCCCC" d="M40.037,23.63c-0.084,0.006-0.168,0.013-0.254,0.019C39.823,23.687,39.916,23.673,40.037,23.63"/>
	<path fill="#CCCCCC" d="M35.634,32.165c-0.273-0.057-0.849,0.005-1.394,0.077c0.649,0.146,1.305,0.239,1.826,0.352
		C35.888,32.387,35.734,32.185,35.634,32.165"/>
	<path fill="#CCCCCC" d="M43.684,84.568c0.03,0.307,0.122,0.606,0.27,0.896C43.894,85.083,43.816,84.72,43.684,84.568"/>
	<path fill="#CCCCCC" d="M47.786,12.404c0.07,0.147,0.153,0.273,0.241,0.333C49.495,13.741,48.595,12.55,47.786,12.404"/>
	<path fill="#CCCCCC" d="M69.047,8.703c-0.535,0.865,0.092,0.153-0.77,0.272c-0.412,0.059-0.812,0.698-1.275,0.123
		c-0.264-0.325,0.25-0.959-0.047-1.252c-0.445-0.442-1.371,0.68-1.977,0.16c-0.596-0.514,0.758-1.185,0.348-1.635
		c-0.144-0.157-1.111,1.396-1.283,0.61c-0.178-0.805,0.681-2.62,1.758-2.204c0.775,0.3,1.922,1.834,0.732,1.704
		c-0.296-0.032-0.748,0.241-0.709,0.535c0.063,0.484,0.989,0.044,1.461,0.182c0.34,0.101,0.248,0.737,0.56,0.907
		c0.168,0.095,0.53-0.268,0.573-0.08C68.474,8.273,68.12,7.913,69.047,8.703"/>
	<path fill="#CCCCCC" d="M64.708,8.917c0.51,2.288-1.809,0.288-1.709-0.759C63.152,6.556,64.465,8.52,64.708,8.917"/>
	<path fill="#CCCCCC" d="M40.173,7.882C39.736,8.416,40.1,8.599,39.994,8.83c-0.212,0.453-2.059,0.611-2.394,1.206
		c-0.081,0.144-0.018,0.331-0.028,0.496c-0.007,0.167,0.093,0.38-0.025,0.496c-0.292,0.289-1.376-0.112-1.634,0.2
		c-0.291,0.352,1.283,0.213,1.198,0.663c-0.281,1.471-1.011,0.144-1.637,0.2c-0.273,0.024,0.518,0.396,0.484,0.67
		c-0.135,1.106-0.363,0.481-0.872,0.46c-0.12-0.006-0.239,0.215-0.334,0.139c-0.336-0.266-0.672-0.393-0.763-0.896
		c-0.066-0.354,0.772-1.026,0.415-0.996c-1.304,0.109-0.058,1.733-0.575,2.081c-0.426,0.289-1.144-1.012-0.949,0.052
		c0.061,0.331-1.607,1.474-2.26,0.925c-0.083-0.069-0.772-1.543-0.735-1.59c0.167-0.222,0.218,0.584,0.48,0.676
		c0.001,0,0.956-0.681,0.957-0.681c0.176-0.029-0.084-0.294,0.541-0.319c0.001,0-1.072-1.362-1.008-1.62
		c0.154-0.62,0.801-0.231,1.13-0.366c0.124-0.05-0.317-0.014-0.383-0.133c-0.213-0.382-0.257-0.894-0.112-1.306
		c0.3-0.855,0.743-0.185,1.205-0.591c0.063-0.056-0.984-0.775,0.111-0.722c0.317,0.015,1.104,1.399,2.097,1.742
		c0.078,0.026-0.632-1.767-0.01-2.026c0.658-0.273,1.694,0.19,2.261,0.022c0.69-0.204,1.905-1.177,2.593-1.384
		C40.292,6.061,40.173,7.882,40.173,7.882"/>
	<path fill="#CCCCCC" d="M29.041,14.922c-0.405,1.15,0.597,0.104,0.61,0.724c0.04,1.596-0.785-0.022-0.977-0.091
		c-0.857-0.301,1.533,1.203-0.171,1.72c-0.743,0.225-2.518-1.567-2.509-1.906c0.043-1.451,1.935-0.362,2.454-0.401
		C28.647,14.952,29.041,14.922,29.041,14.922"/>
	<path fill="#CCCCCC" d="M26.797,17.183c0.537,0.317,1.706,1.202,0.244,1.36C26.294,18.623,25.771,17.381,26.797,17.183"/>
	<path fill="#CCCCCC" d="M26.06,18.448c-0.643,0.048,0.988,0.993,1.02,1.635l-0.838,0.725c-0.228,0.34-0.216,1.41-0.43,1.631
		l-0.86-0.048C24.472,22.121,26.166,18.442,26.06,18.448"/>
	<path fill="#CCCCCC" d="M29.765,30.441c-0.188,0.413-1.625,1.868-2.205,1.28C27.152,31.311,29.56,30.524,29.765,30.441"/>
	<path fill="#CCCCCC" d="M26.427,31.585c0.201-0.016,0.456-0.184,0.606-0.046c0.022,0.021-1.514,1.211-1.609,1.23
		C24.687,32.909,24.499,31.582,26.427,31.585"/>
	<path fill="#CCCCCC" d="M32.182,32.203c0.289,0.572,0.32,1.851,0.573,2.227c0.43,0.638,2.198,0.754,2.212,1.752
		c0.002,0.142-0.379,0.797-0.777,1.014c-1.012,0.556-0.951,0.079-1.405-0.212c-0.906-0.581-3.87,1.048-4.211-0.656
		c-0.22-1.095,1.821-0.003,1.69-0.19c-0.545-0.785,1.603-0.858,1.863-1.154c0.757-0.858-0.876-0.284-0.925-0.313
		C29.988,33.932,29.884,32.298,32.182,32.203"/>
	<path fill="#CCCCCC" d="M33.524,39.854c-0.027,0.734-4.13,5.332-4.552,3.833c-0.556-1.974,1.804-1.165,2.243-1.798
		c0.11-0.158-1.322,0.148-0.688-0.613C31.152,40.525,32.623,40.226,33.524,39.854"/>
	<path fill="#CCCCCC" d="M28.466,41.947c-0.19,0.774-0.056,2.89-0.408,3.436c-0.002,0.001-1.041,0.417-1.041,0.417
		c-0.193,0.079-1.211,0.627-1.388,0.554c-1.219-0.508,0.437-0.732,0.523-1.101c0.001-0.005-0.362-1.141-0.359-1.146
		c0.025-0.076,0.878-0.383,0.904-0.459c0.535-1.576-2.385,1.172-2.483,0.687c-0.066-0.321,1.065-2.227,1.264-2.379
		c1.045-0.8,0.932,0.29,0.993,0.592c0.056,0.276,0.367-0.468,0.636-0.549C27.54,41.868,28.015,41.964,28.466,41.947"/>
	<path fill="#CCCCCC" d="M35.05,46.973c0.611,0.67,1.313,4.51-0.324,4.224C32.578,50.825,33.236,47.567,35.05,46.973"/>
	<path fill="#CCCCCC" d="M36.831,67.415c-0.346-0.108-0.908,0.055-1.258,0.115c-0.584,0.098-2.733,1.808-2.94,2.262
		c-0.327,0.72-0.117,0.408-0.611,0.955c-0.119,0.133-0.528,0.343-0.357,0.397c0.093,0.029,0.181,0.09,0.278,0.09
		c0.168-0.002,0.334-0.151,0.494-0.1c0.28,0.09,0.265,0.744,0.553,0.688c0.518-0.104,1.532-0.872,2.052-1.143
		c0.52-0.27,0.789-0.699,1.274-1.133C36.811,69.107,36.447,68.268,36.831,67.415"/>
	<path fill="#CCCCCC" d="M31.324,80.316c0.788,0.723,0.666,1.861,1.267,2.441c0.321,0.311,1.007,0.045,1.281,0.398
		c0.333,0.43-1.704,0.908-1.788,0.928c-0.357,0.089-1.601,0.596-1.935,0.473c-0.116-0.043,0.122-0.218,0.182-0.326
		C30.523,83.883,27.514,81.075,31.324,80.316"/>
</g>
<g id="Laag_3">
</g>
</svg>
