<?xml version="1.0" encoding="utf-8"?>
<!-- Generator: Adobe Illustrator 16.0.0, SVG Export Plug-In . SVG Version: 6.00 Build 0)  -->
<!DOCTYPE svg PUBLIC "-//W3C//DTD SVG 1.1//EN" "http://www.w3.org/Graphics/SVG/1.1/DTD/svg11.dtd">
<svg version="1.1" id="Laag_1" xmlns="http://www.w3.org/2000/svg" xmlns:xlink="http://www.w3.org/1999/xlink" x="0px" y="0px"
	 width="1792px" height="1792px" viewBox="0 0 1792 1792" enable-background="new 0 0 1792 1792" xml:space="preserve">
<path d="M1387.795,537.744l-295.077,540.973h590.153L1387.795,537.744z M404.206,537.744l-295.077,540.973h590.154L404.206,537.744z
	 M1035.086,390.206c-7.172,20.491-18.826,38.806-34.964,54.942c-16.137,16.137-34.45,27.792-54.942,34.964v992.041h467.205
	c7.172,0,13.062,2.307,17.674,6.916c4.61,4.611,6.916,10.502,6.916,17.674v49.18c0,7.172-2.306,13.064-6.916,17.674
	c-4.611,4.611-10.502,6.916-17.674,6.916H379.616c-7.172,0-13.063-2.305-17.674-6.916c-4.611-4.609-6.916-10.502-6.916-17.674
	v-49.18c0-7.172,2.305-13.062,6.916-17.674c4.61-4.609,10.501-6.916,17.674-6.916h467.205V480.112
	c-20.492-7.172-38.806-18.827-54.943-34.964c-16.137-16.137-27.792-34.451-34.963-54.942H379.616
	c-7.172,0-13.063-2.305-17.674-6.916c-4.611-4.61-6.916-10.501-6.916-17.674v-49.179c0-7.172,2.305-13.063,6.916-17.674
	c4.61-4.611,10.501-6.916,17.674-6.916h377.299c10.758-29.2,28.688-52.894,53.79-71.08c25.102-18.186,53.534-27.279,85.295-27.279
	c31.762,0,60.193,9.093,85.296,27.279s43.032,41.879,53.79,71.08h377.299c7.172,0,13.062,2.305,17.674,6.916
	c4.61,4.61,6.916,10.501,6.916,17.674v49.179c0,7.172-2.306,13.063-6.916,17.674c-4.611,4.611-10.502,6.916-17.674,6.916H1035.086z
	 M896,402.5c16.905,0,31.378-6.02,43.416-18.058c12.039-12.039,18.059-26.511,18.059-43.417c0-16.905-6.02-31.377-18.059-43.416
	c-12.038-12.039-26.511-18.058-43.416-18.058s-31.377,6.02-43.416,18.058s-18.058,26.511-18.058,43.416
	c0,16.906,6.019,31.378,18.058,43.417S879.095,402.5,896,402.5z M1732.051,1078.717c0,37.398-11.91,70.953-35.732,100.666
	c-23.82,29.713-53.918,53.021-90.29,69.926c-36.372,16.906-73.385,29.584-111.038,38.037c-37.652,8.453-73.385,12.68-107.195,12.68
	c-33.812,0-69.543-4.227-107.196-12.68c-37.652-8.453-74.666-21.131-111.038-38.037c-36.372-16.904-66.469-40.213-90.29-69.926
	s-35.731-63.268-35.731-100.666c0-5.635,8.965-26.381,26.895-62.242c17.93-35.859,41.495-80.557,70.695-134.09
	c29.2-53.534,56.608-103.609,82.222-150.228c25.614-46.618,51.741-93.749,78.38-141.391c26.64-47.643,40.982-73.257,43.032-76.843
	c9.221-16.905,23.565-25.358,43.032-25.358s33.811,8.453,43.032,25.358c2.049,3.586,16.393,29.201,43.031,76.843
	c26.64,47.643,52.766,94.773,78.38,141.391s53.021,96.693,82.222,150.228c29.2,53.534,52.767,98.231,70.696,134.09
	C1723.086,1052.336,1732.051,1073.082,1732.051,1078.717z M748.462,1078.717c0,37.398-11.91,70.953-35.731,100.666
	c-23.822,29.713-53.919,53.021-90.291,69.926c-36.372,16.906-73.385,29.584-111.038,38.037
	c-37.653,8.453-73.385,12.68-107.196,12.68c-33.811,0-69.543-4.227-107.196-12.68c-37.653-8.453-74.665-21.131-111.038-38.037
	c-36.373-16.904-66.469-40.213-90.291-69.926s-35.732-63.268-35.732-100.666c0-5.635,8.965-26.381,26.895-62.242
	c17.93-35.859,41.495-80.557,70.695-134.09c29.2-53.534,56.607-103.609,82.222-150.228c25.614-46.618,51.741-93.749,78.379-141.391
	c26.639-47.643,40.983-73.257,43.032-76.843c9.221-16.905,23.565-25.358,43.032-25.358c19.467,0,33.811,8.453,43.032,25.358
	c2.049,3.586,16.394,29.201,43.032,76.843c26.639,47.643,52.766,94.773,78.379,141.391c25.614,46.618,53.022,96.693,82.222,150.228
	c29.2,53.534,52.766,98.231,70.696,134.09C739.497,1052.336,748.462,1073.082,748.462,1078.717z"/>
</svg>
