<?xml version="1.0" encoding="utf-8"?>
<!-- Generator: Adobe Illustrator 16.0.0, SVG Export Plug-In . SVG Version: 6.00 Build 0)  -->
<!DOCTYPE svg PUBLIC "-//W3C//DTD SVG 1.1//EN" "http://www.w3.org/Graphics/SVG/1.1/DTD/svg11.dtd">
<svg version="1.1" id="Laag_1" xmlns="http://www.w3.org/2000/svg" xmlns:xlink="http://www.w3.org/1999/xlink" x="0px" y="0px"
	 width="1792px" height="1792px" viewBox="0 0 1792 1792" enable-background="new 0 0 1792 1792" xml:space="preserve">
<path d="M0-0.001v1792h1792v-1792H0z M1462,1254c18.666,18.666,28,41.334,28,68s-9.334,49.334-28,68l-136,136
	c-18.668,18.666-41.334,28-68,28c-26.668,0-49.334-9.334-68-28l-294-294l-294,294c-18.668,18.666-41.334,28-68,28
	c-26.668,0-49.334-9.334-68-28l-136-136c-18.668-18.666-28-41.334-28-68s9.332-49.334,28-68l294-294l-294-294
	c-18.668-18.666-28-41.333-28-68c0-26.666,9.332-49.333,28-68l136-136c18.666-18.666,41.332-28,68-28c26.666,0,49.332,9.334,68,28
	l294,294l294-294c18.666-18.666,41.332-28,68-28c26.666,0,49.332,9.334,68,28l136,136c18.666,18.667,28,41.334,28,68
	c0,26.667-9.334,49.334-28,68l-294,294L1462,1254z"/>
</svg>
