<?xml version="1.0" encoding="utf-8"?>
<!-- Generator: Adobe Illustrator 16.0.0, SVG Export Plug-In . SVG Version: 6.00 Build 0)  -->
<!DOCTYPE svg PUBLIC "-//W3C//DTD SVG 1.1//EN" "http://www.w3.org/Graphics/SVG/1.1/DTD/svg11.dtd">
<svg version="1.1" id="Laag_1" xmlns="http://www.w3.org/2000/svg" xmlns:xlink="http://www.w3.org/1999/xlink" x="0px" y="0px"
	 width="577.768px" height="519.889px" viewBox="26.463 17.726 577.768 519.889"
	 enable-background="new 26.463 17.726 577.768 519.889" xml:space="preserve">
<g id="afbeelding">
</g>
<g id="_x31_">
</g>
<g id="_x32_">
</g>
<g id="_x33_">
</g>
<g id="_x34_">
</g>
<g id="_x35_">
</g>
<g id="_x36_">
</g>
<g id="teksten">
</g>
<g id="_x37_">
</g>
<g id="Laag_11">
</g>
<g id="iconen">
</g>
<g id="Laag_12">
	<g>
		<rect x="92.996" y="17.726" opacity="0.3" fill="#D6D6D6" enable-background="new    " width="425.15" height="51.563"/>
		<rect x="92.996" y="76.037" opacity="0.3" fill="#D6D6D6" enable-background="new    " width="425.15" height="51.661"/>
		<rect x="92.996" y="134.693" opacity="0.3" fill="#D6D6D6" enable-background="new    " width="425.15" height="53.063"/>
		<rect x="92.996" y="193.528" opacity="0.3" fill="#D6D6D6" enable-background="new    " width="425.15" height="51.492"/>
		<rect x="92.996" y="252.015" opacity="0.3" fill="#D6D6D6" enable-background="new    " width="425.15" height="51.661"/>
		<rect x="92.996" y="310.326" opacity="0.3" fill="#D6D6D6" enable-background="new    " width="425.15" height="51.716"/>
		<rect x="92.996" y="368.982" opacity="0.3" fill="#D6D6D6" enable-background="new    " width="425.15" height="51.314"/>
		<rect x="92.996" y="427.817" opacity="0.3" fill="#D6D6D6" enable-background="new    " width="425.15" height="51.143"/>
		<rect x="92.996" y="486.828" opacity="0.3" fill="#D6D6D6" enable-background="new    " width="425.15" height="50.787"/>
		<rect x="520.427" y="17.726" fill="#33A594" width="83.803" height="51.563"/>
		<rect x="520.427" y="76.037" fill="#27A1DB" width="83.803" height="51.661"/>
		<rect x="520.427" y="134.693" fill="#1C7FBF" width="83.803" height="53.063"/>
		<rect x="520.427" y="193.528" fill="#DB4C60" width="83.803" height="51.492"/>
		<rect x="520.427" y="252.015" fill="#7FAE41" width="83.803" height="51.661"/>
		<rect x="520.427" y="310.971" fill="#20A553" width="83.803" height="51.715"/>
		<rect x="520.427" y="368.982" fill="#DCAA26" width="83.803" height="51.314"/>
		<rect x="520.427" y="427.817" fill="#7E3975" width="83.803" height="51.143"/>
		<rect x="520.427" y="486.828" fill="#E5622C" width="83.803" height="50.787"/>
		<g>
			<rect x="140.482" y="31.342" fill="none" width="399.453" height="56.217"/>
			<g enable-background="new    ">
				<path fill="#464646" d="M165.216,55.141h-3.73l-3.994-14.648c-0.262-0.917-0.644-2.56-1.146-4.927
					c-0.284,1.266-0.523,2.324-0.721,3.175c-0.195,0.852-1.686,6.318-4.468,16.4h-3.731l-6.792-23.062h3.258l4.141,14.648
					c0.491,1.833,0.944,3.722,1.358,5.663c0.262-1.2,0.564-2.51,0.908-3.928c0.344-1.419,1.857-6.88,4.542-16.384h2.996
					l4.011,14.354c0.61,2.346,1.091,4.332,1.439,5.957l0.147-0.572c0.294-1.255,0.534-2.278,0.72-3.069
					c0.185-0.791,1.718-6.348,4.599-16.67h3.258L165.216,55.141z"/>
				<path fill="#464646" d="M176.035,46.908c0,2.029,0.42,3.595,1.26,4.697c0.841,1.102,2.067,1.653,3.684,1.653
					c1.275,0,2.299-0.257,3.068-0.77c0.77-0.513,1.29-1.162,1.563-1.948l2.586,0.737c-1.058,2.793-3.464,4.189-7.218,4.189
					c-2.619,0-4.613-0.78-5.982-2.341c-1.37-1.56-2.054-3.879-2.054-6.956c0-2.924,0.685-5.166,2.054-6.727s3.325-2.341,5.868-2.341
					c5.205,0,7.807,3.138,7.807,9.411v0.394h-12.636V46.908z M185.626,44.649c-0.164-1.866-0.639-3.228-1.424-4.084
					s-1.915-1.285-3.388-1.285c-1.43,0-2.562,0.478-3.396,1.433s-1.285,2.267-1.35,3.937L185.626,44.649L185.626,44.649z"/>
				<path fill="#464646" d="M192.419,55.141V30.852h2.946v24.289H192.419z"/>
				<path fill="#464646" d="M207.64,55.141h-3.486l-6.432-17.71h3.143l3.896,11.523c0.142,0.437,0.519,1.729,1.129,3.879
					l0.572-1.915l0.639-1.932l4.025-11.556h3.126L207.64,55.141z"/>
				<path fill="#464646" d="M221.143,55.468c-1.778,0-3.115-0.469-4.011-1.407c-0.895-0.938-1.342-2.227-1.342-3.863
					c0-1.833,0.604-3.24,1.81-4.223c1.206-0.981,3.15-1.506,5.835-1.571l3.978-0.065v-0.966c0-1.44-0.306-2.471-0.917-3.093
					c-0.61-0.622-1.571-0.934-2.881-0.934c-1.32,0-2.281,0.225-2.881,0.672c-0.6,0.447-0.96,1.162-1.08,2.144l-3.077-0.278
					c0.502-3.186,2.87-4.779,7.104-4.779c2.226,0,3.9,0.511,5.024,1.53c1.124,1.021,1.687,2.496,1.687,4.428v7.627
					c0,0.873,0.113,1.53,0.343,1.973c0.229,0.441,0.666,0.663,1.31,0.663c0.284,0,0.605-0.038,0.967-0.115v1.833
					c-0.742,0.175-1.5,0.263-2.275,0.263c-1.091,0-1.885-0.287-2.381-0.859c-0.497-0.573-0.777-1.471-0.843-2.692h-0.099
					c-0.753,1.353-1.628,2.311-2.627,2.872S222.573,55.468,221.143,55.468z M221.815,53.259c1.08,0,2.04-0.246,2.88-0.737
					c0.84-0.49,1.503-1.164,1.989-2.021c0.484-0.856,0.729-1.737,0.729-2.643V46.4l-3.225,0.065
					c-1.386,0.022-2.437,0.164-3.15,0.426c-0.715,0.262-1.263,0.666-1.645,1.211c-0.382,0.546-0.573,1.261-0.573,2.145
					c0,0.96,0.259,1.702,0.777,2.226C220.115,52.996,220.854,53.259,221.815,53.259z"/>
				<path fill="#464646" d="M239.785,55.468c-1.778,0-3.115-0.469-4.01-1.407c-0.896-0.938-1.342-2.227-1.342-3.863
					c0-1.833,0.603-3.24,1.809-4.223c1.206-0.981,3.151-1.506,5.835-1.571l3.979-0.065v-0.966c0-1.44-0.307-2.471-0.917-3.093
					c-0.611-0.622-1.571-0.934-2.882-0.934c-1.319,0-2.28,0.225-2.881,0.672c-0.6,0.447-0.96,1.162-1.08,2.144l-3.076-0.278
					c0.502-3.186,2.869-4.779,7.104-4.779c2.226,0,3.901,0.511,5.025,1.53c1.124,1.021,1.686,2.496,1.686,4.428v7.627
					c0,0.873,0.114,1.53,0.343,1.973c0.229,0.441,0.666,0.663,1.311,0.663c0.284,0,0.604-0.038,0.966-0.115v1.833
					c-0.742,0.175-1.5,0.263-2.275,0.263c-1.091,0-1.885-0.287-2.381-0.859c-0.497-0.573-0.776-1.471-0.843-2.692h-0.098
					c-0.753,1.353-1.628,2.311-2.627,2.872S241.215,55.468,239.785,55.468z M240.457,53.259c1.08,0,2.04-0.246,2.88-0.737
					c0.841-0.49,1.503-1.164,1.989-2.021c0.485-0.856,0.729-1.737,0.729-2.643V46.4l-3.226,0.065
					c-1.386,0.022-2.436,0.164-3.149,0.426c-0.716,0.262-1.264,0.666-1.646,1.211c-0.382,0.546-0.573,1.261-0.573,2.145
					c0,0.96,0.26,1.702,0.777,2.226C238.757,52.996,239.496,53.259,240.457,53.259z"/>
				<path fill="#464646" d="M253.976,55.141V41.556c0-1.244-0.033-2.619-0.099-4.125h2.782c0.087,2.008,0.131,3.214,0.131,3.617
					h0.066c0.469-1.517,1.009-2.553,1.62-3.109c0.61-0.557,1.473-0.835,2.586-0.835c0.393,0,0.791,0.055,1.194,0.164v2.7
					c-0.393-0.108-0.917-0.163-1.57-0.163c-1.223,0-2.155,0.526-2.799,1.579c-0.645,1.053-0.966,2.562-0.966,4.525v9.231
					L253.976,55.141L253.976,55.141z"/>
				<path fill="#464646" d="M271.882,55.01c-0.971,0.262-1.964,0.393-2.979,0.393c-2.357,0-3.536-1.336-3.536-4.01V39.575h-2.046
					V37.43h2.161l0.867-3.961h1.964v3.961h3.272v2.145h-3.272v11.179c0,0.852,0.139,1.449,0.417,1.793
					c0.277,0.343,0.761,0.515,1.448,0.515c0.393,0,0.96-0.076,1.701-0.229v2.177H271.882z"/>
				<path fill="#464646" d="M287.677,50.247c0,1.669-0.631,2.957-1.891,3.862c-1.26,0.906-3.024,1.358-5.295,1.358
					c-2.204,0-3.904-0.362-5.099-1.088c-1.195-0.726-1.973-1.858-2.332-3.396l2.602-0.508c0.251,0.949,0.771,1.646,1.555,2.087
					c0.786,0.442,1.876,0.663,3.273,0.663c1.495,0,2.588-0.229,3.282-0.688c0.692-0.458,1.039-1.146,1.039-2.062
					c0-0.698-0.24-1.266-0.721-1.702c-0.479-0.437-1.255-0.796-2.323-1.08l-2.112-0.557c-1.691-0.437-2.894-0.864-3.609-1.284
					c-0.715-0.42-1.273-0.931-1.678-1.531c-0.404-0.6-0.604-1.336-0.604-2.209c0-1.615,0.575-2.846,1.727-3.691
					c1.151-0.845,2.829-1.269,5.033-1.269c1.953,0,3.505,0.344,4.657,1.031c1.15,0.688,1.879,1.79,2.185,3.307l-2.652,0.327
					c-0.164-0.785-0.603-1.389-1.316-1.809c-0.715-0.42-1.672-0.63-2.873-0.63c-1.332,0-2.313,0.202-2.946,0.605
					c-0.633,0.404-0.949,1.015-0.949,1.833c0,0.502,0.131,0.917,0.394,1.244c0.262,0.327,0.648,0.605,1.162,0.835
					c0.513,0.229,1.593,0.546,3.24,0.949c1.561,0.393,2.685,0.756,3.372,1.088c0.688,0.333,1.23,0.701,1.628,1.105
					c0.398,0.403,0.707,0.87,0.926,1.399C287.568,48.965,287.677,49.57,287.677,50.247z"/>
				<path fill="#464646" d="M297.857,62.097c-1.932,0-3.47-0.379-4.616-1.138c-1.146-0.758-1.882-1.836-2.209-3.232l2.962-0.426
					c0.197,0.818,0.63,1.449,1.301,1.891s1.553,0.663,2.645,0.663c2.935,0,4.402-1.719,4.402-5.156v-2.848h-0.032
					c-0.558,1.135-1.32,1.989-2.292,2.562c-0.972,0.573-2.106,0.859-3.404,0.859c-2.172,0-3.768-0.72-4.788-2.16
					s-1.53-3.705-1.53-6.793c0-3.131,0.549-5.442,1.646-6.932c1.096-1.489,2.763-2.234,5-2.234c1.255,0,2.343,0.287,3.265,0.859
					c0.922,0.573,1.634,1.389,2.136,2.447h0.033c0-0.327,0.021-0.895,0.065-1.702c0.043-0.808,0.087-1.249,0.131-1.326h2.799
					c-0.064,0.59-0.098,1.812-0.098,3.667v13.535C305.272,59.609,302.8,62.097,297.857,62.097z M302.342,46.286
					c0-1.44-0.195-2.682-0.589-3.724c-0.393-1.042-0.946-1.839-1.661-2.39c-0.715-0.551-1.524-0.827-2.431-0.827
					c-1.506,0-2.603,0.546-3.29,1.637c-0.687,1.092-1.031,2.859-1.031,5.304c0,2.422,0.321,4.163,0.966,5.221
					c0.644,1.059,1.745,1.588,3.306,1.588c0.928,0,1.751-0.272,2.472-0.818c0.722-0.546,1.277-1.328,1.669-2.349
					C302.146,48.907,302.342,47.693,302.342,46.286z"/>
				<path fill="#464646" d="M312.049,46.908c0,2.029,0.421,3.595,1.261,4.697s2.066,1.653,3.683,1.653c1.276,0,2.3-0.257,3.069-0.77
					c0.769-0.513,1.289-1.162,1.562-1.948l2.586,0.737c-1.059,2.793-3.465,4.189-7.218,4.189c-2.618,0-4.613-0.78-5.981-2.341
					c-1.37-1.56-2.055-3.879-2.055-6.956c0-2.924,0.686-5.166,2.055-6.727c1.368-1.561,3.324-2.341,5.867-2.341
					c5.205,0,7.808,3.138,7.808,9.411v0.394h-12.636V46.908z M321.639,44.649c-0.164-1.866-0.64-3.228-1.426-4.084
					c-0.784-0.856-1.914-1.285-3.387-1.285c-1.43,0-2.562,0.478-3.396,1.433c-0.835,0.955-1.285,2.267-1.352,3.937L321.639,44.649
					L321.639,44.649z"/>
				<path fill="#464646" d="M328.431,55.141V30.852h2.946v24.289H328.431z"/>
				<path fill="#464646" d="M335.863,33.667v-2.815h2.945v2.815H335.863z M335.863,55.141v-17.71h2.945v17.71H335.863z"/>
				<path fill="#464646" d="M346.256,57.334c0,1.669-0.325,2.881-0.98,3.634c-0.655,0.753-1.637,1.129-2.946,1.129
					c-0.84,0-1.533-0.049-2.078-0.147v-2.274l1.015,0.098c0.754,0,1.282-0.196,1.588-0.589s0.459-1.157,0.459-2.292V37.431h2.944
					L346.256,57.334L346.256,57.334z M343.31,33.667v-2.815h2.944v2.815H343.31z"/>
				<path fill="#464646" d="M361.871,55.141l-5.991-8.086l-2.159,1.784v6.302h-2.946V30.852h2.946v15.173l7.773-8.594h3.453
					l-7.186,7.611l7.562,10.099H361.871z"/>
				<path fill="#464646" d="M370.463,40.459c0.634-1.156,1.396-2.005,2.283-2.545c0.891-0.54,2.017-0.811,3.381-0.811
					c1.92,0,3.336,0.478,4.247,1.433s1.366,2.556,1.366,4.804v11.801h-2.963V43.912c0-1.243-0.113-2.168-0.344-2.773
					c-0.229-0.606-0.605-1.051-1.129-1.334c-0.523-0.284-1.25-0.426-2.178-0.426c-1.386,0-2.496,0.48-3.331,1.44
					c-0.834,0.96-1.252,2.253-1.252,3.879V55.14h-2.944V30.852h2.944v6.317c0,0.666-0.02,1.354-0.057,2.062
					c-0.039,0.709-0.063,1.118-0.074,1.228H370.463z"/>
				<path fill="#464646" d="M388.435,46.908c0,2.029,0.42,3.595,1.26,4.697s2.067,1.653,3.683,1.653c1.276,0,2.301-0.257,3.069-0.77
					c0.77-0.513,1.289-1.162,1.562-1.948l2.586,0.737c-1.06,2.793-3.466,4.189-7.219,4.189c-2.617,0-4.612-0.78-5.981-2.341
					c-1.37-1.56-2.054-3.879-2.054-6.956c0-2.924,0.684-5.166,2.054-6.727c1.369-1.561,3.325-2.341,5.868-2.341
					c5.205,0,7.807,3.138,7.807,9.411v0.394h-12.635V46.908z M398.026,44.649c-0.164-1.866-0.639-3.228-1.425-4.084
					c-0.785-0.856-1.914-1.285-3.388-1.285c-1.43,0-2.562,0.478-3.396,1.433c-0.835,0.955-1.285,2.267-1.351,3.937L398.026,44.649
					L398.026,44.649z"/>
				<path fill="#464646" d="M404.802,33.667v-2.815h2.944v2.815H404.802z M404.802,55.141v-17.71h2.944v17.71H404.802z"/>
				<path fill="#464646" d="M423.445,52.293c-0.546,1.135-1.27,1.947-2.169,2.438c-0.9,0.491-2.017,0.736-3.347,0.736
					c-2.237,0-3.884-0.753-4.937-2.259s-1.579-3.786-1.579-6.841c0-6.177,2.171-9.265,6.516-9.265c1.342,0,2.46,0.246,3.354,0.736
					c0.896,0.491,1.614,1.271,2.16,2.341h0.032l-0.032-1.98V30.85h2.945v20.64c0,1.845,0.033,3.062,0.099,3.65h-2.814
					c-0.032-0.175-0.068-0.578-0.105-1.211c-0.039-0.633-0.059-1.179-0.059-1.637L423.445,52.293L423.445,52.293z M414.508,46.27
					c0,2.478,0.328,4.25,0.982,5.319c0.654,1.069,1.719,1.604,3.191,1.604c1.67,0,2.881-0.579,3.634-1.735s1.13-2.951,1.13-5.385
					c0-2.346-0.377-4.064-1.13-5.156c-0.753-1.091-1.953-1.637-3.602-1.637c-1.483,0-2.557,0.549-3.217,1.646
					C414.837,42.023,414.508,43.804,414.508,46.27z"/>
			</g>
		</g>
		<g>
			<rect x="140.482" y="89.654" fill="none" width="399.453" height="56.217"/>
			<g enable-background="new    ">
				<path fill="#464646" d="M153.284,113.455h-3.241l-9.411-23.062h3.29l6.384,16.236l1.375,4.075l1.375-4.075l6.351-16.236h3.29
					L153.284,113.455z"/>
				<path fill="#464646" d="M163.923,113.455V99.87c0-1.244-0.032-2.619-0.098-4.125h2.782c0.087,2.008,0.131,3.214,0.131,3.617
					h0.066c0.469-1.517,1.009-2.553,1.619-3.109c0.611-0.557,1.474-0.835,2.586-0.835c0.394,0,0.791,0.055,1.195,0.164v2.7
					c-0.393-0.108-0.917-0.163-1.571-0.163c-1.222,0-2.154,0.526-2.799,1.579c-0.644,1.053-0.965,2.562-0.965,4.525v9.231
					L163.923,113.455L163.923,113.455z"/>
				<path fill="#464646" d="M175.003,91.981v-2.815h2.946v2.815H175.003z M175.003,113.455v-17.71h2.946v17.71H175.003z"/>
				<path fill="#464646" d="M185.397,115.648c0,1.669-0.327,2.881-0.982,3.634c-0.654,0.753-1.637,1.129-2.945,1.129
					c-0.841,0-1.533-0.049-2.079-0.147v-2.274l1.015,0.098c0.753,0,1.282-0.196,1.588-0.589c0.305-0.393,0.458-1.157,0.458-2.292
					V95.745h2.946V115.648z M182.45,91.981v-2.815h2.946v2.815H182.45z"/>
				<path fill="#464646" d="M192.844,98.773c0.633-1.156,1.394-2.005,2.282-2.545c0.89-0.54,2.017-0.811,3.38-0.811
					c1.921,0,3.337,0.478,4.248,1.433s1.367,2.556,1.367,4.804v11.801h-2.963v-11.229c0-1.243-0.114-2.168-0.344-2.773
					c-0.229-0.606-0.605-1.051-1.129-1.334c-0.524-0.284-1.25-0.426-2.177-0.426c-1.387,0-2.496,0.48-3.331,1.44
					s-1.252,2.253-1.252,3.879v10.442h-2.946V89.166h2.946v6.317c0,0.666-0.021,1.354-0.059,2.062s-0.062,1.118-0.074,1.228H192.844
					z"/>
				<path fill="#464646" d="M210.816,105.223c0,2.029,0.42,3.595,1.26,4.697s2.067,1.653,3.683,1.653c1.276,0,2.3-0.257,3.069-0.771
					c0.77-0.513,1.29-1.162,1.563-1.948l2.586,0.737c-1.059,2.793-3.464,4.189-7.219,4.189c-2.618,0-4.612-0.78-5.981-2.341
					c-1.37-1.56-2.054-3.879-2.054-6.956c0-2.924,0.685-5.166,2.054-6.727s3.325-2.341,5.868-2.341c5.205,0,7.807,3.138,7.807,9.411
					v0.394h-12.636V105.223z M220.407,102.964c-0.164-1.866-0.639-3.228-1.424-4.084s-1.915-1.285-3.388-1.285
					c-1.431,0-2.562,0.479-3.396,1.433c-0.834,0.955-1.285,2.267-1.35,3.937L220.407,102.964L220.407,102.964z"/>
				<path fill="#464646" d="M227.183,91.981v-2.815h2.945v2.815H227.183z M227.183,113.455v-17.71h2.945v17.71H227.183z"/>
				<path fill="#464646" d="M245.825,110.607c-0.545,1.135-1.269,1.947-2.168,2.438c-0.9,0.491-2.016,0.736-3.347,0.736
					c-2.237,0-3.882-0.753-4.936-2.259c-1.053-1.506-1.579-3.786-1.579-6.841c0-6.177,2.171-9.265,6.515-9.265
					c1.342,0,2.46,0.246,3.354,0.736c0.896,0.491,1.615,1.271,2.16,2.341h0.033l-0.033-1.98v-7.349h2.946v20.639
					c0,1.845,0.033,3.062,0.098,3.65h-2.814c-0.033-0.175-0.068-0.578-0.106-1.211c-0.039-0.633-0.058-1.179-0.058-1.637h-0.065
					V110.607z M236.889,104.584c0,2.478,0.327,4.25,0.981,5.319c0.655,1.069,1.719,1.604,3.192,1.604
					c1.669,0,2.88-0.579,3.633-1.735s1.129-2.951,1.129-5.385c0-2.346-0.376-4.063-1.129-5.156
					c-0.753-1.091-1.953-1.637-3.601-1.637c-1.484,0-2.557,0.549-3.217,1.646C237.219,100.337,236.889,102.118,236.889,104.584z"/>
			</g>
		</g>
		<g>
			<rect x="140.482" y="150.824" fill="none" width="399.453" height="56.217"/>
			<g enable-background="new    ">
				<path fill="#464646" d="M161.075,168.125c0,2.052-0.748,3.647-2.243,4.788c-1.495,1.14-3.574,1.71-6.235,1.71h-9.362v-23.062
					h8.38c5.412,0,8.118,1.865,8.118,5.598c0,1.364-0.382,2.51-1.146,3.437c-0.764,0.928-1.844,1.55-3.24,1.866
					c1.833,0.219,3.245,0.832,4.238,1.842C160.578,165.312,161.075,166.587,161.075,168.125z M156.59,157.535
					c0-1.243-0.425-2.133-1.275-2.668c-0.852-0.534-2.084-0.802-3.699-0.802h-5.254v7.3h5.254c1.669,0,2.916-0.313,3.74-0.941
					C156.178,159.797,156.59,158.834,156.59,157.535z M157.916,167.88c0-2.717-1.91-4.076-5.729-4.076h-5.827v8.315h6.072
					c1.908,0,3.301-0.354,4.174-1.064C157.479,170.346,157.916,169.287,157.916,167.88z"/>
				<path fill="#464646" d="M169.618,174.95c-1.778,0-3.115-0.469-4.01-1.407c-0.896-0.938-1.342-2.227-1.342-3.863
					c0-1.833,0.603-3.24,1.809-4.223c1.206-0.981,3.151-1.506,5.835-1.571l3.979-0.065v-0.966c0-1.44-0.307-2.471-0.917-3.093
					c-0.611-0.622-1.571-0.934-2.882-0.934c-1.319,0-2.28,0.225-2.881,0.672c-0.6,0.447-0.96,1.162-1.08,2.144l-3.076-0.278
					c0.502-3.187,2.869-4.779,7.104-4.779c2.226,0,3.901,0.511,5.025,1.53c1.124,1.021,1.686,2.496,1.686,4.428v7.627
					c0,0.873,0.114,1.53,0.343,1.973c0.229,0.441,0.666,0.663,1.311,0.663c0.284,0,0.604-0.038,0.966-0.115v1.833
					c-0.742,0.175-1.5,0.263-2.275,0.263c-1.091,0-1.885-0.287-2.381-0.859c-0.497-0.573-0.776-1.471-0.843-2.692h-0.098
					c-0.753,1.353-1.628,2.311-2.627,2.872S171.048,174.95,169.618,174.95z M170.29,172.741c1.08,0,2.04-0.246,2.88-0.737
					c0.841-0.49,1.503-1.164,1.989-2.021c0.485-0.856,0.729-1.737,0.729-2.643v-1.457l-3.226,0.065
					c-1.386,0.021-2.436,0.164-3.149,0.426c-0.716,0.262-1.264,0.666-1.646,1.211c-0.382,0.546-0.573,1.261-0.573,2.145
					c0,0.96,0.26,1.702,0.777,2.226C168.59,172.479,169.329,172.741,170.29,172.741z"/>
				<path fill="#464646" d="M188.261,174.95c-1.778,0-3.115-0.469-4.011-1.407c-0.895-0.938-1.342-2.227-1.342-3.863
					c0-1.833,0.604-3.24,1.81-4.223c1.205-0.981,3.15-1.506,5.835-1.571l3.978-0.065v-0.966c0-1.44-0.306-2.471-0.917-3.093
					c-0.611-0.622-1.571-0.934-2.881-0.934c-1.32,0-2.281,0.225-2.881,0.672c-0.601,0.447-0.96,1.162-1.08,2.144l-3.077-0.278
					c0.502-3.187,2.87-4.779,7.104-4.779c2.227,0,3.901,0.511,5.025,1.53c1.124,1.021,1.687,2.496,1.687,4.428v7.627
					c0,0.873,0.113,1.53,0.343,1.973c0.229,0.441,0.666,0.663,1.31,0.663c0.284,0,0.605-0.038,0.966-0.115v1.833
					c-0.741,0.175-1.5,0.263-2.274,0.263c-1.091,0-1.885-0.287-2.381-0.859c-0.497-0.573-0.777-1.471-0.844-2.692h-0.098
					c-0.753,1.353-1.628,2.311-2.627,2.872S189.691,174.95,188.261,174.95z M188.932,172.741c1.08,0,2.04-0.246,2.88-0.737
					c0.84-0.49,1.503-1.164,1.989-2.021c0.484-0.856,0.729-1.737,0.729-2.643v-1.457l-3.225,0.065
					c-1.387,0.021-2.437,0.164-3.15,0.426c-0.715,0.262-1.263,0.666-1.645,1.211c-0.383,0.546-0.573,1.261-0.573,2.145
					c0,0.96,0.259,1.702,0.776,2.226C187.233,172.479,187.972,172.741,188.932,172.741z"/>
				<path fill="#464646" d="M213.631,174.623v-11.229c0-1.167-0.113-2.072-0.344-2.717c-0.229-0.644-0.595-1.107-1.096-1.391
					c-0.502-0.284-1.239-0.426-2.21-0.426c-1.418,0-2.537,0.485-3.355,1.457c-0.817,0.971-1.228,2.318-1.228,4.042v10.263h-2.946
					v-13.929c0-2.062-0.033-3.322-0.098-3.781h2.782c0.011,0.055,0.021,0.202,0.032,0.442c0.012,0.24,0.025,0.516,0.041,0.826
					c0.018,0.312,0.035,0.898,0.058,1.76h0.049c0.676-1.222,1.459-2.087,2.349-2.594c0.89-0.508,1.994-0.762,3.314-0.762
					c1.941,0,3.364,0.483,4.264,1.448c0.9,0.966,1.352,2.562,1.352,4.788v11.801h-2.964V174.623z"/>
				<path fill="#464646" d="M232.126,174.623l-5.99-8.086l-2.16,1.784v6.302h-2.946v-24.289h2.946v15.173l7.773-8.594h3.454
					l-7.186,7.611l7.562,10.099H232.126L232.126,174.623z"/>
				<path fill="#464646" d="M242.306,174.95c-1.778,0-3.115-0.469-4.011-1.407c-0.895-0.938-1.342-2.227-1.342-3.863
					c0-1.833,0.604-3.24,1.81-4.223c1.206-0.981,3.15-1.506,5.835-1.571l3.978-0.065v-0.966c0-1.44-0.306-2.471-0.917-3.093
					c-0.611-0.622-1.571-0.934-2.881-0.934c-1.32,0-2.281,0.225-2.881,0.672c-0.601,0.447-0.96,1.162-1.08,2.144l-3.077-0.278
					c0.502-3.187,2.87-4.779,7.104-4.779c2.226,0,3.9,0.511,5.024,1.53c1.124,1.021,1.687,2.496,1.687,4.428v7.627
					c0,0.873,0.113,1.53,0.343,1.973c0.229,0.441,0.666,0.663,1.31,0.663c0.284,0,0.605-0.038,0.966-0.115v1.833
					c-0.741,0.175-1.5,0.263-2.274,0.263c-1.091,0-1.885-0.287-2.381-0.859c-0.497-0.573-0.777-1.471-0.843-2.692h-0.099
					c-0.753,1.353-1.628,2.311-2.627,2.872S243.736,174.95,242.306,174.95z M242.978,172.741c1.08,0,2.04-0.246,2.88-0.737
					c0.84-0.49,1.503-1.164,1.989-2.021c0.484-0.856,0.729-1.737,0.729-2.643v-1.457l-3.225,0.065
					c-1.387,0.021-2.437,0.164-3.15,0.426c-0.715,0.262-1.263,0.666-1.645,1.211c-0.383,0.546-0.573,1.261-0.573,2.145
					c0,0.96,0.259,1.702,0.777,2.226C241.278,172.479,242.017,172.741,242.978,172.741z"/>
				<path fill="#464646" d="M267.676,174.623v-11.229c0-1.167-0.113-2.072-0.344-2.717c-0.229-0.644-0.595-1.107-1.096-1.391
					c-0.502-0.284-1.239-0.426-2.21-0.426c-1.418,0-2.537,0.485-3.355,1.457c-0.817,0.971-1.228,2.318-1.228,4.042v10.263h-2.946
					v-13.929c0-2.062-0.033-3.322-0.098-3.781h2.782c0.011,0.055,0.021,0.202,0.032,0.442c0.012,0.24,0.025,0.516,0.041,0.826
					c0.018,0.312,0.035,0.898,0.058,1.76h0.049c0.676-1.222,1.459-2.087,2.349-2.594c0.89-0.508,1.994-0.762,3.314-0.762
					c1.941,0,3.364,0.483,4.264,1.448c0.9,0.966,1.352,2.562,1.352,4.788v11.801h-2.964V174.623z"/>
				<path fill="#464646" d="M288.364,169.729c0,1.669-0.63,2.957-1.89,3.862c-1.261,0.906-3.025,1.358-5.295,1.358
					c-2.204,0-3.904-0.362-5.1-1.088s-1.972-1.858-2.332-3.396l2.603-0.508c0.251,0.949,0.77,1.646,1.555,2.087
					c0.786,0.442,1.876,0.663,3.273,0.663c1.494,0,2.588-0.229,3.281-0.688c0.693-0.458,1.039-1.146,1.039-2.062
					c0-0.698-0.24-1.266-0.72-1.702c-0.48-0.437-1.255-0.796-2.324-1.08l-2.112-0.557c-1.69-0.437-2.894-0.864-3.608-1.284
					s-1.274-0.931-1.678-1.531c-0.404-0.6-0.605-1.336-0.605-2.209c0-1.615,0.576-2.846,1.727-3.691
					c1.151-0.845,2.829-1.269,5.033-1.269c1.953,0,3.505,0.344,4.657,1.031c1.151,0.688,1.879,1.79,2.185,3.307l-2.651,0.327
					c-0.164-0.785-0.604-1.389-1.317-1.809c-0.715-0.42-1.672-0.63-2.873-0.63c-1.332,0-2.312,0.202-2.945,0.605
					c-0.634,0.404-0.949,1.015-0.949,1.833c0,0.502,0.131,0.917,0.393,1.244c0.263,0.327,0.649,0.605,1.162,0.835
					c0.513,0.229,1.593,0.546,3.241,0.949c1.56,0.393,2.684,0.756,3.372,1.088c0.688,0.333,1.229,0.701,1.628,1.105
					c0.397,0.403,0.707,0.87,0.925,1.399C288.255,168.447,288.364,169.053,288.364,169.729z"/>
			</g>
		</g>
		<g>
			<rect x="140.482" y="207.145" fill="none" width="399.453" height="56.217"/>
			<g enable-background="new    ">
				<path fill="#464646" d="M143.578,230.942V207.88h3.126v23.062H143.578z"/>
				<path fill="#464646" d="M163.301,230.942v-11.229c0-1.167-0.113-2.072-0.344-2.717c-0.229-0.644-0.595-1.107-1.096-1.391
					c-0.502-0.284-1.239-0.426-2.21-0.426c-1.418,0-2.537,0.485-3.355,1.457c-0.817,0.971-1.228,2.318-1.228,4.042v10.263h-2.946
					v-13.929c0-2.062-0.033-3.322-0.098-3.781h2.782c0.011,0.055,0.021,0.202,0.032,0.442c0.012,0.24,0.025,0.516,0.041,0.826
					c0.018,0.312,0.035,0.898,0.058,1.76h0.049c0.676-1.222,1.459-2.087,2.349-2.594c0.89-0.508,1.994-0.762,3.314-0.762
					c1.941,0,3.364,0.483,4.264,1.448c0.9,0.966,1.352,2.562,1.352,4.788v11.801h-2.964V230.942z"/>
				<path fill="#464646" d="M181.796,230.942l-5.99-8.086l-2.16,1.784v6.302h-2.946v-24.289h2.946v15.173l7.773-8.594h3.454
					l-7.186,7.611l7.562,10.099H181.796z"/>
				<path fill="#464646" d="M202.435,222.071c0,3.099-0.683,5.407-2.046,6.924c-1.364,1.517-3.346,2.274-5.941,2.274
					c-2.586,0-4.54-0.788-5.859-2.365c-1.319-1.576-1.979-3.854-1.979-6.833c0-6.11,2.646-9.166,7.938-9.166
					c2.706,0,4.698,0.745,5.975,2.234C201.797,216.629,202.435,218.939,202.435,222.071z M199.342,222.071
					c0-2.444-0.362-4.22-1.088-5.328c-0.726-1.106-1.944-1.661-3.657-1.661c-1.725,0-2.972,0.565-3.74,1.694
					c-0.77,1.129-1.154,2.895-1.154,5.295c0,2.335,0.379,4.089,1.138,5.262c0.759,1.174,1.95,1.76,3.576,1.76
					c1.769,0,3.031-0.567,3.789-1.702C198.963,226.256,199.342,224.482,199.342,222.071z"/>
				<path fill="#464646" d="M216.413,230.942v-11.229c0-1.713-0.234-2.896-0.704-3.552c-0.469-0.654-1.314-0.981-2.537-0.981
					c-1.255,0-2.248,0.48-2.979,1.44c-0.731,0.96-1.097,2.313-1.097,4.059v10.263h-2.931v-13.929c0-2.062-0.033-3.322-0.098-3.781
					h2.782c0.011,0.055,0.021,0.202,0.032,0.442c0.012,0.24,0.025,0.516,0.041,0.826c0.018,0.312,0.035,0.898,0.058,1.76h0.049
					c0.633-1.255,1.358-2.128,2.177-2.619c0.818-0.49,1.817-0.736,2.995-0.736c1.342,0,2.403,0.268,3.185,0.802
					c0.779,0.535,1.322,1.387,1.629,2.554h0.049c0.61-1.188,1.351-2.046,2.218-2.569c0.868-0.524,1.917-0.786,3.151-0.786
					c1.79,0,3.09,0.486,3.902,1.457c0.813,0.971,1.221,2.563,1.221,4.779v11.801h-2.914v-11.229c0-1.713-0.235-2.896-0.704-3.552
					c-0.469-0.654-1.315-0.981-2.537-0.981c-1.288,0-2.289,0.478-3.003,1.432c-0.715,0.955-1.072,2.311-1.072,4.067v10.263
					L216.413,230.942L216.413,230.942z"/>
				<path fill="#464646" d="M236.283,222.71c0,2.029,0.42,3.595,1.26,4.697c0.84,1.102,2.067,1.653,3.684,1.653
					c1.275,0,2.299-0.257,3.068-0.77c0.77-0.513,1.29-1.162,1.563-1.948l2.586,0.737c-1.058,2.793-3.464,4.189-7.218,4.189
					c-2.619,0-4.613-0.78-5.982-2.341c-1.37-1.56-2.054-3.879-2.054-6.956c0-2.924,0.685-5.166,2.054-6.727s3.325-2.341,5.868-2.341
					c5.205,0,7.807,3.138,7.807,9.411v0.394h-12.636V222.71z M245.875,220.451c-0.164-1.866-0.639-3.228-1.424-4.084
					c-0.785-0.856-1.915-1.285-3.388-1.285c-1.431,0-2.562,0.478-3.396,1.433c-0.834,0.955-1.285,2.267-1.35,3.937L245.875,220.451
					L245.875,220.451z"/>
				<path fill="#464646" d="M263.911,230.942v-11.229c0-1.167-0.114-2.072-0.344-2.717c-0.229-0.644-0.595-1.107-1.096-1.391
					c-0.502-0.284-1.239-0.426-2.21-0.426c-1.418,0-2.537,0.485-3.355,1.457c-0.818,0.971-1.228,2.318-1.228,4.042v10.263h-2.946
					v-13.929c0-2.062-0.033-3.322-0.099-3.781h2.782c0.012,0.055,0.022,0.202,0.033,0.442c0.011,0.24,0.025,0.516,0.041,0.826
					c0.017,0.312,0.035,0.898,0.057,1.76h0.05c0.676-1.222,1.459-2.087,2.349-2.594c0.889-0.508,1.994-0.762,3.313-0.762
					c1.942,0,3.364,0.483,4.265,1.448c0.899,0.966,1.351,2.562,1.351,4.788v11.801h-2.963V230.942z"/>
			</g>
		</g>
		<g>
			<rect x="140.482" y="265.283" fill="none" width="399.453" height="56.215"/>
			<g enable-background="new    ">
				<path fill="#464646" d="M165.216,289.083h-3.73l-3.994-14.648c-0.262-0.917-0.644-2.56-1.146-4.927
					c-0.284,1.266-0.523,2.324-0.721,3.175c-0.195,0.852-1.686,6.318-4.468,16.4h-3.731l-6.792-23.062h3.258l4.141,14.648
					c0.491,1.833,0.944,3.722,1.358,5.663c0.262-1.2,0.564-2.51,0.908-3.928c0.344-1.419,1.857-6.88,4.542-16.384h2.996
					l4.011,14.354c0.61,2.346,1.091,4.332,1.439,5.957l0.147-0.572c0.294-1.255,0.534-2.278,0.72-3.069
					c0.185-0.791,1.718-6.348,4.599-16.67h3.258L165.216,289.083z"/>
				<path fill="#464646" d="M176.035,280.851c0,2.029,0.42,3.595,1.26,4.697c0.841,1.103,2.067,1.653,3.684,1.653
					c1.275,0,2.299-0.258,3.068-0.77c0.77-0.514,1.29-1.162,1.563-1.949l2.586,0.738c-1.058,2.793-3.464,4.188-7.218,4.188
					c-2.619,0-4.613-0.78-5.982-2.341c-1.37-1.561-2.054-3.879-2.054-6.956c0-2.924,0.685-5.166,2.054-6.728
					c1.369-1.561,3.325-2.341,5.868-2.341c5.205,0,7.807,3.138,7.807,9.411v0.394h-12.636V280.851z M185.626,278.592
					c-0.164-1.866-0.639-3.228-1.424-4.084c-0.785-0.856-1.915-1.285-3.388-1.285c-1.43,0-2.562,0.478-3.396,1.433
					c-0.834,0.955-1.285,2.267-1.35,3.937L185.626,278.592L185.626,278.592z"/>
				<path fill="#464646" d="M192.484,289.083v-13.585c0-1.244-0.033-2.619-0.098-4.125h2.781c0.087,2.008,0.131,3.214,0.131,3.617
					h0.066c0.469-1.517,1.009-2.553,1.62-3.109c0.611-0.557,1.473-0.835,2.586-0.835c0.393,0,0.791,0.055,1.195,0.164v2.7
					c-0.394-0.108-0.917-0.163-1.571-0.163c-1.222,0-2.155,0.526-2.799,1.579c-0.645,1.053-0.965,2.562-0.965,4.525v9.231
					L192.484,289.083L192.484,289.083z"/>
				<path fill="#464646" d="M214.678,289.083l-5.991-8.086l-2.16,1.784v6.302h-2.946v-24.289h2.946v15.173l7.773-8.594h3.454
					l-7.186,7.611l7.562,10.099H214.678z"/>
				<path fill="#464646" d="M220.342,289.083v-24.289h2.946v24.289H220.342z"/>
				<path fill="#464646" d="M242.764,280.212c0,3.099-0.683,5.407-2.046,6.924c-1.364,1.517-3.346,2.274-5.941,2.274
					c-2.586,0-4.54-0.788-5.859-2.365c-1.319-1.576-1.979-3.854-1.979-6.833c0-6.11,2.646-9.166,7.938-9.166
					c2.706,0,4.698,0.745,5.975,2.234C242.126,274.77,242.764,277.08,242.764,280.212z M239.671,280.212
					c0-2.444-0.362-4.22-1.088-5.328c-0.726-1.106-1.944-1.661-3.658-1.661c-1.724,0-2.971,0.565-3.739,1.694
					c-0.77,1.129-1.154,2.895-1.154,5.295c0,2.335,0.379,4.089,1.138,5.263s1.95,1.76,3.576,1.76c1.769,0,3.031-0.567,3.789-1.702
					C239.292,284.396,239.671,282.623,239.671,280.212z"/>
				<path fill="#464646" d="M261.407,280.212c0,3.099-0.682,5.407-2.046,6.924s-3.345,2.274-5.941,2.274
					c-2.586,0-4.54-0.788-5.858-2.365c-1.32-1.576-1.98-3.854-1.98-6.833c0-6.11,2.646-9.166,7.938-9.166
					c2.706,0,4.698,0.745,5.974,2.234C260.769,274.77,261.407,277.08,261.407,280.212z M258.314,280.212
					c0-2.444-0.363-4.22-1.088-5.328c-0.727-1.106-1.945-1.661-3.658-1.661c-1.724,0-2.971,0.565-3.74,1.694
					c-0.769,1.129-1.154,2.895-1.154,5.295c0,2.335,0.38,4.089,1.139,5.263c0.758,1.174,1.95,1.76,3.576,1.76
					c1.768,0,3.03-0.567,3.788-1.702C257.935,284.396,258.314,282.623,258.314,280.212z"/>
				<path fill="#464646" d="M278.364,284.189c0,1.668-0.63,2.957-1.89,3.861c-1.261,0.906-3.025,1.358-5.295,1.358
					c-2.204,0-3.904-0.362-5.1-1.089c-1.195-0.726-1.972-1.857-2.332-3.396l2.603-0.508c0.251,0.949,0.77,1.646,1.555,2.087
					c0.786,0.441,1.876,0.663,3.273,0.663c1.494,0,2.588-0.229,3.281-0.688c0.693-0.457,1.039-1.146,1.039-2.062
					c0-0.698-0.24-1.266-0.72-1.702c-0.48-0.437-1.255-0.796-2.324-1.08l-2.112-0.557c-1.69-0.437-2.894-0.864-3.608-1.284
					s-1.274-0.931-1.678-1.531c-0.404-0.6-0.605-1.336-0.605-2.209c0-1.615,0.576-2.846,1.727-3.691
					c1.151-0.845,2.829-1.269,5.033-1.269c1.953,0,3.505,0.344,4.657,1.031c1.151,0.688,1.879,1.79,2.185,3.307l-2.651,0.327
					c-0.164-0.785-0.604-1.389-1.317-1.809c-0.715-0.42-1.672-0.63-2.873-0.63c-1.332,0-2.312,0.202-2.945,0.605
					c-0.634,0.404-0.949,1.015-0.949,1.833c0,0.502,0.131,0.917,0.393,1.244c0.263,0.327,0.649,0.605,1.162,0.835
					c0.513,0.229,1.593,0.546,3.241,0.949c1.56,0.393,2.684,0.756,3.372,1.088c0.688,0.333,1.229,0.701,1.628,1.105
					c0.397,0.403,0.707,0.87,0.925,1.399C278.255,282.907,278.364,283.514,278.364,284.189z"/>
				<path fill="#464646" d="M284.763,274.401c0.633-1.156,1.394-2.005,2.282-2.545c0.89-0.54,2.017-0.811,3.38-0.811
					c1.921,0,3.337,0.478,4.248,1.433s1.367,2.556,1.367,4.804v11.801h-2.963v-11.229c0-1.243-0.114-2.168-0.344-2.773
					c-0.229-0.606-0.605-1.051-1.129-1.334c-0.524-0.284-1.25-0.426-2.177-0.426c-1.387,0-2.496,0.48-3.331,1.44
					s-1.252,2.253-1.252,3.879v10.442h-2.946v-24.289h2.946v6.317c0,0.666-0.021,1.354-0.059,2.062s-0.062,1.118-0.074,1.228
					L284.763,274.401L284.763,274.401z"/>
				<path fill="#464646" d="M302.735,280.851c0,2.029,0.42,3.595,1.26,4.697c0.84,1.103,2.067,1.653,3.684,1.653
					c1.275,0,2.299-0.258,3.068-0.77c0.77-0.514,1.29-1.162,1.563-1.949l2.586,0.738c-1.06,2.793-3.465,4.188-7.218,4.188
					c-2.619,0-4.613-0.78-5.982-2.341c-1.37-1.561-2.054-3.879-2.054-6.956c0-2.924,0.685-5.166,2.054-6.728
					c1.369-1.561,3.325-2.341,5.868-2.341c5.205,0,7.808,3.138,7.808,9.411v0.394h-12.637V280.851z M312.326,278.592
					c-0.164-1.866-0.639-3.228-1.424-4.084c-0.786-0.856-1.915-1.285-3.388-1.285c-1.431,0-2.562,0.478-3.396,1.433
					c-0.834,0.955-1.285,2.267-1.35,3.937L312.326,278.592L312.326,278.592z"/>
				<path fill="#464646" d="M319.102,267.609v-2.815h2.945v2.815H319.102z M319.102,289.083v-17.71h2.945v17.71H319.102z"/>
				<path fill="#464646" d="M337.745,286.234c-0.546,1.136-1.269,1.947-2.169,2.438s-2.016,0.736-3.347,0.736
					c-2.237,0-3.882-0.753-4.936-2.259c-1.053-1.506-1.58-3.787-1.58-6.841c0-6.177,2.173-9.265,6.516-9.265
					c1.343,0,2.46,0.246,3.354,0.736c0.896,0.491,1.614,1.271,2.16,2.341h0.032l-0.032-1.98v-7.349h2.946v20.639
					c0,1.845,0.033,3.062,0.098,3.65h-2.813c-0.033-0.175-0.068-0.578-0.106-1.211c-0.038-0.634-0.058-1.179-0.058-1.638h-0.065
					V286.234z M328.808,280.212c0,2.478,0.328,4.25,0.981,5.319c0.654,1.068,1.719,1.604,3.191,1.604
					c1.67,0,2.881-0.578,3.633-1.734c0.754-1.156,1.13-2.951,1.13-5.385c0-2.346-0.376-4.064-1.13-5.156
					c-0.752-1.091-1.953-1.637-3.6-1.637c-1.484,0-2.558,0.549-3.218,1.646C329.137,275.965,328.808,277.746,328.808,280.212z"/>
			</g>
		</g>
		<g>
			<rect x="140.482" y="323.943" fill="none" width="399.453" height="56.217"/>
			<g enable-background="new    ">
				<path fill="#464646" d="M163.088,335.974c0,2.38-0.464,4.461-1.391,6.244c-0.928,1.784-2.243,3.151-3.945,4.102
					s-3.666,1.424-5.892,1.424h-8.626v-23.062h7.627c3.906,0,6.92,0.979,9.043,2.938
					C162.027,329.577,163.088,332.362,163.088,335.974z M159.946,335.974c0-2.857-0.783-5.038-2.349-6.538
					c-1.566-1.501-3.833-2.251-6.802-2.251h-4.436v18.055h5.139c1.691,0,3.179-0.371,4.46-1.113
					c1.282-0.742,2.268-1.812,2.954-3.208C159.6,339.521,159.946,337.873,159.946,335.974z"/>
				<path fill="#464646" d="M166.934,326.27v-2.815h2.945v2.815H166.934z M166.934,347.742v-17.71h2.945v17.71H166.934z"/>
				<path fill="#464646" d="M187.688,342.849c0,1.669-0.63,2.957-1.891,3.862c-1.26,0.906-3.024,1.358-5.295,1.358
					c-2.204,0-3.903-0.362-5.099-1.089c-1.195-0.726-1.972-1.857-2.332-3.396l2.602-0.508c0.251,0.949,0.771,1.646,1.556,2.087
					c0.786,0.441,1.876,0.663,3.272,0.663c1.495,0,2.588-0.229,3.282-0.688c0.693-0.458,1.039-1.146,1.039-2.062
					c0-0.698-0.24-1.267-0.72-1.702c-0.48-0.438-1.255-0.796-2.324-1.08l-2.112-0.557c-1.69-0.438-2.894-0.864-3.608-1.284
					s-1.274-0.931-1.679-1.531c-0.403-0.6-0.604-1.336-0.604-2.209c0-1.615,0.576-2.846,1.727-3.69
					c1.151-0.846,2.829-1.27,5.033-1.27c1.953,0,3.505,0.344,4.657,1.031c1.151,0.688,1.879,1.79,2.185,3.307l-2.651,0.327
					c-0.164-0.785-0.604-1.389-1.317-1.809c-0.715-0.421-1.672-0.63-2.873-0.63c-1.332,0-2.312,0.201-2.946,0.604
					c-0.633,0.404-0.948,1.015-0.948,1.833c0,0.502,0.131,0.917,0.393,1.244s0.649,0.604,1.162,0.835
					c0.513,0.229,1.593,0.546,3.241,0.949c1.56,0.393,2.684,0.756,3.372,1.088c0.688,0.333,1.229,0.701,1.628,1.104
					c0.397,0.403,0.707,0.87,0.925,1.399S187.688,342.172,187.688,342.849z"/>
				<path fill="#464646" d="M193.401,338.806c0,2.356,0.371,4.104,1.113,5.237c0.741,1.135,1.859,1.702,3.354,1.702
					c1.048,0,1.923-0.283,2.627-0.852c0.704-0.566,1.138-1.439,1.301-2.618l2.979,0.195c-0.229,1.702-0.955,3.062-2.177,4.076
					c-1.223,1.016-2.772,1.521-4.648,1.521c-2.477,0-4.368-0.782-5.671-2.35c-1.304-1.564-1.956-3.849-1.956-6.85
					c0-2.979,0.655-5.251,1.964-6.817c1.31-1.564,3.187-2.349,5.63-2.349c1.812,0,3.314,0.47,4.51,1.408
					c1.194,0.938,1.944,2.23,2.25,3.879l-3.028,0.229c-0.153-0.98-0.54-1.762-1.162-2.34s-1.506-0.868-2.652-0.868
					c-1.561,0-2.689,0.52-3.388,1.557C193.75,334.604,193.401,336.351,193.401,338.806z"/>
				<path fill="#464646" d="M207.984,347.742v-13.585c0-1.244-0.033-2.619-0.098-4.125h2.781c0.087,2.008,0.131,3.214,0.131,3.617
					h0.066c0.469-1.518,1.009-2.554,1.62-3.109c0.611-0.557,1.473-0.835,2.586-0.835c0.393,0,0.791,0.055,1.195,0.164v2.7
					c-0.394-0.108-0.917-0.163-1.571-0.163c-1.222,0-2.155,0.525-2.799,1.579c-0.645,1.053-0.965,2.562-0.965,4.524v9.231
					L207.984,347.742L207.984,347.742z"/>
				<path fill="#464646" d="M219.065,326.27v-2.815h2.946v2.815H219.065z M219.065,347.742v-17.71h2.946v17.71H219.065z"/>
				<path fill="#464646" d="M236.84,347.742v-11.229c0-1.713-0.234-2.896-0.703-3.552c-0.47-0.654-1.315-0.98-2.537-0.98
					c-1.255,0-2.248,0.479-2.979,1.439c-0.73,0.96-1.097,2.313-1.097,4.059v10.264h-2.93v-13.93c0-2.062-0.033-3.321-0.099-3.78
					h2.782c0.011,0.055,0.021,0.202,0.033,0.441c0.011,0.24,0.024,0.517,0.041,0.826c0.017,0.312,0.035,0.898,0.057,1.76h0.049
					c0.633-1.255,1.358-2.128,2.177-2.618s1.817-0.736,2.995-0.736c1.343,0,2.403,0.268,3.185,0.802
					c0.78,0.535,1.323,1.388,1.629,2.554h0.049c0.611-1.188,1.351-2.046,2.218-2.568c0.868-0.524,1.917-0.786,3.151-0.786
					c1.79,0,3.09,0.486,3.903,1.457c0.812,0.971,1.22,2.563,1.22,4.779v11.801h-2.914v-11.229c0-1.713-0.235-2.896-0.704-3.552
					c-0.469-0.654-1.315-0.981-2.537-0.981c-1.288,0-2.289,0.479-3.003,1.433c-0.715,0.955-1.072,2.311-1.072,4.067v10.263
					L236.84,347.742L236.84,347.742z"/>
				<path fill="#464646" d="M254.434,326.27v-2.815h2.945v2.815H254.434z M254.434,347.742v-17.71h2.945v17.71H254.434z"/>
				<path fill="#464646" d="M273.142,347.742v-11.229c0-1.167-0.114-2.071-0.345-2.717c-0.229-0.644-0.595-1.106-1.096-1.391
					c-0.502-0.284-1.239-0.427-2.21-0.427c-1.418,0-2.537,0.485-3.354,1.457c-0.818,0.972-1.229,2.318-1.229,4.043v10.263h-2.946
					v-13.929c0-2.062-0.032-3.322-0.098-3.781h2.782c0.011,0.055,0.021,0.202,0.033,0.441c0.011,0.24,0.024,0.517,0.041,0.826
					c0.017,0.312,0.034,0.898,0.057,1.76h0.049c0.676-1.222,1.459-2.087,2.349-2.594c0.89-0.508,1.994-0.762,3.314-0.762
					c1.942,0,3.364,0.482,4.264,1.448c0.9,0.966,1.352,2.562,1.352,4.788v11.801h-2.963V347.742z"/>
				<path fill="#464646" d="M285.058,348.069c-1.778,0-3.115-0.47-4.011-1.407c-0.895-0.938-1.342-2.228-1.342-3.863
					c0-1.833,0.604-3.24,1.81-4.223c1.206-0.981,3.15-1.506,5.835-1.571l3.978-0.065v-0.966c0-1.439-0.306-2.471-0.917-3.093
					s-1.571-0.934-2.881-0.934c-1.32,0-2.281,0.225-2.881,0.672c-0.601,0.447-0.96,1.162-1.08,2.144l-3.077-0.277
					c0.502-3.187,2.87-4.779,7.104-4.779c2.226,0,3.9,0.511,5.024,1.53c1.124,1.021,1.687,2.496,1.687,4.428v7.627
					c0,0.873,0.113,1.53,0.343,1.973c0.229,0.441,0.666,0.663,1.31,0.663c0.284,0,0.605-0.038,0.966-0.114v1.832
					c-0.741,0.176-1.5,0.264-2.274,0.264c-1.091,0-1.885-0.287-2.381-0.859c-0.497-0.573-0.777-1.471-0.844-2.691h-0.098
					c-0.753,1.353-1.628,2.311-2.627,2.871C287.703,347.79,286.488,348.069,285.058,348.069z M285.729,345.86
					c1.08,0,2.04-0.246,2.88-0.737c0.84-0.49,1.503-1.164,1.989-2.021c0.484-0.855,0.729-1.736,0.729-2.643v-1.457l-3.225,0.065
					c-1.387,0.021-2.437,0.163-3.15,0.426c-0.715,0.262-1.263,0.666-1.645,1.211c-0.382,0.546-0.573,1.261-0.573,2.145
					c0,0.96,0.259,1.702,0.777,2.227C284.03,345.598,284.769,345.86,285.729,345.86z"/>
				<path fill="#464646" d="M305.992,347.611c-0.971,0.262-1.964,0.393-2.979,0.393c-2.357,0-3.536-1.336-3.536-4.01v-11.817h-2.046
					v-2.145h2.16l0.867-3.961h1.964v3.961h3.273v2.145h-3.273v11.179c0,0.853,0.14,1.449,0.417,1.794
					c0.278,0.343,0.762,0.515,1.448,0.515c0.394,0,0.96-0.076,1.702-0.229v2.177H305.992z"/>
				<path fill="#464646" d="M308.48,326.27v-2.815h2.946v2.815H308.48z M308.48,347.742v-17.71h2.946v17.71H308.48z"/>
				<path fill="#464646" d="M318.203,339.51c0,2.029,0.42,3.596,1.26,4.697c0.841,1.102,2.067,1.653,3.684,1.653
					c1.275,0,2.3-0.257,3.068-0.771c0.77-0.513,1.289-1.162,1.562-1.948l2.586,0.737c-1.059,2.793-3.465,4.189-7.218,4.189
					c-2.618,0-4.613-0.78-5.982-2.342c-1.37-1.56-2.054-3.879-2.054-6.955c0-2.925,0.684-5.166,2.054-6.728
					c1.369-1.561,3.325-2.341,5.868-2.341c5.205,0,7.807,3.138,7.807,9.411v0.394h-12.635V339.51z M327.794,337.251
					c-0.164-1.866-0.639-3.228-1.425-4.084c-0.785-0.856-1.914-1.285-3.387-1.285c-1.43,0-2.562,0.479-3.396,1.434
					c-0.835,0.954-1.284,2.267-1.351,3.937L327.794,337.251L327.794,337.251z"/>
			</g>
		</g>
		<g>
			<rect x="140.482" y="382.598" fill="none" width="399.453" height="56.219"/>
			<g enable-background="new    ">
				<path fill="#464646" d="M153.448,385.544c-2.553,0-4.539,0.821-5.958,2.464c-1.419,1.644-2.128,3.894-2.128,6.751
					c0,2.826,0.739,5.1,2.218,6.817c1.479,1.718,3.479,2.578,5.999,2.578c3.23,0,5.658-1.6,7.284-4.796l2.553,1.275
					c-0.949,1.986-2.283,3.498-4.002,4.534c-1.718,1.037-3.712,1.555-5.981,1.555c-2.324,0-4.335-0.481-6.032-1.447
					c-1.697-0.967-2.99-2.347-3.879-4.142c-0.891-1.795-1.334-3.92-1.334-6.376c0-3.677,0.993-6.558,2.979-8.642
					c1.986-2.084,4.735-3.126,8.249-3.126c2.455,0,4.506,0.479,6.154,1.439c1.646,0.96,2.858,2.385,3.633,4.271l-2.962,0.981
					c-0.535-1.343-1.394-2.367-2.578-3.076C156.478,385.899,155.073,385.544,153.448,385.544z"/>
				<path fill="#464646" d="M181.927,397.525c0,3.099-0.683,5.406-2.047,6.924c-1.363,1.517-3.345,2.273-5.94,2.273
					c-2.586,0-4.54-0.788-5.859-2.364s-1.979-3.854-1.979-6.833c0-6.11,2.646-9.166,7.938-9.166c2.706,0,4.698,0.744,5.975,2.233
					C181.289,392.083,181.927,394.394,181.927,397.525z M178.834,397.525c0-2.444-0.362-4.221-1.088-5.328
					c-0.726-1.106-1.945-1.661-3.658-1.661c-1.724,0-2.971,0.564-3.739,1.694c-0.77,1.129-1.154,2.895-1.154,5.295
					c0,2.335,0.379,4.089,1.138,5.262c0.758,1.174,1.95,1.76,3.576,1.76c1.768,0,3.031-0.566,3.789-1.702
					C178.455,401.71,178.834,399.938,178.834,397.525z"/>
				<path fill="#464646" d="M185.659,406.396v-13.586c0-1.243-0.033-2.618-0.098-4.125h2.781c0.088,2.009,0.132,3.215,0.132,3.617
					h0.065c0.469-1.517,1.009-2.553,1.62-3.108c0.611-0.558,1.473-0.835,2.586-0.835c0.394,0,0.791,0.055,1.195,0.164v2.699
					c-0.394-0.107-0.917-0.163-1.571-0.163c-1.222,0-2.155,0.526-2.799,1.579c-0.644,1.054-0.965,2.562-0.965,4.525v9.23h-2.947
					V406.396z"/>
				<path fill="#464646" d="M196.822,406.396v-13.586c0-1.243-0.033-2.618-0.098-4.125h2.781c0.088,2.009,0.132,3.215,0.132,3.617
					h0.065c0.469-1.517,1.009-2.553,1.62-3.108c0.611-0.558,1.473-0.835,2.586-0.835c0.394,0,0.791,0.055,1.195,0.164v2.699
					c-0.394-0.107-0.917-0.163-1.571-0.163c-1.222,0-2.155,0.526-2.799,1.579c-0.645,1.054-0.965,2.562-0.965,4.525v9.23h-2.947
					V406.396z"/>
				<path fill="#464646" d="M210.799,388.688v11.229c0,1.168,0.115,2.073,0.345,2.717c0.229,0.646,0.595,1.107,1.097,1.393
					c0.502,0.282,1.238,0.426,2.21,0.426c1.418,0,2.537-0.486,3.355-1.457c0.817-0.971,1.228-2.318,1.228-4.043v-10.263h2.946
					v13.929c0,2.062,0.033,3.323,0.098,3.781h-2.782c-0.011-0.056-0.021-0.202-0.032-0.442c-0.012-0.239-0.025-0.515-0.041-0.826
					c-0.018-0.311-0.036-0.896-0.059-1.76h-0.049c-0.677,1.223-1.459,2.087-2.349,2.595c-0.891,0.507-1.995,0.761-3.314,0.761
					c-1.942,0-3.364-0.481-4.264-1.447c-0.9-0.966-1.352-2.562-1.352-4.787v-11.802h2.963V388.688z"/>
				<path fill="#464646" d="M241.537,397.46c0,6.176-2.171,9.264-6.514,9.264c-2.729,0-4.562-1.024-5.5-3.076h-0.082
					c0.043,0.088,0.065,1.015,0.065,2.782v6.923h-2.945v-21.049c0-1.82-0.033-3.026-0.099-3.617h2.849
					c0.011,0.045,0.026,0.199,0.049,0.468c0.021,0.268,0.046,0.68,0.074,1.234c0.026,0.558,0.041,0.939,0.041,1.146h0.065
					c0.523-1.091,1.216-1.892,2.079-2.398c0.862-0.507,1.997-0.761,3.404-0.761c2.182,0,3.812,0.731,4.894,2.193
					C240.997,392.031,241.537,394.328,241.537,397.46z M238.444,397.525c0-2.467-0.333-4.229-0.999-5.287
					c-0.666-1.059-1.724-1.587-3.175-1.587c-1.167,0-2.082,0.245-2.742,0.735c-0.66,0.491-1.162,1.258-1.506,2.3
					s-0.516,2.397-0.516,4.067c0,2.324,0.371,4.037,1.113,5.139c0.742,1.104,1.948,1.653,3.617,1.653c1.462,0,2.529-0.537,3.2-1.612
					C238.108,401.86,238.444,400.057,238.444,397.525z"/>
				<path fill="#464646" d="M252.012,406.266c-0.972,0.263-1.965,0.394-2.979,0.394c-2.357,0-3.536-1.336-3.536-4.01v-11.817h-2.046
					v-2.145h2.161l0.867-3.962h1.964v3.962h3.272v2.145h-3.272v11.179c0,0.853,0.139,1.449,0.417,1.793
					c0.278,0.343,0.761,0.516,1.448,0.516c0.393,0,0.96-0.076,1.702-0.229v2.176H252.012z"/>
				<path fill="#464646" d="M254.5,384.923v-2.814h2.946v2.814H254.5z M254.5,406.396v-17.711h2.946v17.711H254.5z"/>
				<path fill="#464646" d="M264.222,398.164c0,2.029,0.42,3.595,1.26,4.697c0.84,1.102,2.066,1.652,3.683,1.652
					c1.276,0,2.299-0.257,3.069-0.77c0.769-0.513,1.29-1.162,1.562-1.948l2.586,0.737c-1.058,2.793-3.464,4.188-7.218,4.188
					c-2.619,0-4.612-0.779-5.981-2.341c-1.37-1.56-2.055-3.879-2.055-6.956c0-2.924,0.686-5.166,2.055-6.727
					c1.369-1.562,3.324-2.341,5.868-2.341c5.204,0,7.807,3.138,7.807,9.41v0.395h-12.636V398.164z M273.814,395.905
					c-0.164-1.866-0.64-3.229-1.424-4.084c-0.785-0.856-1.915-1.285-3.389-1.285c-1.43,0-2.562,0.478-3.396,1.433
					s-1.285,2.268-1.351,3.938L273.814,395.905L273.814,395.905z"/>
			</g>
		</g>
		<g>
			<rect x="140.482" y="440.91" fill="none" width="399.453" height="56.217"/>
			<g enable-background="new    ">
				<path fill="#464646" d="M142.171,453.073c0-3.742,1.003-6.64,3.012-8.69c2.008-2.051,4.829-3.077,8.462-3.077
					c2.554,0,4.626,0.432,6.22,1.293c1.594,0.862,2.821,2.242,3.683,4.142l-2.979,0.884c-0.655-1.31-1.558-2.264-2.709-2.864
					c-1.151-0.6-2.583-0.899-4.296-0.899c-2.663,0-4.698,0.806-6.105,2.415c-1.408,1.608-2.11,3.876-2.11,6.8
					c0,2.914,0.747,5.214,2.241,6.898c1.495,1.687,3.562,2.528,6.203,2.528c1.506,0,2.911-0.229,4.215-0.688
					c1.305-0.458,2.359-1.08,3.167-1.865v-4.157h-6.891v-2.619h9.771v7.955c-1.224,1.243-2.721,2.207-4.493,2.889
					c-1.773,0.683-3.696,1.022-5.771,1.022c-2.412,0-4.489-0.479-6.235-1.44c-1.746-0.96-3.08-2.343-4.002-4.147
					C142.631,457.643,142.171,455.519,142.171,453.073z"/>
				<path fill="#464646" d="M171.075,456.479c0,2.029,0.42,3.596,1.26,4.697c0.84,1.103,2.067,1.653,3.684,1.653
					c1.275,0,2.299-0.257,3.068-0.771c0.77-0.513,1.29-1.161,1.563-1.947l2.586,0.736c-1.058,2.793-3.464,4.189-7.218,4.189
					c-2.619,0-4.613-0.78-5.982-2.341c-1.37-1.561-2.054-3.879-2.054-6.956c0-2.924,0.685-5.166,2.054-6.728
					c1.369-1.561,3.325-2.341,5.868-2.341c5.205,0,7.807,3.138,7.807,9.411v0.394h-12.636V456.479z M180.667,454.22
					c-0.164-1.866-0.639-3.228-1.424-4.084c-0.785-0.855-1.915-1.285-3.388-1.285c-1.431,0-2.562,0.479-3.396,1.434
					s-1.285,2.267-1.35,3.937L180.667,454.22L180.667,454.22z"/>
				<path fill="#464646" d="M186.559,464.711v-2.242l9.901-13.191h-9.346v-2.275h12.832v2.243l-9.918,13.19h10.262v2.275H186.559
					L186.559,464.711z"/>
				<path fill="#464646" d="M219.196,455.84c0,3.1-0.682,5.407-2.046,6.924c-1.364,1.518-3.345,2.274-5.941,2.274
					c-2.586,0-4.54-0.788-5.858-2.365c-1.32-1.576-1.98-3.854-1.98-6.833c0-6.109,2.646-9.166,7.938-9.166
					c2.706,0,4.697,0.745,5.974,2.234C218.557,450.397,219.196,452.708,219.196,455.84z M216.102,455.84
					c0-2.443-0.363-4.22-1.088-5.328c-0.727-1.105-1.945-1.661-3.658-1.661c-1.725,0-2.971,0.565-3.74,1.694
					c-0.769,1.129-1.154,2.896-1.154,5.295c0,2.335,0.379,4.089,1.139,5.262c0.758,1.175,1.949,1.761,3.575,1.761
					c1.769,0,3.031-0.567,3.789-1.702C215.723,460.025,216.102,458.251,216.102,455.84z"/>
				<path fill="#464646" d="M234.106,464.711v-11.229c0-1.167-0.114-2.072-0.344-2.718c-0.229-0.644-0.596-1.106-1.097-1.391
					c-0.502-0.284-1.238-0.426-2.21-0.426c-1.418,0-2.537,0.484-3.354,1.457c-0.818,0.971-1.229,2.317-1.229,4.042v10.263h-2.945
					v-13.929c0-2.062-0.033-3.322-0.099-3.781h2.782c0.011,0.055,0.021,0.202,0.033,0.442c0.011,0.239,0.024,0.516,0.041,0.825
					c0.017,0.312,0.035,0.898,0.057,1.761h0.049c0.676-1.223,1.459-2.087,2.35-2.595c0.889-0.508,1.994-0.762,3.313-0.762
					c1.942,0,3.364,0.483,4.265,1.448c0.899,0.966,1.351,2.562,1.351,4.788v11.801h-2.963V464.711z"/>
				<path fill="#464646" d="M252.683,461.863c-0.545,1.135-1.27,1.946-2.168,2.438c-0.9,0.491-2.017,0.736-3.348,0.736
					c-2.236,0-3.882-0.753-4.935-2.259c-1.053-1.507-1.579-3.786-1.579-6.842c0-6.177,2.171-9.265,6.514-9.265
					c1.343,0,2.46,0.246,3.355,0.736c0.895,0.491,1.615,1.271,2.16,2.341h0.032l-0.032-1.98v-7.349h2.945v20.639
					c0,1.846,0.033,3.062,0.099,3.65h-2.815c-0.033-0.175-0.067-0.578-0.105-1.211c-0.039-0.633-0.059-1.179-0.059-1.637h-0.064
					V461.863z M243.747,455.84c0,2.479,0.328,4.25,0.982,5.319c0.654,1.068,1.719,1.604,3.191,1.604c1.669,0,2.88-0.579,3.634-1.734
					c0.753-1.156,1.129-2.951,1.129-5.386c0-2.346-0.376-4.063-1.129-5.155c-0.754-1.091-1.953-1.638-3.602-1.638
					c-1.483,0-2.556,0.55-3.216,1.646S243.747,453.374,243.747,455.84z"/>
				<path fill="#464646" d="M263.077,450.029c0.633-1.156,1.395-2.005,2.283-2.545s2.016-0.812,3.38-0.812
					c1.92,0,3.336,0.479,4.248,1.434c0.911,0.954,1.367,2.556,1.367,4.804v11.801h-2.963v-11.229c0-1.243-0.114-2.168-0.345-2.773
					c-0.229-0.606-0.604-1.051-1.129-1.334c-0.523-0.284-1.25-0.426-2.177-0.426c-1.386,0-2.496,0.479-3.331,1.439
					s-1.252,2.253-1.252,3.879v10.442h-2.946v-24.289h2.946v6.317c0,0.666-0.02,1.354-0.058,2.062s-0.063,1.118-0.074,1.229
					L263.077,450.029L263.077,450.029z"/>
				<path fill="#464646" d="M281.048,456.479c0,2.029,0.421,3.596,1.261,4.697c0.84,1.103,2.066,1.653,3.683,1.653
					c1.276,0,2.299-0.257,3.069-0.771c0.769-0.513,1.29-1.161,1.562-1.947l2.586,0.736c-1.058,2.793-3.464,4.189-7.218,4.189
					c-2.619,0-4.613-0.78-5.981-2.341c-1.37-1.561-2.055-3.879-2.055-6.956c0-2.924,0.686-5.166,2.055-6.728
					c1.368-1.561,3.324-2.341,5.867-2.341c5.205,0,7.808,3.138,7.808,9.411v0.394h-12.637V456.479z M290.639,454.22
					c-0.164-1.866-0.64-3.228-1.425-4.084c-0.784-0.855-1.915-1.285-3.388-1.285c-1.43,0-2.562,0.479-3.396,1.434
					s-1.285,2.267-1.351,3.937L290.639,454.22L290.639,454.22z"/>
				<path fill="#464646" d="M297.415,443.237v-2.815h2.946v2.815H297.415z M297.415,464.711v-17.71h2.946v17.71H297.415z"/>
				<path fill="#464646" d="M316.058,461.863c-0.546,1.135-1.271,1.946-2.169,2.438c-0.9,0.491-2.018,0.736-3.348,0.736
					c-2.236,0-3.882-0.753-4.935-2.259c-1.053-1.507-1.579-3.786-1.579-6.842c0-6.177,2.171-9.265,6.514-9.265
					c1.343,0,2.46,0.246,3.356,0.736c0.895,0.491,1.614,1.271,2.16,2.341h0.031l-0.031-1.98v-7.349h2.944v20.639
					c0,1.846,0.033,3.062,0.1,3.65h-2.815c-0.032-0.175-0.067-0.578-0.104-1.211c-0.039-0.633-0.06-1.179-0.06-1.637h-0.064V461.863
					z M307.121,455.84c0,2.479,0.328,4.25,0.982,5.319c0.654,1.068,1.719,1.604,3.191,1.604c1.669,0,2.88-0.579,3.634-1.734
					c0.753-1.156,1.13-2.951,1.13-5.386c0-2.346-0.377-4.063-1.13-5.155c-0.754-1.091-1.953-1.638-3.602-1.638
					c-1.484,0-2.556,0.55-3.216,1.646S307.121,453.374,307.121,455.84z"/>
			</g>
		</g>
		<g>
			<rect x="140.482" y="500.443" fill="none" width="399.453" height="56.213"/>
			<g enable-background="new    ">
				<path fill="#464646" d="M164.954,512.605c0,2.411-0.461,4.522-1.383,6.335c-0.922,1.812-2.245,3.201-3.969,4.174
					c-1.725,0.971-3.759,1.456-6.105,1.456c-2.368,0-4.411-0.479-6.13-1.44c-1.718-0.96-3.031-2.349-3.936-4.165
					c-0.906-1.816-1.359-3.937-1.359-6.358c0-3.688,1.009-6.571,3.028-8.649c2.019-2.079,4.828-3.118,8.429-3.118
					c2.346,0,4.381,0.467,6.104,1.399c1.725,0.932,3.043,2.289,3.953,4.066C164.498,508.083,164.954,510.184,164.954,512.605z
					 M161.762,512.605c0-2.869-0.719-5.122-2.152-6.761c-1.436-1.637-3.462-2.455-6.081-2.455c-2.641,0-4.681,0.809-6.122,2.423
					c-1.441,1.615-2.161,3.88-2.161,6.793c0,2.893,0.729,5.187,2.186,6.883c1.457,1.696,3.479,2.545,6.063,2.545
					c2.662,0,4.706-0.82,6.129-2.463C161.051,517.928,161.762,515.606,161.762,512.605z"/>
				<path fill="#464646" d="M180.061,524.243v-11.229c0-1.167-0.114-2.071-0.345-2.717c-0.229-0.644-0.595-1.106-1.096-1.391
					c-0.502-0.284-1.239-0.426-2.21-0.426c-1.418,0-2.537,0.484-3.354,1.456c-0.818,0.972-1.229,2.318-1.229,4.042v10.264h-2.946
					v-13.929c0-2.062-0.032-3.322-0.098-3.781h2.782c0.011,0.055,0.021,0.202,0.033,0.441c0.011,0.24,0.024,0.517,0.041,0.826
					c0.017,0.312,0.034,0.898,0.057,1.76h0.049c0.676-1.222,1.459-2.087,2.35-2.594c0.889-0.508,1.993-0.762,3.313-0.762
					c1.942,0,3.364,0.483,4.264,1.448c0.9,0.966,1.352,2.562,1.352,4.788v11.801h-2.963V524.243z"/>
				<path fill="#464646" d="M198.638,521.396c-0.545,1.135-1.27,1.946-2.168,2.438c-0.9,0.491-2.017,0.736-3.348,0.736
					c-2.236,0-3.882-0.753-4.935-2.26c-1.053-1.506-1.579-3.785-1.579-6.841c0-6.177,2.171-9.265,6.514-9.265
					c1.342,0,2.46,0.246,3.355,0.736c0.895,0.49,1.615,1.271,2.16,2.341h0.032l-0.032-1.98v-7.349h2.945v20.639
					c0,1.845,0.033,3.062,0.099,3.65h-2.815c-0.033-0.175-0.068-0.578-0.105-1.211c-0.039-0.633-0.059-1.18-0.059-1.638h-0.064
					V521.396z M189.701,515.372c0,2.478,0.328,4.25,0.982,5.319c0.654,1.068,1.719,1.604,3.191,1.604
					c1.669,0,2.88-0.579,3.633-1.735c0.754-1.155,1.13-2.95,1.13-5.385c0-2.346-0.376-4.063-1.13-5.156
					c-0.753-1.091-1.952-1.637-3.601-1.637c-1.484,0-2.556,0.549-3.216,1.646C190.031,511.125,189.701,512.906,189.701,515.372z"/>
				<path fill="#464646" d="M208.361,516.011c0,2.029,0.42,3.595,1.26,4.697c0.84,1.102,2.067,1.653,3.684,1.653
					c1.275,0,2.299-0.258,3.068-0.771s1.29-1.162,1.563-1.948l2.586,0.737c-1.059,2.793-3.464,4.189-7.218,4.189
					c-2.619,0-4.613-0.78-5.982-2.341c-1.37-1.561-2.054-3.88-2.054-6.956c0-2.925,0.685-5.166,2.054-6.728
					c1.369-1.561,3.325-2.341,5.868-2.341c5.205,0,7.807,3.138,7.807,9.411v0.394h-12.636V516.011z M217.952,513.752
					c-0.164-1.866-0.639-3.228-1.424-4.084s-1.915-1.285-3.388-1.285c-1.431,0-2.562,0.479-3.396,1.434s-1.285,2.267-1.35,3.937
					L217.952,513.752L217.952,513.752z"/>
				<path fill="#464646" d="M224.81,524.243v-13.585c0-1.244-0.033-2.619-0.099-4.125h2.782c0.087,2.008,0.131,3.214,0.131,3.617
					h0.066c0.469-1.518,1.009-2.554,1.62-3.109c0.61-0.557,1.473-0.835,2.586-0.835c0.393,0,0.791,0.055,1.194,0.164v2.7
					c-0.393-0.108-0.917-0.163-1.57-0.163c-1.223,0-2.155,0.525-2.799,1.579c-0.645,1.053-0.966,2.562-0.966,4.524v9.231
					L224.81,524.243L224.81,524.243z"/>
				<path fill="#464646" d="M252.864,524.243h-3.421l-3.093-12.521l-0.589-2.766c-0.099,0.491-0.252,1.197-0.458,2.119
					c-0.208,0.923-1.321,5.312-3.34,13.168h-3.403l-4.959-17.71h2.914l2.994,12.029c0.076,0.263,0.312,1.344,0.704,3.241
					l0.278-1.212l3.699-14.06h3.159l3.093,12.161l0.753,3.109l0.507-2.274l3.355-12.996h2.88L252.864,524.243z"/>
				<path fill="#464646" d="M260.097,502.77v-2.814h2.945v2.814H260.097z M260.097,524.243v-17.71h2.945v17.71H260.097z"/>
				<path fill="#464646" d="M270.491,526.438c0,1.669-0.327,2.881-0.982,3.634c-0.654,0.753-1.637,1.129-2.945,1.129
					c-0.84,0-1.533-0.049-2.079-0.147v-2.273l1.015,0.098c0.753,0,1.282-0.196,1.588-0.589s0.458-1.157,0.458-2.292v-19.461h2.946
					V526.438L270.491,526.438z M267.545,502.77v-2.814h2.946v2.814H267.545z"/>
				<path fill="#464646" d="M288.299,519.35c0,1.669-0.63,2.957-1.89,3.862c-1.26,0.906-3.025,1.358-5.295,1.358
					c-2.204,0-3.904-0.362-5.099-1.088c-1.195-0.727-1.973-1.858-2.332-3.396l2.602-0.508c0.251,0.949,0.771,1.646,1.555,2.087
					c0.786,0.442,1.876,0.663,3.273,0.663c1.495,0,2.588-0.229,3.282-0.688c0.692-0.458,1.039-1.146,1.039-2.062
					c0-0.698-0.24-1.267-0.721-1.702c-0.479-0.438-1.255-0.796-2.323-1.08l-2.112-0.557c-1.691-0.438-2.895-0.864-3.609-1.284
					s-1.273-0.932-1.678-1.531s-0.605-1.336-0.605-2.209c0-1.615,0.576-2.846,1.728-3.691c1.151-0.845,2.829-1.269,5.033-1.269
					c1.953,0,3.505,0.344,4.656,1.031s1.88,1.79,2.186,3.307l-2.652,0.327c-0.164-0.785-0.603-1.389-1.316-1.809
					c-0.715-0.421-1.672-0.631-2.873-0.631c-1.332,0-2.313,0.202-2.946,0.605c-0.633,0.404-0.949,1.015-0.949,1.833
					c0,0.502,0.131,0.917,0.394,1.244c0.262,0.327,0.648,0.604,1.162,0.835c0.513,0.229,1.593,0.546,3.24,0.949
					c1.561,0.393,2.685,0.756,3.372,1.088c0.688,0.333,1.23,0.701,1.628,1.104c0.398,0.403,0.707,0.87,0.926,1.399
					C288.19,518.068,288.299,518.673,288.299,519.35z"/>
			</g>
		</g>
		<rect x="26.463" y="17.726" opacity="0.3" fill="#8A887C" enable-background="new    " width="64.598" height="51.563"/>
		<rect x="26.463" y="76.086" opacity="0.3" fill="#8A887C" enable-background="new    " width="64.598" height="51.563"/>
		<rect x="26.463" y="135.445" opacity="0.3" fill="#8A887C" enable-background="new    " width="64.598" height="51.563"/>
		<rect x="26.463" y="193.49" opacity="0.3" fill="#8A887C" enable-background="new    " width="64.598" height="51.562"/>
		<rect x="26.463" y="252.064" opacity="0.3" fill="#8A887C" enable-background="new    " width="64.598" height="51.563"/>
		<rect x="26.463" y="311.03" opacity="0.3" fill="#8A887C" enable-background="new    " width="64.598" height="51.562"/>
		<rect x="26.463" y="368.861" opacity="0.3" fill="#8A887C" enable-background="new    " width="64.598" height="51.562"/>
		<rect x="26.463" y="427.604" opacity="0.3" fill="#8A887C" enable-background="new    " width="64.598" height="51.563"/>
		<rect x="26.463" y="486.439" opacity="0.3" fill="#8A887C" enable-background="new    " width="64.598" height="51.562"/>
		<g id="Checkbox__x28_V_x29___x3C_Group_x3E__3_">
			<polygon id="Vinkje__x3C_Path_x3E__3_" fill="#FFFFFF" points="46.635,37.661 40.023,41.852 54.574,59.266 77.498,32.588 
				69.785,27.742 53.471,46.926 			"/>
		</g>
	</g>
	<g>
		<g>
			<path fill="#FFFFFF" d="M563.52,165.393c0,0.365-0.289,0.672-0.66,0.672h-3.346c-0.371,0-0.67-0.307-0.67-0.672v-2.352
				l-12.379-2.813v11.212c0,0.736,0.594,1.334,1.33,1.334h26.771c0.742,0,1.338-0.598,1.338-1.334v-11.195l-12.385,2.796
				L563.52,165.393L563.52,165.393z"/>
			<path fill="#FFFFFF" d="M574.566,152.697h-26.771c-0.736,0-1.33,0.603-1.33,1.34v4.473l12.379,2.815v-1.284
				c0-0.374,0.299-0.672,0.67-0.672h3.346c0.371,0,0.66,0.298,0.66,0.672v1.29l12.385-2.808v-4.486
				C575.904,153.3,575.309,152.697,574.566,152.697z"/>
			<path fill="#FFFFFF" d="M556.023,149.593c0-1.004,0.807-1.817,1.809-1.817h6.701c1,0,1.818,0.813,1.818,1.817v1.768h1.572v-1.768
				c0-1.868-1.523-3.392-3.393-3.392h-6.7c-1.862,0-3.382,1.523-3.382,3.392v1.768h1.572L556.023,149.593L556.023,149.593z"/>
		</g>
	</g>
	<path fill="#FFFFFF" d="M577.588,41.434l-4.539-10.125v-0.004l-0.006-0.01c-0.021-0.041-0.037-0.072-0.055-0.1
		c-0.006-0.005-0.012-0.016-0.021-0.026c-0.018-0.022-0.037-0.046-0.055-0.065c-0.012-0.008-0.02-0.02-0.023-0.027
		c-0.025-0.025-0.047-0.044-0.074-0.061c-0.006-0.005-0.01-0.011-0.021-0.016c-0.027-0.021-0.068-0.039-0.104-0.055
		c-0.006-0.006-0.021-0.012-0.029-0.012c-0.029-0.01-0.059-0.019-0.086-0.023c-0.01-0.009-0.021-0.009-0.035-0.014
		c-0.041-0.006-0.084-0.012-0.121-0.012H564.4c-0.139-0.422-0.41-0.793-0.754-1.063v-0.993c0-0.377-0.305-0.685-0.688-0.685h-1.279
		c-0.379,0-0.689,0.308-0.689,0.685v1.01c-0.336,0.268-0.59,0.633-0.725,1.047h-8.037c-0.043,0-0.082,0.006-0.121,0.012
		c-0.016,0.005-0.027,0.005-0.037,0.014c-0.031,0.005-0.057,0.014-0.088,0.023c-0.01,0-0.021,0.006-0.027,0.012
		c-0.043,0.016-0.068,0.033-0.107,0.055c-0.01,0.005-0.018,0.011-0.018,0.016c-0.021,0.017-0.049,0.035-0.068,0.061
		c-0.013,0.008-0.02,0.02-0.027,0.027c-0.021,0.02-0.045,0.043-0.061,0.065c-0.006,0.011-0.014,0.021-0.018,0.026
		c-0.023,0.027-0.041,0.059-0.053,0.1l-0.006,0.01c0,0,0,0.004-0.006,0.004l-4.555,10.16c-0.074,0.112-0.123,0.246-0.123,0.391
		c0,2.93,2.385,5.312,5.312,5.312s5.311-2.382,5.311-5.312c0-0.145-0.039-0.278-0.125-0.391l-4.123-9.211h6.984
		c0.145,0.395,0.393,0.746,0.716,0.998v17.199h-6.073c-0.261,0-0.5,0.145-0.609,0.371l-1.893,3.66
		c-0.109,0.211-0.1,0.467,0.021,0.669c0.123,0.204,0.35,0.335,0.588,0.335h18.596l0,0c0.375,0,0.684-0.313,0.684-0.689
		c0-0.139-0.035-0.26-0.104-0.369l-1.86-3.605c-0.117-0.227-0.354-0.371-0.605-0.371h-6.084V33.271
		c0.334-0.254,0.598-0.607,0.738-1.014h6.967l-4.174,9.323c0,0,0,0-0.006,0.005c-0.006,0.009-0.006,0.014-0.014,0.025
		c-0.007,0.027-0.021,0.063-0.025,0.093c-0.004,0.011-0.004,0.017-0.004,0.027c-0.006,0.038-0.015,0.073-0.015,0.117
		c0,0.005,0,0.011,0,0.011c0,2.93,2.382,5.312,5.312,5.312c2.937,0,5.313-2.382,5.313-5.312
		C577.74,41.698,577.682,41.549,577.588,41.434z M555.777,41.172h-7.104l3.555-7.924L555.777,41.172z M563.135,31.548
		c0,0.442-0.363,0.805-0.799,0.805c-0.447,0-0.805-0.362-0.805-0.805c0-0.438,0.355-0.796,0.805-0.796
		C562.771,30.752,563.135,31.109,563.135,31.548z M568.863,41.172l3.551-7.924l3.551,7.924H568.863z"/>
	<g>
		<g>
			<path fill="#FFFFFF" d="M574.621,226.814c-0.521,0.616-0.947,1.342-1.238,2.166h-20.176c-0.316-0.824-0.775-1.547-1.324-2.166
				h-1.953c-0.828,0-1.652-0.24-2.367-0.674h-0.646v2.081c0,0.917,0.6,1.909,1.084,2.333c0.389,0.335,1.205,0.67,1.932,0.67h26.742
				c1.654,0,3.01-1.348,3.01-3.003v-2.569c-0.791,0.721-1.852,1.162-3.01,1.162H574.621L574.621,226.814z"/>
			<path fill="#FFFFFF" d="M576.672,207.318h-26.742c-1.652,0-3.016,1.316-3.016,2.976v12.009c0,0.922,0.6,1.914,1.084,2.34
				c0.389,0.338,1.205,0.677,1.932,0.677h26.742c1.654,0,3.01-1.364,3.01-3.017v-12.009
				C579.686,208.635,578.326,207.318,576.672,207.318z M577.441,218.931c-1.756,0.628-3.338,2.087-4.061,4.142h-20.176
				c-0.76-1.984-2.363-3.44-4.051-4.104v-5.324c1.729-0.633,3.285-2.058,4.035-4.117h20.205c0.723,2.172,2.254,3.543,4.045,4.152
				L577.441,218.931L577.441,218.931z"/>
			<path fill="#FFFFFF" d="M563.273,210.99c-2.932,0-5.314,2.381-5.314,5.316c0,2.938,2.385,5.319,5.314,5.319
				c2.945,0,5.316-2.382,5.316-5.319C568.592,213.371,566.219,210.99,563.273,210.99z M563.717,219.351v0.987h-0.938v-0.919
				c-0.674-0.032-1.312-0.208-1.678-0.423l0.293-1.151c0.408,0.229,0.984,0.435,1.629,0.435c0.551,0,0.934-0.222,0.934-0.609
				c0-0.373-0.311-0.607-1.037-0.855c-1.055-0.353-1.766-0.85-1.766-1.793c0-0.865,0.607-1.549,1.656-1.754v-0.934h0.979v0.868
				c0.635,0.03,1.088,0.166,1.41,0.327l-0.285,1.105c-0.254-0.107-0.705-0.334-1.414-0.334c-0.645,0-0.848,0.279-0.848,0.549
				c0,0.327,0.346,0.535,1.178,0.843c1.176,0.415,1.639,0.958,1.639,1.839C565.469,218.404,564.838,219.151,563.717,219.351z"/>
		</g>
	</g>
	<g>
		<path fill="#FFFFFF" d="M574.057,502.268v21.564h-19.902c-0.916,0-1.664-0.74-1.664-1.662c0-0.91,0.748-1.652,1.664-1.652H572.4
			v-21.562h-18.246c-1.83,0-3.314,1.479-3.314,3.312v19.902c0,1.834,1.484,3.317,3.314,3.317h21.561v-23.222L574.057,502.268
			L574.057,502.268z"/>
	</g>
	<g>
		<g>
			<g>
				<path fill="#FFFFFF" d="M563.285,289.398c-1-1-1-2.625,0-3.627l1.709-1.705c0.486-0.479,1.127-0.748,1.814-0.748
					c0.686,0,1.332,0.268,1.807,0.748l1.199,1.188l0.523-0.524v-4.858c0-1.509-1.232-2.733-2.732-2.733h-2.4
					c-0.479,0-0.895,0.327-1.002,0.791l-1.42,6.025c-0.127,0.555-0.438,1.031-0.855,1.367c0.125-0.676,0.121-1.372-0.018-2.043
					l-1.062-3.947l0.709-1.563c0.137-0.295-0.076-0.631-0.406-0.631h-0.762h-0.756c-0.33,0-0.549,0.336-0.408,0.631l0.701,1.563
					l-1.059,3.947c-0.139,0.671-0.139,1.368-0.014,2.043c-0.424-0.336-0.73-0.813-0.867-1.367l-1.416-6.025
					c-0.1-0.464-0.52-0.791-0.994-0.791h-2.396c-1.512,0-2.744,1.225-2.744,2.733v10.579c0,0.564,0.465,1.027,1.031,1.027h8.92h4.98
					l-0.164-0.166L563.285,289.398z"/>
				<path fill="#FFFFFF" d="M580.58,281.527l-1.705-1.71c-0.299-0.298-0.693-0.444-1.09-0.444c-0.396,0-0.787,0.146-1.084,0.444
					l-6.361,6.371l0,0l-0.523,0.521l-1.922-1.917c-0.293-0.298-0.691-0.446-1.084-0.446c-0.395,0-0.791,0.148-1.092,0.446
					l-1.703,1.707c-0.6,0.599-0.6,1.574,0,2.177l1.916,1.915l0.885,0.892l1.91,1.901c0.299,0.304,0.688,0.447,1.09,0.447
					c0.389,0,0.783-0.146,1.086-0.447l9.682-9.678C581.18,283.102,581.18,282.125,580.58,281.527z"/>
				<path fill="#FFFFFF" d="M556.082,273.914c1.092,1.094,2.586,1.766,4.258,1.766c0.006,0,0.012,0,0.012,0c0.01,0,0.016,0,0.016,0
					c1.67,0,3.17-0.672,4.266-1.766c1.104-1.096,1.793-2.605,1.793-4.285v-3.448c0-1.304-0.92-2.425-2.195-2.685
					c-1.117-0.227-7.336-1.445-8.332-1.617c-0.818-0.145-1.576,0.488-1.576,1.328c0,0,0,1.188,0,2.548
					c-0.018,0.142-0.03,0.278-0.03,0.426v3.448C554.287,271.309,554.975,272.818,556.082,273.914z"/>
			</g>
		</g>
	</g>
	<g>
		<path fill="#FFFFFF" d="M565.693,327.507c1.596,0.813,2.779,2.321,3.135,4.163c0.641,0.236,1.338,0.344,2.059,0.281
			c2.643-0.227,4.6-2.546,4.375-5.188c-0.225-2.646-2.553-4.603-5.193-4.372C567.453,322.615,565.51,324.895,565.693,327.507z
			 M562.566,338.369c2.652,0,4.805-2.146,4.805-4.799c0-2.648-2.15-4.799-4.805-4.799c-2.643,0-4.801,2.148-4.801,4.799
			C557.766,336.223,559.926,338.369,562.566,338.369z M564.605,338.697h-4.076c-3.383,0-6.143,2.758-6.143,6.143v4.979l0.016,0.082
			l0.336,0.104c3.24,1.008,6.047,1.354,8.355,1.354c4.521,0,7.139-1.291,7.299-1.375l0.322-0.164h0.025v-4.979
			C570.748,341.455,567.988,338.697,564.605,338.697z M572.893,333.746h-4.037c-0.045,1.611-0.734,3.068-1.828,4.121
			c3.013,0.893,5.219,3.68,5.219,6.979v1.533c3.984-0.145,6.285-1.279,6.438-1.35l0.32-0.167h0.031v-4.978
			C579.035,336.498,576.279,333.746,572.893,333.746z M553.9,331.893c0.938,0.061,1.828-0.156,2.592-0.576
			c0.338-1.518,1.244-2.803,2.473-3.641c0.006-0.084,0.031-0.178,0.031-0.268c0.17-2.645-1.834-4.926-4.48-5.1
			c-2.637-0.167-4.924,1.843-5.1,4.481C549.254,329.438,551.256,331.725,553.9,331.893z M558.102,337.867
			c-1.086-1.047-1.769-2.498-1.816-4.102c-0.15-0.012-0.307-0.021-0.452-0.021h-4.069c-3.395,0-6.145,2.752-6.145,6.143v4.978
			l0.012,0.082l0.344,0.104c2.592,0.812,4.906,1.187,6.912,1.303v-1.505C552.885,341.547,555.096,338.76,558.102,337.867z"/>
	</g>
	<g>
		<path fill="#FFFFFF" d="M552.971,387.77c0,2.075-1.684,3.75-3.742,3.75c-2.08,0-3.76-1.675-3.76-3.75
			c0.006-2.066,1.68-3.754,3.76-3.754C551.297,384.016,552.971,385.701,552.971,387.77z M569.393,387.77
			c0,2.075,1.674,3.75,3.742,3.75c2.084,0,3.766-1.675,3.766-3.75c0-2.066-1.682-3.754-3.766-3.754
			C571.066,384.016,569.393,385.701,569.393,387.77z M559.107,400.664c-0.082-0.803,0.225-1.541,0.742-2.076
			c-3.176-0.606-4.473-2.158-5.605-3.555c-0.551-0.688-1.078-1.342-1.77-1.801c-0.023-0.016-0.045-0.016-0.064-0.029
			c-0.6-0.491-1.344-0.805-2.174-0.805h-2.029c-1.877,0-3.41,1.536-3.41,3.408v9.457h8.855v-6.111
			c1.293,1.133,3.117,2.21,5.926,2.676C559.344,401.49,559.156,401.105,559.107,400.664z M574.158,392.398h-2.027
			c-0.822,0-1.58,0.312-2.166,0.805c-0.031,0.016-0.055,0.016-0.068,0.029c-0.699,0.459-1.223,1.109-1.773,1.801
			c-1.24,1.536-2.65,3.29-6.586,3.721c-0.889,0.104-1.531,0.906-1.438,1.801c0.09,0.832,0.795,1.445,1.613,1.445
			c0.059,0,0.117-0.005,0.189-0.01c3.332-0.371,5.398-1.561,6.816-2.816v6.092h8.852v-9.457
			C577.57,393.938,576.035,392.398,574.158,392.398z"/>
	</g>
	<g>
		<g id="icons_2_">
			<path fill="#FFFFFF" d="M575.717,97.255c0-4.872-3.949-8.819-8.813-8.819c-2.596,0-4.924,1.115-6.539,2.895
				c-1.614-1.779-3.938-2.895-6.533-2.895c-4.867,0-8.818,3.947-8.818,8.819c0,2.595,1.111,4.921,2.889,6.536l9.584,9.597
				c0.965,0.963,1.918,1.913,2.881,1.913c0.959,0,1.914-0.95,2.875-1.913l9.586-9.597C574.604,102.176,575.717,99.85,575.717,97.255
				z M558.619,109.031c-0.352,0.336-0.889,0.549-1.383,0.549l0,0c-0.365,0-0.668-0.123-0.861-0.35
				c-0.297-0.33-0.311-0.66-0.221-0.943c0.063-0.213-0.076-0.227-0.178-0.213c-0.076,0.014-0.164,0.021-0.248,0.021
				c-0.314,0-0.57-0.117-0.756-0.341c-0.266-0.322-0.256-0.622-0.188-0.89c0.059-0.199-0.104-0.174-0.189-0.158
				c-0.084,0.012-0.16,0.02-0.234,0.02c-0.291,0-0.531-0.112-0.717-0.35c-0.275-0.352-0.244-0.648-0.189-0.916
				c0.027-0.145-0.062-0.156-0.141-0.14c-0.088,0.022-0.176,0.032-0.262,0.032c-0.287,0-0.523-0.113-0.729-0.346
				c-0.516-0.59-0.2-1.555,0.389-2.119c0.291-0.275,0.654-0.42,1.036-0.42c0.36,0,0.694,0.127,0.931,0.379
				c0.209,0.209,0.326,0.499,0.336,0.802c0.012,0.172,0.065,0.216,0.164,0.212c0.324-0.005,0.617,0.146,0.83,0.366
				c0.213,0.208,0.319,0.505,0.332,0.815c0.006,0.099-0.018,0.197,0.137,0.197c0.332-0.004,0.639,0.139,0.859,0.365
				c0.234,0.245,0.322,0.572,0.34,0.922c0.012,0.117,0.026,0.164,0.143,0.18c0.357,0.055,0.677,0.131,0.912,0.371
				c0.234,0.246,0.359,0.567,0.354,0.916C559.08,108.379,558.906,108.756,558.619,109.031z M566.816,105.125
				c-0.195,0.202-0.545,0.373-0.834,0.373c-0.125,0-0.246-0.076-0.363-0.127c-0.139-0.055-0.197,0.043-0.158,0.131
				c0.191,0.379,0.139,0.805-0.172,1.121c-0.199,0.193-0.469,0.305-0.744,0.305c-0.203,0-0.393-0.062-0.566-0.152
				c-0.121-0.076-0.193,0.024-0.162,0.131c0.068,0.344-0.006,0.668-0.271,0.936c-0.201,0.207-0.479,0.314-0.762,0.314
				c-0.193,0-0.379-0.05-0.536-0.145c-0.081-0.047-0.22,0.023-0.22,0.186c0,0.271-0.109,0.548-0.312,0.752
				c-0.207,0.202-0.479,0.314-0.764,0.314c-0.283,0-0.555-0.112-0.758-0.314c-0.146-0.15-0.393-0.417-0.469-0.502
				c-0.006-0.005-0.006-0.014-0.016-0.019c-0.033-0.038-0.045-0.091-0.039-0.14c0.098-0.616-0.076-1.213-0.496-1.637
				c-0.219-0.227-0.492-0.393-0.797-0.48c-0.062-0.016-0.109-0.064-0.119-0.125c-0.074-0.324-0.24-0.627-0.475-0.867
				c-0.215-0.216-0.477-0.379-0.768-0.473c-0.053-0.016-0.1-0.06-0.111-0.113c-0.084-0.309-0.234-0.57-0.455-0.791
				c-0.199-0.219-0.475-0.377-0.756-0.467c-0.062-0.02-0.102-0.068-0.123-0.126c-0.075-0.292-0.227-0.562-0.441-0.791
				c-0.336-0.349-0.846-0.552-1.379-0.552c-0.551,0-1.092,0.213-1.475,0.579c-0.242,0.229-0.414,0.516-0.528,0.835
				c-0.017,0.049-0.05,0.084-0.093,0.104c-0.047,0.02-0.092,0.02-0.137,0c-0.508-0.202-1.08-0.368-1.086-0.377
				c-0.08-0.019-0.129-0.082-0.129-0.166v-7.084c0-0.055,0.021-0.109,0.072-0.145c0.051-0.033,0.104-0.039,0.156-0.02l2.037,0.715
				c0.006,0,0.006,0,0.011,0c0.276,0.109,0.548,0.164,0.817,0.164c0.502,0,0.818-0.197,0.828-0.203
				c0.1-0.067,2.664-1.734,3.961-1.734c1.322,0,1.935,0.758,1.955,0.789c0.033,0.043,0.043,0.092,0.033,0.145
				c-0.006,0.051-0.039,0.087-0.084,0.111c-0.025,0.014-1.877,1.007-2.679,1.555c-0.005,0.003-0.005,0.003-0.005,0.003
				c-0.557,0.347-0.891,0.944-0.891,1.588c0,1.025,0.844,1.862,1.871,1.876c0.188,0,0.592-0.104,1.125-0.381
				c0.006-0.006,0.006-0.006,0.01-0.006c0.41-0.193,1.332-0.701,1.939-0.963c0.616-0.262,0.939-0.237,1.314,0.145
				c0.184,0.174,4.107,4.18,4.119,4.188C567.316,104.004,567.236,104.707,566.816,105.125z M571.117,102.643
				c0,0.082-0.062,0.152-0.141,0.172c-0.057,0.008-2.375,0.508-2.627,0.508c-0.453,0-0.84-0.14-1.135-0.42
				c-0.943-0.917-4.314-4.272-4.354-4.3c-0.006-0.009-0.246-0.234-0.654-0.234c-0.213,0-0.439,0.058-0.666,0.177
				c-0.977,0.521-1.932,1.025-2.428,1.274c-0.232,0.12-0.477,0.186-0.715,0.186c-0.371,0-0.721-0.153-0.992-0.435
				c-0.246-0.248-0.389-0.574-0.389-0.875c0-0.51,0.285-0.936,0.852-1.246c1.238-0.754,3.824-2.202,4.865-2.756
				c0.324-0.178,0.586-0.256,0.844-0.256c0.398,0,0.822,0.207,1.357,0.654c1.088,0.914,2.064,1.76,2.072,1.766
				c0.018,0.005,0.186,0.149,0.484,0.149c0.059,0,0.131-0.011,0.201-0.027c1.236-0.259,3.188-0.698,3.209-0.698
				c0.049-0.017,0.104,0,0.146,0.033c0.041,0.032,0.066,0.084,0.066,0.133v6.195H571.117z"/>
		</g>
	</g>
	<g>
		<g>
			<path fill="#FFFFFF" d="M555.559,457.511l2.676-5.312l1.951,5.816l2.986-9.627l2.361,11.708l2.084-2.581h6.348
				c1.604-2.182,2.504-4.293,2.504-6.585c0-4.356-3.398-7.72-7.783-7.72c-2.402,0-4.807,1.119-6.359,2.943
				c-1.557-1.824-3.955-2.943-6.363-2.943c-4.377,0-7.771,3.361-7.771,7.715c0,1.797,0.553,3.491,1.57,5.191h-2.924v1.394h3.85
				h3.193H555.559L555.559,457.511z"/>
			<path fill="#FFFFFF" d="M577.816,458.907h-9.859l-2.812,3.495l-2.26-8.332l-2.668,6.935l-2.115-5.589l-1.676,3.491h-4.621
				c2.109,2.464,5.027,5.062,8.547,8.146l1.977,1.964l1.98-1.964c2.857-2.505,5.299-4.69,7.254-6.751h6.256L577.816,458.907
				L577.816,458.907z"/>
		</g>
	</g>
</g>
</svg>
