<?xml version="1.0" encoding="utf-8"?>
<!-- Generator: Adobe Illustrator 16.0.0, SVG Export Plug-In . SVG Version: 6.00 Build 0)  -->
<!DOCTYPE svg PUBLIC "-//W3C//DTD SVG 1.1//EN" "http://www.w3.org/Graphics/SVG/1.1/DTD/svg11.dtd">
<svg version="1.1" id="Laag_1" xmlns="http://www.w3.org/2000/svg" xmlns:xlink="http://www.w3.org/1999/xlink" x="0px" y="0px"
	 width="400px" height="250px" viewBox="0 0 400 250" enable-background="new 0 0 400 250" xml:space="preserve">
<g id="afbeelding">
</g>
<g id="iconen">
	<g>
		<g id="icons">
			<path fill="#FFFFFF" d="M273.27,105.194c0-23.565-19.104-42.669-42.668-42.669c-12.528,0-23.795,5.398-31.602,13.996
				c-7.805-8.598-19.071-13.996-31.599-13.996c-23.565,0-42.669,19.104-42.669,42.669c0,12.526,5.399,23.792,13.997,31.599
				l46.346,46.419c4.642,4.642,9.284,9.283,13.925,9.283c4.643,0,9.285-4.642,13.926-9.283l46.346-46.419
				C267.87,128.986,273.27,117.721,273.27,105.194z M190.557,162.159c-1.676,1.599-4.294,2.633-6.67,2.633l0,0
				c-1.783,0-3.233-0.58-4.194-1.676c-1.435-1.619-1.455-3.207-1.052-4.591c0.298-1.024-0.382-1.094-0.832-1.021
				c-0.407,0.065-0.82,0.104-1.233,0.104c-1.521,0-2.748-0.551-3.648-1.643c-1.282-1.564-1.242-3.012-0.902-4.293
				c0.262-0.984-0.496-0.854-0.952-0.771c-0.363,0.063-0.735,0.104-1.112,0.104c-1.398,0-2.561-0.573-3.456-1.707
				c-1.339-1.692-1.19-3.139-0.896-4.419c0.157-0.686-0.352-0.742-0.716-0.669c-0.408,0.085-0.829,0.14-1.26,0.14
				c-1.378,0-2.528-0.549-3.517-1.679c-2.475-2.838-0.953-7.524,1.876-10.239c1.389-1.324,3.171-2.054,5.021-2.054
				c1.742,0,3.343,0.658,4.507,1.854c1,1.027,1.544,2.397,1.621,3.884c0.042,0.819,0.306,1.03,0.804,1.022
				c1.552-0.033,2.965,0.698,3.997,1.748c1.018,1.049,1.552,2.448,1.623,3.961c0.023,0.494-0.1,0.951,0.661,0.947
				c1.611-0.009,3.08,0.676,4.137,1.758c1.158,1.189,1.565,2.793,1.667,4.475c0.034,0.56,0.127,0.789,0.673,0.867
				c1.693,0.242,3.274,0.639,4.402,1.795c1.135,1.17,1.742,2.744,1.71,4.433C192.782,158.982,191.958,160.818,190.557,162.159z
				 M230.225,143.247c-0.98,0.976-2.649,1.795-4.037,1.795c-0.633,0-1.191-0.345-1.795-0.595c-0.633-0.264-0.937,0.197-0.726,0.619
				c0.915,1.83,0.646,3.91-0.849,5.402c-0.963,0.963-2.25,1.496-3.618,1.496c-0.958,0-1.878-0.285-2.701-0.752
				c-0.62-0.352-0.938,0.135-0.831,0.639c0.359,1.668-0.007,3.256-1.295,4.541c-0.98,0.979-2.283,1.516-3.669,1.516
				c-0.931,0-1.823-0.243-2.604-0.696c-0.383-0.222-1.07,0.118-1.07,0.867c0,1.329-0.504,2.655-1.512,3.667
				c-0.981,0.979-2.285,1.518-3.672,1.518c-1.389,0-2.691-0.539-3.667-1.517c-0.735-0.741-1.914-2.038-2.262-2.435
				c-0.03-0.025-0.058-0.055-0.084-0.084c-0.159-0.188-0.229-0.436-0.19-0.678c0.478-2.986-0.394-5.873-2.39-7.925
				c-1.064-1.088-2.4-1.888-3.862-2.313c-0.291-0.086-0.514-0.322-0.582-0.617c-0.363-1.574-1.155-3.024-2.288-4.193
				c-1.014-1.042-2.293-1.822-3.699-2.258c-0.276-0.088-0.488-0.309-0.563-0.588c-0.383-1.456-1.109-2.74-2.158-3.818
				c-1.007-1.04-2.287-1.818-3.699-2.255c-0.277-0.086-0.491-0.31-0.564-0.59c-0.375-1.443-1.101-2.731-2.156-3.828
				c-1.643-1.69-4.073-2.662-6.665-2.662c-2.665,0-5.262,1.019-7.128,2.796c-1.146,1.113-2.008,2.479-2.559,4.049
				c-0.076,0.217-0.238,0.393-0.447,0.485c-0.209,0.097-0.449,0.099-0.661,0.013c-2.457-1.005-5.235-1.812-5.263-1.818
				c-0.358-0.104-0.605-0.434-0.605-0.807V97.943c0-0.271,0.131-0.526,0.353-0.684c0.222-0.157,0.504-0.198,0.762-0.108l9.861,3.434
				c0.013,0.005,0.026,0.01,0.039,0.016c1.317,0.532,2.646,0.804,3.948,0.803c2.431,0,3.979-0.953,3.995-0.963
				c0.515-0.337,12.922-8.419,19.156-8.419c6.391,0,9.358,3.667,9.481,3.823c0.154,0.195,0.214,0.448,0.163,0.691
				c-0.051,0.243-0.208,0.451-0.427,0.567c-0.09,0.049-9.079,4.837-12.937,7.508c-0.011,0.007-0.022,0.014-0.033,0.021
				c-2.687,1.676-4.29,4.541-4.29,7.663c0,4.957,4.066,9.018,9.065,9.05c0.891,0,2.833-0.481,5.421-1.838
				c0.011-0.007,0.022-0.013,0.033-0.017c1.978-0.931,6.469-3.376,9.412-4.647c2.938-1.271,4.527-1.132,6.35,0.689
				c0.861,0.861,19.867,20.222,19.914,20.271C232.637,137.834,232.238,141.23,230.225,143.247z M250.996,131.236
				c0,0.4-0.283,0.746-0.676,0.822c-0.264,0.053-11.483,2.467-12.692,2.467c-2.204,0-4.046-0.694-5.474-2.066
				c-4.576-4.387-20.901-20.619-21.065-20.782c-0.04-0.037-1.188-1.112-3.172-1.112c-1.035,0-2.12,0.298-3.228,0.882
				c-4.72,2.488-9.327,4.955-11.737,6.127c-1.121,0.597-2.292,0.906-3.455,0.906c-1.788,0-3.492-0.739-4.799-2.082
				c-1.183-1.215-1.889-2.805-1.889-4.248c0-2.479,1.388-4.512,4.126-6.043c5.982-3.627,18.514-10.651,23.512-13.306
				c1.621-0.862,2.844-1.23,4.091-1.23c1.959,0,3.985,0.973,6.573,3.15c5.261,4.425,10.011,8.517,10.059,8.558
				c0.021,0.015,0.875,0.688,2.303,0.689c0.321,0,0.652-0.035,0.984-0.105c5.973-1.262,15.423-3.379,15.52-3.398
				c0.248-0.057,0.508,0.003,0.707,0.162c0.197,0.16,0.313,0.4,0.313,0.655L250.996,131.236L250.996,131.236z"/>
		</g>
	</g>
</g>
</svg>
