<?xml version="1.0" encoding="utf-8"?>
<!-- Generator: Adobe Illustrator 16.0.0, SVG Export Plug-In . SVG Version: 6.00 Build 0)  -->
<!DOCTYPE svg PUBLIC "-//W3C//DTD SVG 1.1//EN" "http://www.w3.org/Graphics/SVG/1.1/DTD/svg11.dtd">
<svg version="1.1" xmlns="http://www.w3.org/2000/svg" xmlns:xlink="http://www.w3.org/1999/xlink" x="0px" y="0px" width="400px"
	 height="250px" viewBox="0 0 400 250" enable-background="new 0 0 400 250" xml:space="preserve">
<g id="afbeelding">
</g>
<g id="iconen">
	<rect fill="#7FAE41" width="400" height="250"/>
	<g>
		<g>
			<g>
				<path fill="#FFFFFF" d="M204.059,177.685c-4.834-4.835-4.834-12.701,0-17.536l8.249-8.248c2.342-2.342,5.456-3.632,8.768-3.632
					s6.426,1.29,8.768,3.632l5.763,5.762l2.538-2.537V131.61c0-7.305-5.921-13.226-13.227-13.226h-11.604
					c-2.302,0-4.302,1.584-4.829,3.826l-6.845,29.155c-0.632,2.688-2.145,4.981-4.189,6.607c0.611-3.269,0.591-6.628-0.065-9.896
					l-5.129-19.075l3.424-7.556c0.65-1.435-0.398-3.062-1.974-3.062h-3.674h-3.674c-1.575,0-2.624,1.627-1.974,3.062l3.423,7.556
					l-5.129,19.075c-0.656,3.269-0.675,6.628-0.064,9.896c-2.044-1.626-3.558-3.92-4.189-6.607l-6.846-29.155
					c-0.527-2.242-2.526-3.826-4.829-3.826h-11.604c-7.304,0-13.226,5.921-13.226,13.226v51.164c0,2.739,2.221,4.96,4.959,4.96
					h43.152h24.078l-0.781-0.781L204.059,177.685z"/>
				<path fill="#FFFFFF" d="M287.688,139.612l-8.249-8.249c-1.452-1.453-3.356-2.178-5.261-2.178c-1.903,0-3.808,0.725-5.26,2.178
					l-30.775,30.776l0,0l-2.538,2.536l-9.27-9.268c-1.452-1.453-3.356-2.18-5.26-2.18c-1.904,0-3.809,0.727-5.261,2.18l-8.249,8.247
					c-2.905,2.905-2.905,7.616,0,10.522l9.27,9.269l4.288,4.288l9.221,9.222c1.453,1.452,3.357,2.179,5.261,2.179
					s3.808-0.727,5.261-2.179l46.821-46.821C290.593,147.229,290.593,142.518,287.688,139.612z"/>
				<path fill="#FFFFFF" d="M169.203,102.794c5.251,5.28,12.514,8.546,20.581,8.546c0.027,0,0.055-0.002,0.083-0.002
					s0.055,0.002,0.083,0.002c8.066,0,15.329-3.266,20.581-8.546c5.35-5.296,8.677-12.618,8.677-20.71V65.373
					c0-6.295-4.438-11.719-10.61-12.965c-5.379-1.084-35.5-7.006-40.302-7.83c-3.973-0.683-7.603,2.377-7.603,6.408
					c0,0,0,5.777,0,12.353c-0.103,0.665-0.166,1.344-0.166,2.034v16.711C160.526,90.176,163.853,97.498,169.203,102.794z"/>
			</g>
		</g>
	</g>
</g>
</svg>
