<?xml version="1.0" encoding="utf-8"?>
<!-- Generator: Adobe Illustrator 16.0.0, SVG Export Plug-In . SVG Version: 6.00 Build 0)  -->
<!DOCTYPE svg PUBLIC "-//W3C//DTD SVG 1.1//EN" "http://www.w3.org/Graphics/SVG/1.1/DTD/svg11.dtd">
<svg version="1.1" id="Laag_1" xmlns="http://www.w3.org/2000/svg" xmlns:xlink="http://www.w3.org/1999/xlink" x="0px" y="0px"
	 width="400px" height="250px" viewBox="0 0 400 250" enable-background="new 0 0 400 250" xml:space="preserve">
<g id="afbeelding">
</g>
<g>
	<g>
		<path fill="#FFFFFF" d="M167.256,138.254l12.952-25.691l9.444,28.138l14.45-46.588l11.424,56.638l10.067-12.483l30.71-0.006
			c7.752-10.537,12.084-20.754,12.084-31.859c0-21.047-16.416-37.319-37.613-37.319c-11.623,0-23.25,5.431-30.772,14.243
			c-7.521-8.813-19.15-14.243-30.772-14.243c-21.196,0-37.613,16.272-37.613,37.313c0,8.714,2.703,16.896,7.609,25.105H125.1v6.752
			h18.594h15.461H167.256L167.256,138.254z"/>
		<path fill="#FFFFFF" d="M274.902,145.014h-47.668l-13.621,16.891l-10.904-40.296l-12.927,33.542l-10.218-27.025l-8.107,16.891
			h-22.352c10.187,11.902,24.318,24.486,41.333,39.404l9.563,9.5l9.562-9.5c13.852-12.141,25.66-22.715,35.11-32.65h30.229V145.014
			L274.902,145.014z"/>
	</g>
</g>
</svg>
