<?xml version="1.0" encoding="utf-8"?>
<!-- Generator: Adobe Illustrator 16.0.0, SVG Export Plug-In . SVG Version: 6.00 Build 0)  -->
<!DOCTYPE svg PUBLIC "-//W3C//DTD SVG 1.1//EN" "http://www.w3.org/Graphics/SVG/1.1/DTD/svg11.dtd">
<svg version="1.1" id="Laag_1" xmlns="http://www.w3.org/2000/svg" xmlns:xlink="http://www.w3.org/1999/xlink" x="0px" y="0px"
	 width="400px" height="250px" viewBox="0 0 400 250" enable-background="new 0 0 400 250" xml:space="preserve">
<g id="afbeelding">
</g>
<g id="iconen">
	<path fill="#FFFFFF" d="M272.85,116.473L250.881,67.49c-0.001-0.002-0.001-0.004-0.002-0.004l-0.029-0.064
		c-0.072-0.164-0.16-0.317-0.258-0.465c-0.025-0.04-0.057-0.075-0.084-0.113c-0.087-0.12-0.181-0.234-0.281-0.341
		c-0.041-0.041-0.08-0.083-0.123-0.123c-0.11-0.104-0.229-0.202-0.354-0.292c-0.032-0.023-0.062-0.05-0.096-0.072
		c-0.157-0.104-0.322-0.192-0.495-0.27c-0.05-0.021-0.101-0.037-0.151-0.057c-0.135-0.052-0.273-0.096-0.414-0.129
		c-0.06-0.014-0.117-0.027-0.176-0.038c-0.193-0.035-0.393-0.06-0.594-0.06h-38.764c-0.664-2.064-1.953-3.844-3.639-5.133v-4.818
		c0-1.832-1.484-3.317-3.316-3.317h-6.192c-1.832,0-3.317,1.485-3.317,3.317v4.896c-1.636,1.283-2.885,3.033-3.534,5.056h-38.869
		c-0.202,0-0.399,0.024-0.594,0.06c-0.06,0.01-0.117,0.023-0.175,0.038c-0.142,0.034-0.28,0.076-0.414,0.128
		c-0.051,0.02-0.102,0.036-0.151,0.058c-0.172,0.076-0.338,0.165-0.495,0.27c-0.034,0.022-0.064,0.048-0.096,0.072
		c-0.125,0.089-0.242,0.187-0.354,0.292c-0.042,0.039-0.082,0.082-0.123,0.123c-0.102,0.106-0.194,0.221-0.281,0.341
		c-0.028,0.038-0.058,0.074-0.084,0.113c-0.097,0.147-0.185,0.3-0.258,0.464l-0.029,0.064c0,0.001-0.001,0.003-0.001,0.004
		l-22.046,49.158c-0.373,0.535-0.595,1.186-0.595,1.889c0,14.17,11.528,25.697,25.697,25.697c14.17,0,25.697-11.527,25.697-25.697
		c0-0.703-0.221-1.352-0.595-1.889l-19.979-44.552h33.826c0.668,1.928,1.878,3.599,3.452,4.834v83.183H163.18
		c-1.241,0-2.379,0.691-2.949,1.796l-9.125,17.692c-0.53,1.026-0.486,2.258,0.116,3.246c0.602,0.987,1.675,1.592,2.833,1.592h89.908
		c0.004-0.002,0.008,0,0.014,0c1.832,0,3.316-1.486,3.316-3.318c0-0.648-0.188-1.256-0.51-1.768l-8.998-17.444
		c-0.569-1.104-1.708-1.796-2.949-1.796h-29.415V77.008c1.625-1.242,2.875-2.942,3.558-4.912h33.723l-20.219,45.082
		c-0.006,0.013-0.008,0.024-0.014,0.036c-0.015,0.037-0.025,0.073-0.041,0.109c-0.06,0.152-0.107,0.309-0.144,0.465
		c-0.009,0.041-0.021,0.081-0.029,0.121c-0.036,0.19-0.055,0.383-0.058,0.574c0,0.019-0.006,0.034-0.006,0.053
		c0,14.17,11.529,25.696,25.699,25.696c14.168,0,25.697-11.526,25.697-25.696C273.588,117.752,273.305,117.041,272.85,116.473z
		 M167.385,115.219h-34.381l17.19-38.334L167.385,115.219z M202.932,68.668c0,2.134-1.736,3.87-3.87,3.87
		c-2.135,0-3.87-1.736-3.87-3.87c0-2.134,1.735-3.869,3.87-3.869C201.195,64.798,202.932,66.534,202.932,68.668z M230.633,115.219
		l17.191-38.334l17.191,38.334H230.633z"/>
</g>
</svg>
