<?xml version="1.0" encoding="utf-8"?>
<!-- Generator: Adobe Illustrator 16.0.0, SVG Export Plug-In . SVG Version: 6.00 Build 0)  -->
<!DOCTYPE svg PUBLIC "-//W3C//DTD SVG 1.1//EN" "http://www.w3.org/Graphics/SVG/1.1/DTD/svg11.dtd">
<svg version="1.1" id="Laag_1" xmlns="http://www.w3.org/2000/svg" xmlns:xlink="http://www.w3.org/1999/xlink" x="0px" y="0px"
	 width="3006px" height="3006px" viewBox="0 0 3006 3006" enable-background="new 0 0 3006 3006" xml:space="preserve">
<path d="M1510.934,1394.497l331.174-292.847c8.783-7.765,18.5-11.336,29.153-10.713c10.656,0.621,19.881,5.302,27.675,14.032
	l53.443,59.885c7.792,8.734,11.372,18.403,10.738,29.01c-0.637,10.605-5.342,19.789-14.125,27.554l-421.494,372.714
	c-8.781,7.764-18.5,11.332-29.152,10.711c-10.655-0.621-19.881-5.299-27.675-14.029l-59.266-56.482
	c-7.794-8.734-11.373-18.404-10.738-29.012c0.634-10.603,5.343-19.791,14.123-27.556l60.213-53.244">
<animateTransform  fill="remove" type="rotate" to="0 1503 1503" begin="0s" dur="60s" attributeName="transform" repeatCount="indefinite" from="360 1503 1503" additive="replace" accumulate="none" calcMode="linear" restart="always">
		</animateTransform>
</path>
<path d="M2189.84,2194.618c-93.674,92.752-201.315,163.069-322.921,210.946c-121.61,47.872-244.023,71.572-367.242,71.093
	c-123.218-0.479-245.441-25.133-366.673-73.952c-121.237-48.822-228.325-119.973-321.271-213.45
	c-102.479-103.066-178.129-222.595-226.949-358.581c-48.814-135.988-66.063-275.881-51.749-419.68
	c1.833-10.14,6.652-18.775,14.456-25.908c7.807-7.136,16.49-10.683,26.062-10.646l246.732,0.066
	c11.363,0.64,21.515,5.457,30.451,14.443c8.332,10.775,11.579,21.236,9.745,31.375c-13.548,100.229-4.356,197.562,27.575,291.995
	c31.934,94.438,83.351,177.311,154.251,248.615c61.964,62.321,133.258,109.754,213.88,142.3
	c80.625,32.549,162.208,48.981,244.752,49.307c82.544,0.317,164.252-15.478,245.125-47.396
	c80.875-31.919,152.536-78.797,214.983-140.634c62.446-61.835,109.979-132.979,142.595-213.438
	c32.61-80.456,49.076-161.869,49.396-244.241c0.319-82.37-15.511-163.908-47.494-244.618
	c-31.988-80.706-78.964-152.221-140.928-214.54c-58.391-58.727-125.056-104.5-199.994-137.322
	c-74.939-32.822-153.076-50.587-234.415-53.292l-1.855,246.218c0.457,36.412-16.088,61.121-49.637,74.123
	c-34.147,13.595-63.733,7.812-88.757-17.357L989.573,757.362c-15.491-15.581-23.192-34.71-23.104-57.393
	c0.089-22.684,7.938-41.754,23.551-57.212l403.51-399.555c25.219-24.971,54.852-30.524,88.892-16.664
	c33.442,13.265,49.799,38.1,49.058,74.508l-0.006,231.896c124.398,4.067,244.223,30.796,359.473,80.192
	c115.251,49.396,216.668,118.136,304.252,206.224c92.947,93.479,163.41,200.897,211.387,322.256
	c47.978,121.36,71.729,243.521,71.25,366.483c-0.48,122.96-25.183,244.931-74.102,365.913
	C2354.807,1994.998,2283.514,2101.866,2189.84,2194.618z">
<animateTransform  fill="remove" type="rotate" to="0 1503 1503" begin="0s" dur="7s" attributeName="transform" repeatCount="indefinite" from="360 1503 1503" additive="replace" accumulate="none" calcMode="linear" restart="always">
		</animateTransform>
</path>
<path d="M1423.329,1929.609l0.191-442.081c0.006-11.723,3.771-21.367,11.299-28.931c7.527-7.568,17.146-11.374,28.85-11.424
	l80.264-0.332c11.705-0.046,21.318,3.681,28.84,11.185c7.521,7.506,11.279,17.116,11.272,28.839v434.595
	c-0.006,11.723-3.774,21.365-11.3,28.93c-7.526,7.568-17.144,11.375-28.847,11.426h-81.819
	c-11.706,0.047-21.319-3.682-28.842-11.188c-7.521-7.502-11.279-17.117-11.275-28.838l0.035-80.378">
<animateTransform  fill="remove" type="rotate" to="0 1503 1503" begin="0s" dur="3600s" attributeName="transform" repeatCount="indefinite" from="360 1503 1503" additive="replace" accumulate="none" calcMode="linear" restart="always">
		</animateTransform>
</path>
</svg>
