<?xml version="1.0" encoding="utf-8"?>
<!-- Generator: Adobe Illustrator 16.0.0, SVG Export Plug-In . SVG Version: 6.00 Build 0)  -->
<!DOCTYPE svg PUBLIC "-//W3C//DTD SVG 1.1//EN" "http://www.w3.org/Graphics/SVG/1.1/DTD/svg11.dtd">
<svg version="1.1" xmlns="http://www.w3.org/2000/svg" xmlns:xlink="http://www.w3.org/1999/xlink" x="0px" y="0px" width="400px"
	 height="250px" viewBox="0 0 400 250" enable-background="new 0 0 400 250" xml:space="preserve">
<g id="afbeelding">
</g>
<g id="iconen">
	<rect fill="#DCAA26" width="400" height="250"/>
	<g>
		<path fill="#FFFFFF" d="M150.791,92.68c0,10.031-8.137,18.148-18.124,18.148c-10.045,0-18.163-8.117-18.163-18.148
			c0.011-10.005,8.118-18.14,18.163-18.14C142.665,74.54,150.791,82.675,150.791,92.68z M230.206,92.68
			c0,10.031,8.133,18.148,18.12,18.148c10.054,0,18.185-8.117,18.185-18.148c0-10.005-8.131-18.14-18.185-18.14
			C238.339,74.54,230.206,82.675,230.206,92.68z M180.469,155.031c-0.408-3.86,1.078-7.434,3.596-10.029
			c-15.354-2.932-21.655-10.423-27.124-17.192c-2.668-3.32-5.2-6.482-8.561-8.711c-0.109-0.063-0.221-0.063-0.308-0.145
			c-2.874-2.367-6.507-3.88-10.51-3.88h-9.807c-9.076,0-16.507,7.409-16.507,16.487v45.758h42.83v-29.577
			c6.253,5.473,15.086,10.669,28.667,12.941C181.605,159.032,180.716,157.177,180.469,155.031z M253.262,115.074h-9.836
			c-3.982,0-7.637,1.51-10.474,3.88c-0.115,0.082-0.226,0.082-0.307,0.145c-3.365,2.229-5.904,5.371-8.589,8.711
			c-6.007,7.43-12.814,15.907-31.864,18.018c-4.313,0.494-7.41,4.371-6.934,8.688c0.434,4.024,3.837,6.994,7.802,6.994
			c0.282,0,0.576-0.02,0.887-0.043c16.139-1.79,26.125-7.531,33-13.618v29.472h42.805v-45.758
			C269.749,122.483,262.321,115.074,253.262,115.074z"/>
	</g>
</g>
</svg>
