<?xml version="1.0" encoding="utf-8"?>
<!-- Generator: Adobe Illustrator 16.0.0, SVG Export Plug-In . SVG Version: 6.00 Build 0)  -->
<!DOCTYPE svg PUBLIC "-//W3C//DTD SVG 1.1//EN" "http://www.w3.org/Graphics/SVG/1.1/DTD/svg11.dtd">
<svg version="1.1" xmlns="http://www.w3.org/2000/svg" xmlns:xlink="http://www.w3.org/1999/xlink" x="0px" y="0px" width="400px"
	 height="250px" viewBox="0 0 400 250" enable-background="new 0 0 400 250" xml:space="preserve">
<g id="afbeelding">
</g>
<g id="iconen">
	<rect fill="#20A553" width="400" height="250"/>
	<g>
		<path fill="#FFFFFF" d="M211.053,74.012c7.68,3.949,13.455,11.249,15.15,20.148c3.09,1.134,6.459,1.651,9.958,1.353
			c12.772-1.09,22.241-12.325,21.151-25.094c-1.09-12.773-12.325-22.242-25.098-21.151C219.565,50.351,210.17,61.392,211.053,74.012
			z M195.926,126.558c12.819,0,23.211-10.392,23.211-23.209c0-12.815-10.394-23.205-23.211-23.205
			c-12.816,0-23.212,10.392-23.212,23.209C172.714,116.169,183.11,126.558,195.926,126.558z M205.772,128.144h-19.694
			c-16.386,0-29.716,13.329-29.716,29.715v24.086l0.061,0.377l1.66,0.518c15.637,4.887,29.222,6.515,40.403,6.515
			c21.841,0,34.499-6.226,35.28-6.624l1.551-0.783h0.166v-24.088C235.487,141.473,222.157,128.144,205.772,128.144z
			 M245.871,104.183h-19.542c-0.21,7.817-3.548,14.857-8.827,19.922c14.565,4.331,25.222,17.835,25.222,33.789v7.422
			c19.293-0.707,30.412-6.176,31.145-6.544l1.549-0.785h0.166v-24.093C275.583,117.513,262.252,104.183,245.871,104.183z
			 M154.015,95.22c4.531,0.291,8.832-0.758,12.547-2.782c1.61-7.332,5.995-13.547,11.948-17.591c0.052-0.433,0.12-0.858,0.148-1.297
			c0.822-12.791-8.883-23.827-21.669-24.648c-12.795-0.821-23.827,8.883-24.648,21.674C131.521,83.363,141.22,94.398,154.015,95.22z
			 M174.345,124.104c-5.252-5.037-8.579-12.043-8.822-19.813c-0.725-0.052-1.441-0.109-2.18-0.109h-19.692
			c-16.385,0-29.716,13.33-29.716,29.711v24.088l0.061,0.375l1.66,0.521c12.544,3.919,23.74,5.724,33.464,6.292v-7.275
			C149.124,141.939,159.776,128.439,174.345,124.104z"/>
	</g>
</g>
</svg>
