<?xml version="1.0" encoding="utf-8"?>
<!-- Generator: Adobe Illustrator 16.0.0, SVG Export Plug-In . SVG Version: 6.00 Build 0)  -->
<!DOCTYPE svg PUBLIC "-//W3C//DTD SVG 1.1//EN" "http://www.w3.org/Graphics/SVG/1.1/DTD/svg11.dtd">
<svg version="1.1" xmlns="http://www.w3.org/2000/svg" xmlns:xlink="http://www.w3.org/1999/xlink" x="0px" y="0px" width="400px"
	 height="250px" viewBox="0 0 400 250" enable-background="new 0 0 400 250" xml:space="preserve">
<g id="afbeelding">
</g>
<g id="iconen">
	<rect fill="#DB4C60" width="400" height="250"/>
	<g>
		<g>
			<path fill="#FFFFFF" d="M248.25,157.96c-2.522,2.98-4.609,6.503-6.022,10.495h-97.574c-1.507-3.969-3.717-7.494-6.375-10.495
				h-9.445c-4.023,0-8.01-1.145-11.475-3.254h-3.111v10.063c0,4.445,2.893,9.254,5.245,11.282c1.87,1.621,5.836,3.256,9.341,3.256
				H258.16c8.013,0,14.593-6.533,14.593-14.542v-12.413c-3.868,3.483-8.982,5.604-14.593,5.604h-9.91V157.96z"/>
			<path fill="#FFFFFF" d="M258.16,63.692H128.834c-8.006,0-14.586,6.364-14.586,14.37v58.078c0,4.448,2.889,9.278,5.245,11.324
				c1.87,1.617,5.836,3.256,9.341,3.256H258.16c8.013,0,14.593-6.574,14.593-14.58V78.063
				C272.756,70.057,266.173,63.692,258.16,63.692z M261.894,119.83c-8.503,3.051-16.14,10.085-19.666,20.031h-97.574
				c-3.633-9.586-11.406-16.635-19.551-19.82V94.267c8.325-3.073,15.895-9.95,19.49-19.9h97.726
				c3.512,10.492,10.896,17.149,19.588,20.085v25.379H261.894z"/>
			<path fill="#FFFFFF" d="M193.381,81.438c-14.2,0-25.707,11.508-25.707,25.711c0,14.198,11.507,25.71,25.707,25.71
				c14.203,0,25.71-11.512,25.71-25.71C219.095,92.945,207.583,81.438,193.381,81.438z M195.494,121.865v4.789h-4.525v-4.459
				c-3.256-0.143-6.314-0.997-8.113-2.043l1.406-5.557c1.991,1.093,4.787,2.089,7.868,2.089c2.708,0,4.555-1.05,4.555-2.944
				c0-1.803-1.521-2.941-5.036-4.134c-5.083-1.708-8.537-4.083-8.537-8.692c0-4.178,2.967-7.457,8.036-8.453v-4.525h4.704v4.199
				c3.078,0.142,5.281,0.805,6.845,1.566l-1.389,5.366c-1.235-0.521-3.432-1.614-6.846-1.614c-3.087,0-4.09,1.329-4.09,2.658
				c0,1.567,1.655,2.563,5.695,4.086c5.655,1.995,7.905,4.605,7.905,8.884C203.975,117.307,200.923,120.916,195.494,121.865z"/>
		</g>
	</g>
</g>
</svg>
