<?xml version="1.0" encoding="utf-8"?>
<!-- Generator: Adobe Illustrator 16.0.0, SVG Export Plug-In . SVG Version: 6.00 Build 0)  -->
<!DOCTYPE svg PUBLIC "-//W3C//DTD SVG 1.1//EN" "http://www.w3.org/Graphics/SVG/1.1/DTD/svg11.dtd">
<svg version="1.1" id="Laag_1" xmlns="http://www.w3.org/2000/svg" xmlns:xlink="http://www.w3.org/1999/xlink" x="0px" y="0px"
	 width="1792px" height="1792px" viewBox="0 0 1792 1792" enable-background="new 0 0 1792 1792" xml:space="preserve">
<path fill="#C9C9C4" d="M0,0v1792h1792V0H0z M704,192c0-17.333,6.333-32.333,19-45c12.666-12.666,27.666-19,45-19h256
	c17.333,0,32.333,6.334,45,19c12.666,12.667,19,27.667,19,45v192c0,17.334-6.334,32.334-19,45c-12.667,12.667-27.667,19-45,19H768
	c-17.334,0-32.334-6.333-45-19c-12.667-12.666-19-27.666-19-45V192z M1216,1472c0,17.334-6.334,32.334-19,45
	c-12.667,12.667-27.667,19-45,19H640c-17.334,0-32.334-6.333-45-19c-12.667-12.666-19-27.666-19-45v-128
	c0-17.333,6.333-32.333,19-45c12.666-12.666,27.666-19,45-19h64V896h-64c-17.334,0-32.334-6.333-45-19
	c-12.667-12.666-19-27.666-19-45V704c0-17.333,6.333-32.333,19-45c12.666-12.666,27.666-19,45-19h384c17.333,0,32.333,6.334,45,19
	c12.666,12.667,19,27.667,19,45v576h64c17.333,0,32.333,6.334,45,19c12.666,12.667,19,27.667,19,45V1472z"/>
</svg>
