<?xml version="1.0" encoding="utf-8"?>
<!-- Generator: Adobe Illustrator 16.0.0, SVG Export Plug-In . SVG Version: 6.00 Build 0)  -->
<!DOCTYPE svg PUBLIC "-//W3C//DTD SVG 1.1//EN" "http://www.w3.org/Graphics/SVG/1.1/DTD/svg11.dtd">
<svg version="1.1" id="Laag_1" xmlns="http://www.w3.org/2000/svg" xmlns:xlink="http://www.w3.org/1999/xlink" x="0px" y="0px"
	 width="400px" height="250px" viewBox="0 0 400 250" enable-background="new 0 0 400 250" xml:space="preserve">
<g id="afbeelding">
</g>
<g id="iconen">
	<g>
		<g>
			<path fill="#FFFFFF" d="M208.615,145.491c0,1.786-1.448,3.237-3.236,3.237h-16.185c-1.787,0-3.237-1.451-3.237-3.237v-11.37
				l-59.882-13.604v54.209c0,3.576,2.899,6.475,6.473,6.475h129.478c3.574,0,6.473-2.898,6.473-6.475v-54.155l-59.883,13.557
				V145.491L208.615,145.491z"/>
			<path fill="#FFFFFF" d="M262.025,84.094H132.548c-3.574,0-6.473,2.899-6.473,6.474v21.654l59.882,13.602v-6.226
				c0-1.788,1.45-3.238,3.236-3.238h16.185c1.789,0,3.237,1.45,3.237,3.238v6.233l59.883-13.557V90.567
				C268.498,86.993,265.6,84.094,262.025,84.094z"/>
			<path fill="#FFFFFF" d="M172.308,69.067c0-4.837,3.935-8.771,8.769-8.771h32.418c4.836,0,8.771,3.935,8.771,8.771v8.55h7.612
				v-8.55c0-9.032-7.349-16.382-16.383-16.382h-32.418c-9.032,0-16.382,7.35-16.382,16.382v8.55h7.613V69.067L172.308,69.067z"/>
		</g>
	</g>
</g>
</svg>
