<?xml version="1.0" encoding="utf-8"?>
<!-- Generator: Adobe Illustrator 16.0.0, SVG Export Plug-In . SVG Version: 6.00 Build 0)  -->
<!DOCTYPE svg PUBLIC "-//W3C//DTD SVG 1.1//EN" "http://www.w3.org/Graphics/SVG/1.1/DTD/svg11.dtd">
<svg version="1.1" id="Laag_1" xmlns="http://www.w3.org/2000/svg" xmlns:xlink="http://www.w3.org/1999/xlink" x="0px" y="0px"
	 width="1792px" height="1792px" viewBox="0 0 1792 1792" enable-background="new 0 0 1792 1792" xml:space="preserve">
<path fill="#C9C9C4" d="M0,0v1792h1792V0H0z M1088,1496c0,10.668-4,20-12,28s-17.334,12-28,12H808c-10.668,0-20-4-28-12
	s-12-17.332-12-28v-240c0-10.666,4-20,12-28s17.332-12,28-12h240c10.666,0,20,4,28,12s12,17.334,12,28V1496z M1388.5,757
	c-10.334,31.334-22,56.834-35,76.5c-13,19.668-31.334,39.5-55,59.5c-23.668,20-42.834,34.5-57.5,43.5c-14.668,9-35,20.834-61,35.5
	c-27.334,15.334-50.168,37-68.5,65c-18.334,28-27.5,50.334-27.5,67c0,11.334-4,22.168-12,32.5c-8,10.334-17.334,15.5-28,15.5H804
	c-10,0-18.5-6.166-25.5-18.5c-7-12.332-10.5-24.832-10.5-37.5v-45c0-55.332,21.666-107.5,65-156.5c43.332-49,91-85.166,143-108.5
	c39.332-18,67.332-36.666,84-56c16.666-19.332,25-44.666,25-76c0-28-15.5-52.666-46.5-74c-31-21.332-66.834-32-107.5-32
	c-43.334,0-79.334,9.668-108,29c-23.334,16.668-59,55-107,115c-8.668,10.668-19,16-31,16c-8,0-16.334-2.666-25-8L496,575
	c-8.668-6.666-13.834-15-15.5-25c-1.668-10,0.165-19.332,5.5-28c106.666-177.332,261.332-266,464-266c53.332,0,107,10.334,161,31
	c54,20.668,102.666,48.334,146,83c43.332,34.668,78.666,77.168,106,127.5c27.332,50.334,41,103.168,41,158.5
	C1404,692,1398.832,725.668,1388.5,757z"/>
</svg>
